<svg width="24" height="24" viewBox="0 0 24 24" fill="none" xmlns="http://www.w3.org/2000/svg">
<path d="M12 2.25C17.3848 2.25 21.75 6.61522 21.75 12C21.75 17.3848 17.3848 21.75 12 21.75C6.61522 21.75 2.25 17.3848 2.25 12C2.25 6.61522 6.61522 2.25 12 2.25ZM12 3.75C7.44365 3.75 3.75 7.44365 3.75 12C3.75 16.5563 7.44365 20.25 12 20.25C16.5563 20.25 20.25 16.5563 20.25 12C20.25 7.44365 16.5563 3.75 12 3.75ZM7 8.25C7.41421 8.25 7.75 8.58579 7.75 9V15C7.75 15.4142 7.41421 15.75 7 15.75C6.58579 15.75 6.25 15.4142 6.25 15V9C6.25 8.58579 6.58579 8.25 7 8.25ZM11.5 8.25C12.7426 8.25 13.75 9.25736 13.75 10.5C13.75 11.077 13.531 11.6017 13.1738 12C13.531 12.3983 13.75 12.923 13.75 13.5C13.75 14.7426 12.7426 15.75 11.5 15.75C10.2574 15.75 9.25 14.7426 9.25 13.5C9.25 12.9232 9.46831 12.3982 9.8252 12C9.46831 11.6018 9.25 11.0768 9.25 10.5C9.25 9.25736 10.2574 8.25 11.5 8.25ZM11.5 12.75C11.0858 12.75 10.75 13.0858 10.75 13.5C10.75 13.9142 11.0858 14.25 11.5 14.25C11.9142 14.25 12.25 13.9142 12.25 13.5C12.25 13.0858 11.9142 12.75 11.5 12.75ZM17 9.75C17.4142 9.75 17.75 10.0858 17.75 10.5V11.25H18.5C18.9142 11.25 19.25 11.5858 19.25 12C19.25 12.4142 18.9142 12.75 18.5 12.75H17.75V13.5C17.75 13.9142 17.4142 14.25 17 14.25C16.5858 14.25 16.25 13.9142 16.25 13.5V12.75H15.5C15.0858 12.75 14.75 12.4142 14.75 12C14.75 11.5858 15.0858 11.25 15.5 11.25H16.25V10.5C16.25 10.0858 16.5858 9.75 17 9.75ZM11.5 9.75C11.0858 9.75 10.75 10.0858 10.75 10.5C10.75 10.9142 11.0858 11.25 11.5 11.25C11.9142 11.25 12.25 10.9142 12.25 10.5C12.25 10.0858 11.9142 9.75 11.5 9.75Z" fill="#00090A"/>
</svg>
