<svg width="24" height="24" viewBox="0 0 24 24" fill="none" xmlns="http://www.w3.org/2000/svg">
<path fill-rule="evenodd" clip-rule="evenodd" d="M4 4.25C3.0335 4.25 2.25 5.0335 2.25 6V9C2.25 9.9665 3.0335 10.75 4 10.75H20C20.9665 10.75 21.75 9.9665 21.75 9V6C21.75 5.0335 20.9665 4.25 20 4.25H4ZM3.75 6C3.75 5.86193 3.86193 5.75 4 5.75H20C20.1381 5.75 20.25 5.86193 20.25 6V9C20.25 9.13807 20.1381 9.25 20 9.25H4C3.86193 9.25 3.75 9.13807 3.75 9V6ZM4 13.25C3.0335 13.25 2.25 14.0335 2.25 15V18C2.25 18.9665 3.0335 19.75 4 19.75H20C20.9665 19.75 21.75 18.9665 21.75 18V15C21.75 14.0335 20.9665 13.25 20 13.25H4ZM3.75 15C3.75 14.8619 3.86193 14.75 4 14.75H20C20.1381 14.75 20.25 14.8619 20.25 15V18C20.25 18.1381 20.1381 18.25 20 18.25H4C3.86193 18.25 3.75 18.1381 3.75 18V15Z" fill="#00090A"/>
</svg>
