<svg width="24" height="24" viewBox="0 0 24 24" fill="none" xmlns="http://www.w3.org/2000/svg">
<path d="M4.00012 4.25C3.03362 4.25 2.25012 5.0335 2.25012 6V9C2.25012 9.9665 3.03362 10.75 4.00012 10.75H20.0001C20.9666 10.75 21.7501 9.9665 21.7501 9V6C21.7501 5.0335 20.9666 4.25 20.0001 4.25H4.00012Z" fill="#00090A"/>
<path d="M4.00012 13.25C3.03362 13.25 2.25012 14.0335 2.25012 15V18C2.25012 18.9665 3.03362 19.75 4.00012 19.75H20.0001C20.9666 19.75 21.7501 18.9665 21.7501 18V15C21.7501 14.0335 20.9666 13.25 20.0001 13.25H4.00012Z" fill="#00090A"/>
</svg>
