<svg width="24" height="24" viewBox="0 0 24 24" fill="none" xmlns="http://www.w3.org/2000/svg">
<path d="M9 13.2793C9.95057 13.2793 10.7207 14.0494 10.7207 15V19C10.7207 19.9506 9.95057 20.7207 9 20.7207H5C4.04943 20.7207 3.2793 19.9506 3.2793 19V15C3.2793 14.0494 4.04943 13.2793 5 13.2793H9ZM19 13.2793C19.9506 13.2793 20.7207 14.0494 20.7207 15V19C20.7207 19.9506 19.9506 20.7207 19 20.7207H15C14.0494 20.7207 13.2793 19.9506 13.2793 19V15C13.2793 14.0494 14.0494 13.2793 15 13.2793H19ZM5 14.7207C4.846 14.7207 4.7207 14.846 4.7207 15V19C4.7207 19.154 4.846 19.2793 5 19.2793H9C9.154 19.2793 9.2793 19.154 9.2793 19V15C9.2793 14.846 9.154 14.7207 9 14.7207H5ZM15 14.7207C14.846 14.7207 14.7207 14.846 14.7207 15V19C14.7207 19.154 14.846 19.2793 15 19.2793H19C19.154 19.2793 19.2793 19.154 19.2793 19V15C19.2793 14.846 19.154 14.7207 19 14.7207H15ZM17 3.25C17.4142 3.25 17.75 3.58579 17.75 4V6.25H20C20.4142 6.25 20.75 6.58579 20.75 7C20.75 7.41421 20.4142 7.75 20 7.75H17.75V10C17.75 10.4142 17.4142 10.75 17 10.75C16.5858 10.75 16.25 10.4142 16.25 10V7.75H14C13.5858 7.75 13.25 7.41421 13.25 7C13.25 6.58579 13.5858 6.25 14 6.25H16.25V4C16.25 3.58579 16.5858 3.25 17 3.25ZM9 3.2793C9.95057 3.2793 10.7207 4.04943 10.7207 5V9C10.7207 9.95057 9.95057 10.7207 9 10.7207H5C4.04943 10.7207 3.2793 9.95057 3.2793 9V5C3.2793 4.04943 4.04943 3.2793 5 3.2793H9ZM5 4.7207C4.846 4.7207 4.7207 4.846 4.7207 5V9C4.7207 9.154 4.846 9.2793 5 9.2793H9C9.154 9.2793 9.2793 9.154 9.2793 9V5C9.2793 4.846 9.154 4.7207 9 4.7207H5Z" fill="#00090A"/>
</svg>
