<svg width="24" height="24" viewBox="0 0 24 24" fill="none" xmlns="http://www.w3.org/2000/svg">
<path d="M12.4697 5.46967C12.7626 5.17678 13.2374 5.17678 13.5303 5.46967L19.5303 11.4697C19.5787 11.5181 19.616 11.5731 19.6484 11.6298C19.664 11.657 19.6803 11.6837 19.6924 11.7128C19.7131 11.7628 19.7279 11.8145 19.7373 11.8671C19.745 11.9103 19.75 11.9546 19.75 11.9999C19.75 12.044 19.7446 12.0869 19.7373 12.1288C19.7279 12.1832 19.7129 12.2365 19.6914 12.288C19.6841 12.3055 19.6736 12.3211 19.665 12.3378C19.6301 12.4065 19.5877 12.4728 19.5303 12.5302L13.5303 18.5302C13.2374 18.8231 12.7626 18.8231 12.4697 18.5302C12.1768 18.2373 12.1768 17.7626 12.4697 17.4697L17.1895 12.7499H5C4.58579 12.7499 4.25 12.4142 4.25 11.9999C4.25 11.5857 4.58579 11.2499 5 11.2499H17.1895L12.4697 6.53022C12.1768 6.23732 12.1768 5.76256 12.4697 5.46967Z" fill="#00090A"/>
</svg>
