<svg width="24" height="24" viewBox="0 0 24 24" fill="none" xmlns="http://www.w3.org/2000/svg">
<path fill-rule="evenodd" clip-rule="evenodd" d="M2.25 21.0002C2.25 20.586 2.58579 20.2502 3 20.2502H21C21.4142 20.2502 21.75 20.586 21.75 21.0002C21.75 21.4144 21.4142 21.7502 21 21.7502H3C2.58579 21.7502 2.25 21.4144 2.25 21.0002Z" fill="#00090A"/>
<path fill-rule="evenodd" clip-rule="evenodd" d="M2.25 9.99982C2.25 9.5856 2.58579 9.24982 3 9.24982H21C21.4142 9.24982 21.75 9.5856 21.75 9.99982C21.75 10.414 21.4142 10.7498 21 10.7498H3C2.58579 10.7498 2.25 10.414 2.25 9.99982Z" fill="#00090A"/>
<path fill-rule="evenodd" clip-rule="evenodd" d="M11.7048 2.31064C11.8934 2.22979 12.107 2.22979 12.2956 2.31064L19.2956 5.31064C19.6764 5.47381 19.8527 5.91472 19.6896 6.29544C19.5264 6.67616 19.0855 6.85253 18.7048 6.68936L12.0002 3.81598L5.29563 6.68936C4.91491 6.85253 4.474 6.67616 4.31083 6.29544C4.14767 5.91472 4.32403 5.47381 4.70475 5.31064L11.7048 2.31064Z" fill="#00090A"/>
<path fill-rule="evenodd" clip-rule="evenodd" d="M4 9.25018C4.41421 9.25018 4.75 9.58597 4.75 10.0002V21.0002C4.75 21.4144 4.41421 21.7502 4 21.7502C3.58579 21.7502 3.25 21.4144 3.25 21.0002V10.0002C3.25 9.58597 3.58579 9.25018 4 9.25018Z" fill="#00090A"/>
<path fill-rule="evenodd" clip-rule="evenodd" d="M20 9.25018C20.4142 9.25018 20.75 9.58597 20.75 10.0002V21.0002C20.75 21.4144 20.4142 21.7502 20 21.7502C19.5858 21.7502 19.25 21.4144 19.25 21.0002V10.0002C19.25 9.58597 19.5858 9.25018 20 9.25018Z" fill="#00090A"/>
<path fill-rule="evenodd" clip-rule="evenodd" d="M8 13.2498C8.41421 13.2498 8.75 13.5856 8.75 13.9998V16.9998C8.75 17.414 8.41421 17.7498 8 17.7498C7.58579 17.7498 7.25 17.414 7.25 16.9998V13.9998C7.25 13.5856 7.58579 13.2498 8 13.2498Z" fill="#00090A"/>
<path fill-rule="evenodd" clip-rule="evenodd" d="M12 13.2498C12.4142 13.2498 12.75 13.5856 12.75 13.9998V16.9998C12.75 17.414 12.4142 17.7498 12 17.7498C11.5858 17.7498 11.25 17.414 11.25 16.9998V13.9998C11.25 13.5856 11.5858 13.2498 12 13.2498Z" fill="#00090A"/>
<path fill-rule="evenodd" clip-rule="evenodd" d="M16 13.2498C16.4142 13.2498 16.75 13.5856 16.75 13.9998V16.9998C16.75 17.414 16.4142 17.7498 16 17.7498C15.5858 17.7498 15.25 17.414 15.25 16.9998V13.9998C15.25 13.5856 15.5858 13.2498 16 13.2498Z" fill="#00090A"/>
</svg>
