<svg width="24" height="24" viewBox="0 0 24 24" fill="none" xmlns="http://www.w3.org/2000/svg">
<path d="M11.9998 2.25C13.3543 2.25 14.4802 3.22935 14.7078 4.51855C17.0801 5.8071 18.6213 8.24729 18.7488 10.9648C18.7494 10.9766 18.7498 10.9883 18.7498 11V13.9521C18.8852 14.959 19.4845 15.8462 20.3699 16.3477C20.6661 16.5156 20.8122 16.8622 20.7254 17.1914C20.6385 17.5206 20.3403 17.75 19.9998 17.75H15.7498V18C15.7498 20.0711 14.0709 21.75 11.9998 21.75C9.92883 21.7499 8.24982 20.071 8.24982 18V17.75H3.99982C3.65944 17.7499 3.3621 17.5205 3.27521 17.1914C3.18842 16.862 3.33428 16.5155 3.63068 16.3477C4.51612 15.8462 5.11447 14.959 5.24982 13.9521V11C5.24982 10.9883 5.25024 10.9766 5.25079 10.9648C5.37835 8.24736 6.91962 5.80713 9.29181 4.51855C9.51944 3.22939 10.6454 2.25012 11.9998 2.25Z" fill="#00090A"/>
</svg>
