<svg width="24" height="24" viewBox="0 0 24 24" fill="none" xmlns="http://www.w3.org/2000/svg">
<path d="M14.4862 5.25C15.8723 5.25019 16.9498 6.40754 16.95 7.77734V22C16.95 22.2788 16.7955 22.5345 16.5487 22.6641C16.3017 22.7936 16.0026 22.7758 15.7733 22.6172L13.7264 21.2012L12.4539 22.5205C12.3126 22.667 12.1175 22.75 11.9139 22.75C11.7105 22.7499 11.5161 22.6669 11.3748 22.5205L10.2 21.3027L9.02521 22.5205C8.88395 22.6669 8.68958 22.7499 8.48615 22.75C8.28253 22.75 8.08746 22.6671 7.94611 22.5205L6.67365 21.2012L4.63459 22.6113C4.57109 22.6565 4.49969 22.6921 4.42365 22.7158C4.2326 22.7756 4.02596 22.7554 3.85138 22.6641C3.67728 22.5725 3.54373 22.4144 3.4842 22.2236C3.4604 22.1474 3.44897 22.0683 3.45002 21.9902V7.77734C3.45025 6.40758 4.5278 5.25027 5.91388 5.25H14.4862ZM5.91388 6.75C5.40712 6.75028 4.95024 7.18419 4.95002 7.77734V20.5693L6.34455 19.6055C6.64669 19.3966 7.05628 19.4369 7.31135 19.7012L8.48615 20.9199L9.65998 19.7012C9.80131 19.5547 9.99646 19.4727 10.2 19.4727C10.4036 19.4727 10.5987 19.5547 10.7401 19.7012L11.9139 20.9199L13.0887 19.7012C13.3438 19.4368 13.7533 19.3966 14.0555 19.6055L15.45 20.5693V7.77734C15.4498 7.18413 14.993 6.7502 14.4862 6.75H5.91388ZM16.4998 1.75C18.026 1.75 19.1196 2.3687 19.8143 3.24707C20.4869 4.09781 20.7518 5.14557 20.7518 6V18C20.7518 18.3033 20.5691 18.5773 20.2889 18.6934C20.0087 18.8094 19.686 18.7447 19.4715 18.5303L17.9715 17.0303C17.6786 16.7374 17.6786 16.2626 17.9715 15.9697C18.2644 15.6769 18.7392 15.6769 19.032 15.9697L19.2518 16.1895V6C19.2518 5.42119 19.066 4.71863 18.6385 4.17773C18.2328 3.66464 17.5748 3.25 16.4998 3.25H9.99982C9.52856 3.25005 9.23543 3.33498 9.05158 3.43457C8.87761 3.52883 8.75918 3.65813 8.67072 3.83496C8.48549 4.20542 8.03533 4.35609 7.66486 4.1709C7.29456 3.98575 7.14411 3.53542 7.32892 3.16504C7.54041 2.74207 7.86482 2.37093 8.33674 2.11523C8.79883 1.86491 9.35587 1.75005 9.99982 1.75H16.4998ZM10.075 7.75C10.4892 7.75 10.825 8.08579 10.825 8.5V9.10059H11.1912C12.1437 9.0793 13.12 9.44694 13.6844 10.1807C13.9367 10.5089 13.8756 10.9799 13.5477 11.2324C13.2194 11.4848 12.7485 11.4237 12.4959 11.0957C12.2871 10.8241 11.8139 10.5856 11.2186 10.6006H9.10041C8.66715 10.6006 8.30344 10.7336 8.06525 10.9121C7.82729 11.0905 7.74982 11.2801 7.74982 11.4258C7.74991 11.5714 7.82747 11.7602 8.06525 11.9385C8.30344 12.1171 8.66705 12.25 9.10041 12.25H11.2C11.9264 12.25 12.6127 12.4701 13.1346 12.8613C13.6566 13.2527 14.0495 13.8505 14.0496 14.5742C14.0496 15.2981 13.6567 15.8966 13.1346 16.2881C12.6128 16.6793 11.9264 16.8994 11.2 16.8994H10.825V17.5C10.8249 17.9141 10.4892 18.25 10.075 18.25C9.66086 18.25 9.32511 17.9141 9.32502 17.5V16.8994H9.1092C8.15649 16.9207 7.17941 16.5533 6.61506 15.8193C6.36266 15.491 6.42459 15.0201 6.75275 14.7676C7.08101 14.5152 7.55197 14.5762 7.80451 14.9043C8.01333 15.1759 8.48564 15.4144 9.08088 15.3994H11.2C11.6334 15.3994 11.997 15.2665 12.2352 15.0879C12.4731 14.9095 12.5496 14.7199 12.5496 14.5742C12.5495 14.4286 12.4728 14.2397 12.2352 14.0615C11.997 13.8829 11.6334 13.75 11.2 13.75H9.10041C8.37397 13.75 7.68672 13.53 7.16486 13.1387C6.64302 12.7473 6.24992 12.1494 6.24982 11.4258C6.24982 10.702 6.64285 10.1034 7.16486 9.71191C7.68672 9.32063 8.37397 9.10059 9.10041 9.10059H9.32502V8.5C9.32502 8.08579 9.6608 7.75 10.075 7.75Z" fill="#00090A"/>
</svg>
