<svg width="24" height="24" viewBox="0 0 24 24" fill="none" xmlns="http://www.w3.org/2000/svg">
<path fill-rule="evenodd" clip-rule="evenodd" d="M7 20.25C6.30964 20.25 5.75 19.6904 5.75 19V5C5.75 4.30964 6.30964 3.75 7 3.75H17C17.6904 3.75 18.25 4.30964 18.25 5V9.23603C18.25 9.65024 18.5858 9.98603 19 9.98603C19.4142 9.98603 19.75 9.65024 19.75 9.23603V5C19.75 3.48122 18.5188 2.25 17 2.25H7C5.48122 2.25 4.25 3.48122 4.25 5V19C4.25 20.5188 5.48122 21.75 7 21.75H10C10.4142 21.75 10.75 21.4142 10.75 21C10.75 20.5858 10.4142 20.25 10 20.25H7Z" fill="#00090A"/>
<path fill-rule="evenodd" clip-rule="evenodd" d="M15.9995 12.3736C14.8508 12.3736 13.9197 13.3047 13.9197 14.4534C13.9197 15.602 14.8508 16.5332 15.9995 16.5332C17.1481 16.5332 18.0793 15.602 18.0793 14.4534C18.0793 13.3047 17.1481 12.3736 15.9995 12.3736ZM12.4197 14.4534C12.4197 12.4763 14.0224 10.8736 15.9995 10.8736C17.9765 10.8736 19.5793 12.4763 19.5793 14.4534C19.5793 16.4305 17.9765 18.0332 15.9995 18.0332C14.0224 18.0332 12.4197 16.4305 12.4197 14.4534Z" fill="#00090A"/>
<path fill-rule="evenodd" clip-rule="evenodd" d="M14.8001 16.5654C15.1968 16.6844 15.422 17.1025 15.3029 17.4993L14.3868 20.553L15.6641 19.9144C15.8752 19.8088 16.1237 19.8088 16.3349 19.9144L17.6121 20.553L16.696 17.4993C16.577 17.1025 16.8021 16.6844 17.1989 16.5654C17.5956 16.4463 18.0137 16.6715 18.1327 17.0682L19.5476 21.7846C19.6336 22.0712 19.541 22.3815 19.312 22.5741C19.0831 22.7667 18.7615 22.8047 18.4939 22.6709L15.9995 21.4237L13.5051 22.6709C13.2374 22.8047 12.9159 22.7667 12.6869 22.5741C12.4579 22.3815 12.3653 22.0712 12.4513 21.7846L13.8662 17.0682C13.9852 16.6715 14.4033 16.4463 14.8001 16.5654Z" fill="#00090A"/>
<path fill-rule="evenodd" clip-rule="evenodd" d="M8.25 10.4435C8.25 10.0293 8.58579 9.69347 9 9.69347H10.7918C11.206 9.69347 11.5418 10.0293 11.5418 10.4435C11.5418 10.8577 11.206 11.1935 10.7918 11.1935H9C8.58579 11.1935 8.25 10.8577 8.25 10.4435Z" fill="#00090A"/>
<path fill-rule="evenodd" clip-rule="evenodd" d="M15.75 7.19588C15.75 6.78166 15.4142 6.44588 15 6.44588H9C8.58579 6.44588 8.25 6.78166 8.25 7.19588C8.25 7.61009 8.58579 7.94588 9 7.94588H15C15.4142 7.94588 15.75 7.61009 15.75 7.19588Z" fill="#00090A"/>
</svg>
