<svg width="24" height="24" viewBox="0 0 24 24" fill="none" xmlns="http://www.w3.org/2000/svg">
<path d="M19 3.25C19.4142 3.25 19.75 3.58579 19.75 4V20C19.75 20.4142 19.4142 20.75 19 20.75H7C5.48122 20.75 4.25 19.5188 4.25 18V6C4.25 4.48122 5.48122 3.25 7 3.25H19ZM7 16.75C6.30964 16.75 5.75 17.3096 5.75 18C5.75 18.6904 6.30964 19.25 7 19.25H18.25V16.75H7ZM7 4.75C6.30964 4.75 5.75 5.30964 5.75 6V15.5527C6.12532 15.3606 6.54942 15.25 7 15.25H18.25V4.75H7ZM15 7.25C15.4142 7.25 15.75 7.58579 15.75 8C15.75 8.41421 15.4142 8.75 15 8.75H9C8.58579 8.75 8.25 8.41421 8.25 8C8.25 7.58579 8.58579 7.25 9 7.25H15Z" fill="#00090A"/>
</svg>
