<svg width="24" height="24" viewBox="0 0 24 24" fill="none" xmlns="http://www.w3.org/2000/svg">
<path fill-rule="evenodd" clip-rule="evenodd" d="M2.25 6.5C2.25 4.42893 3.92893 2.75 6 2.75H18C20.0711 2.75 21.75 4.42893 21.75 6.5V17.5C21.75 19.5711 20.0711 21.25 18 21.25H6C3.92893 21.25 2.25 19.5711 2.25 17.5V6.5ZM6 4.25C4.75736 4.25 3.75 5.25736 3.75 6.5V17.5C3.75 18.7426 4.75736 19.75 6 19.75H18C19.2426 19.75 20.25 18.7426 20.25 17.5V6.5C20.25 5.25736 19.2426 4.25 18 4.25H6Z" fill="#00090A"/>
<path d="M11.25 20V12.75H4C3.58579 12.75 3.25 12.4142 3.25 12C3.25 11.5858 3.58579 11.25 4 11.25H11.25V4C11.25 3.58579 11.5858 3.25 12 3.25C12.4142 3.25 12.75 3.58579 12.75 4V11.25H20C20.4142 11.25 20.75 11.5858 20.75 12C20.75 12.4142 20.4142 12.75 20 12.75H12.75V20C12.75 20.4142 12.4142 20.75 12 20.75C11.5858 20.75 11.25 20.4142 11.25 20Z" fill="#00090A"/>
<path d="M9.09668 15.8409L9.21777 15.8525C9.49115 15.9077 9.69629 16.1466 9.69629 16.4328C9.69629 16.76 9.42805 17.0248 9.09668 17.0248H6C5.66863 17.0248 5.40039 16.76 5.40039 16.4328C5.40039 16.1057 5.66863 15.8409 6 15.8409H9.09668ZM6.94824 9.02878V8.13991H6C5.66863 8.13991 5.40039 7.8751 5.40039 7.54797C5.40039 7.22084 5.66863 6.95603 6 6.95603H6.94824V6.06716C6.94824 5.74003 7.21746 5.47522 7.54883 5.47522C7.88 5.47546 8.14844 5.74017 8.14844 6.06716V6.95603H9.09668L9.21777 6.9676C9.49115 7.02286 9.69629 7.26175 9.69629 7.54797C9.69629 7.8751 9.42805 8.13991 9.09668 8.13991H8.14844V9.02878C8.14844 9.35577 7.88 9.62049 7.54883 9.62072C7.21746 9.62072 6.94824 9.35592 6.94824 9.02878ZM16.0947 9.08374C15.8567 9.31135 15.4767 9.3052 15.2461 9.07024C15.016 8.83533 15.0221 8.46092 15.2598 8.23343L16.0947 9.08374ZM17.583 6.01221C17.821 5.7847 18.2001 5.79078 18.4307 6.0257C18.6611 6.26067 18.655 6.63494 18.417 6.86252L17.7002 7.54797L18.417 8.23343L18.4961 8.32501C18.6533 8.55243 18.6322 8.86472 18.4307 9.07024C18.2288 9.27592 17.9131 9.30632 17.6777 9.15797L17.583 9.08374L16.8379 8.37129L16.0947 9.08374L15.6777 8.65858L15.2598 8.23343L15.9766 7.54797L15.2598 6.86252C15.0221 6.63502 15.016 6.26062 15.2461 6.0257C15.4767 5.79074 15.8567 5.78459 16.0947 6.01221L16.8379 6.72369L17.583 6.01221Z" fill="#00090A"/>
<circle cx="16.6504" cy="18" r="0.75" fill="#00090A"/>
<circle cx="16.6504" cy="15" r="0.75" fill="#00090A"/>
</svg>
