<svg width="24" height="24" viewBox="0 0 24 24" fill="none" xmlns="http://www.w3.org/2000/svg">
<path d="M18 13.25C20.6232 13.2501 22.75 15.3767 22.75 18C22.75 20.6233 20.6232 22.7499 18 22.75C15.3766 22.75 13.25 20.6234 13.25 18C13.25 15.3766 15.3766 13.25 18 13.25ZM15.8916 2.01562C16.3057 2.01576 16.6416 2.35149 16.6416 2.76562V3.96094H17.7559C19.8267 3.96105 21.5056 5.64013 21.5059 7.71094V12.0078C21.5059 12.422 21.17 12.7577 20.7559 12.7578C20.3416 12.7578 20.0059 12.422 20.0059 12.0078V10.3252H3.99414V18.25C3.99414 19.4926 5.0015 20.5 6.24414 20.5H12C12.4142 20.5001 12.75 20.8358 12.75 21.25C12.75 21.6642 12.4142 21.9999 12 22H6.24414C4.17307 22 2.49414 20.3211 2.49414 18.25V7.71094C2.49436 5.64006 4.17321 3.96094 6.24414 3.96094H7.3584V2.76562C7.3584 2.35141 7.69418 2.01562 8.1084 2.01562C8.52261 2.01562 8.8584 2.35141 8.8584 2.76562V3.96094H15.1416V2.76562C15.1416 2.35141 15.4774 2.01562 15.8916 2.01562ZM18 14.75C16.2051 14.75 14.75 16.2051 14.75 18C14.75 19.7949 16.2051 21.25 18 21.25C19.7948 21.2499 21.25 19.7948 21.25 18C21.25 16.2052 19.7948 14.7501 18 14.75ZM18 15.7461C18.4141 15.7462 18.75 16.082 18.75 16.4961V17.6895L19.5303 18.4697C19.823 18.7626 19.823 19.2374 19.5303 19.5303C19.2374 19.8231 18.7626 19.823 18.4697 19.5303L17.4697 18.5303C17.3291 18.3896 17.25 18.1989 17.25 18V16.4961C17.25 16.0819 17.5858 15.7461 18 15.7461ZM9 14C9.55217 14.0001 10 14.4478 10 15V16C10 16.5522 9.55217 16.9999 9 17H8C7.44772 17 7 16.5523 7 16V15C7 14.4477 7.44772 14 8 14H9ZM6.24414 5.46094C5.00164 5.46094 3.99436 6.46849 3.99414 7.71094V8.8252H20.0059V7.71094C20.0056 6.46855 18.9983 5.46105 17.7559 5.46094H16.6416V6.65723C16.6415 7.07129 16.3057 7.40709 15.8916 7.40723C15.4774 7.40723 15.1417 7.07137 15.1416 6.65723V5.46094H8.8584V6.65723C8.85831 7.07137 8.52256 7.40723 8.1084 7.40723C7.69424 7.40723 7.35848 7.07137 7.3584 6.65723V5.46094H6.24414Z" fill="#00090A"/>
</svg>
