<svg width="24" height="24" viewBox="0 0 24 24" fill="none" xmlns="http://www.w3.org/2000/svg">
<path d="M5.96575 5.11448C9.76753 2.41732 15.2121 2.6334 18.7323 5.63597C22.2878 8.66879 22.7879 13.6226 19.8525 17.1838C17.0044 20.6391 11.8173 21.6985 7.6093 19.7864L3.16887 20.7307C3.10071 20.7465 3.02947 20.7533 2.95794 20.7492C2.86594 20.7441 2.77716 20.7213 2.69524 20.6848C2.59575 20.6407 2.50935 20.5766 2.44036 20.4992C2.37142 20.4221 2.31775 20.3294 2.28508 20.2258C2.25805 20.1405 2.24576 20.05 2.2509 19.9582C2.25488 19.8867 2.26959 19.8162 2.2929 19.7502L3.47454 16.2043C1.16899 12.4553 2.23627 7.76047 5.96575 5.11448ZM17.7587 6.77659C14.7688 4.22658 10.0838 4.03247 6.83391 6.33812C3.61743 8.62013 2.84185 12.6037 4.9218 15.6799C5.05224 15.873 5.08534 16.1161 5.01165 16.3371L4.1259 18.9934L7.54387 18.2659C7.70707 18.2311 7.87716 18.2526 8.02727 18.3254C11.6972 20.1071 16.2646 19.1786 18.6952 16.2297C21.0922 13.3217 20.7131 9.2965 17.7587 6.77659ZM7.99993 11.2502C8.41414 11.2502 8.74993 11.586 8.74993 12.0002V12.01C8.74984 12.4241 8.41409 12.76 7.99993 12.76C7.58588 12.7599 7.25002 12.424 7.24993 12.01V12.0002C7.24993 11.5861 7.58583 11.2504 7.99993 11.2502ZM11.9999 11.2502C12.4141 11.2502 12.7499 11.586 12.7499 12.0002V12.01C12.7498 12.4241 12.4141 12.76 11.9999 12.76C11.5859 12.7599 11.25 12.424 11.2499 12.01V12.0002C11.2499 11.5861 11.5858 11.2504 11.9999 11.2502ZM15.9999 11.2502C16.4141 11.2502 16.7499 11.586 16.7499 12.0002V12.01C16.7498 12.4241 16.4141 12.76 15.9999 12.76C15.5859 12.7599 15.25 12.424 15.2499 12.01V12.0002C15.2499 11.5861 15.5858 11.2504 15.9999 11.2502Z" fill="#00090A"/>
</svg>
