<svg width="24" height="24" viewBox="0 0 24 24" fill="none" xmlns="http://www.w3.org/2000/svg">
<path d="M5.96576 5.1143C9.76755 2.41713 15.2121 2.63322 18.7324 5.63578C22.2879 8.66858 22.7878 13.6224 19.8525 17.1836C17.0044 20.6389 11.8173 21.6983 7.60932 19.7862L3.16889 20.7305C3.10072 20.7463 3.02949 20.7531 2.95795 20.7491C2.86594 20.7439 2.77719 20.7212 2.69526 20.6846C2.59577 20.6405 2.50936 20.5774 2.44037 20.5C2.37132 20.4229 2.31785 20.3303 2.2851 20.2266C2.25797 20.1412 2.24574 20.05 2.25092 19.958C2.25489 19.8866 2.26966 19.8169 2.29291 19.751L3.47455 16.2041C1.16899 12.4551 2.2362 7.76027 5.96576 5.1143ZM7.99994 11.25C7.58582 11.2501 7.24994 11.5859 7.24994 12V12.0098C7.24994 12.424 7.58582 12.7597 7.99994 12.7598C8.41416 12.7598 8.74994 12.424 8.74994 12.0098V12C8.74994 11.5858 8.41416 11.25 7.99994 11.25ZM11.9999 11.25C11.5858 11.2501 11.2499 11.5859 11.2499 12V12.0098C11.2499 12.424 11.5858 12.7597 11.9999 12.7598C12.4142 12.7598 12.7499 12.424 12.7499 12.0098V12C12.7499 11.5858 12.4142 11.25 11.9999 11.25ZM15.9999 11.25C15.5858 11.2501 15.2499 11.5859 15.2499 12V12.0098C15.2499 12.424 15.5858 12.7597 15.9999 12.7598C16.4142 12.7598 16.7499 12.424 16.7499 12.0098V12C16.7499 11.5858 16.4142 11.25 15.9999 11.25Z" fill="#00090A"/>
</svg>
