<svg width="24" height="24" viewBox="0 0 24 24" fill="none" xmlns="http://www.w3.org/2000/svg">
<path fill-rule="evenodd" clip-rule="evenodd" d="M12 22C17.5228 22 22 17.5228 22 12C22 6.47715 17.5228 2 12 2C6.47715 2 2 6.47715 2 12C2 17.5228 6.47715 22 12 22ZM17.0329 9.8232C17.4234 9.43267 17.4234 8.79951 17.0329 8.40898C16.6424 8.01846 16.0092 8.01846 15.6187 8.40898L10.558 13.4697L8.38118 11.2929C7.99065 10.9024 7.35749 10.9024 6.96697 11.2929C6.57644 11.6834 6.57644 12.3166 6.96697 12.7071L9.85088 15.591C10.0384 15.7786 10.2928 15.8839 10.558 15.8839C10.8232 15.8839 11.0776 15.7786 11.2651 15.591L17.0329 9.8232Z" fill="#00090A"/>
</svg>
