<svg width="24" height="24" viewBox="0 0 24 24" fill="none" xmlns="http://www.w3.org/2000/svg">
<path d="M12 2.25C17.3848 2.25 21.75 6.61522 21.75 12C21.75 17.3848 17.3848 21.75 12 21.75C6.61522 21.75 2.25 17.3848 2.25 12C2.25 6.61522 6.61522 2.25 12 2.25ZM12 3.75C7.44365 3.75 3.75 7.44365 3.75 12C3.75 16.5563 7.44365 20.25 12 20.25C16.5563 20.25 20.25 16.5563 20.25 12C20.25 7.44365 16.5563 3.75 12 3.75ZM15.6191 8.40918C16.0097 8.01877 16.6427 8.0187 17.0332 8.40918C17.4234 8.79968 17.4235 9.43279 17.0332 9.82324L11.2646 15.5908C11.0771 15.7783 10.8228 15.8838 10.5576 15.8838C10.2925 15.8837 10.038 15.7783 9.85059 15.5908L6.9668 12.707C6.57644 12.3165 6.57643 11.6835 6.9668 11.293C7.35728 10.9025 7.99032 10.9026 8.38086 11.293L10.5576 13.4697L15.6191 8.40918Z" fill="#00090A"/>
</svg>
