<svg width="24" height="24" viewBox="0 0 24 24" fill="none" xmlns="http://www.w3.org/2000/svg">
<path d="M6 11.25C6.41421 11.25 6.75 11.5858 6.75 12C6.75 12.4142 6.41421 12.75 6 12.75H3C2.58579 12.75 2.25 12.4142 2.25 12C2.25 11.5858 2.58579 11.25 3 11.25H6Z" fill="#00090A"/>
<path d="M11.25 6V3C11.25 2.58579 11.5858 2.25 12 2.25C12.4142 2.25 12.75 2.58579 12.75 3V6C12.75 6.41421 12.4142 6.75 12 6.75C11.5858 6.75 11.25 6.41421 11.25 6Z" fill="#00090A"/>
<path d="M5.06977 5.06971C5.36266 4.77681 5.83742 4.77681 6.13031 5.06971L8.33051 7.2699L8.38227 7.32654C8.62239 7.62112 8.60505 8.05591 8.33051 8.33045C8.05597 8.60499 7.62118 8.62233 7.3266 8.38221L7.26996 8.33045L5.06977 6.13025C4.77687 5.83736 4.77687 5.3626 5.06977 5.06971Z" fill="#00090A"/>
<path d="M17.87 5.06972C18.1629 4.77692 18.6377 4.77686 18.9306 5.06972C19.2233 5.36259 19.2233 5.8374 18.9306 6.13027L16.7304 8.33046C16.4375 8.62322 15.9627 8.62322 15.6698 8.33046C15.377 8.0376 15.377 7.56282 15.6698 7.26991L17.87 5.06972Z" fill="#00090A"/>
<path d="M7.26991 15.6698C7.56282 15.377 8.0376 15.3769 8.33046 15.6698C8.62322 15.9626 8.62322 16.4374 8.33046 16.7303L6.13027 18.9305C5.8374 19.2233 5.36259 19.2233 5.06972 18.9305C4.77686 18.6376 4.77692 18.1629 5.06972 17.87L7.26991 15.6698Z" fill="#00090A"/>
<path d="M12.0732 11.2549C12.1132 11.2589 12.1533 11.2656 12.1933 11.2764C12.1982 11.2777 12.2031 11.2789 12.2079 11.2803L12.2372 11.2881L21.2372 14.2881C21.525 14.384 21.7265 14.6447 21.748 14.9473C21.7693 15.2497 21.6061 15.5353 21.3349 15.6709L17.5585 17.5586L15.6708 21.335C15.5352 21.6061 15.2496 21.7694 14.9472 21.748C14.6446 21.7265 14.3839 21.5251 14.288 21.2373L11.288 12.2373L11.2802 12.208C11.2788 12.2031 11.2776 12.1982 11.2763 12.1934C11.2656 12.1534 11.2588 12.1133 11.2548 12.0732C11.2524 12.049 11.2538 12.0246 11.2538 12C11.2538 11.9754 11.2524 11.951 11.2548 11.9268C11.2588 11.8867 11.2656 11.8466 11.2763 11.8066C11.2776 11.8017 11.2788 11.7968 11.2802 11.792C11.283 11.7823 11.2848 11.7723 11.288 11.7627C11.2987 11.7307 11.3127 11.7004 11.3271 11.6709C11.3289 11.6672 11.3311 11.6638 11.3329 11.6601C11.347 11.6324 11.3647 11.6074 11.3818 11.582C11.3947 11.5628 11.4071 11.5434 11.4218 11.5254C11.4374 11.5064 11.4553 11.4899 11.4726 11.4726C11.4898 11.4554 11.5063 11.4375 11.5253 11.4219C11.5433 11.4071 11.5628 11.3948 11.582 11.3818C11.6073 11.3647 11.6323 11.3471 11.6601 11.333C11.6637 11.3311 11.6672 11.3289 11.6708 11.3271C11.7004 11.3127 11.7306 11.2988 11.7626 11.2881C11.7723 11.2849 11.7823 11.2831 11.7919 11.2803C11.7968 11.2789 11.8017 11.2777 11.8066 11.2764C11.8466 11.2656 11.8866 11.2589 11.9267 11.2549C11.951 11.2525 11.9753 11.2539 11.9999 11.2539C12.0246 11.2539 12.0489 11.2525 12.0732 11.2549ZM15.1386 19.0439L16.329 16.665L16.3915 16.5615C16.4621 16.4636 16.556 16.3836 16.665 16.3291L19.0439 15.1387L13.1865 13.1865L15.1386 19.0439Z" fill="#00090A"/>
</svg>
