<svg width="24" height="24" viewBox="0 0 24 24" fill="none" xmlns="http://www.w3.org/2000/svg">
<path fill-rule="evenodd" clip-rule="evenodd" d="M11.9709 21.75C16.8765 21.7646 21.029 18.1319 21.6666 13.2678C21.7205 12.8571 21.4312 12.4805 21.0205 12.4267C20.6098 12.3728 20.2332 12.6621 20.1793 13.0728C19.6399 17.1885 16.1262 20.2624 11.9753 20.25C7.82444 20.2376 4.32926 17.1428 3.81441 13.0239C3.29955 8.90503 5.92539 5.04511 9.94551 4.01132C13.7159 3.04175 17.6112 4.84134 19.3478 8.25H15.9501C15.5359 8.25 15.2001 8.58579 15.2001 9C15.2001 9.41421 15.5359 9.75 15.9501 9.75H20.9501C21.3643 9.75 21.7001 9.41421 21.7001 9V4C21.7001 3.58579 21.3643 3.25 20.9501 3.25C20.5359 3.25 20.2001 3.58579 20.2001 4V6.72512C17.9671 3.24929 13.706 1.4955 9.57194 2.55858C4.82082 3.78035 1.71751 8.34213 2.32599 13.2099C2.93447 18.0778 7.06518 21.7353 11.9709 21.75ZM12.5625 8.625C12.5625 8.21079 12.2267 7.875 11.8125 7.875C11.3983 7.875 11.0625 8.21079 11.0625 8.625V11.8323C11.0625 12.2301 11.1887 12.6253 11.3629 12.9503C11.5358 13.273 11.795 13.5987 12.132 13.8115L12.1331 13.8122L14.4105 15.2582C14.7602 15.4802 15.2236 15.3767 15.4457 15.027C15.6677 14.6773 15.5642 14.2139 15.2145 13.9918L12.9351 12.5446L12.9331 12.5434C12.8735 12.5058 12.7728 12.4056 12.6849 12.2417C12.5981 12.0797 12.5625 11.9273 12.5625 11.8323V8.625Z" fill="#00090A"/>
</svg>
