<svg width="24" height="24" viewBox="0 0 24 24" fill="none" xmlns="http://www.w3.org/2000/svg">
<path d="M12 2.25C17.3848 2.25 21.75 6.61522 21.75 12C21.75 17.3848 17.3848 21.75 12 21.75C6.61522 21.75 2.25 17.3848 2.25 12C2.25 6.61522 6.61522 2.25 12 2.25ZM12 3.75C7.44365 3.75 3.75 7.44365 3.75 12C3.75 16.5563 7.44365 20.25 12 20.25C16.5563 20.25 20.25 16.5563 20.25 12C20.25 7.44365 16.5563 3.75 12 3.75ZM11.7812 7.5625C12.1955 7.5625 12.5312 7.89829 12.5312 8.3125V11.5195C12.5312 11.6144 12.5667 11.7669 12.6533 11.9287C12.741 12.0922 12.8418 12.1927 12.9014 12.2305L12.9043 12.2324L15.1836 13.6797C15.533 13.9018 15.636 14.3653 15.4141 14.7148C15.1919 15.0642 14.7285 15.1672 14.3789 14.9453L12.1016 13.5L12.1006 13.499C11.7637 13.2862 11.505 12.9603 11.332 12.6377C11.1578 12.3127 11.0312 11.9174 11.0312 11.5195V8.3125C11.0312 7.89829 11.367 7.5625 11.7812 7.5625Z" fill="#00090A"/>
</svg>
