<svg width="24" height="24" viewBox="0 0 24 24" fill="none" xmlns="http://www.w3.org/2000/svg">
<path fill-rule="evenodd" clip-rule="evenodd" d="M9 2.25C7.48122 2.25 6.25 3.48122 6.25 5V6.25H5C3.48122 6.25 2.25 7.48122 2.25 9V19C2.25 20.5188 3.48122 21.75 5 21.75H15C16.5188 21.75 17.75 20.5188 17.75 19V17.75H19C20.5188 17.75 21.75 16.5188 21.75 15V5C21.75 3.48122 20.5188 2.25 19 2.25H9ZM16.25 17.75V19C16.25 19.6904 15.6904 20.25 15 20.25H5C4.30964 20.25 3.75 19.6904 3.75 19V9C3.75 8.30964 4.30964 7.75 5 7.75H6.25V15C6.25 16.5188 7.48122 17.75 9 17.75H16.25ZM7.75 7V15C7.75 15.6904 8.30964 16.25 9 16.25H17H19C19.6904 16.25 20.25 15.6904 20.25 15V5C20.25 4.30964 19.6904 3.75 19 3.75H9C8.30964 3.75 7.75 4.30964 7.75 5V7Z" fill="#00090A"/>
</svg>
