<svg width="24" height="24" viewBox="0 0 24 24" fill="none" xmlns="http://www.w3.org/2000/svg">
<path d="M6.26371 3.51775C7.02018 3.27847 7.81852 3.19825 8.60746 3.2824C9.39624 3.36657 10.1589 3.61365 10.8477 4.00701C11.2723 4.24947 11.6636 4.54424 12.0118 4.88396C12.36 4.54792 12.7504 4.25617 13.1739 4.01677C13.8623 3.62759 14.6236 3.38441 15.4102 3.30291C16.1969 3.22139 16.9924 3.3033 17.7461 3.54314C18.4995 3.78294 19.1954 4.17554 19.7901 4.69646C20.385 5.21764 20.8664 5.85687 21.2032 6.57244C21.5398 7.28788 21.7256 8.06527 21.7481 8.85564C21.7706 9.64606 21.6295 10.4327 21.334 11.1662C21.0385 11.8996 20.5945 12.5642 20.0303 13.1183C20.0117 13.1366 19.9917 13.1541 19.9717 13.1701L12.5362 20.5334C12.2439 20.8227 11.7728 20.8227 11.4805 20.5334L3.9893 13.1154C3.98847 13.1146 3.98719 13.1133 3.98637 13.1125C3.41911 12.5598 2.97237 11.8958 2.67387 11.1623C2.37488 10.4274 2.2311 9.63795 2.25199 8.8449C2.27294 8.05198 2.45775 7.27185 2.79496 6.55388C3.13222 5.83583 3.61498 5.19555 4.21195 4.67302C4.80889 4.15056 5.50733 3.75702 6.26371 3.51775ZM8.44828 4.77458C7.86521 4.7124 7.27492 4.77157 6.71586 4.94841C6.15697 5.12527 5.64031 5.41588 5.19926 5.80193C4.75824 6.18803 4.40154 6.66109 4.15238 7.19158C3.90318 7.72219 3.76743 8.29895 3.75199 8.88494C3.73657 9.4709 3.8426 10.0539 4.06351 10.5969C4.28445 11.1397 4.61505 11.6314 5.03519 12.0402L5.04008 12.0441L12.0088 18.9445L13.4532 17.5138L11.9698 16.0304C11.6769 15.7376 11.6769 15.2628 11.9698 14.9699C12.2627 14.677 12.7374 14.677 13.0303 14.9699L14.5186 16.4582L15.9649 15.0256L14.4698 13.5304C14.1769 13.2376 14.1769 12.7628 14.4698 12.4699C14.7627 12.177 15.2374 12.177 15.5303 12.4699L17.0303 13.9699L18.4952 12.5197L16.7559 10.7804C16.2999 10.3245 15.681 10.0686 15.0362 10.0685C14.3913 10.0685 13.7725 10.3245 13.3164 10.7804L12.3164 11.7804C11.3336 12.7633 9.73881 12.7631 8.7559 11.7804L8.21293 11.2375C7.88485 10.9093 7.70023 10.4642 7.70023 10.0002C7.70023 9.53622 7.88399 9.09102 8.21195 8.76287L10.9903 5.98455C10.7264 5.72248 10.4291 5.49513 10.1045 5.30974C9.59546 5.01903 9.03124 4.83681 8.44828 4.77458ZM17.2911 4.97283C16.734 4.79558 16.1459 4.73485 15.5645 4.79509C14.9833 4.85535 14.4208 5.03491 13.9121 5.32244C13.4394 5.58972 13.0231 5.94567 12.6846 6.36931C12.6522 6.42626 12.615 6.48184 12.5664 6.53044L9.27348 9.82341C9.22666 9.87029 9.20023 9.93392 9.20023 10.0002C9.20023 10.0664 9.22666 10.1301 9.27348 10.1769L9.81644 10.7199C10.2136 11.1168 10.8589 11.1169 11.2559 10.7199L12.2559 9.7199C12.9933 8.98264 13.9934 8.56853 15.0362 8.56853C16.0789 8.56863 17.0791 8.98261 17.8164 9.7199L19.5088 11.4123C19.6811 11.1601 19.8277 10.8904 19.9424 10.6056C20.1608 10.0637 20.2646 9.48259 20.2481 8.89861C20.2315 8.31455 20.0946 7.73981 19.8457 7.21111C19.5969 6.68236 19.2414 6.21051 18.8018 5.82537C18.3622 5.44028 17.848 5.15009 17.2911 4.97283Z" fill="#00090A"/>
</svg>
