<svg width="24" height="24" viewBox="0 0 24 24" fill="none" xmlns="http://www.w3.org/2000/svg">
<path d="M3.52539 20.6152V3.3847C3.52539 3.24665 3.63734 3.13473 3.77539 3.1347H12.667C12.8051 3.1347 12.917 3.24663 12.917 3.3847V6.47455C12.9171 6.88863 13.2529 7.22455 13.667 7.22455C14.0811 7.22455 14.4168 6.88863 14.417 6.47455V3.3847C14.417 2.41821 13.6335 1.6347 12.667 1.6347H3.77539C2.80892 1.63473 2.02539 2.41822 2.02539 3.3847V20.6152C2.02539 21.5817 2.80891 22.3651 3.77539 22.3652H10.2383C10.6525 22.3652 10.9883 22.0294 10.9883 21.6152C10.9882 21.201 10.6525 20.8652 10.2383 20.8652H3.77539C3.63734 20.8651 3.52539 20.7532 3.52539 20.6152Z" fill="#00090A"/>
<path d="M6.39551 3.07611L6.31836 3.07904C5.94026 3.11753 5.64551 3.43785 5.64551 3.82611C5.64575 4.21415 5.94041 4.53373 6.31836 4.5722L6.39551 4.57611H10.0479C10.4619 4.57611 10.7976 4.2401 10.7979 3.82611C10.7979 3.4119 10.4621 3.07611 10.0479 3.07611H6.39551Z" fill="#00090A"/>
<path d="M21.0283 13.2891C21.0283 12.5987 20.4687 12.0391 19.7783 12.0391H15.5869C14.8966 12.0391 14.3369 12.5987 14.3369 13.2891V18.4043C14.3371 19.0945 14.8967 19.6543 15.5869 19.6543H19.7783C20.4686 19.6543 21.0282 19.0945 21.0283 18.4043V13.2891ZM22.5283 18.4043C22.5282 19.9229 21.297 21.1543 19.7783 21.1543H15.5869C14.0682 21.1543 12.8371 19.9229 12.8369 18.4043V13.2891C12.8369 11.7703 14.0681 10.5391 15.5869 10.5391H19.7783C21.2971 10.5391 22.5283 11.7703 22.5283 13.2891V18.4043Z" fill="#00090A"/>
<path d="M19.4385 8.60455L19.5342 8.61041C19.7551 8.63888 19.9543 8.7646 20.0743 8.95612L21.2921 10.9014L21.3292 10.9688C21.4973 11.3098 21.3829 11.7295 21.0538 11.9356C20.7247 12.1415 20.2977 12.0608 20.0645 11.7608L20.0206 11.6973L19.0225 10.1046H16.3428L15.3448 11.6973L15.3008 11.7608C15.0676 12.0609 14.6397 12.1417 14.3106 11.9356C13.9597 11.7157 13.8536 11.2524 14.0733 10.9014L15.2911 8.95612L15.3467 8.87897C15.4881 8.70651 15.7005 8.60456 15.9268 8.60455H19.4385Z" fill="#00090A"/>
<path d="M19.4385 23.0498L19.5342 23.0439C19.7551 23.0155 19.9543 22.8898 20.0743 22.6982L21.2921 20.7529L21.3292 20.6855C21.4973 20.3446 21.3829 19.9248 21.0538 19.7188C20.7247 19.5129 20.2977 19.5936 20.0645 19.8936L20.0206 19.957L19.0225 21.5498H16.3428L15.3448 19.957L15.3008 19.8936C15.0676 19.5934 14.6397 19.5127 14.3106 19.7188C13.9597 19.9386 13.8536 20.4019 14.0733 20.7529L15.2911 22.6982L15.3467 22.7754C15.4881 22.9479 15.7005 23.0498 15.9268 23.0498H19.4385Z" fill="#00090A"/>
</svg>
