<svg width="24" height="24" viewBox="0 0 24 24" fill="none" xmlns="http://www.w3.org/2000/svg">
<path d="M13.75 10.8164V4.25C13.75 3.97386 13.5261 3.75 13.25 3.75H4.75C4.47386 3.75 4.25 3.97386 4.25 4.25V19.75C4.25 20.0261 4.47386 20.25 4.75 20.25H9C9.41421 20.25 9.75 20.5858 9.75 21C9.75 21.4142 9.41421 21.75 9 21.75H4.75C3.64543 21.75 2.75 20.8546 2.75 19.75V4.25C2.75 3.14543 3.64543 2.25 4.75 2.25H13.25C14.3546 2.25 15.25 3.14543 15.25 4.25V10.8164C15.2498 11.2304 14.9141 11.5664 14.5 11.5664C14.0859 11.5664 13.7502 11.2304 13.75 10.8164Z" fill="#00090A"/>
<path d="M10 3.24988C10.4142 3.24988 10.75 3.58566 10.75 3.99988C10.75 4.41409 10.4142 4.74988 10 4.74988H8C7.58579 4.74988 7.25 4.41409 7.25 3.99988C7.25 3.58566 7.58579 3.24988 8 3.24988H10Z" fill="#00090A"/>
<path d="M20 20.5V22H13V20.5H20ZM20.5 20V15C20.5 14.7239 20.2761 14.5 20 14.5H13C12.7239 14.5 12.5 14.7239 12.5 15V20C12.5 20.2761 12.7239 20.5 13 20.5V22L12.7959 21.9893C11.8543 21.8938 11.1062 21.1457 11.0107 20.2041L11 20V15C11 13.9643 11.7872 13.113 12.7959 13.0107L13 13H20L20.2041 13.0107C21.2128 13.113 22 13.9643 22 15V20L21.9893 20.2041C21.8938 21.1457 21.1457 21.8938 20.2041 21.9893L20 22V20.5C20.2761 20.5 20.5 20.2761 20.5 20Z" fill="#00090A"/>
<path fill-rule="evenodd" clip-rule="evenodd" d="M11.75 16.5C11.75 16.0858 12.0052 15.75 12.32 15.75H20.68C20.9948 15.75 21.25 16.0858 21.25 16.5C21.25 16.9142 20.9948 17.25 20.68 17.25H12.32C12.0052 17.25 11.75 16.9142 11.75 16.5Z" fill="#00090A"/>
</svg>
