<svg width="24" height="24" viewBox="0 0 24 24" fill="none" xmlns="http://www.w3.org/2000/svg">
<path fill-rule="evenodd" clip-rule="evenodd" d="M4 15.5C4.41421 15.5 4.75 15.8358 4.75 16.25V18.25C4.75 18.9404 5.30964 19.5 6 19.5H18C18.6904 19.5 19.25 18.9404 19.25 18.25V16.25C19.25 15.8358 19.5858 15.5 20 15.5C20.4142 15.5 20.75 15.8358 20.75 16.25V18.25C20.75 19.7688 19.5188 21 18 21H6C4.48122 21 3.25 19.7688 3.25 18.25V16.25C3.25 15.8358 3.58579 15.5 4 15.5Z" fill="#00090A"/>
<path fill-rule="evenodd" clip-rule="evenodd" d="M6.46967 10.4697C6.76256 10.1768 7.23744 10.1768 7.53033 10.4697L12 14.9393L16.4697 10.4697C16.7626 10.1768 17.2374 10.1768 17.5303 10.4697C17.8232 10.7626 17.8232 11.2374 17.5303 11.5303L12.5303 16.5303C12.2374 16.8232 11.7626 16.8232 11.4697 16.5303L6.46967 11.5303C6.17678 11.2374 6.17678 10.7626 6.46967 10.4697Z" fill="#00090A"/>
<path fill-rule="evenodd" clip-rule="evenodd" d="M12 3.25C12.4142 3.25 12.75 3.58579 12.75 4V16C12.75 16.4142 12.4142 16.75 12 16.75C11.5858 16.75 11.25 16.4142 11.25 16V4C11.25 3.58579 11.5858 3.25 12 3.25Z" fill="#00090A"/>
</svg>
