<svg width="24" height="24" viewBox="0 0 24 24" fill="none" xmlns="http://www.w3.org/2000/svg">
<path d="M14.4697 4.18198C15.8672 2.78472 18.1328 2.78472 19.5303 4.18198C20.9277 5.57939 20.9276 7.84505 19.5303 9.24253L9.03027 19.7425C8.88962 19.8832 8.69891 19.9623 8.5 19.9623H4.5C4.08579 19.9623 3.75 19.6265 3.75 19.2123V15.2123C3.75008 15.0134 3.82915 14.8226 3.96973 14.682L13.3672 5.28354C13.3962 5.23775 13.4298 5.1936 13.4697 5.15366C13.51 5.11335 13.5543 5.07935 13.6006 5.05014L14.4697 4.18198ZM5.25 15.5228V18.4623H8.18945L16.9531 9.6976L14.0137 6.75815L5.25 15.5228ZM18.4697 5.24253C17.6581 4.43105 16.3419 4.43105 15.5303 5.24253L15.0742 5.6976L18.0137 8.63706L18.4697 8.18198C19.2813 7.37029 19.2814 6.05415 18.4697 5.24253Z" fill="#00090A"/>
</svg>
