<svg width="24" height="24" viewBox="0 0 24 24" fill="none" xmlns="http://www.w3.org/2000/svg">
<path d="M11.8584 4.26369C11.9984 4.23677 12.1441 4.25009 12.2783 4.30373L22.2783 8.30373L22.3203 8.32326C22.327 8.32642 22.3342 8.32867 22.3408 8.33205L22.3486 8.33595C22.3713 8.34784 22.3931 8.36113 22.4141 8.37502C22.4161 8.37638 22.4188 8.37753 22.4209 8.37892C22.4555 8.40239 22.4868 8.42967 22.5166 8.45802C22.5236 8.46469 22.5304 8.47162 22.5371 8.47853C22.5662 8.50855 22.5936 8.54007 22.6172 8.57423C22.6208 8.57949 22.6235 8.5855 22.627 8.59084C22.6469 8.62141 22.6644 8.65341 22.6797 8.68654C22.6839 8.69563 22.6886 8.70463 22.6924 8.71388C22.708 8.75169 22.7202 8.79094 22.7295 8.83107C22.7317 8.84073 22.7335 8.85061 22.7354 8.86037C22.742 8.89528 22.7455 8.93083 22.7471 8.96681C22.7474 8.97491 22.7489 8.9831 22.749 8.99123C22.7491 8.9941 22.75 8.99714 22.75 9.00002V15C22.7499 15.4142 22.4142 15.75 22 15.75C21.5858 15.75 21.2501 15.4142 21.25 15V10.1074L18.75 11.1074V16C18.7498 17.2653 17.7435 18.2093 16.5781 18.792C15.3678 19.3972 13.748 19.75 12 19.75C10.252 19.75 8.63225 19.3972 7.42188 18.792C6.25653 18.2093 5.25021 17.2653 5.25 16V11.1074L1.72168 9.6963C1.43699 9.58243 1.25007 9.30663 1.25 9.00002C1.25 8.69336 1.43697 8.41764 1.72168 8.30373L11.7217 4.30373L11.8584 4.26369ZM12.2783 13.6963C12.0996 13.7677 11.9004 13.7677 11.7217 13.6963L6.75 11.707V16C6.75022 16.3913 7.08715 16.9474 8.09277 17.4502C9.05397 17.9308 10.4344 18.25 12 18.25C13.5656 18.25 14.946 17.9308 15.9072 17.4502C16.9128 16.9474 17.2498 16.3913 17.25 16V11.707L12.2783 13.6963ZM4.01855 9.00002L12 12.1924L19.9805 9.00002L12 5.80763L4.01855 9.00002Z" fill="#00090A"/>
</svg>
