<svg width="24" height="24" viewBox="0 0 24 24" fill="none" xmlns="http://www.w3.org/2000/svg">
<path d="M19 4.25C20.5188 4.25 21.75 5.48122 21.75 7V17C21.75 18.5188 20.5188 19.75 19 19.75H5C3.48122 19.75 2.25 18.5188 2.25 17V7C2.25 5.48122 3.48122 4.25 5 4.25H19ZM12.416 13.624C12.1641 13.792 11.8359 13.792 11.584 13.624L3.75 8.40137V17C3.75 17.6904 4.30964 18.25 5 18.25H19C19.6904 18.25 20.25 17.6904 20.25 17V8.40137L12.416 13.624ZM5 5.75C4.43676 5.75 3.96097 6.12266 3.80469 6.63477L12 12.0986L20.1943 6.63477C20.038 6.1228 19.5631 5.75 19 5.75H5Z" fill="#00090A"/>
</svg>
