<svg width="24" height="24" viewBox="0 0 24 24" fill="none" xmlns="http://www.w3.org/2000/svg">
<path d="M5.85426 4.5H7.59994C8.01851 4.5 8.35783 4.16421 8.35783 3.75C8.35783 3.33579 8.01851 3 7.59994 3H5.85426C4.30554 3 3.05005 4.24241 3.05005 5.775V7.5C3.05005 7.91421 3.38937 8.25 3.80794 8.25C4.22652 8.25 4.56584 7.91421 4.56584 7.5V5.775C4.56584 5.07084 5.14268 4.5 5.85426 4.5Z" fill="#00090A"/>
<path d="M16.6922 4.5C16.2736 4.5 15.9343 4.16421 15.9343 3.75C15.9343 3.33579 16.2736 3 16.6922 3H18.4379C19.9866 3 21.2421 4.24241 21.2421 5.775V7.5C21.2421 7.91421 20.9027 8.25 20.4842 8.25C20.0656 8.25 19.7263 7.91421 19.7263 7.5V5.775C19.7263 5.07084 19.1494 4.5 18.4379 4.5H16.6922Z" fill="#00090A"/>
<path d="M8.35533 9C7.93676 9 7.59744 9.33579 7.59744 9.75V11.25C7.59744 11.6642 7.93676 12 8.35533 12C8.77391 12 9.11323 11.6642 9.11323 11.25V9.75C9.11323 9.33579 8.77391 9 8.35533 9Z" fill="#00090A"/>
<path d="M15.9343 9C15.5157 9 15.1764 9.33579 15.1764 9.75V11.25C15.1764 11.6642 15.5157 12 15.9343 12C16.3529 12 16.6922 11.6642 16.6922 11.25V9.75C16.6922 9.33579 16.3529 9 15.9343 9Z" fill="#00090A"/>
<path d="M8.92177 15.6311C8.64615 15.9429 8.67807 16.4167 8.99309 16.6894C9.84269 17.4251 10.908 17.7864 12.152 17.7746C13.3865 17.763 14.4421 17.405 15.287 16.6975C15.6065 16.43 15.6464 15.9567 15.376 15.6405C15.1056 15.3243 14.6274 15.2849 14.3079 15.5525C13.7441 16.0245 13.0313 16.2663 12.1376 16.2747C11.2534 16.2831 10.5502 16.0446 9.99122 15.5606C9.67621 15.2878 9.1974 15.3194 8.92177 15.6311Z" fill="#00090A"/>
<path d="M12.1448 9.75C12.1448 9.33579 12.4841 9 12.9027 9C13.3213 9 13.6606 9.33579 13.6606 9.75V12.5865C13.6606 13.5807 13.1053 14.25 12.1448 14.25C11.7262 14.25 11.3869 13.9142 11.3869 13.5C11.3869 13.0858 11.7262 12.75 12.1448 12.75C12.1564 12.75 12.1627 12.7533 12.1654 12.7555L12.1665 12.757C12.1665 12.7571 12.1668 12.7574 12.1665 12.757C12.1666 12.7569 12.1666 12.7565 12.1654 12.7555C12.1602 12.7473 12.1448 12.7106 12.1448 12.5865V9.75Z" fill="#00090A"/>
<path d="M7.59995 19.5C8.01853 19.5 8.35785 19.8358 8.35785 20.25C8.35785 20.6642 8.01853 21 7.59995 21H5.85427C4.30555 21 3.05006 19.7576 3.05006 18.225V16.5C3.05006 16.0858 3.38938 15.75 3.80796 15.75C4.22653 15.75 4.56585 16.0858 4.56585 16.5V18.225C4.56585 18.9292 5.1427 19.5 5.85427 19.5H7.59995Z" fill="#00090A"/>
<path d="M18.4379 19.5H16.6922C16.2736 19.5 15.9343 19.8358 15.9343 20.25C15.9343 20.6642 16.2736 21 16.6922 21H18.4379C19.9866 21 21.2421 19.7576 21.2421 18.225V16.5C21.2421 16.0858 20.9027 15.75 20.4842 15.75C20.0656 15.75 19.7263 16.0858 19.7263 16.5V18.225C19.7263 18.9292 19.1494 19.5 18.4379 19.5Z" fill="#00090A"/>
</svg>
