<svg width="24" height="24" viewBox="0 0 24 24" fill="none" xmlns="http://www.w3.org/2000/svg">
<path d="M17 2.25C17.7293 2.25 18.4286 2.53994 18.9443 3.05566C19.4601 3.57139 19.75 4.27065 19.75 5V21C19.75 21.2766 19.5974 21.5306 19.3535 21.6611C19.1097 21.7915 18.8141 21.7774 18.584 21.624L16.0947 19.9648L14.5303 21.5303C14.2374 21.8232 13.7626 21.8232 13.4697 21.5303L12 20.0605L10.5303 21.5303C10.2557 21.8049 9.82095 21.8223 9.52637 21.582L9.46973 21.5303L7.9043 19.9648L5.41602 21.624C5.18595 21.7774 4.89031 21.7915 4.64648 21.6611C4.40262 21.5306 4.25 21.2766 4.25 21V5C4.25 4.27065 4.53994 3.57139 5.05566 3.05566C5.57139 2.53994 6.27065 2.25 7 2.25H17ZM7 3.75C6.66848 3.75 6.35063 3.88179 6.11621 4.11621C5.88179 4.35063 5.75 4.66848 5.75 5V19.5986L7.58398 18.376L7.69922 18.3125C7.97783 18.1904 8.30899 18.2484 8.53027 18.4697L10 19.9395L11.4697 18.4697L11.5264 18.418C11.8209 18.1777 12.2557 18.1951 12.5303 18.4697L14 19.9395L15.4697 18.4697L15.5703 18.3848C15.8196 18.2105 16.1557 18.2024 16.416 18.376L18.25 19.5986V5C18.25 4.66848 18.1182 4.35063 17.8838 4.11621C17.6494 3.88179 17.3315 3.75 17 3.75H7Z" fill="#00090A"/>
<path fill-rule="evenodd" clip-rule="evenodd" d="M13.1911 7.10097C14.1438 7.07966 15.1202 7.4471 15.6846 8.18111C15.937 8.50948 15.8755 8.98035 15.5471 9.23282C15.2188 9.4853 14.7479 9.42377 14.4954 9.09539C14.2866 8.82376 13.8143 8.58571 13.2189 8.60074L13.2 8.60097H11.1C10.6666 8.60097 10.3032 8.73362 10.065 8.91221C9.82703 9.09063 9.75 9.27981 9.75 9.42552C9.75 9.57124 9.82703 9.76041 10.065 9.93884C10.3032 10.1174 10.6666 10.2501 11.1 10.2501H13.2C13.9264 10.2501 14.613 10.4699 15.1348 10.8612C15.6569 11.2526 16.05 11.8507 16.05 12.5746C16.05 13.2985 15.6569 13.8966 15.1348 14.2881C14.613 14.6793 13.9264 14.8992 13.2 14.8992H11.1089C10.1562 14.9205 9.17978 14.5531 8.61542 13.819C8.36295 13.4907 8.42448 13.0198 8.75286 12.7673C9.08123 12.5148 9.5521 12.5764 9.80457 12.9048C10.0134 13.1764 10.4857 13.4144 11.0811 13.3994L11.1 13.3992H13.2C13.6334 13.3992 13.9968 13.2665 14.235 13.0879C14.473 12.9095 14.55 12.7203 14.55 12.5746C14.55 12.4289 14.473 12.2397 14.235 12.0613C13.9968 11.8827 13.6334 11.7501 13.2 11.7501H11.1C10.3736 11.7501 9.68702 11.5302 9.16516 11.139C8.64307 10.7475 8.25 10.1494 8.25 9.42552C8.25 8.70164 8.64307 8.10354 9.16516 7.71209C9.68702 7.3208 10.3736 7.10097 11.1 7.10097H13.1911Z" fill="#00090A"/>
<path fill-rule="evenodd" clip-rule="evenodd" d="M12.075 5.75C12.4892 5.75 12.825 6.08579 12.825 6.5V7.84993C12.825 8.26415 12.4892 8.59993 12.075 8.59993C11.6607 8.59993 11.325 8.26415 11.325 7.84993V6.5C11.325 6.08579 11.6607 5.75 12.075 5.75Z" fill="#00090A"/>
<path fill-rule="evenodd" clip-rule="evenodd" d="M12.075 13.3999C12.4892 13.3999 12.825 13.7357 12.825 14.1499V15.4998C12.825 15.9141 12.4892 16.2498 12.075 16.2498C11.6607 16.2498 11.325 15.9141 11.325 15.4998V14.1499C11.325 13.7357 11.6607 13.3999 12.075 13.3999Z" fill="#00090A"/>
</svg>
