<svg width="24" height="24" viewBox="0 0 24 24" fill="none" xmlns="http://www.w3.org/2000/svg">
<path d="M14.499 4.57129C16.2374 4.57129 17.6794 5.83878 17.9521 7.5H20.25C20.6642 7.5 21 7.83579 21 8.25C21 8.66421 20.6642 9 20.25 9H17.873C17.466 10.4821 16.1103 11.5713 14.499 11.5713C12.8877 11.5713 11.532 10.4821 11.125 9H4.75C4.33579 9 4 8.66421 4 8.25C4 7.83579 4.33579 7.5 4.75 7.5H11.0459C11.3187 5.83878 12.7606 4.57129 14.499 4.57129ZM14.499 6.07129C13.3945 6.07129 12.499 6.96672 12.499 8.07129C12.499 9.17586 13.3945 10.0713 14.499 10.0713C15.6036 10.0713 16.499 9.17586 16.499 8.07129C16.499 6.96672 15.6036 6.07129 14.499 6.07129Z" fill="#00090A"/>
<path d="M9.49902 12.4998C11.2622 12.4998 12.7202 13.8037 12.9629 15.4998H20.25C20.6641 15.4998 20.9999 15.8357 21 16.2498C21 16.664 20.6642 16.9998 20.25 16.9998H12.8535C12.4232 18.4454 11.0845 19.4998 9.49902 19.4998C7.91357 19.4998 6.57486 18.4454 6.14453 16.9998H3.75C3.33579 16.9998 3 16.664 3 16.2498C3.00013 15.8357 3.33587 15.4998 3.75 15.4998H6.03516C6.27781 13.8037 7.73582 12.4998 9.49902 12.4998ZM9.49902 13.9998C8.39445 13.9998 7.49902 14.8952 7.49902 15.9998C7.49902 17.1043 8.39445 17.9998 9.49902 17.9998C10.6036 17.9998 11.499 17.1043 11.499 15.9998C11.499 14.8952 10.6036 13.9998 9.49902 13.9998Z" fill="#00090A"/>
</svg>
