<svg width="24" height="24" viewBox="0 0 24 24" fill="none" xmlns="http://www.w3.org/2000/svg">
<g clip-path="url(#clip0_348_23038)">
<path fill-rule="evenodd" clip-rule="evenodd" d="M17.0945 6.54254C17.4968 6.30014 18.0195 6.42979 18.2619 6.83212C19.119 8.25482 19.49 9.91733 19.3194 11.5686V12.374C19.3186 13.1203 19.5141 13.8545 19.8864 14.5012C20.1208 14.9083 19.9807 15.4283 19.5736 15.6627C19.1665 15.897 18.6466 15.7569 18.4122 15.3499C17.8911 14.4446 17.6173 13.4181 17.6184 12.3736C17.6184 12.3738 17.6184 12.3734 17.6184 12.3736V11.5235C17.6184 11.4926 17.6201 11.4617 17.6235 11.4309C17.7656 10.1344 17.478 8.82712 16.8049 7.70995C16.5625 7.30762 16.6921 6.78495 17.0945 6.54254Z" fill="#00090A"/>
<path fill-rule="evenodd" clip-rule="evenodd" d="M11.6649 8.12154C10.9882 8.12154 10.3392 8.39035 9.86068 8.86885C9.38218 9.34735 9.11336 9.99634 9.11336 10.673C9.11336 11.1428 8.73257 11.5235 8.26286 11.5235C7.79314 11.5235 7.41235 11.1428 7.41235 10.673C7.41235 9.54521 7.86038 8.46356 8.65788 7.66606C9.45538 6.86856 10.537 6.42053 11.6649 6.42053C12.7927 6.42053 13.8743 6.86856 14.6718 7.66606C15.4693 8.46356 15.9174 9.54521 15.9174 10.673V11.5235C15.9174 13.1798 16.4545 14.7913 17.4483 16.1163C17.7301 16.492 17.6539 17.0251 17.2782 17.307C16.9024 17.5888 16.3693 17.5126 16.0875 17.1369C14.8729 15.5174 14.2164 13.5478 14.2164 11.5235V10.673C14.2164 9.99634 13.9475 9.34735 13.469 8.86885C12.9905 8.39035 12.3416 8.12154 11.6649 8.12154Z" fill="#00090A"/>
<path fill-rule="evenodd" clip-rule="evenodd" d="M11.6648 9.82251C12.1346 9.82251 12.5153 10.2033 12.5153 10.673V12.374C12.5128 14.6322 13.2018 16.838 14.4897 18.693C14.7576 19.0788 14.662 19.6088 14.2761 19.8767C13.8903 20.1445 13.3604 20.0489 13.0925 19.6631C11.6065 17.5229 10.8115 14.979 10.8143 12.3736C10.8143 12.3737 10.8143 12.3734 10.8143 12.3736V10.673C10.8143 10.2033 11.1951 9.82251 11.6648 9.82251Z" fill="#00090A"/>
<path fill-rule="evenodd" clip-rule="evenodd" d="M8.16403 13.2303C8.63056 13.1757 9.05304 13.5096 9.10767 13.9761C9.30422 15.6548 9.79358 17.286 10.5535 18.7956C10.7647 19.2152 10.5958 19.7265 10.1763 19.9377C9.75669 20.1489 9.24536 19.98 9.03416 19.5604C8.18482 17.8732 7.63789 16.0501 7.41821 14.1739C7.36358 13.7074 7.69749 13.2849 8.16403 13.2303Z" fill="#00090A"/>
<path fill-rule="evenodd" clip-rule="evenodd" d="M14.6416 5.49864C13.7354 4.97541 12.7072 4.70029 11.6608 4.701C10.6143 4.70171 9.58658 4.97823 8.68105 5.50268C7.77552 6.02713 7.02422 6.78099 6.50285 7.6883C5.98149 8.59561 5.70847 9.62432 5.71133 10.6707L5.71133 10.6731L5.71133 11.5236C5.71133 11.533 5.71117 11.5424 5.71086 11.5518C5.647 13.4731 5.89373 15.3921 6.44152 17.2347C6.57537 17.685 6.31889 18.1585 5.86864 18.2923C5.4184 18.4262 4.94489 18.1697 4.81104 17.7194C4.21244 15.7059 3.94208 13.6091 4.01033 11.5096V10.6742C4.00687 9.32919 4.35788 8.00701 5.028 6.84082C5.69833 5.67427 6.66429 4.70502 7.82854 4.03073C8.99279 3.35643 10.3142 3.00091 11.6596 3C13.005 2.99909 14.3269 3.35281 15.4921 4.02553C15.8989 4.26039 16.0383 4.78055 15.8034 5.18734C15.5685 5.59412 15.0484 5.7335 14.6416 5.49864Z" fill="#00090A"/>
</g>
<defs>
<clipPath id="clip0_348_23038">
<rect width="24" height="24" fill="white"/>
</clipPath>
</defs>
</svg>
