<svg width="24" height="24" viewBox="0 0 24 24" fill="none" xmlns="http://www.w3.org/2000/svg">
<path d="M16 2.25C18.0711 2.25 19.75 3.92893 19.75 6V10.3564C20.9039 10.6832 21.75 11.7415 21.75 13V17C21.75 18.5188 20.5188 19.75 19 19.75H18.75V21C18.75 21.4142 18.4142 21.75 18 21.75C17.5858 21.75 17.25 21.4142 17.25 21V19.75H6.75V21C6.75 21.4142 6.41421 21.75 6 21.75C5.58579 21.75 5.25 21.4142 5.25 21V19.75H5C3.48122 19.75 2.25 18.5188 2.25 17V13C2.25 11.7415 3.09614 10.6832 4.25 10.3564V6C4.25 3.92893 5.92893 2.25 8 2.25H16ZM19 11.75C18.3096 11.75 17.75 12.3096 17.75 13V15C17.75 15.4142 17.4142 15.75 17 15.75H7C6.58579 15.75 6.25 15.4142 6.25 15V13C6.25 12.3096 5.69036 11.75 5 11.75C4.30964 11.75 3.75 12.3096 3.75 13V17C3.75 17.6904 4.30964 18.25 5 18.25H19C19.6904 18.25 20.25 17.6904 20.25 17V13C20.25 12.3096 19.6904 11.75 19 11.75ZM8 3.75C6.75736 3.75 5.75 4.75736 5.75 6V10.3564C6.90386 10.6832 7.75 11.7415 7.75 13V14.25H16.25V13C16.25 11.7415 17.0961 10.6832 18.25 10.3564V6C18.25 4.75736 17.2426 3.75 16 3.75H8Z" fill="#00090A"/>
</svg>
