<svg width="24" height="24" viewBox="0 0 24 24" fill="none" xmlns="http://www.w3.org/2000/svg">
<path d="M15.5 4.25C17.0248 4.25011 18.4881 4.85633 19.5664 5.93457C20.4561 6.82458 21.0222 7.97659 21.1933 9.20899L22.7314 17.1182L22.7685 17.3623C22.832 17.9326 22.7331 18.511 22.4814 19.0303C22.1936 19.6239 21.7211 20.1089 21.1347 20.4112C20.5483 20.7134 19.879 20.817 19.2285 20.7071C18.6593 20.6108 18.1307 20.3554 17.7031 19.9727L17.5263 19.8008L13.6777 15.75H10.3222L6.52925 19.7432C6.07392 20.2226 5.47426 20.5419 4.82222 20.6514C4.17024 20.7608 3.49991 20.6549 2.91304 20.3506C2.32606 20.0461 1.85347 19.559 1.56734 18.9629C1.28121 18.3667 1.19742 17.6934 1.3271 17.0449L2.96089 8.87208L3.0146 8.62891C3.31068 7.42298 3.99022 6.34269 4.95406 5.55274C5.98224 4.7102 7.27124 4.24969 8.60054 4.25H15.5ZM20.4023 13.001C20.1678 13.3841 19.8892 13.7426 19.5664 14.0654C18.5555 15.0763 17.2062 15.6726 15.7851 15.7432L15.7412 15.7442L18.6132 18.7676L18.7031 18.8545C18.9205 19.0492 19.1891 19.1796 19.4785 19.2285C19.809 19.2844 20.1492 19.2308 20.4472 19.0772C20.7451 18.9235 20.9855 18.6776 21.1318 18.376C21.2597 18.1121 21.3096 17.8181 21.2773 17.5283L21.2587 17.4043L20.4023 13.001ZM8.59957 5.75C7.61726 5.74988 6.66505 6.09031 5.90523 6.71289C5.19285 7.29672 4.69053 8.09507 4.47164 8.98633L4.4316 9.16602L2.79781 17.3389C2.73192 17.6683 2.77457 18.0106 2.91988 18.3135C3.06522 18.6163 3.30539 18.8638 3.60347 19.0186C3.90172 19.1732 4.24285 19.2275 4.57418 19.1719C4.90534 19.1162 5.21004 18.9544 5.44136 18.711L9.45601 14.4834L9.51168 14.4307C9.64691 14.3147 9.82016 14.2501 9.99996 14.25H15.5L15.7109 14.2451C16.7612 14.1929 17.7587 13.752 18.5058 13.0049C19.3025 12.2079 19.75 11.1269 19.75 10C19.75 9.8131 19.736 9.62763 19.7119 9.44434L19.6591 9.17286L19.6474 9.09669C19.6469 9.09118 19.6478 9.08558 19.6474 9.08008C19.4738 8.29677 19.0819 7.57147 18.5058 6.99512C17.7089 6.19819 16.627 5.75011 15.5 5.75H8.59957ZM7.99996 8.25001C8.41409 8.2501 8.74996 8.58585 8.74996 9.00001V9.25001H8.99996C9.41409 9.2501 9.74996 9.58585 9.74996 10C9.74996 10.4142 9.41409 10.7499 8.99996 10.75H8.74996V11C8.74996 11.4142 8.41409 11.7499 7.99996 11.75C7.58574 11.75 7.24996 11.4142 7.24996 11V10.75H6.99996C6.58574 10.75 6.24996 10.4142 6.24996 10C6.24996 9.58579 6.58574 9.25001 6.99996 9.25001H7.24996V9.00001C7.24996 8.58579 7.58574 8.25001 7.99996 8.25001ZM16 9.25001C16.4141 9.2501 16.75 9.58585 16.75 10C16.75 10.4142 16.4141 10.7499 16 10.75H14C13.5857 10.75 13.25 10.4142 13.25 10C13.25 9.58579 13.5857 9.25001 14 9.25001H16Z" fill="#00090A"/>
</svg>
