<svg width="24" height="24" viewBox="0 0 24 24" fill="none" xmlns="http://www.w3.org/2000/svg">
<path d="M16.5 2.24902C18.2948 2.24902 19.7498 3.70528 19.75 5.5C19.7499 6.14463 19.5611 6.74474 19.2373 7.25H20C20.9665 7.25 21.75 8.0335 21.75 9V11C21.75 11.9665 20.9665 12.75 20 12.75H19.75V19C19.75 20.5188 18.5188 21.75 17 21.75H7C5.48122 21.75 4.25 20.5188 4.25 19V12.75H4C3.0335 12.75 2.25 11.9665 2.25 11V9C2.25 8.0335 3.0335 7.25 4 7.25H4.76172C4.43814 6.74479 4.25009 6.14441 4.25 5.5C4.25024 3.70528 5.70522 2.24902 7.5 2.24902V2.25195C8.75511 2.23452 9.88487 2.85776 10.7705 3.8418C11.2439 4.36785 11.6571 5.00696 12 5.7334C12.3429 5.00696 12.7561 4.36785 13.2295 3.8418C14.1151 2.85776 15.2449 2.23452 16.5 2.25195V2.24902ZM5.75 19C5.75 19.6904 6.30964 20.25 7 20.25H11.25V12.75H5.75V19ZM12.75 20.25H17C17.6904 20.25 18.25 19.6904 18.25 19V12.75H12.75V20.25ZM4 8.75C3.86193 8.75 3.75 8.86193 3.75 9V11C3.75 11.1381 3.86193 11.25 4 11.25H11.25V8.75H4ZM12.75 11.25H20C20.1381 11.25 20.25 11.1381 20.25 11V9C20.25 8.86193 20.1381 8.75 20 8.75H12.75V11.25ZM7.5 3.75098V3.75C6.53365 3.75 5.75024 4.5337 5.75 5.5C5.75025 6.40594 6.43891 7.1517 7.32129 7.24121L7.5 7.25H10.999C10.6526 6.24784 10.1844 5.43373 9.65527 4.8457C8.9726 4.08718 8.2266 3.73756 7.5127 3.75L7.5 3.75098ZM16.4873 3.75C15.7734 3.73756 15.0274 4.08718 14.3447 4.8457C13.8156 5.43373 13.3474 6.24784 13.001 7.25H16.5C17.4663 7.25 18.2497 6.46627 18.25 5.5C18.2498 4.5337 17.4664 3.75 16.5 3.75H16.4873Z" fill="#00090A"/>
</svg>
