<svg width="24" height="24" viewBox="0 0 24 24" fill="none" xmlns="http://www.w3.org/2000/svg">
<path d="M7.02123 4.32054C8.85275 4.00842 10.6994 4.60391 12.0027 5.87718C13.3083 4.61537 15.151 4.02991 16.9753 4.34496C19.1008 4.71214 20.8421 6.23819 21.4851 8.29711C22.128 10.3561 21.565 12.602 20.0261 14.1135L19.9685 14.1643L19.9656 14.1653L12.5281 21.5334C12.2358 21.8227 11.7647 21.8226 11.4724 21.5334L3.9724 14.1047L3.96362 14.095C2.42334 12.5858 1.85622 10.3417 2.49682 8.28148C3.13939 6.21494 4.88787 4.68422 7.02123 4.32054ZM11.3982 7.45336C10.444 6.16964 8.84993 5.53034 7.27319 5.79906C5.69634 6.06787 4.4034 7.19934 3.92846 8.72679C3.4536 10.2542 3.87689 11.9189 5.02319 13.0344C5.0248 13.036 5.02647 13.0377 5.02807 13.0393L11.9997 19.9436L18.9724 13.0393C18.9848 13.0271 18.9975 13.0153 19.0105 13.0041C20.1195 11.8876 20.5233 10.2493 20.0535 8.74437C19.5782 7.22249 18.2906 6.09382 16.7195 5.8225C15.1485 5.55133 13.5575 6.18303 12.5994 7.45726C12.4572 7.64601 12.2341 7.75675 11.9978 7.75609C11.7614 7.75534 11.5392 7.64307 11.3982 7.45336Z" fill="#00090A"/>
</svg>
