<svg width="24" height="24" viewBox="0 0 24 24" fill="none" xmlns="http://www.w3.org/2000/svg">
<path d="M2.46985 2.46967C2.76274 2.17678 3.2375 2.17678 3.5304 2.46967L17.838 16.7773C17.8757 16.809 17.9119 16.843 17.9435 16.8828L21.5304 20.4697C21.8233 20.7626 21.8233 21.2373 21.5304 21.5302C21.2375 21.8231 20.7627 21.8231 20.4699 21.5302L17.2452 18.3056C15.6358 19.2645 13.8851 19.7499 12.0001 19.7499C7.64011 19.7499 4.09708 17.1813 1.34876 12.372C1.2171 12.1415 1.21706 11.8584 1.34876 11.6279C2.57243 9.48711 3.95239 7.7877 5.50012 6.56049L2.46985 3.53022C2.17696 3.23732 2.17696 2.76256 2.46985 2.46967ZM6.56946 7.62983C5.24172 8.64813 4.00402 10.0947 2.86829 11.9999C5.41107 16.2676 8.46145 18.2499 12.0001 18.2499C13.4819 18.2499 14.8589 17.9025 16.1456 17.206L13.34 14.4003C12.2923 14.9872 10.9436 14.8374 10.0529 13.9462C9.16254 13.0553 9.01201 11.7063 9.59876 10.6591L6.56946 7.62983ZM12.0011 4.24994C16.3605 4.25047 19.9034 6.81905 22.6515 11.6279C22.7832 11.8584 22.7832 12.1415 22.6515 12.372C21.8507 13.7728 20.9842 14.9841 20.048 15.997C19.7669 16.3011 19.2926 16.3199 18.9884 16.039C18.6842 15.7579 18.6653 15.2826 18.9464 14.9785C19.7115 14.1507 20.4408 13.1595 21.132 11.9999C18.5892 7.7323 15.5388 5.74994 12.0001 5.74994H11.9972C11.1762 5.74706 10.3588 5.86008 9.56946 6.08588C9.17122 6.1998 8.75565 5.96947 8.64173 5.57123C8.52792 5.17314 8.75838 4.75754 9.15637 4.6435C10.0812 4.37894 11.0392 4.24669 12.0011 4.24994ZM10.7618 11.8222C10.7074 12.1989 10.8237 12.5957 11.1134 12.8857C11.4033 13.1757 11.8 13.2915 12.1769 13.2372L10.7618 11.8222Z" fill="#00090A"/>
</svg>
