<svg width="24" height="24" viewBox="0 0 24 24" fill="none" xmlns="http://www.w3.org/2000/svg">
<path d="M19.0001 13.2499C19.4142 13.2499 19.75 13.5858 19.7501 14V14.25H21.0001C21.4142 14.25 21.75 14.5858 21.7501 15C21.7501 15.4142 21.4143 15.75 21.0001 15.75H18.5001C18.3013 15.75 18.1104 15.8291 17.9698 15.9697C17.8292 16.1103 17.7501 16.3011 17.7501 16.5C17.7501 16.6988 17.8293 16.8896 17.9698 17.0302C18.1104 17.1708 18.3013 17.2499 18.5001 17.25H19.5001C20.0967 17.25 20.669 17.4873 21.0909 17.9092C21.5128 18.3311 21.75 18.9033 21.7501 19.5C21.7501 20.0967 21.5128 20.6688 21.0909 21.0908C20.7283 21.4534 20.2548 21.6779 19.7501 21.7344V22C19.7501 22.4142 19.4143 22.75 19.0001 22.75C18.586 22.7498 18.2501 22.4141 18.2501 22V21.75H17.0001C16.586 21.7498 16.25 21.4141 16.25 21C16.2501 20.5859 16.586 20.2502 17.0001 20.25H19.5001C19.6989 20.25 19.8897 20.1708 20.0303 20.0303C20.171 19.8896 20.2501 19.6989 20.2501 19.5C20.25 19.3011 20.171 19.1103 20.0303 18.9697C19.8897 18.8292 19.6989 18.75 19.5001 18.75H18.5001C17.9034 18.7499 17.3311 18.5127 16.9092 18.0908C16.4874 17.6689 16.25 17.0966 16.25 16.5C16.2501 15.9033 16.4874 15.3311 16.9092 14.9091C17.2717 14.5466 17.7455 14.3211 18.2501 14.2646V14C18.2501 13.5859 18.586 13.2501 19.0001 13.2499ZM11.5264 2.41787C11.8209 2.17762 12.2557 2.19523 12.5303 2.46962L19.5303 9.46966L19.5821 9.5263C19.8224 9.82088 19.8049 10.2556 19.5303 10.5302C19.2557 10.8047 18.821 10.8222 18.5264 10.582L18.4698 10.5302L12 4.06045L4.81054 11.2499H5L5.07714 11.2538C5.45508 11.2925 5.74994 11.6118 5.75 11.9999V19L5.75586 19.124C5.78435 19.4099 5.91133 19.6788 6.11621 19.8838C6.35056 20.1181 6.6686 20.2499 7.00001 20.25H8.25001V15C8.25004 14.2707 8.54004 13.5713 9.05568 13.0556C9.57133 12.54 10.2708 12.25 11 12.2499H13C13.531 12.2499 14.0283 12.4018 14.4493 12.663C14.801 12.8815 14.9097 13.3434 14.6914 13.6953C14.4729 14.0471 14.0101 14.1559 13.6582 13.9375C13.4673 13.819 13.2428 13.75 13 13.75H11C10.6686 13.75 10.3506 13.8818 10.1162 14.1162C9.8819 14.3505 9.75005 14.6685 9.75002 15V20.25H13C13.4142 20.25 13.75 20.5858 13.75 21C13.75 21.4142 13.4142 21.75 13 21.75H7.00001C6.27077 21.7499 5.57131 21.46 5.05566 20.9443C4.54007 20.4286 4.24999 19.7292 4.24999 19V12.7499H2.99999C2.69677 12.7498 2.42267 12.5672 2.30662 12.2871C2.19072 12.0069 2.25537 11.6841 2.46971 11.4697L11.4698 2.46962L11.5264 2.41787Z" fill="#00090A"/>
</svg>
