<svg width="24" height="24" viewBox="0 0 24 24" fill="none" xmlns="http://www.w3.org/2000/svg">
<path d="M10.8574 2.42072C11.5345 1.88984 12.5112 1.92728 13.1455 2.534L15.498 4.784C15.5138 4.23644 15.9398 3.69624 16.5869 3.69611H19.1719L19.2929 3.70295C19.8836 3.76658 20.2616 4.29202 20.2617 4.81525V9.34064L22.7002 11.6737L22.7529 11.7293C22.9995 12.0185 22.992 12.4536 22.7236 12.7342C22.4553 13.0146 22.0215 13.0409 21.7217 12.8074L21.6631 12.7576L20.2588 11.4139V19.1707C20.2586 20.6892 19.0273 21.9205 17.5088 21.9207H6.36229C4.8436 21.9207 3.61245 20.6894 3.61229 19.1707V11.4139L2.20799 12.7576C1.90872 13.0438 1.43376 13.0333 1.14744 12.7342C0.861189 12.4349 0.871738 11.96 1.17088 11.6737L10.7256 2.534L10.8574 2.42072ZM12.1084 3.61799C12.0239 3.53717 11.8969 3.52725 11.8017 3.58771L11.7627 3.61799L5.11131 9.97931C5.11134 9.98224 5.11229 9.98517 5.11229 9.9881V19.1707C5.11245 19.8609 5.67203 20.4207 6.36229 20.4207H17.5088C18.1988 20.4205 18.7586 19.8608 18.7588 19.1707V9.97931L15.75 7.10138C15.7324 7.08569 15.7152 7.06982 15.6992 7.05256L12.1084 3.61799ZM16.9971 6.2176L18.7617 7.90607V5.19611H16.9971V6.2176Z" fill="#00090A"/>
<path d="M12.218 8.2594C12.7239 8.30585 13.2079 8.51364 13.5833 8.86096C14.014 9.25978 14.2688 9.81395 14.2688 10.4049V11.0592H14.2952C15.7361 11.0592 16.4514 12.3598 16.4514 13.3502V16.1178C16.4514 17.1083 15.7361 18.4088 14.2952 18.4088H9.70435C8.26342 18.4088 7.54814 17.1083 7.5481 16.1178V13.3502C7.54815 12.3598 8.26343 11.0592 9.70435 11.0592H9.73169V10.4049C9.73169 9.81377 9.98623 9.2598 10.4172 8.86096C10.8463 8.46409 11.4167 8.24963 12.0002 8.24963L12.218 8.2594ZM9.70435 12.5592C9.34211 12.5592 9.04814 12.9135 9.0481 13.3502V16.1178L9.06177 16.277C9.11855 16.6116 9.35033 16.8688 9.63696 16.9039L9.70435 16.9088H14.2952C14.6122 16.9088 14.8766 16.6373 14.9377 16.277L14.9514 16.1178V13.3502C14.9514 12.9408 14.6933 12.6035 14.3625 12.5631L14.2952 12.5592H9.70435ZM12.0002 9.74963C11.7786 9.74963 11.5762 9.83176 11.4358 9.96155C11.2973 10.0897 11.2317 10.2508 11.2317 10.4049V11.0592H12.7688V10.4049C12.7688 10.2509 12.7029 10.0896 12.5647 9.96155C12.4595 9.86423 12.3191 9.79353 12.1624 9.76428L12.0002 9.74963Z" fill="#00090A"/>
<rect x="11.2498" y="13.7001" width="1.5" height="2" rx="0.75" fill="#00090A"/>
</svg>
