<svg width="24" height="24" viewBox="0 0 24 24" fill="none" xmlns="http://www.w3.org/2000/svg">
<path d="M10.8574 2.42072C11.5345 1.88984 12.5112 1.92728 13.1455 2.534L15.498 4.784C15.5138 4.23644 15.9398 3.69624 16.5869 3.69611H19.1719L19.2929 3.70295C19.8836 3.76658 20.2616 4.29202 20.2617 4.81525V9.34064L22.7002 11.6737L22.7529 11.7293C22.9995 12.0185 22.992 12.4536 22.7236 12.7342C22.4553 13.0146 22.0215 13.0409 21.7217 12.8074L21.6631 12.7576L20.2588 11.4139V19.1707C20.2586 20.6892 19.0273 21.9205 17.5088 21.9207H6.36229C4.8436 21.9207 3.61245 20.6894 3.61229 19.1707V11.4139L2.20799 12.7576C1.90872 13.0438 1.43376 13.0333 1.14744 12.7342C0.861189 12.4349 0.871738 11.96 1.17088 11.6737L10.7256 2.534L10.8574 2.42072ZM12.1084 3.61799C12.0239 3.53717 11.8969 3.52725 11.8017 3.58771L11.7627 3.61799L5.11131 9.97931C5.11134 9.98224 5.11229 9.98517 5.11229 9.9881V19.1707C5.11245 19.8609 5.67203 20.4207 6.36229 20.4207H17.5088C18.1988 20.4205 18.7586 19.8608 18.7588 19.1707V9.97931L15.75 7.10138C15.7324 7.08569 15.7152 7.06982 15.6992 7.05256L12.1084 3.61799ZM16.9971 6.2176L18.7617 7.90607V5.19611H16.9971V6.2176Z" fill="#00090A"/>
<path d="M12.1543 8.2608C12.2536 8.27562 12.3495 8.30549 12.4395 8.34772L12.5704 8.42096L12.6875 8.5108C12.7962 8.60715 12.881 8.72521 12.9415 8.85455L12.9434 8.85358L13.8487 10.7803L15.8643 11.088L16.0108 11.1212C16.1062 11.1505 16.1962 11.1936 16.2784 11.2481L16.3946 11.338L16.4971 11.4424C16.5599 11.5162 16.6114 11.5979 16.6514 11.6846L16.7032 11.8184L16.7354 11.9561C16.751 12.0497 16.7546 12.145 16.7452 12.2393L16.7208 12.379C16.6769 12.564 16.5841 12.7374 16.4473 12.877L16.4463 12.878L14.9678 14.3819L15.3184 16.5176L15.3321 16.6592C15.3362 16.8005 15.3121 16.942 15.2608 17.0753C15.1922 17.2532 15.0761 17.4134 14.92 17.5333C14.7634 17.6535 14.5735 17.7283 14.3721 17.7442C14.1707 17.7601 13.9706 17.716 13.7959 17.6202V17.6192L12.001 16.6329L10.2041 17.6221V17.6231C10.0295 17.719 9.82946 17.763 9.62798 17.7471C9.42659 17.7313 9.23672 17.6564 9.08013 17.5362C8.92404 17.4163 8.80786 17.2561 8.73931 17.0782C8.67092 16.9005 8.65128 16.7082 8.68169 16.5215V16.5206L9.0313 14.3848L7.55376 12.8809H7.55278C7.41588 12.7414 7.32329 12.5679 7.27935 12.3829C7.23551 12.1979 7.24106 12.0035 7.29692 11.8214L7.34868 11.6876C7.4087 11.5575 7.49534 11.4388 7.60552 11.3409L7.72173 11.251C7.8449 11.1694 7.98568 11.1138 8.13579 11.0909L10.1524 10.7833L11.0625 8.8526V8.85358C11.1434 8.68073 11.271 8.52957 11.4356 8.42096L11.5655 8.34772C11.7008 8.28418 11.8501 8.25006 12.003 8.25006L12.1543 8.2608ZM11.3389 11.7842C11.2457 11.982 11.0718 12.128 10.8643 12.1866L10.7735 12.2061L9.22563 12.4415L10.3692 13.6055L10.4278 13.6729C10.554 13.8364 10.6081 14.0466 10.5743 14.253L10.3116 15.8516L11.6407 15.1212L11.7266 15.0801C11.9327 14.9988 12.1663 15.0129 12.3633 15.1212L13.6875 15.8487L13.4258 14.2501C13.3871 14.0141 13.4634 13.7732 13.6309 13.6026L14.7745 12.4385L13.2276 12.2032C13.0112 12.1702 12.8214 12.0449 12.7061 11.8624L12.6612 11.7813L12.001 10.377L11.3389 11.7842Z" fill="#00090A"/>
</svg>
