<svg width="24" height="24" viewBox="0 0 24 24" fill="none" xmlns="http://www.w3.org/2000/svg">
<path fill-rule="evenodd" clip-rule="evenodd" d="M17.0002 3.43799H7.00024C6.17182 3.43799 5.50024 4.10956 5.50024 4.93799V19.313C5.50024 20.1414 6.17182 20.813 7.00024 20.813H17.0002C17.8287 20.813 18.5002 20.1414 18.5002 19.313V4.93799C18.5002 4.10956 17.8287 3.43799 17.0002 3.43799ZM7.00024 1.93799C5.34339 1.93799 4.00024 3.28113 4.00024 4.93799V19.313C4.00024 20.9698 5.34339 22.313 7.00024 22.313H17.0002C18.6571 22.313 20.0002 20.9698 20.0002 19.313V4.93799C20.0002 3.28113 18.6571 1.93799 17.0002 1.93799H7.00024Z" fill="#00090A"/>
<path fill-rule="evenodd" clip-rule="evenodd" d="M12 8.45068C10.531 8.45068 9.34019 9.6415 9.34019 11.1104C9.34019 12.5794 10.531 13.7702 12 13.7702C13.4689 13.7702 14.6597 12.5794 14.6597 11.1104C14.6597 9.6415 13.4689 8.45068 12 8.45068ZM10.6854 11.1104C10.6854 10.3844 11.2739 9.79587 12 9.79587C12.726 9.79587 13.3145 10.3844 13.3145 11.1104C13.3145 11.8365 12.726 12.425 12 12.425C11.2739 12.425 10.6854 11.8365 10.6854 11.1104Z" fill="#00090A"/>
<path fill-rule="evenodd" clip-rule="evenodd" d="M12 14.1638L11.9273 14.1638C11.4182 14.1633 10.3873 14.1622 9.45888 14.4221C8.96845 14.5594 8.44811 14.7845 8.04268 15.1711C7.61727 15.5769 7.35303 16.1293 7.35303 16.8236C7.35303 17.881 8.21021 18.7382 9.2676 18.7382H14.7323C15.7897 18.7382 16.6469 17.881 16.6469 16.8236C16.6469 16.1293 16.3826 15.5769 15.9572 15.1711C15.5518 14.7845 15.0315 14.5594 14.541 14.4221C13.6126 14.1622 12.5818 14.1633 12.0726 14.1638L12 14.1638ZM9.82151 15.7175C10.5623 15.5101 11.4296 15.5088 11.9519 15.509H12.048C12.5703 15.5088 13.4377 15.5101 14.1784 15.7175C14.5574 15.8236 14.8443 15.9686 15.0288 16.1446C15.1933 16.3015 15.3017 16.5043 15.3017 16.8236C15.3017 17.1381 15.0468 17.393 14.7323 17.393H9.2676C8.95314 17.393 8.69822 17.1381 8.69822 16.8236C8.69822 16.5043 8.80661 16.3015 8.97109 16.1446C9.15561 15.9686 9.44255 15.8236 9.82151 15.7175Z" fill="#00090A"/>
<path fill-rule="evenodd" clip-rule="evenodd" d="M9.41525 5.35986C9.41525 4.97326 9.72865 4.65986 10.1153 4.65986H13.8852C14.2718 4.65986 14.5852 4.97326 14.5852 5.35986C14.5852 5.74646 14.2718 6.05986 13.8852 6.05986H10.1153C9.72865 6.05986 9.41525 5.74646 9.41525 5.35986Z" fill="#00090A"/>
</svg>
