<svg width="24" height="24" viewBox="0 0 24 24" fill="none" xmlns="http://www.w3.org/2000/svg">
<path fill-rule="evenodd" clip-rule="evenodd" d="M12 3.75C7.44365 3.75 3.75 7.44365 3.75 12C3.75 16.5563 7.44365 20.25 12 20.25C16.5563 20.25 20.25 16.5563 20.25 12C20.25 7.44365 16.5563 3.75 12 3.75ZM2.25 12C2.25 6.61522 6.61522 2.25 12 2.25C17.3848 2.25 21.75 6.61522 21.75 12C21.75 17.3848 17.3848 21.75 12 21.75C6.61522 21.75 2.25 17.3848 2.25 12Z" fill="#00090A"/>
<path d="M12.0001 11H11.0001L10.8831 11.007C10.6401 11.0359 10.4161 11.153 10.2535 11.336C10.091 11.519 10.0012 11.7552 10.0012 12C10.0012 12.2448 10.091 12.481 10.2535 12.664C10.4161 12.847 10.6401 12.9641 10.8831 12.993L11.0001 13V16L11.0071 16.117C11.0334 16.3402 11.1342 16.5481 11.2931 16.707C11.4521 16.8659 11.6599 16.9667 11.8831 16.993L12.0001 17H13.0001L13.1171 16.993C13.3403 16.9667 13.5482 16.8659 13.7071 16.707C13.866 16.5481 13.9668 16.3402 13.9931 16.117L14.0001 16L13.9931 15.883C13.9692 15.679 13.883 15.4873 13.7463 15.3339C13.6097 15.1806 13.4291 15.0731 13.2291 15.026L13.1171 15.006L13.0001 15V12L12.9931 11.883C12.9668 11.6598 12.866 11.4519 12.7071 11.293C12.5482 11.1341 12.3403 11.0333 12.1171 11.007L12.0001 11ZM12.0101 8L11.8831 8.007C11.6401 8.03591 11.4161 8.15296 11.2535 8.33597C11.091 8.51897 11.0012 8.75524 11.0012 9C11.0012 9.24476 11.091 9.48103 11.2535 9.66403C11.4161 9.84704 11.6401 9.96409 11.8831 9.993L12.0001 10L12.1271 9.993C12.3702 9.96409 12.5942 9.84704 12.7567 9.66403C12.9192 9.48103 13.009 9.24476 13.009 9C13.009 8.75524 12.9192 8.51897 12.7567 8.33597C12.5942 8.15296 12.3702 8.03591 12.1271 8.007L12.0101 8Z" fill="#00090A"/>
</svg>
