<svg width="24" height="24" viewBox="0 0 24 24" fill="none" xmlns="http://www.w3.org/2000/svg">
<path d="M18.2502 3.75C20.3212 3.75016 22.0002 5.42903 22.0002 7.5V16.5C22.0002 18.571 20.3212 20.2498 18.2502 20.25H5.75317C3.68211 20.25 2.00317 18.5711 2.00317 16.5V7.5C2.00317 5.42893 3.68211 3.75 5.75317 3.75H18.2502ZM5.75317 5.25C4.51053 5.25 3.50317 6.25736 3.50317 7.5V16.5C3.50317 17.7426 4.51053 18.75 5.75317 18.75H18.2502C19.4927 18.7498 20.5002 17.7425 20.5002 16.5V7.5C20.5002 6.25746 19.4927 5.25016 18.2502 5.25H5.75317ZM9.71313 12.6416C10.2314 12.6409 11.2948 12.6392 12.2522 12.9072C12.7578 13.0488 13.2998 13.2821 13.7239 13.6865C14.1703 14.1123 14.4475 14.6928 14.4475 15.4189C14.4475 16.533 13.544 17.4365 12.4299 17.4365H6.85474C5.74068 17.4365 4.83716 16.533 4.83716 15.4189C4.83718 14.6928 5.11439 14.1123 5.56079 13.6865C5.98487 13.2822 6.52694 13.0487 7.03247 12.9072C7.98987 12.6392 9.05334 12.6409 9.57153 12.6416H9.71313ZM9.60474 14.1416C9.07288 14.1415 8.18923 14.141 7.43677 14.3516C7.05541 14.4583 6.77373 14.6029 6.59595 14.7725C6.44048 14.9207 6.33718 15.111 6.33716 15.4189C6.33716 15.7046 6.56911 15.9365 6.85474 15.9365H12.4299C12.7155 15.9365 12.9475 15.7046 12.9475 15.4189C12.9475 15.1111 12.8441 14.9207 12.6887 14.7725C12.511 14.6029 12.2292 14.4583 11.8479 14.3516C11.0955 14.1409 10.2118 14.1415 9.67993 14.1416H9.60474ZM9.64185 6.8125C11.1758 6.8125 12.4191 8.05595 12.4192 9.58984C12.4192 11.1238 11.1758 12.3672 9.64185 12.3672C8.10801 12.367 6.8645 11.1237 6.8645 9.58984C6.86458 8.05604 8.10806 6.81265 9.64185 6.8125ZM18.1672 10.4814C18.5814 10.4814 18.9172 10.8172 18.9172 11.2314C18.9171 11.6456 18.5814 11.9814 18.1672 11.9814H15.4143C15.0002 11.9814 14.6644 11.6456 14.6643 11.2314C14.6643 10.8172 15.0001 10.4814 15.4143 10.4814H18.1672ZM9.64185 8.3125C8.93649 8.31265 8.36458 8.88447 8.3645 9.58984C8.3645 10.2953 8.93644 10.867 9.64185 10.8672C10.3474 10.8672 10.9192 10.2954 10.9192 9.58984C10.9191 8.88437 10.3473 8.3125 9.64185 8.3125ZM16.9319 7.98145C17.3461 7.98145 17.6819 8.31723 17.6819 8.73145C17.6818 9.14555 17.346 9.48145 16.9319 9.48145H15.3088C14.8949 9.48118 14.559 9.14539 14.5588 8.73145C14.5588 8.31739 14.8948 7.98171 15.3088 7.98145H16.9319Z" fill="#00090A"/>
</svg>
