<svg width="24" height="24" viewBox="0 0 24 24" fill="none" xmlns="http://www.w3.org/2000/svg">
<path d="M11.4998 8.20005C12.642 8.20005 13.7365 8.65958 14.5359 9.47544C14.8257 9.77131 14.821 10.2461 14.5252 10.536C14.2294 10.8258 13.7545 10.8209 13.4646 10.5252C12.9474 9.99733 12.2389 9.70005 11.4998 9.70005C10.7608 9.70013 10.0531 9.99741 9.53593 10.5252L9.53007 10.5301L5.53007 14.5301C4.44237 15.6178 4.44256 17.3817 5.53007 18.4696C6.61788 19.5574 8.3817 19.5574 9.46952 18.4696L9.96952 17.9696C10.2623 17.6768 10.7371 17.677 11.0301 17.9696C11.323 18.2625 11.323 18.7372 11.0301 19.0301L10.5301 19.5301C8.85646 21.2037 6.14312 21.2037 4.46952 19.5301C2.79623 17.8565 2.79603 15.1431 4.46952 13.4696L8.46757 9.47251C9.26661 8.65858 10.3591 8.20013 11.4998 8.20005ZM13.4695 4.46958C15.143 2.79609 17.8564 2.7963 19.5301 4.46958C21.2037 6.14318 21.2037 8.85652 19.5301 10.5301L15.533 14.5282C14.7339 15.3422 13.6406 15.8006 12.4998 15.8006C11.3578 15.8006 10.2639 15.3409 9.46464 14.5252C9.17476 14.2294 9.17954 13.7546 9.47538 13.4647C9.77125 13.1748 10.246 13.1796 10.5359 13.4754C11.0531 14.0032 11.7609 14.3006 12.4998 14.3006C13.2389 14.3006 13.9474 14.0033 14.4646 13.4754L14.4695 13.4696L18.4695 9.46958C19.5573 8.38176 19.5573 6.61794 18.4695 5.53013C17.3817 4.44263 15.6178 4.44242 14.5301 5.53013L14.0301 6.03013C13.7372 6.32302 13.2624 6.32302 12.9695 6.03013C12.6769 5.73721 12.6767 5.26237 12.9695 4.96958L13.4695 4.46958Z" fill="#00090A"/>
</svg>
