<svg width="24" height="24" viewBox="0 0 24 24" fill="none" xmlns="http://www.w3.org/2000/svg">
<path d="M22.5332 11.4727C22.8217 11.7648 22.8217 12.2352 22.5332 12.5273L19.2002 15.9023C18.9091 16.1968 18.4343 16.1992 18.1396 15.9082C17.8451 15.6171 17.8418 15.1423 18.1328 14.8477L20.2051 12.75H8.66699C8.25278 12.75 7.91699 12.4142 7.91699 12C7.91699 11.5858 8.25278 11.25 8.66699 11.25H20.2051L18.1328 9.15234L19.2002 8.09766L22.5332 11.4727ZM18.1396 8.0918C18.4343 7.8008 18.9091 7.80315 19.2002 8.09766L18.1328 9.15234C17.8418 8.8577 17.8451 8.38288 18.1396 8.0918ZM13.4727 7.5V5.25C13.4727 4.84939 13.315 4.46709 13.0381 4.18652C12.7613 3.90623 12.3874 3.75 12 3.75H4.22266C3.83523 3.75 3.4614 3.90623 3.18457 4.18652C2.90755 4.46711 2.75 4.84929 2.75 5.25V18.75C2.75 19.1507 2.90755 19.5329 3.18457 19.8135C3.4614 20.0938 3.83523 20.25 4.22266 20.25H12C12.3874 20.25 12.7613 20.0938 13.0381 19.8135C13.315 19.5329 13.4727 19.1506 13.4727 18.75V16.5C13.4727 16.0858 13.8084 15.75 14.2227 15.75C14.6367 15.7502 14.9727 16.0859 14.9727 16.5V18.75C14.9727 19.5427 14.6608 20.3049 14.1045 20.8682C13.5479 21.4316 12.7912 21.75 12 21.75H4.22266C3.43136 21.75 2.67385 21.4318 2.11719 20.8682C1.56084 20.3049 1.25 19.5427 1.25 18.75V5.25C1.25 4.45734 1.56084 3.69514 2.11719 3.13184C2.67385 2.56824 3.43136 2.25 4.22266 2.25H12C12.7912 2.25 13.5479 2.56841 14.1045 3.13184C14.6608 3.69514 14.9727 4.45734 14.9727 5.25V7.5C14.9727 7.91407 14.6367 8.24977 14.2227 8.25C13.8084 8.25 13.4727 7.91421 13.4727 7.5Z" fill="#00090A"/>
</svg>
