<svg width="24" height="24" viewBox="0 0 24 24" fill="none" xmlns="http://www.w3.org/2000/svg">
<path d="M14 3.25C15.5188 3.25 16.75 4.48122 16.75 6V7.25H18C19.5188 7.25 20.75 8.48122 20.75 10V18C20.75 19.5188 19.5188 20.75 18 20.75H6C4.48122 20.75 3.25 19.5188 3.25 18V10C3.25 8.48122 4.48122 7.25 6 7.25H7.25V6C7.25 4.48122 8.48122 3.25 10 3.25H14ZM6 8.75C5.30964 8.75 4.75 9.30964 4.75 10V18C4.75 18.6904 5.30964 19.25 6 19.25H18C18.6904 19.25 19.25 18.6904 19.25 18V10C19.25 9.30964 18.6904 8.75 18 8.75H6ZM12 11.25C12.4142 11.25 12.75 11.5858 12.75 12V13.25H14C14.4142 13.25 14.75 13.5858 14.75 14C14.75 14.4142 14.4142 14.75 14 14.75H12.75V16C12.75 16.4142 12.4142 16.75 12 16.75C11.5858 16.75 11.25 16.4142 11.25 16V14.75H10C9.58579 14.75 9.25 14.4142 9.25 14C9.25 13.5858 9.58579 13.25 10 13.25H11.25V12C11.25 11.5858 11.5858 11.25 12 11.25ZM10 4.75C9.30964 4.75 8.75 5.30964 8.75 6V7.25H15.25V6C15.25 5.30964 14.6904 4.75 14 4.75H10Z" fill="#00090A"/>
</svg>
