<svg width="24" height="24" viewBox="0 0 24 24" fill="none" xmlns="http://www.w3.org/2000/svg">
<path d="M3.25 20V4C3.25 3.58579 3.58579 3.25 4 3.25C4.41421 3.25 4.75 3.58579 4.75 4V20C4.75 20.4142 4.41421 20.75 4 20.75C3.58579 20.75 3.25 20.4142 3.25 20ZM15.4697 7.46973C15.7443 7.19512 16.1791 7.17766 16.4736 7.41797L16.5303 7.46973L20.5303 11.4697C20.8232 11.7626 20.8232 12.2374 20.5303 12.5303L16.5303 16.5303C16.2374 16.8232 15.7626 16.8232 15.4697 16.5303C15.1768 16.2374 15.1768 15.7626 15.4697 15.4697L18.1895 12.75H10C9.58579 12.75 9.25 12.4142 9.25 12C9.25 11.5858 9.58579 11.25 10 11.25H18.1895L15.4697 8.53027L15.418 8.47363C15.1777 8.17905 15.1951 7.74433 15.4697 7.46973Z" fill="#00090A"/>
</svg>
