<svg width="24" height="24" viewBox="0 0 24 24" fill="none" xmlns="http://www.w3.org/2000/svg">
<path d="M19 2.25C19.2841 2.25 19.5439 2.41095 19.6709 2.66504L21.6709 6.66504C21.6745 6.67224 21.6763 6.68022 21.6797 6.6875C21.6862 6.70167 21.6926 6.71584 21.6982 6.73047C21.7132 6.76926 21.7261 6.80845 21.7344 6.84863C21.7444 6.89754 21.75 6.94812 21.75 7V8C21.75 9.43884 20.9392 10.6876 19.75 11.3164V20.25H21C21.4142 20.25 21.75 20.5858 21.75 21C21.75 21.4142 21.4142 21.75 21 21.75H3C2.58579 21.75 2.25 21.4142 2.25 21C2.25 20.5858 2.58579 20.25 3 20.25H4.25V11.3164C3.06079 10.6876 2.25 9.43884 2.25 8V7C2.25 6.94812 2.2556 6.89754 2.26562 6.84863C2.27388 6.80856 2.28586 6.76916 2.30078 6.73047C2.30642 6.71585 2.31282 6.70166 2.31934 6.6875C2.32274 6.6801 2.32545 6.67236 2.3291 6.66504L4.3291 2.66504C4.45615 2.41095 4.71592 2.25 5 2.25H19ZM15 10.25C14.3158 11.1608 13.2268 11.75 12 11.75C10.7732 11.75 9.68416 11.1608 9 10.25C8.31584 11.1608 7.2268 11.75 6 11.75C5.91596 11.75 5.83266 11.7457 5.75 11.7402V20.25H8.25V17C8.25 15.4812 9.48122 14.25 11 14.25H13C14.5188 14.25 15.75 15.4812 15.75 17V20.25H18.25V11.7402C18.1673 11.7457 18.084 11.75 18 11.75C16.7732 11.75 15.6842 11.1608 15 10.25ZM11 15.75C10.3096 15.75 9.75 16.3096 9.75 17V20.25H14.25V17C14.25 16.3096 13.6904 15.75 13 15.75H11ZM3.75 8C3.75 9.24264 4.75736 10.25 6 10.25C7.24264 10.25 8.25 9.24264 8.25 8V7.75H3.75V8ZM9.75 8C9.75 9.24264 10.7574 10.25 12 10.25C13.2426 10.25 14.25 9.24264 14.25 8V7.75H9.75V8ZM15.75 8C15.75 9.24264 16.7574 10.25 18 10.25C19.2426 10.25 20.25 9.24264 20.25 8V7.75H15.75V8ZM4.21387 6.25H19.7861L18.5361 3.75H5.46387L4.21387 6.25Z" fill="#00090A"/>
</svg>
