<svg width="24" height="24" viewBox="0 0 24 24" fill="none" xmlns="http://www.w3.org/2000/svg">
<path d="M14.5 2.25C15.0967 2.25 15.6689 2.48722 16.0908 2.90918C16.5128 3.33114 16.75 3.90326 16.75 4.5C16.75 5.62717 16.3019 6.70785 15.5049 7.50488C15.3877 7.62202 15.2634 7.73028 15.1348 7.83203C16.2691 8.26725 17.3118 8.93683 18.1875 9.8125C19.8284 11.4534 20.75 13.6794 20.75 16V17C20.75 18.2598 20.2492 19.4676 19.3584 20.3584C18.4676 21.2492 17.2598 21.75 16 21.75H8C6.74022 21.75 5.5324 21.2492 4.6416 20.3584C3.7508 19.4676 3.25 18.2598 3.25 17V16C3.25 13.6794 4.17156 11.4534 5.8125 9.8125C6.68809 8.93691 7.73103 8.26824 8.86523 7.83301C8.73642 7.73115 8.6124 7.62217 8.49512 7.50488C7.74794 6.75771 7.30703 5.76131 7.25488 4.71094L7.25 4.5C7.25 3.90326 7.48722 3.33114 7.90918 2.90918C8.33114 2.48722 8.90326 2.25 9.5 2.25H14.5ZM12 8.75C10.0772 8.75 8.23269 9.51341 6.87305 10.873C5.51341 12.2327 4.75 14.0772 4.75 16V17C4.75 17.862 5.09266 18.6884 5.70215 19.2979C6.31164 19.9073 7.13805 20.25 8 20.25H16C16.862 20.25 17.6884 19.9073 18.2979 19.2979C18.9073 18.6884 19.25 17.862 19.25 17V16L19.2412 15.6406C19.1523 13.8486 18.4016 12.1477 17.127 10.873C15.8523 9.59835 14.1514 8.84765 12.3594 8.75879L12 8.75ZM9.5 3.75C9.30109 3.75 9.11038 3.82907 8.96973 3.96973C8.82907 4.11038 8.75 4.30109 8.75 4.5L8.76367 4.77148C8.82612 5.40113 9.10433 5.99301 9.55566 6.44434C10.0714 6.96006 10.7707 7.25 11.5 7.25H12.5C13.2293 7.25 13.9286 6.96006 14.4443 6.44434C14.9601 5.92861 15.25 5.22935 15.25 4.5L15.2354 4.35254C15.2065 4.20855 15.1356 4.0751 15.0303 3.96973C14.8896 3.82907 14.6989 3.75 14.5 3.75H9.5Z" fill="#00090A"/>
</svg>
