<svg width="24" height="24" viewBox="0 0 24 24" fill="none" xmlns="http://www.w3.org/2000/svg">
<path d="M11.6555 3.29251C13.6154 1.52161 16.6417 1.58047 18.5305 3.46926C20.4194 5.35813 20.4782 8.38439 18.7073 10.3443L18.5305 10.5308L12.0305 17.0308C10.9093 18.1519 9.0913 18.1517 7.96998 17.0308C6.84866 15.9095 6.84866 14.0906 7.96998 12.9693L14.47 6.46926L14.5266 6.41848C14.8212 6.17813 15.2559 6.19471 15.5305 6.46926C15.8234 6.76216 15.8234 7.23789 15.5305 7.53079L9.03053 14.0308C8.49514 14.5663 8.49511 15.4338 9.03053 15.9693C9.56606 16.5048 10.4344 16.5048 10.97 15.9693L17.47 9.46926L17.593 9.33938C18.8319 7.96848 18.791 5.85223 17.47 4.53079C16.1486 3.20937 14.0315 3.16777 12.6604 4.40676L12.5305 4.53079L6.03053 11.0308C3.83828 13.2232 3.83826 16.7769 6.03053 18.9693C8.22292 21.1617 11.7776 21.1617 13.97 18.9693L20.47 12.4693L20.5266 12.4185C20.8212 12.1781 21.2559 12.1947 21.5305 12.4693C21.8234 12.7622 21.8234 13.2379 21.5305 13.5308L15.0305 20.0308C12.2525 22.8087 7.74815 22.8085 4.96998 20.0308C2.19181 17.2526 2.19181 12.7474 4.96998 9.96926L11.47 3.46926L11.6555 3.29251Z" fill="#00090A"/>
</svg>
