<svg width="24" height="24" viewBox="0 0 24 24" fill="none" xmlns="http://www.w3.org/2000/svg">
<path d="M5.00001 16.25C5.41423 16.25 5.75001 16.5858 5.75001 17V17.7861L6.66505 17.3291C7.03548 17.1441 7.48572 17.2947 7.67091 17.665C7.85587 18.0354 7.70611 18.4856 7.33595 18.6709L6.67775 19L7.33595 19.3291C7.70624 19.5144 7.85611 19.9655 7.67091 20.3359C7.48559 20.706 7.03535 20.8559 6.66505 20.6709L5.75001 20.2129V21C5.75001 21.4142 5.41423 21.75 5.00001 21.75C4.58586 21.7499 4.25001 21.4142 4.25001 21V20.2139L3.33595 20.6709C2.96557 20.8561 2.51445 20.7062 2.32911 20.3359C2.14387 19.9655 2.29457 19.5143 2.66505 19.3291L3.32228 18.999L2.66505 18.6709C2.2947 18.4857 2.14419 18.0354 2.32911 17.665C2.51436 17.2946 2.96547 17.1439 3.33595 17.3291L4.25001 17.7861V17C4.25001 16.5858 4.58586 16.2501 5.00001 16.25Z" fill="#00090A"/>
<path d="M12 16.25C12.4142 16.25 12.75 16.5858 12.75 17V17.7861L13.6651 17.3291C14.0355 17.1441 14.4857 17.2947 14.6709 17.665C14.8559 18.0354 14.7061 18.4856 14.336 18.6709L13.6777 19L14.336 19.3291C14.7062 19.5144 14.8561 19.9655 14.6709 20.3359C14.4856 20.706 14.0353 20.8559 13.6651 20.6709L12.75 20.2129V21C12.75 21.4142 12.4142 21.75 12 21.75C11.5859 21.7499 11.25 21.4142 11.25 21V20.2139L10.336 20.6709C9.96557 20.8561 9.51445 20.7062 9.32911 20.3359C9.14387 19.9655 9.29457 19.5143 9.66505 19.3291L10.3223 18.999L9.66505 18.6709C9.2947 18.4857 9.14419 18.0354 9.32911 17.665C9.51436 17.2946 9.96547 17.1439 10.336 17.3291L11.25 17.7861V17C11.25 16.5858 11.5859 16.2501 12 16.25Z" fill="#00090A"/>
<path d="M19 16.25C19.4142 16.25 19.75 16.5858 19.75 17V17.7861L20.6651 17.3291C21.0355 17.1441 21.4857 17.2947 21.6709 17.665C21.8559 18.0354 21.7061 18.4856 21.336 18.6709L20.6777 19L21.336 19.3291C21.7062 19.5144 21.8561 19.9655 21.6709 20.3359C21.4856 20.706 21.0353 20.8559 20.6651 20.6709L19.75 20.2129V21C19.75 21.4142 19.4142 21.75 19 21.75C18.5859 21.7499 18.25 21.4142 18.25 21V20.2139L17.336 20.6709C16.9656 20.8561 16.5145 20.7062 16.3291 20.3359C16.1439 19.9655 16.2946 19.5143 16.6651 19.3291L17.3223 18.999L16.6651 18.6709C16.2947 18.4857 16.1442 18.0354 16.3291 17.665C16.5144 17.2946 16.9655 17.1439 17.336 17.3291L18.25 17.7861V17C18.25 16.5858 18.5859 16.2501 19 16.25Z" fill="#00090A"/>
<path fill-rule="evenodd" clip-rule="evenodd" d="M9.34835 3.34835C10.0516 2.64509 11.0054 2.25 12 2.25C12.9946 2.25 13.9484 2.64509 14.6517 3.34835C15.3549 4.05161 15.75 5.00544 15.75 6C15.75 6.99456 15.3549 7.94839 14.6517 8.65165C13.9484 9.35491 12.9946 9.75 12 9.75C11.0054 9.75 10.0516 9.35491 9.34835 8.65165C8.64509 7.94839 8.25 6.99456 8.25 6C8.25 5.00544 8.64509 4.05161 9.34835 3.34835ZM12 3.75C11.4033 3.75 10.831 3.98705 10.409 4.40901C9.98705 4.83097 9.75 5.40326 9.75 6C9.75 6.59674 9.98705 7.16903 10.409 7.59099C10.831 8.01295 11.4033 8.25 12 8.25C12.5967 8.25 13.169 8.01295 13.591 7.59099C14.0129 7.16903 14.25 6.59674 14.25 6C14.25 5.40326 14.0129 4.83097 13.591 4.40901C13.169 3.98705 12.5967 3.75 12 3.75Z" fill="#00090A"/>
<path fill-rule="evenodd" clip-rule="evenodd" d="M9 12.75C8.66848 12.75 8.35054 12.8817 8.11612 13.1161C7.8817 13.3505 7.75 13.6685 7.75 14C7.75 14.4142 7.41421 14.75 7 14.75C6.58579 14.75 6.25 14.4142 6.25 14C6.25 13.2707 6.53973 12.5712 7.05546 12.0555C7.57118 11.5397 8.27065 11.25 9 11.25H15C15.7293 11.25 16.4288 11.5397 16.9445 12.0555C17.4603 12.5712 17.75 13.2707 17.75 14C17.75 14.4142 17.4142 14.75 17 14.75C16.5858 14.75 16.25 14.4142 16.25 14C16.25 13.6685 16.1183 13.3505 15.8839 13.1161C15.6495 12.8817 15.3315 12.75 15 12.75H9Z" fill="#00090A"/>
</svg>
