<svg width="24" height="24" viewBox="0 0 24 24" fill="none" xmlns="http://www.w3.org/2000/svg">
<path d="M17.4697 5.46973C17.7626 5.17683 18.2374 5.17683 18.5303 5.46973C18.8232 5.76262 18.8232 6.23738 18.5303 6.53027L6.53027 18.5303C6.23738 18.8232 5.76262 18.8232 5.46973 18.5303C5.17683 18.2374 5.17683 17.7626 5.46973 17.4697L17.4697 5.46973ZM17 15.25C17.9665 15.25 18.75 16.0335 18.75 17C18.75 17.9665 17.9665 18.75 17 18.75C16.0335 18.75 15.25 17.9665 15.25 17C15.25 16.0335 16.0335 15.25 17 15.25ZM7 5.25C7.9665 5.25 8.75 6.0335 8.75 7C8.75 7.9665 7.9665 8.75 7 8.75C6.0335 8.75 5.25 7.9665 5.25 7C5.25 6.0335 6.0335 5.25 7 5.25Z" fill="#00090A"/>
</svg>
