<svg width="24" height="24" viewBox="0 0 24 24" fill="none" xmlns="http://www.w3.org/2000/svg">
<path fill-rule="evenodd" clip-rule="evenodd" d="M17.4276 1.92539C19.486 2.90228 21.102 4.52713 22.1708 6.66467C22.6692 7.66158 22.177 8.73943 21.3303 9.22027C21.6315 10.1078 21.75 11.0692 21.75 12C21.75 17.3405 17.3405 21.75 12 21.75C6.65947 21.75 2.25 17.3405 2.25 12C2.25 6.65947 6.65947 2.25 12 2.25C13.0333 2.25 13.982 2.46185 14.8823 2.75318C15.1171 2.30236 15.4888 1.97404 15.9411 1.81671C16.4331 1.64556 16.9645 1.69622 17.4276 1.92539ZM19.9648 9.87379C20.1606 10.5214 20.25 11.2478 20.25 12C20.25 16.5121 16.5121 20.25 12 20.25C7.4879 20.25 3.75 16.5121 3.75 12C3.75 7.48789 7.4879 3.75 12 3.75C12.7448 3.75 13.4553 3.8868 14.1811 4.10553L11.0411 10.725C10.505 11.8099 11.25 12.9816 12.317 13.117C12.6609 13.1826 13.0363 13.1491 13.4046 12.9854L13.413 12.9817L13.4214 12.9777L19.9648 9.87379ZM20.7038 7.83577C20.875 7.6823 20.897 7.47127 20.8291 7.33549C19.899 5.47531 18.5173 4.10134 16.7789 3.27789L16.7717 3.27447L16.7645 3.2709C16.6295 3.20337 16.514 3.20557 16.4338 3.23346C16.3604 3.25901 16.2627 3.32433 16.1893 3.49552L16.1837 3.50863L16.1776 3.52152L12.4776 11.3215L12.459 11.3608L12.4359 11.3976C12.4026 11.4509 12.4062 11.4781 12.4075 11.4875C12.41 11.5043 12.4209 11.5354 12.4553 11.5698C12.478 11.5925 12.5068 11.6126 12.5407 11.6267C12.5652 11.6251 12.5968 11.6185 12.6363 11.6017L20.0154 8.10132L20.6791 7.78647L20.7038 7.83577ZM8 10C8.55228 10 9 9.55228 9 9C9 8.44771 8.55228 8 8 8C7.44772 8 7 8.44771 7 9C7 9.55228 7.44772 10 8 10ZM8.5 17C9.05228 17 9.5 16.5523 9.5 16C9.5 15.4477 9.05228 15 8.5 15C7.94772 15 7.5 15.4477 7.5 16C7.5 16.5523 7.94772 17 8.5 17ZM17.5 15C17.5 15.5523 17.0523 16 16.5 16C15.9477 16 15.5 15.5523 15.5 15C15.5 14.4477 15.9477 14 16.5 14C17.0523 14 17.5 14.4477 17.5 15Z" fill="#00090A"/>
</svg>
