<svg width="24" height="24" viewBox="0 0 24 24" fill="none" xmlns="http://www.w3.org/2000/svg">
<path d="M20.7001 7.4998C20.7001 7.3998 20.7001 7.2998 20.6 7.1998C20.5 7.0998 20.5 6.9998 20.4 6.9998L12.4 2.4998C12.2 2.3998 11.9 2.3998 11.7 2.4998L3.70005 6.9998C3.50005 6.8998 3.40005 6.9998 3.40005 7.0998C3.30005 7.1998 3.30005 7.3998 3.30005 7.4998V16.4998C3.30005 16.7998 3.40005 16.9998 3.70005 17.1998L11.7 21.6998C11.8 21.7998 11.9 21.7998 12 21.7998C12.1 21.7998 12.2 21.7998 12.3 21.6998L20.3 17.1998C20.5 17.0998 20.7001 16.7998 20.7001 16.4998V7.4998ZM12 3.8998L18.5 7.4998L12 11.0998L5.50005 7.4998L12 3.8998ZM4.80005 8.7998L11.3 12.4998V19.7998L4.80005 16.0998V8.7998ZM12.8 19.6998V12.3998L19.3 8.6998V15.9998L12.8 19.6998Z" fill="#00090A"/>
</svg>
