<svg width="24" height="24" viewBox="0 0 24 24" fill="none" xmlns="http://www.w3.org/2000/svg">
<path fill-rule="evenodd" clip-rule="evenodd" d="M3 12C3 7.02944 7.02944 3 12 3C16.9706 3 21 7.02944 21 12C21 16.9706 16.9706 21 12 21C7.02944 21 3 16.9706 3 12ZM12 1.5C6.20101 1.5 1.5 6.20101 1.5 12C1.5 17.799 6.20101 22.5 12 22.5C17.799 22.5 22.5 17.799 22.5 12C22.5 6.20101 17.799 1.5 12 1.5ZM10.4566 8.0014C10.1437 8.34665 10 8.7419 10 9C10 9.55228 9.55228 10 9 10C8.44772 10 8 9.55228 8 9C8 8.13772 8.40855 7.28297 8.97468 6.65831C9.54639 6.0275 10.4004 5.5 11.4116 5.5H12.0878C13.1227 5.5 13.9796 6.07363 14.5401 6.72107C15.0911 7.35753 15.4911 8.21716 15.4999 9.06335C15.5318 9.75975 15.2877 10.4747 14.9431 11.0412C14.6072 11.5935 14.0822 12.1568 13.3941 12.4205C13.2572 12.4919 13.1713 12.5916 13.1043 12.7816C13.0176 13.0273 12.9755 13.4017 12.9991 13.9575C13.0226 14.5093 12.5943 14.9756 12.0425 14.9991C11.4907 15.0226 11.0244 14.5943 11.0009 14.0425C10.9487 12.8146 11.1078 11.2827 12.5755 10.5946C12.6058 10.5804 12.6367 10.5677 12.6683 10.5566C12.8017 10.5097 13.0306 10.3369 13.2344 10.0019C13.4349 9.67232 13.5128 9.34469 13.5016 9.14813C13.5005 9.12927 13.5 9.11039 13.5 9.0915C13.5 8.82636 13.3502 8.40229 13.0281 8.03014C12.7093 7.66193 12.3601 7.5 12.0878 7.5H11.4116C11.1157 7.5 10.7639 7.66231 10.4566 8.0014ZM12 16.49C12.5523 16.49 13 16.9377 13 17.49V17.51C13 18.0623 12.5523 18.51 12 18.51C11.4477 18.51 11 18.0623 11 17.51V17.49C11 16.9377 11.4477 16.49 12 16.49Z" fill="#00090A"/>
</svg>
