<svg width="24" height="24" viewBox="0 0 24 24" fill="none" xmlns="http://www.w3.org/2000/svg">
<path fill-rule="evenodd" clip-rule="evenodd" d="M6.64286 3.5C5.82403 3.5 5.25 4.10754 5.25 4.75V18.9303L7.31806 17.6435C7.60593 17.4644 7.97816 17.5007 8.22602 17.732L9.85714 19.2544L11.4883 17.732C11.7764 17.463 12.2236 17.463 12.5117 17.732L14.1429 19.2544L15.774 17.732C16.0218 17.5007 16.3941 17.4644 16.6819 17.6435L18.75 18.9303V4.75C18.75 4.10754 18.176 3.5 17.3571 3.5H6.64286ZM3.75 4.75C3.75 3.18332 5.09475 2 6.64286 2H17.3571C18.9052 2 20.25 3.18332 20.25 4.75V20.2803C20.25 20.5527 20.1023 20.8036 19.8642 20.9359C19.6261 21.0682 19.335 21.061 19.1038 20.9171L16.3774 19.2206L14.6546 20.8286C14.3664 21.0975 13.9193 21.0975 13.6311 20.8286L12 19.3062L10.3689 20.8286C10.0807 21.0975 9.63356 21.0975 9.3454 20.8286L7.62263 19.2206L4.89623 20.9171C4.66496 21.061 4.37387 21.0682 4.13577 20.9359C3.89767 20.8036 3.75 20.5527 3.75 20.2803V4.75Z" fill="#00090A"/>
<path fill-rule="evenodd" clip-rule="evenodd" d="M7.25 7.5C7.25 7.08579 7.58579 6.75 8 6.75H16C16.4142 6.75 16.75 7.08579 16.75 7.5C16.75 7.91421 16.4142 8.25 16 8.25H8C7.58579 8.25 7.25 7.91421 7.25 7.5Z" fill="#00090A"/>
<path fill-rule="evenodd" clip-rule="evenodd" d="M7.25 11.5C7.25 11.0858 7.58579 10.75 8 10.75H16C16.4142 10.75 16.75 11.0858 16.75 11.5C16.75 11.9142 16.4142 12.25 16 12.25H8C7.58579 12.25 7.25 11.9142 7.25 11.5Z" fill="#00090A"/>
</svg>
