<svg width="24" height="24" viewBox="0 0 24 24" fill="none" xmlns="http://www.w3.org/2000/svg">
<path fill-rule="evenodd" clip-rule="evenodd" d="M4.75 7.0057C6.61089 4.37216 9.80888 2.91181 13.1096 3.33771C17.0672 3.84837 20.1936 6.94434 20.7429 10.8968C20.7999 11.307 20.5135 11.6858 20.1032 11.7429C19.693 11.7999 19.3142 11.5135 19.2571 11.1032C18.801 7.82072 16.2045 5.24948 12.9177 4.82538C10.0221 4.45176 7.22182 5.82593 5.7248 8.24999H8C8.41421 8.24999 8.75 8.58578 8.75 8.99999C8.75 9.41421 8.41421 9.74999 8 9.74999H4.51676C4.50541 9.75025 4.49403 9.75025 4.48263 9.74999H4C3.58579 9.74999 3.25 9.41421 3.25 8.99999V4.99999C3.25 4.58578 3.58579 4.24999 4 4.24999C4.41421 4.24999 4.75 4.58578 4.75 4.99999V7.0057Z" fill="#00090A"/>
<path fill-rule="evenodd" clip-rule="evenodd" d="M3.89673 12.2571C4.307 12.2001 4.68581 12.4865 4.74283 12.8967C5.19901 16.1792 7.79547 18.7505 11.0823 19.1746C13.9778 19.5482 16.7781 18.174 18.2752 15.75H16C15.5858 15.75 15.25 15.4142 15.25 15C15.25 14.5858 15.5858 14.25 16 14.25H19.4832C19.4946 14.2497 19.5059 14.2497 19.5173 14.25H20C20.4142 14.25 20.75 14.5858 20.75 15V19C20.75 19.4142 20.4142 19.75 20 19.75C19.5858 19.75 19.25 19.4142 19.25 19V16.9943C17.3891 19.6278 14.1911 21.0882 10.8903 20.6623C6.93273 20.1516 3.80638 17.0556 3.25711 13.1032C3.20009 12.6929 3.48646 12.3141 3.89673 12.2571Z" fill="#00090A"/>
</svg>
