<svg width="24" height="24" viewBox="0 0 24 24" fill="none" xmlns="http://www.w3.org/2000/svg">
<path d="M18.5 13.2499C18.9142 13.2499 19.25 13.5857 19.25 13.9999V18.1894L20.4697 16.9697C20.7626 16.6768 21.2374 16.6768 21.5303 16.9697C21.8232 17.2626 21.8232 17.7373 21.5303 18.0302L19.0303 20.5302C18.7374 20.8231 18.2626 20.8231 17.9697 20.5302L15.4697 18.0302C15.1768 17.7373 15.1768 17.2626 15.4697 16.9697C15.7626 16.6768 16.2374 16.6768 16.5303 16.9697L17.75 18.1894V13.9999C17.75 13.5857 18.0858 13.2499 18.5 13.2499ZM12 17.2499C12.4142 17.2499 12.75 17.5857 12.75 17.9999C12.75 18.4142 12.4142 18.7499 12 18.7499H3C2.58579 18.7499 2.25 18.4142 2.25 17.9999C2.25 17.5857 2.58579 17.2499 3 17.2499H12ZM14 11.2499C14.4142 11.2499 14.75 11.5857 14.75 11.9999C14.75 12.4142 14.4142 12.7499 14 12.7499H3C2.58579 12.7499 2.25 12.4142 2.25 11.9999C2.25 11.5857 2.58579 11.2499 3 11.2499H14ZM17.9697 3.46967C18.2626 3.17678 18.7374 3.17678 19.0303 3.46967L21.5303 5.96967C21.8232 6.26256 21.8232 6.73732 21.5303 7.03022C21.2374 7.32311 20.7626 7.32311 20.4697 7.03022L19.25 5.81049V9.99994C19.25 10.4142 18.9142 10.7499 18.5 10.7499C18.0858 10.7499 17.75 10.4142 17.75 9.99994V5.81049L16.5303 7.03022C16.2374 7.32311 15.7626 7.32311 15.4697 7.03022C15.1768 6.73732 15.1768 6.26256 15.4697 5.96967L17.9697 3.46967ZM12 5.24994C12.4142 5.24994 12.75 5.58573 12.75 5.99994C12.75 6.41416 12.4142 6.74994 12 6.74994H3C2.58579 6.74994 2.25 6.41416 2.25 5.99994C2.25 5.58573 2.58579 5.24994 3 5.24994H12Z" fill="#00090A"/>
</svg>
