<svg width="24" height="24" viewBox="0 0 24 24" fill="none" xmlns="http://www.w3.org/2000/svg">
<path fill-rule="evenodd" clip-rule="evenodd" d="M12.0038 4.78977C8.35577 4.77886 5.26778 7.48033 4.79365 11.0975C4.73982 11.5082 4.36324 11.7975 3.95254 11.7436C3.54184 11.6898 3.25254 11.3132 3.30637 10.9025C3.8786 6.53701 7.60548 3.27661 12.0083 3.28977C16.4112 3.30294 20.1185 6.58557 20.6646 10.9544C21.2107 15.3233 18.4255 19.4175 14.1614 20.514C10.5578 21.4407 6.84662 19.9826 4.80001 17.0399V20C4.80001 20.4142 4.46422 20.75 4.05001 20.75C3.6358 20.75 3.30001 20.4142 3.30001 20V15C3.30001 14.5858 3.6358 14.25 4.05001 14.25H4.53253C4.54406 14.2497 4.55557 14.2497 4.56704 14.25H9.05001C9.46422 14.25 9.80001 14.5858 9.80001 15C9.80001 15.4142 9.46422 15.75 9.05001 15.75H5.75265C7.37305 18.4755 10.6303 19.8733 13.7878 19.0613C17.3209 18.1527 19.6287 14.7604 19.1762 11.1405C18.7237 7.52057 15.6519 4.80067 12.0038 4.78977Z" fill="#00090A"/>
</svg>
