<svg width="24" height="24" viewBox="0 0 24 24" fill="none" xmlns="http://www.w3.org/2000/svg">
<path d="M18.2304 8.70801C18.2304 7.13776 17.581 5.62564 16.4159 4.50586C15.2498 3.38511 13.6623 2.75 12.0009 2.75C10.3395 2.75005 8.75191 3.38515 7.58584 4.50586C6.42086 5.62562 5.77236 7.13785 5.77236 8.70801C5.77246 10.2781 6.42082 11.7905 7.58584 12.9102C8.7519 14.0308 10.3396 14.665 12.0009 14.665C13.6622 14.665 15.2498 14.0307 16.4159 12.9102C17.5809 11.7905 18.2303 10.2781 18.2304 8.70801ZM17.9882 13.4229C17.8214 13.62 17.6444 13.8101 17.456 13.9912C16.3074 15.0951 14.8384 15.8108 13.2646 16.0625L15.9042 20.459L17.1474 18.043L17.205 17.9482C17.3539 17.7406 17.6012 17.6206 17.8612 17.6367L20.622 17.8076L17.9882 13.4229ZM3.37686 17.8086L6.13857 17.6367L6.24893 17.6387C6.5035 17.6604 6.73324 17.8113 6.85244 18.043L8.09365 20.458L10.7343 16.0615C9.16176 15.8094 7.69447 15.0942 6.54678 13.9912C6.35758 13.8094 6.179 13.6189 6.01162 13.4209L3.37686 17.8086ZM19.7304 8.70801C19.7303 9.87936 19.4418 11.0187 18.9101 12.0439L22.6425 18.2588C22.7859 18.4976 22.7852 18.7961 22.6405 19.0342C22.4959 19.2723 22.2311 19.4108 21.953 19.3936L18.2567 19.1641L16.6229 22.3428C16.4985 22.5848 16.2524 22.741 15.9804 22.75C15.7085 22.7589 15.4535 22.619 15.3134 22.3857L11.9989 16.8691L8.68643 22.3848C8.54634 22.618 8.29132 22.7569 8.01943 22.748C7.74746 22.7391 7.50134 22.5838 7.37686 22.3418L5.74209 19.1641L2.04678 19.3945C1.76889 19.4118 1.50403 19.2739 1.35928 19.0361C1.21459 18.798 1.21387 18.4986 1.35732 18.2598L5.09072 12.043C4.55942 11.0181 4.27242 9.87885 4.27236 8.70801C4.27236 6.72029 5.09419 4.81991 6.54678 3.42383C7.99828 2.02892 9.96055 1.25005 12.0009 1.25C14.0414 1.25 16.0044 2.02872 17.456 3.42383C18.9085 4.8199 19.7304 6.72032 19.7304 8.70801Z" fill="#00090A"/>
</svg>
