<svg width="24" height="24" viewBox="0 0 24 24" fill="none" xmlns="http://www.w3.org/2000/svg">
<path fill-rule="evenodd" clip-rule="evenodd" d="M8 3.75C7.6989 3.75 7.38944 3.8838 7.14634 4.15728C6.90069 4.43364 6.75 4.82552 6.75 5.25V18.75C6.75 19.1745 6.90069 19.5664 7.14634 19.8427C7.38944 20.1162 7.6989 20.25 8 20.25H14C14.4142 20.25 14.75 20.5858 14.75 21C14.75 21.4142 14.4142 21.75 14 21.75H8C7.24024 21.75 6.53228 21.4097 6.02523 20.8393C5.52074 20.2717 5.25 19.519 5.25 18.75V5.25C5.25 4.481 5.52074 3.72829 6.02523 3.16074C6.53228 2.59031 7.24024 2.25 8 2.25H18C18.7598 2.25 19.4677 2.59031 19.9748 3.16074C20.4793 3.72829 20.75 4.481 20.75 5.25V11C20.75 11.4142 20.4142 11.75 20 11.75C19.5858 11.75 19.25 11.4142 19.25 11V5.25C19.25 4.82552 19.0993 4.43364 18.8537 4.15728C18.6106 3.8838 18.3011 3.75 18 3.75H8Z" fill="#00090A"/>
<path fill-rule="evenodd" clip-rule="evenodd" d="M14.25 17C14.25 16.5858 14.5858 16.25 15 16.25H21C21.4142 16.25 21.75 16.5858 21.75 17C21.75 17.4142 21.4142 17.75 21 17.75H15C14.5858 17.75 14.25 17.4142 14.25 17Z" fill="#00090A"/>
<path fill-rule="evenodd" clip-rule="evenodd" d="M18 13.25C18.4142 13.25 18.75 13.5858 18.75 14L18.75 20C18.75 20.4142 18.4142 20.75 18 20.75C17.5858 20.75 17.25 20.4142 17.25 20L17.25 14C17.25 13.5858 17.5858 13.25 18 13.25Z" fill="#00090A"/>
<path fill-rule="evenodd" clip-rule="evenodd" d="M3.25 8C3.25 7.58579 3.58579 7.25 4 7.25H7C7.41421 7.25 7.75 7.58579 7.75 8C7.75 8.41421 7.41421 8.75 7 8.75H4C3.58579 8.75 3.25 8.41421 3.25 8Z" fill="#00090A"/>
<path fill-rule="evenodd" clip-rule="evenodd" d="M3.25 12C3.25 11.5858 3.58579 11.25 4 11.25H7C7.41421 11.25 7.75 11.5858 7.75 12C7.75 12.4142 7.41421 12.75 7 12.75H4C3.58579 12.75 3.25 12.4142 3.25 12Z" fill="#00090A"/>
<path fill-rule="evenodd" clip-rule="evenodd" d="M3.25 16C3.25 15.5858 3.58579 15.25 4 15.25H7C7.41421 15.25 7.75 15.5858 7.75 16C7.75 16.4142 7.41421 16.75 7 16.75H4C3.58579 16.75 3.25 16.4142 3.25 16Z" fill="#00090A"/>
</svg>
