<svg width="24" height="24" viewBox="0 0 24 24" fill="none" xmlns="http://www.w3.org/2000/svg">
<path d="M6 3.25C8.07107 3.25 9.75 4.92893 9.75 7C9.75 7.49985 9.65016 7.97603 9.47266 8.41211L12 10.9395L18.4697 4.46973L18.5264 4.41797C18.8209 4.1779 19.2557 4.19531 19.5303 4.46973C19.8048 4.74443 19.8216 5.17912 19.5811 5.47363L19.5303 5.53027L13.0605 12L19.5303 18.4697L19.5811 18.5264C19.8214 18.8209 19.8049 19.2557 19.5303 19.5303C19.2557 19.8049 18.8209 19.8214 18.5264 19.5811L18.4697 19.5303L12 13.0605L9.47266 15.5869C9.65038 16.0232 9.75 16.4998 9.75 17C9.75 19.0711 8.07107 20.75 6 20.75C3.92893 20.75 2.25 19.0711 2.25 17C2.25 14.9289 3.92893 13.25 6 13.25C7.01988 13.25 7.94409 13.6577 8.62012 14.3184L10.9395 12L8.62012 9.68066C7.94404 10.3416 7.02013 10.75 6 10.75C3.92893 10.75 2.25 9.07107 2.25 7C2.25 4.92893 3.92893 3.25 6 3.25ZM6 14.75C4.75736 14.75 3.75 15.7574 3.75 17C3.75 18.2426 4.75736 19.25 6 19.25C7.24264 19.25 8.25 18.2426 8.25 17C8.25 15.7574 7.24264 14.75 6 14.75ZM6 4.75C4.75736 4.75 3.75 5.75736 3.75 7C3.75 8.24264 4.75736 9.25 6 9.25C7.24264 9.25 8.25 8.24264 8.25 7C8.25 5.75736 7.24264 4.75 6 4.75Z" fill="#00090A"/>
</svg>
