<svg width="24" height="24" viewBox="0 0 24 24" fill="none" xmlns="http://www.w3.org/2000/svg">
<path fill-rule="evenodd" clip-rule="evenodd" d="M12.5042 2.44459C12.4488 2.39417 12.3874 2.35343 12.3223 2.3225C12.2203 2.27395 12.1101 2.24996 12.0001 2.25C11.8902 2.24996 11.7799 2.27395 11.678 2.32251C11.6128 2.35343 11.5514 2.39417 11.496 2.44459C9.3071 4.37789 6.45203 5.3843 3.53439 5.25079C3.18926 5.235 2.87799 5.45702 2.78055 5.78848C1.80683 9.10086 2.21804 12.6665 3.92019 15.6703C5.62233 18.6741 8.46986 20.8591 11.8118 21.726C11.9353 21.758 12.0649 21.758 12.1884 21.726C15.5304 20.8591 18.3779 18.6741 20.08 15.6703C21.7822 12.6665 22.1934 9.10086 21.2197 5.78848C21.1222 5.45702 20.811 5.235 20.4658 5.25079C17.5482 5.3843 14.6931 4.37789 12.5042 2.44459ZM12.0001 3.97936C9.74864 5.77569 6.95381 6.7572 4.07273 6.76254C3.41035 9.52595 3.81729 12.4462 5.22522 14.9308C6.69504 17.5246 9.13279 19.4265 12.0001 20.2234C14.8674 19.4265 17.3052 17.5246 18.775 14.9308C20.1829 12.4462 20.5899 9.52595 19.9275 6.76254C17.0464 6.7572 14.2516 5.77569 12.0001 3.97936Z" fill="#00090A"/>
<path fill-rule="evenodd" clip-rule="evenodd" d="M11.9079 8.75C11.1041 8.75 10.75 9.24515 10.75 9.52727C10.75 9.94149 10.4142 10.2773 10 10.2773C9.58579 10.2773 9.25 9.94149 9.25 9.52727C9.25 8.12242 10.6044 7.25 11.9079 7.25H12.4531C13.7496 7.25 15.0963 8.11298 15.1109 9.50446C15.1626 10.528 14.5 11.42 13.548 11.7524C13.2217 11.9111 12.8996 12.3953 12.9297 13.0568C12.9486 13.4706 12.6284 13.8213 12.2146 13.8401C11.8008 13.859 11.4501 13.5388 11.4313 13.125C11.3797 11.9918 11.9302 10.8228 12.9699 10.3675C12.9918 10.3579 13.0141 10.3494 13.0367 10.342C13.4285 10.2133 13.6312 9.88225 13.6124 9.57274C13.6115 9.5576 13.611 9.54244 13.611 9.52727C13.611 9.24515 13.2569 8.75 12.4531 8.75H11.9079Z" fill="#00090A"/>
<path fill-rule="evenodd" clip-rule="evenodd" d="M12.1819 15.0175C12.5961 15.0175 12.9319 15.3532 12.9319 15.7675V15.7775C12.9319 16.1917 12.5961 16.5275 12.1819 16.5275C11.7677 16.5275 11.4319 16.1917 11.4319 15.7775V15.7675C11.4319 15.3532 11.7677 15.0175 12.1819 15.0175Z" fill="#00090A"/>
</svg>
