<svg width="24" height="24" viewBox="0 0 24 24" fill="none" xmlns="http://www.w3.org/2000/svg">
<path d="M18 2.25C20.0711 2.25 21.75 3.92893 21.75 6C21.75 8.07107 20.0711 9.75 18 9.75C16.7887 9.75 15.7119 9.17536 15.0264 8.28418L9.63184 11.0625C9.70896 11.3621 9.75 11.6763 9.75 12C9.75 12.3231 9.70866 12.6365 9.63184 12.9355L15.0264 15.7148C15.712 14.824 16.789 14.25 18 14.25C20.0711 14.25 21.75 15.9289 21.75 18C21.75 20.0711 20.0711 21.75 18 21.75C15.9289 21.75 14.25 20.0711 14.25 18C14.25 17.6764 14.2901 17.3621 14.3672 17.0625L8.97266 14.2842C8.28706 15.1751 7.21109 15.75 6 15.75C3.92893 15.75 2.25 14.0711 2.25 12C2.25 9.92893 3.92893 8.25 6 8.25C7.21081 8.25 8.28704 8.82428 8.97266 9.71484L14.3672 6.93555C14.2904 6.63652 14.25 6.32298 14.25 6C14.25 3.92893 15.9289 2.25 18 2.25ZM18 15.75C17.1115 15.75 16.3452 16.2659 15.9795 17.0137C15.975 17.0233 15.9717 17.0335 15.9668 17.043C15.9651 17.0462 15.9627 17.0495 15.9609 17.0527C15.8268 17.3409 15.75 17.6612 15.75 18C15.75 19.2426 16.7574 20.25 18 20.25C19.2426 20.25 20.25 19.2426 20.25 18C20.25 16.7574 19.2426 15.75 18 15.75ZM6 9.75C4.75736 9.75 3.75 10.7574 3.75 12C3.75 13.2426 4.75736 14.25 6 14.25C6.886 14.25 7.64967 13.7366 8.0166 12.9922C8.02198 12.9803 8.02715 12.9678 8.0332 12.9561C8.03649 12.9497 8.04051 12.9437 8.04395 12.9375C8.17516 12.6519 8.25 12.3349 8.25 12C8.25 11.6605 8.17275 11.3394 8.03809 11.0508C8.03673 11.0482 8.03453 11.0456 8.0332 11.043C8.02825 11.0333 8.02403 11.0234 8.01953 11.0137C7.65375 10.2661 6.88833 9.75 6 9.75ZM18 3.75C16.7574 3.75 15.75 4.75736 15.75 6C15.75 6.33488 15.8248 6.6519 15.9561 6.9375C15.9595 6.94374 15.9635 6.94968 15.9668 6.95605C15.9728 6.96767 15.9771 6.98042 15.9824 6.99219C16.3493 7.73676 17.1138 8.25 18 8.25C19.2426 8.25 20.25 7.24264 20.25 6C20.25 4.75736 19.2426 3.75 18 3.75Z" fill="#00090A"/>
</svg>
