<svg width="24" height="24" viewBox="0 0 24 24" fill="none" xmlns="http://www.w3.org/2000/svg">
<path d="M6 2.25C6.41421 2.25 6.75 2.58579 6.75 3V4.30078L17.9121 5.09863C19.5031 5.21227 20.6638 6.65148 20.4385 8.23047L19.9873 11.3887C19.7938 12.7434 18.6341 13.7499 17.2656 13.75H6.75V16.25H17C18.5188 16.25 19.75 17.4812 19.75 19C19.75 20.5188 18.5188 21.75 17 21.75C15.4812 21.75 14.25 20.5188 14.25 19C14.25 18.5494 14.3606 18.1253 14.5527 17.75H8.44727C8.63935 18.1253 8.75 18.5494 8.75 19C8.75 20.5188 7.51878 21.75 6 21.75C4.48122 21.75 3.25 20.5188 3.25 19C3.25 17.7415 4.09614 16.6832 5.25 16.3564V3.75H4C3.58579 3.75 3.25 3.41421 3.25 3C3.25 2.58579 3.58579 2.25 4 2.25H6ZM6 17.75C5.30964 17.75 4.75 18.3096 4.75 19C4.75 19.6904 5.30964 20.25 6 20.25C6.69036 20.25 7.25 19.6904 7.25 19C7.25 18.3096 6.69036 17.75 6 17.75ZM17 17.75C16.3096 17.75 15.75 18.3096 15.75 19C15.75 19.6904 16.3096 20.25 17 20.25C17.6904 20.25 18.25 19.6904 18.25 19C18.25 18.3096 17.6904 17.75 17 17.75ZM6.75 12.25H17.2656C17.8876 12.2499 18.415 11.7925 18.5029 11.1768L18.9541 8.01855C19.0565 7.30086 18.5288 6.64639 17.8057 6.59473L6.75 5.80469V12.25Z" fill="#00090A"/>
</svg>
