<svg width="24" height="24" viewBox="0 0 24 24" fill="none" xmlns="http://www.w3.org/2000/svg">
<path d="M12.0001 4.25C16.3564 4.25 19.8973 6.8139 22.6447 11.6152C22.7138 11.7314 22.75 11.8648 22.7501 12C22.75 12.1352 22.7138 12.2686 22.6447 12.3848C19.8973 17.1861 16.3564 19.75 12.0001 19.75C7.64011 19.75 4.09708 17.1814 1.34876 12.3721C1.21708 12.1416 1.21708 11.8584 1.34876 11.6279C4.09708 6.81862 7.64011 4.25 12.0001 4.25ZM12.0001 5.75C8.46143 5.75 5.41107 7.73232 2.86829 12C5.41107 16.2677 8.46143 18.25 12.0001 18.25C15.5388 18.25 18.5892 16.2677 21.132 12C18.5892 7.73232 15.5388 5.75 12.0001 5.75ZM12.0001 9.25C13.5189 9.25 14.7501 10.4812 14.7501 12C14.7501 13.5188 13.5189 14.75 12.0001 14.75C10.4813 14.75 9.25012 13.5188 9.25012 12C9.25012 10.4812 10.4813 9.25 12.0001 9.25ZM12.0001 10.75C11.3098 10.75 10.7501 11.3096 10.7501 12C10.7501 12.6904 11.3098 13.25 12.0001 13.25C12.6905 13.25 13.2501 12.6904 13.2501 12C13.2501 11.3096 12.6905 10.75 12.0001 10.75Z" fill="#00090A"/>
</svg>
