<svg width="24" height="24" viewBox="0 0 24 24" fill="none" xmlns="http://www.w3.org/2000/svg">
<path d="M14.8021 2.25583C15.0963 2.23593 15.3922 2.27037 15.6732 2.35935C15.9544 2.4484 16.2172 2.59071 16.4447 2.77829C16.659 2.95499 16.8372 3.1705 16.9721 3.41306H16.973L18.7992 6.37888L18.8461 6.46872C18.9408 6.68246 18.9307 6.9302 18.8148 7.13767C18.6823 7.37488 18.4323 7.52241 18.1605 7.52243H5.91055C5.55508 7.52243 5.24842 7.27278 5.17617 6.92478C5.10409 6.57658 5.28636 6.22516 5.6127 6.08396L13.977 2.46579V2.46677C14.2367 2.34679 14.5165 2.27516 14.8021 2.25583ZM14.9037 3.75192C14.8499 3.75556 14.7967 3.76402 14.7455 3.77732L14.5971 3.83103L14.5727 3.84275L9.53359 6.02243H16.8178L15.6957 4.19919C15.6869 4.18484 15.6782 4.17016 15.6703 4.15525C15.6276 4.07402 15.5673 3.9988 15.4906 3.93552C15.4137 3.87207 15.3214 3.8221 15.2201 3.79001C15.119 3.75801 15.0114 3.74468 14.9037 3.75192Z" fill="#00090A"/>
<path d="M20.5215 10.2119V8.80371C20.5215 8.11335 19.9618 7.55371 19.2715 7.55371H4.5C3.80964 7.55371 3.25 8.11336 3.25 8.80371V18.6416C3.2501 19.3319 3.80971 19.8916 4.5 19.8916H19.2715C19.9618 19.8916 20.5214 19.3319 20.5215 18.6416V17.3223C20.5215 16.9081 20.8573 16.5723 21.2715 16.5723C21.6857 16.5723 22.0215 16.9081 22.0215 17.3223V18.6416C22.0214 20.1603 20.7902 21.3916 19.2715 21.3916H4.5C2.98128 21.3916 1.7501 20.1603 1.75 18.6416V8.80371C1.75 7.28493 2.98122 6.05371 4.5 6.05371H19.2715C20.7903 6.05371 22.0215 7.28493 22.0215 8.80371V10.2119C22.0214 10.6261 21.6857 10.9619 21.2715 10.9619C20.8573 10.9619 20.5215 10.6261 20.5215 10.2119Z" fill="#00090A"/>
<path d="M21.2719 16.3213V17.8213H18.0316V16.3213H21.2719ZM21.559 16.0342V11.7881C21.559 11.6293 21.4306 11.5002 21.2719 11.5H18.0316C16.7002 11.5 15.6205 12.5797 15.6205 13.9111C15.6207 15.2424 16.7003 16.3213 18.0316 16.3213V17.8213L17.8304 17.8164C15.8307 17.7153 14.2269 16.112 14.1254 14.1123L14.1205 13.9111C14.1205 11.8186 15.7639 10.1094 17.8304 10.0049L18.0316 10H21.2719L21.4545 10.0088C22.3559 10.1004 23.059 10.8625 23.059 11.7881V16.0342L23.0502 16.2168C22.9646 17.058 22.2957 17.727 21.4545 17.8125L21.2719 17.8213V16.3213C21.4305 16.3211 21.5587 16.1928 21.559 16.0342Z" fill="#00090A"/>
<path d="M19.4722 14C19.4722 14.5523 19.0245 15 18.4722 15C17.9199 15 17.4722 14.5523 17.4722 14C17.4722 13.4477 17.9199 13 18.4722 13C19.0245 13 19.4722 13.4477 19.4722 14Z" fill="#00090A"/>
</svg>
