<svg width="24" height="24" viewBox="0 0 24 24" fill="none" xmlns="http://www.w3.org/2000/svg">
<path fill-rule="evenodd" clip-rule="evenodd" d="M2.25 12C2.25 11.5858 2.58579 11.25 3 11.25H9.5C9.74474 11.25 9.97408 11.3694 10.1144 11.5699L13.3905 16.25H21C21.4142 16.25 21.75 16.5858 21.75 17C21.75 17.4142 21.4142 17.75 21 17.75H13C12.7553 17.75 12.5259 17.6306 12.3856 17.4301L9.10951 12.75H3C2.58579 12.75 2.25 12.4142 2.25 12Z" fill="#00090A"/>
<path fill-rule="evenodd" clip-rule="evenodd" d="M12.3852 6.57032C12.5255 6.36958 12.755 6.25 12.9999 6.25H20.9999C21.4142 6.25 21.7499 6.58579 21.7499 7C21.7499 7.41421 21.4142 7.75 20.9999 7.75H13.3908L10.1197 12.4297C9.88235 12.7692 9.41476 12.852 9.07526 12.6147C8.73577 12.3774 8.65293 11.9098 8.89023 11.5703L12.3852 6.57032Z" fill="#00090A"/>
<path fill-rule="evenodd" clip-rule="evenodd" d="M17.4697 3.46967C17.7626 3.17678 18.2374 3.17678 18.5303 3.46967L21.5303 6.46967C21.8232 6.76256 21.8232 7.23744 21.5303 7.53033L18.5303 10.5303C18.2374 10.8232 17.7626 10.8232 17.4697 10.5303C17.1768 10.2374 17.1768 9.76256 17.4697 9.46967L19.9393 7L17.4697 4.53033C17.1768 4.23744 17.1768 3.76256 17.4697 3.46967Z" fill="#00090A"/>
<path fill-rule="evenodd" clip-rule="evenodd" d="M17.4697 13.4697C17.7626 13.1768 18.2374 13.1768 18.5303 13.4697L21.5303 16.4697C21.8232 16.7626 21.8232 17.2374 21.5303 17.5303L18.5303 20.5303C18.2374 20.8232 17.7626 20.8232 17.4697 20.5303C17.1768 20.2374 17.1768 19.7626 17.4697 19.4697L19.9393 17L17.4697 14.5303C17.1768 14.2374 17.1768 13.7626 17.4697 13.4697Z" fill="#00090A"/>
</svg>
