<svg width="24" height="24" viewBox="0 0 24 24" fill="none" xmlns="http://www.w3.org/2000/svg">
<path d="M18.333 2C20.293 2 21.893 3.537 21.995 5.472L22 5.667V18.333C22 20.293 20.463 21.893 18.528 21.995L18.333 22H5.667C4.72818 22 3.82509 21.64 3.1438 20.9941C2.46252 20.3481 2.05492 19.4655 2.005 18.528L2 18.333V5.667C2 3.707 3.537 2.107 5.472 2.005L5.667 2H18.333Z" fill="#00090A"/>
<path fill-rule="evenodd" clip-rule="evenodd" d="M17.0329 8.40898C17.4234 8.79951 17.4234 9.43267 17.0329 9.8232L11.2651 15.591C11.0776 15.7786 10.8232 15.8839 10.558 15.8839C10.2928 15.8839 10.0384 15.7786 9.85088 15.591L6.96697 12.7071C6.57644 12.3166 6.57644 11.6834 6.96697 11.2929C7.35749 10.9024 7.99065 10.9024 8.38118 11.2929L10.558 13.4697L15.6187 8.40898C16.0092 8.01846 16.6424 8.01846 17.0329 8.40898Z" fill="white"/>
</svg>
