<svg width="24" height="24" viewBox="0 0 24 24" fill="none" xmlns="http://www.w3.org/2000/svg">
<path d="M18.7571 6.68546C18.4143 6.22832 17.9571 5.88546 17.6143 5.5426L17.9571 6.3426L18.7571 6.68546Z" fill="#00090A"/>
<path d="M19.4429 11.1429L19.2143 11.0286C19.3286 11.6001 19.4429 12.2858 19.4429 12.8572C19.4429 17.4286 15.7857 21.0858 11.2143 21.0858C6.64286 21.0858 2.98571 17.4286 2.98571 12.8572C2.98571 8.28577 6.64286 4.62863 11.2143 4.62863C11.9 4.62863 12.4714 4.74292 13.1571 4.8572V4.74292L14.3 3.60006C13.2714 3.37149 12.2429 3.2572 11.2143 3.2572C5.84286 3.2572 1.5 7.60006 1.5 12.9715C1.5 18.3429 5.84286 22.6858 11.2143 22.6858C16.5857 22.6858 20.9286 18.3429 20.9286 12.9715C20.9286 11.9429 20.8143 11.0286 20.4714 10.1143L19.4429 11.1429Z" fill="#00090A"/>
<path d="M13.9571 7.94282C13.1571 7.48568 12.1286 7.14282 11.2143 7.14282C8.01429 7.14282 5.5 9.77139 5.5 12.8571C5.5 15.9428 8.12857 18.5714 11.2143 18.5714C14.3 18.5714 16.9286 15.9428 16.9286 12.8571C16.9286 11.8285 16.7 10.9143 16.2429 10.1143L14.5286 9.65711L13.9571 7.94282ZM11.2143 17.2C8.81429 17.2 6.98571 15.2571 6.98571 12.9714C6.98571 10.5714 8.92857 8.74282 11.2143 8.74282C13.6143 8.74282 15.4429 10.6857 15.4429 12.9714C15.4429 15.3714 13.6143 17.2 11.2143 17.2Z" fill="#00090A"/>
<path fill-rule="evenodd" clip-rule="evenodd" d="M16.0143 1.19995C16.2429 1.19995 16.4715 1.42852 16.5857 1.65709L18.4143 5.77138L22.5286 7.59995C22.7572 7.71424 22.8715 7.94281 22.9857 8.17138C22.9857 8.39995 22.9857 8.62852 22.7572 8.85709L19.9 11.7142C19.6715 11.9428 19.4429 11.9428 19.2143 11.9428L14.6429 10.6857L11.2143 14.1142C10.8715 14.4571 10.4143 14.4571 10.1857 14.1142C9.95718 13.7714 9.84289 13.3142 10.1857 13.0857L13.6143 9.65709L12.3572 5.08566C12.2429 4.85709 12.3572 4.51424 12.5857 4.39995L15.4429 1.54281C15.5572 1.31424 15.7857 1.19995 16.0143 1.19995ZM15.1 9.19995L19.2143 10.3428L20.9286 8.62852L17.5 7.14281C17.3857 7.02852 17.1572 6.91424 17.1572 6.79995L15.6715 3.37138L13.9572 5.08566L15.1 9.19995Z" fill="#00090A"/>
</svg>
