<svg width="24" height="24" viewBox="0 0 24 24" fill="none" xmlns="http://www.w3.org/2000/svg">
<path fill-rule="evenodd" clip-rule="evenodd" d="M10.25 7.5C10.25 7.08579 10.5858 6.75 11 6.75H19C19.4142 6.75 19.75 7.08579 19.75 7.5C19.75 7.91421 19.4142 8.25 19 8.25H11C10.5858 8.25 10.25 7.91421 10.25 7.5Z" fill="#00090A"/>
<path fill-rule="evenodd" clip-rule="evenodd" d="M10.25 12.5C10.25 12.0858 10.5858 11.75 11 11.75H19C19.4142 11.75 19.75 12.0858 19.75 12.5C19.75 12.9142 19.4142 13.25 19 13.25H11C10.5858 13.25 10.25 12.9142 10.25 12.5Z" fill="#00090A"/>
<path fill-rule="evenodd" clip-rule="evenodd" d="M10.25 17.5C10.25 17.0858 10.5858 16.75 11 16.75H19C19.4142 16.75 19.75 17.0858 19.75 17.5C19.75 17.9142 19.4142 18.25 19 18.25H11C10.5858 18.25 10.25 17.9142 10.25 17.5Z" fill="#00090A"/>
<path fill-rule="evenodd" clip-rule="evenodd" d="M8.91603 9.37592C9.26067 9.60568 9.3538 10.0713 9.12404 10.416L7.12404 13.416C6.9994 13.6029 6.7975 13.7242 6.5739 13.7463C6.3503 13.7684 6.12855 13.6892 5.96967 13.5303L4.46967 12.0303C4.17678 11.7374 4.17678 11.2625 4.46967 10.9696C4.76256 10.6767 5.23744 10.6767 5.53033 10.9696L6.38343 11.8227L7.87596 9.58393C8.10573 9.23929 8.57138 9.14616 8.91603 9.37592Z" fill="#00090A"/>
<path fill-rule="evenodd" clip-rule="evenodd" d="M8.91603 4.37592C9.26067 4.60568 9.3538 5.07134 9.12404 5.41598L7.12404 8.41598C6.9994 8.60294 6.7975 8.72417 6.5739 8.74631C6.3503 8.76845 6.12855 8.68917 5.96967 8.53029L4.46967 7.03029C4.17678 6.73739 4.17678 6.26252 4.46967 5.96963C4.76256 5.67673 5.23744 5.67673 5.53033 5.96963L6.38343 6.82273L7.87596 4.58393C8.10573 4.23929 8.57138 4.14616 8.91603 4.37592Z" fill="#00090A"/>
<path fill-rule="evenodd" clip-rule="evenodd" d="M6.5 18C7.05228 18 7.5 17.5523 7.5 17C7.5 16.4477 7.05228 16 6.5 16C5.94772 16 5.5 16.4477 5.5 17C5.5 17.5523 5.94772 18 6.5 18ZM6.5 19.5C7.88071 19.5 9 18.3807 9 17C9 15.6193 7.88071 14.5 6.5 14.5C5.11929 14.5 4 15.6193 4 17C4 18.3807 5.11929 19.5 6.5 19.5Z" fill="#00090A"/>
</svg>
