<svg width="24" height="24" viewBox="0 0 24 24" fill="none" xmlns="http://www.w3.org/2000/svg">
<path d="M12.1098 2.24976H12.393C12.7013 2.24976 12.9784 2.43848 13.0912 2.72534C13.204 3.01235 13.1296 3.33966 12.9037 3.54956C10.5181 5.76634 10.0549 9.37036 11.8032 12.1179C13.5516 14.8655 17.013 15.973 20.0317 14.7507C20.312 14.6373 20.6333 14.7029 20.8461 14.9177C21.059 15.1325 21.1214 15.4549 21.0053 15.7341C19.1281 20.2504 14.1955 22.6771 9.47211 21.408C4.74871 20.1387 1.69705 15.5665 2.33637 10.7175C2.9759 5.86857 7.10855 2.24333 11.9995 2.24194C12.0363 2.24193 12.0738 2.24445 12.1098 2.24976ZM10.6801 3.84741C7.13838 4.41967 4.30531 7.25464 3.8227 10.9128C3.28154 15.0159 5.86492 18.8857 9.86176 19.9597C13.3057 20.8849 16.8815 19.4877 18.8207 16.6384C15.6243 17.1586 12.3388 15.7524 10.5385 12.9236C8.73846 10.0949 8.85557 6.52267 10.6801 3.84741ZM20.0004 9.24976C20.4144 9.24998 20.7503 9.58579 20.7504 9.99976V10.2498H21.0004C21.4144 10.25 21.7503 10.5858 21.7504 10.9998C21.7504 11.4138 21.4145 11.7495 21.0004 11.7498H20.7504V11.9998C20.7504 12.4138 20.4145 12.7495 20.0004 12.7498C19.5862 12.7498 19.2504 12.414 19.2504 11.9998V11.7498H19.0004C18.5862 11.7498 18.2504 11.414 18.2504 10.9998C18.2506 10.5857 18.5863 10.2498 19.0004 10.2498H19.2504V9.99976C19.2506 9.58565 19.5863 9.24976 20.0004 9.24976ZM17.0004 3.24976C17.4144 3.24998 17.7503 3.58579 17.7504 3.99976C17.7504 4.69011 18.3101 5.24976 19.0004 5.24976C19.4144 5.24998 19.7503 5.58579 19.7504 5.99976C19.7504 6.41383 19.4145 6.74953 19.0004 6.74976C18.3102 6.74976 17.7506 7.30951 17.7504 7.99976C17.7504 8.41383 17.4145 8.74953 17.0004 8.74976C16.5862 8.74976 16.2504 8.41397 16.2504 7.99976C16.2503 7.30965 15.6905 6.74998 15.0004 6.74976C14.5862 6.74976 14.2504 6.41397 14.2504 5.99976C14.2506 5.58565 14.5863 5.24976 15.0004 5.24976C15.6906 5.24953 16.2504 4.68997 16.2504 3.99976C16.2506 3.58565 16.5863 3.24976 17.0004 3.24976Z" fill="#00090A"/>
</svg>
