<svg width="24" height="24" viewBox="0 0 24 24" fill="none" xmlns="http://www.w3.org/2000/svg">
<path fill-rule="evenodd" clip-rule="evenodd" d="M15.883 4.1578C14.2513 3.34725 12.4048 3.06256 10.5529 3.3703C6.21841 4.08967 3.04993 8.01163 3.25918 12.3993C3.51139 17.6845 8.31881 21.5301 13.53 20.6151C17.8205 19.861 20.9415 15.9658 20.7415 11.6138C20.6713 10.1105 20.2314 8.68931 19.4726 7.44557C19.3321 7.21463 18.9886 7.19458 18.8225 7.42511L12.5474 16.1124C12.09 16.7557 11.1952 16.8873 10.5753 16.4098L10.5156 16.3639L7.44937 12.8286C7.17796 12.5157 7.21162 12.0419 7.52455 11.7705C7.83749 11.4991 8.3112 11.5328 8.58262 11.8457L11.4177 15.1145L17.6055 6.54805C18.3911 5.4579 20.0473 5.50531 20.7533 6.66432C21.6439 8.12424 22.1581 9.79041 22.24 11.5444C22.4746 16.6502 18.8231 21.2079 13.7896 22.0926C7.68843 23.1639 2.05605 18.6582 1.76078 12.4708C1.51527 7.32279 5.22239 2.73444 10.307 1.8905M15.883 4.1578C16.2413 4.33577 16.5872 4.53818 16.9172 4.76283C17.2596 4.99594 17.7262 4.90731 17.9593 4.56489C18.1924 4.22246 18.1038 3.7559 17.7613 3.5228C17.3748 3.25966 16.9698 3.02271 16.5504 2.81435C14.6365 1.8636 12.4703 1.53105 10.307 1.8905" fill="#00090A"/>
</svg>
