<svg width="24" height="24" viewBox="0 0 24 24" fill="none" xmlns="http://www.w3.org/2000/svg">
<path d="M19 4.25C20.5188 4.25 21.75 5.48122 21.75 7V10C21.75 10.4142 21.4142 10.75 21 10.75C20.3096 10.75 19.75 11.3096 19.75 12C19.75 12.6904 20.3096 13.25 21 13.25C21.4142 13.25 21.75 13.5858 21.75 14V17C21.75 18.5188 20.5188 19.75 19 19.75H5C3.48122 19.75 2.25 18.5188 2.25 17V14L2.25391 13.9229C2.29253 13.5449 2.61183 13.25 3 13.25C3.69036 13.25 4.25 12.6904 4.25 12C4.25 11.3528 3.75817 10.8209 3.12793 10.7568L3 10.75C2.58579 10.75 2.25 10.4142 2.25 10V7C2.25 5.50771 3.43875 4.2968 4.9209 4.25488C4.94692 4.25215 4.97326 4.25 5 4.25H19ZM4.87207 5.75684C4.24183 5.82092 3.75 6.35285 3.75 7V9.35645C4.90386 9.68316 5.75 10.7415 5.75 12C5.75 13.2584 4.90373 14.3158 3.75 14.6426V17C3.75 17.6904 4.30964 18.25 5 18.25H14.25V17C14.25 16.5858 14.5858 16.25 15 16.25C15.4142 16.25 15.75 16.5858 15.75 17V18.25H19C19.6904 18.25 20.25 17.6904 20.25 17V14.6426C19.0963 14.3158 18.25 13.2584 18.25 12C18.25 10.7415 19.0961 9.68316 20.25 9.35645V7C20.25 6.30964 19.6904 5.75 19 5.75H15.75V7C15.75 7.41421 15.4142 7.75 15 7.75C14.5858 7.75 14.25 7.41421 14.25 7V5.75H5L4.87207 5.75684ZM15 10.25C15.4142 10.25 15.75 10.5858 15.75 11V13C15.75 13.4142 15.4142 13.75 15 13.75C14.5858 13.75 14.25 13.4142 14.25 13V11C14.25 10.5858 14.5858 10.25 15 10.25Z" fill="#00090A"/>
</svg>
