<svg width="24" height="24" viewBox="0 0 24 24" fill="none" xmlns="http://www.w3.org/2000/svg">
<path fill-rule="evenodd" clip-rule="evenodd" d="M7.86784 3.80718L10.5304 6.46971C10.671 6.61036 10.75 6.80113 10.75 7.00004V10C10.75 10.4143 10.4143 10.75 10 10.75H7.00004C6.89835 10.75 6.80138 10.7298 6.71295 10.6931C6.62449 10.6565 6.54162 10.6023 6.46971 10.5304L3.80718 7.86784C3.3899 9.61623 3.89446 11.4907 5.20194 12.7981C6.77516 14.3714 9.16917 14.7821 11.1768 13.8233C11.4636 13.6863 11.8056 13.745 12.0304 13.9697L18.0304 19.9697C18.5659 20.5052 19.4342 20.5052 19.9697 19.9697C20.5052 19.4342 20.5052 18.5659 19.9697 18.0304L13.9697 12.0304C13.745 11.8056 13.6863 11.4636 13.8233 11.1768C14.7821 9.16917 14.3714 6.77516 12.7981 5.20194C11.4907 3.89446 9.61623 3.3899 7.86784 3.80718ZM7.3107 9.25004H9.25004V7.3107L5.96971 4.03037C5.79755 3.85821 5.71967 3.61318 5.76084 3.37321C5.80201 3.13324 5.95711 2.92819 6.17682 2.82326C8.75808 1.59047 11.8361 2.11858 13.8588 4.14128C15.7538 6.03626 16.3369 8.85747 15.3894 11.3287L21.0304 16.9697C22.1517 18.091 22.1517 19.909 21.0304 21.0304C19.909 22.1517 18.091 22.1517 16.9697 21.0304L11.3287 15.3894C8.85747 16.3369 6.03626 15.7538 4.14128 13.8588C2.11858 11.8361 1.59047 8.75808 2.82326 6.17682C2.92819 5.95711 3.13324 5.80201 3.37321 5.76084C3.61318 5.71967 3.85821 5.79755 4.03037 5.96971L7.3107 9.25004Z" fill="#00090A"/>
</svg>
