<svg width="24" height="24" viewBox="0 0 24 24" fill="none" xmlns="http://www.w3.org/2000/svg">
<path fill-rule="evenodd" clip-rule="evenodd" d="M3.03872 7.57653C4.69502 4.22975 8.08151 2.04949 11.8673 2.00004C12.1074 1.9969 12.3046 2.1897 12.3077 2.43068C12.3108 2.67165 12.1187 2.86953 11.8786 2.87267C8.42198 2.91783 5.33006 4.90844 3.81751 7.96474C3.7107 8.18057 3.44977 8.26864 3.23471 8.16144C3.01965 8.05424 2.9319 7.79236 3.03872 7.57653ZM13.7412 2.15084C18.4889 2.9877 22 7.14353 22 12.0353C22 12.2763 21.8053 12.4717 21.5652 12.4717C21.3251 12.4717 21.1304 12.2763 21.1304 12.0353C21.1304 7.56906 17.9243 3.77425 13.5907 3.0104C13.3542 2.96871 13.1962 2.7425 13.2377 2.50514C13.2793 2.26778 13.5047 2.10916 13.7412 2.15084ZM2.38499 9.26837C2.13049 10.1607 2 11.0895 2 12.0353C2 13.1798 2.19112 14.2988 2.56091 15.3572C2.64037 15.5846 2.88847 15.7043 3.11507 15.6246C3.34167 15.5449 3.46095 15.2959 3.38149 15.0684C3.04401 14.1025 2.86957 13.0812 2.86957 12.0353C2.86957 11.171 2.9887 10.323 3.22099 9.50852C3.28706 9.27683 3.15348 9.03525 2.92263 8.96893C2.69178 8.90262 2.45107 9.03668 2.38499 9.26837ZM12 3.61443C15.9904 3.61443 19.4057 6.43124 20.2127 10.3028L20.2139 10.309L20.2124 10.3018C20.1601 10.0666 19.9277 9.91847 19.6933 9.97093C19.464 10.0223 19.3177 10.2467 19.3606 10.4768C18.6357 7.01003 15.5751 4.48714 12 4.48714C11.0152 4.48714 10.0574 4.67695 9.16553 5.04143C8.94314 5.13231 8.68945 5.02505 8.59889 4.80185C8.50834 4.57865 8.61521 4.32404 8.83761 4.23316C9.83321 3.82631 10.9023 3.61443 12 3.61443ZM20.2139 10.309C20.4321 11.292 20.5895 12.2908 20.6846 13.3013C20.7072 13.5412 20.5317 13.7541 20.2926 13.7768C20.0536 13.7994 19.8415 13.6233 19.8189 13.3834C19.727 12.4068 19.5747 11.4416 19.3636 10.4918L19.3616 10.4815C19.4107 10.7174 19.6411 10.8686 19.8762 10.8193C20.1091 10.7703 20.2592 10.5427 20.2139 10.309ZM3.77694 13.7085C3.7848 13.7493 3.79296 13.7902 3.80143 13.8311C3.85028 14.0671 4.08048 14.2186 4.31558 14.1696C4.51889 14.1272 4.65929 13.9487 4.66195 13.7486C4.75901 14.3003 4.80821 14.8626 4.80821 15.431C4.80821 16.1479 4.72995 16.8549 4.57625 17.543C4.52372 17.7781 4.29119 17.926 4.05688 17.8733C3.82258 17.8206 3.67522 17.5872 3.72775 17.352C3.86748 16.7266 3.93865 16.0836 3.93865 15.431C3.93865 14.8741 3.8868 14.324 3.78467 13.7856C3.77975 13.7597 3.77723 13.7339 3.77694 13.7085ZM3.77694 13.7085C3.11529 10.2661 4.62549 6.95912 7.15259 5.16111C7.34848 5.02174 7.61986 5.06813 7.75874 5.26473C7.89761 5.46133 7.85139 5.73369 7.6555 5.87306C5.36762 7.50087 4.00501 10.5249 4.65281 13.6536C4.65941 13.6855 4.66236 13.7173 4.66195 13.7486C4.65454 13.7065 4.64685 13.6644 4.63888 13.6224C4.59397 13.3857 4.36634 13.2303 4.13045 13.2754C3.92038 13.3155 3.77461 13.5011 3.77694 13.7085ZM18.6221 10.5641L18.6146 10.5303C18.6181 10.5414 18.6212 10.5528 18.6238 10.5644C18.9946 12.1966 19.1835 13.875 19.1835 15.5779C19.1835 16.7984 19.0864 18.0068 18.8947 19.1952C18.8563 19.4331 18.6331 19.5947 18.396 19.5562C18.159 19.5177 17.9979 19.2936 18.0363 19.0557C18.2206 17.9134 18.3139 16.7516 18.3139 15.5779C18.3139 13.9517 18.1348 12.3491 17.7833 10.7907C17.8507 11.0033 18.0698 11.1331 18.2912 11.0841C18.5256 11.0323 18.6738 10.7994 18.6221 10.5641ZM17.776 10.7584L17.7833 10.7907C17.7793 10.778 17.7759 10.7651 17.773 10.7519C17.4213 9.15103 16.4176 7.76898 15.0196 6.9336C14.8132 6.81032 14.7456 6.54251 14.8684 6.33544C14.9912 6.12837 15.2581 6.06045 15.4644 6.18374C17.0577 7.13579 18.2044 8.70701 18.6146 10.5303C18.5474 10.3154 18.3258 10.1851 18.1033 10.236C17.8692 10.2896 17.7227 10.5235 17.776 10.7584ZM12 5.22969C12.6052 5.22969 13.2002 5.30937 13.774 5.46506C14.0058 5.52796 14.1429 5.76754 14.0803 6.00018C14.0176 6.23282 13.7789 6.37042 13.5471 6.30752C13.0471 6.17186 12.5283 6.1024 12 6.1024C8.73514 6.1024 6.08845 8.75865 6.08625 12.079C6.07718 12.2376 6.11047 12.6515 6.22817 13.4091C6.22651 13.4008 6.22483 13.3926 6.22314 13.3843C6.17502 13.1482 5.94529 12.9959 5.71004 13.0442C5.48984 13.0895 5.34285 13.2943 5.36441 13.514C5.2417 12.7188 5.20504 12.2579 5.21889 12.0353C5.21889 8.27667 8.25489 5.22969 12 5.22969ZM5.36441 13.514C5.36588 13.529 5.36814 13.5441 5.37122 13.5592C5.48848 14.1345 5.54809 14.7237 5.54809 15.3209C5.54809 16.4703 5.32719 17.5881 4.90312 18.6284C4.8122 18.8515 4.91867 19.1063 5.14091 19.1975C5.36316 19.2887 5.61703 19.1819 5.70795 18.9589C6.17458 17.8141 6.41766 16.5841 6.41766 15.3209C6.41766 14.6734 6.35382 14.034 6.22817 13.4091C6.22863 13.4121 6.22909 13.415 6.22955 13.418C6.26662 13.6561 6.10435 13.8793 5.8671 13.9165C5.62986 13.9537 5.40748 13.7908 5.37041 13.5527C5.36839 13.5397 5.36639 13.5268 5.36441 13.514ZM16.082 8.75473C15.0959 7.53265 13.6158 6.80824 12.0183 6.80824C9.13175 6.80824 6.79175 9.1567 6.79175 12.0537C6.7946 12.1313 6.80022 12.232 6.80986 12.3607C6.82594 12.5754 6.84778 12.7904 6.87649 12.9931C6.9064 13.2042 6.94219 13.3907 6.98581 13.5487C7.07553 14.1066 7.12096 14.6741 7.12096 15.2475C7.12096 15.5752 7.10612 15.9011 7.07663 16.2244C7.05474 16.4644 7.23085 16.6767 7.46997 16.6987C7.7091 16.7207 7.92069 16.5439 7.94258 16.3039C7.97448 15.9542 7.99052 15.6018 7.99052 15.2475C7.99052 14.5977 7.93655 13.9547 7.82998 13.3229C7.82401 13.2875 7.81396 13.2539 7.80038 13.2224C7.7774 13.1221 7.75625 13.0033 7.7374 12.8703C7.7117 12.6888 7.69173 12.4922 7.67698 12.2953C7.66813 12.1771 7.66303 12.0858 7.66094 12.0355C7.66132 9.63868 9.612 7.68095 12.0183 7.68095C13.3507 7.68095 14.5835 8.28436 15.4062 9.30395C15.5573 9.49123 15.8311 9.52011 16.0177 9.36844C16.2043 9.21678 16.2331 8.94201 16.082 8.75473ZM7.80038 13.2224C7.72279 13.0421 7.53022 12.9313 7.32872 12.9655C7.09197 13.0058 6.93253 13.231 6.97262 13.4686C6.97712 13.4953 6.98152 13.522 6.98581 13.5487L6.99137 13.5685C7.05734 13.8003 7.29799 13.9344 7.52887 13.8682C7.75976 13.802 7.89345 13.5605 7.82748 13.3288C7.8182 13.2962 7.80916 13.2606 7.80038 13.2224ZM12 8.38679C13.7843 8.38679 15.2966 9.68529 15.586 11.4331C15.5373 11.1979 15.3082 11.0463 15.0734 11.0944C14.8417 11.1419 14.6909 11.3662 14.7323 11.5986C14.731 11.5923 14.7299 11.5861 14.7288 11.5797C14.5102 10.2494 13.3586 9.2595 12 9.2595C11.6792 9.2595 11.3664 9.31416 11.0711 9.41981C10.8449 9.50073 10.5962 9.38231 10.5155 9.15531C10.4349 8.92831 10.5529 8.6787 10.7791 8.59777C11.1678 8.45871 11.5793 8.38679 12 8.38679ZM14.7323 11.5986L14.7343 11.6092C14.9735 12.7855 15.095 13.9901 15.095 15.2108C15.095 17.2527 14.7548 19.2475 14.0965 21.1343C14.0172 21.3618 14.1366 21.6107 14.3632 21.6904C14.5898 21.77 14.8379 21.6502 14.9172 21.4227C15.6077 19.4435 15.9646 17.3513 15.9646 15.2108C15.9646 13.9315 15.8371 12.6684 15.5864 11.4347L15.586 11.4331L15.5868 11.4377C15.6259 11.6755 15.4655 11.9 15.2285 11.9392C14.9979 11.9774 14.7798 11.8259 14.7323 11.5986ZM9.22986 9.67249C8.67486 10.3273 8.36462 11.1579 8.36462 12.0353C8.36745 12.1139 8.37346 12.2163 8.38426 12.3468C8.40226 12.5646 8.42763 12.7827 8.46199 12.9887C8.49266 13.1727 8.52911 13.3386 8.57307 13.4844C8.57405 13.4934 8.57531 13.5025 8.57687 13.5115C8.67877 14.105 8.7304 14.7095 8.7304 15.3209C8.7304 17.101 8.29385 18.8838 7.49788 20.4452C7.38851 20.6597 7.47314 20.9226 7.68691 21.0324C7.90068 21.1421 8.16264 21.0572 8.27201 20.8427C9.1301 19.1594 9.59997 17.2405 9.59997 15.3209C9.59997 14.6989 9.55051 14.0831 9.45281 13.4775C9.45666 13.4196 9.449 13.36 9.42832 13.3019C9.38753 13.1873 9.35061 13.0305 9.31963 12.8447C9.28969 12.6652 9.267 12.4701 9.25084 12.2747C9.24114 12.1573 9.23583 12.0669 9.23382 12.0175C9.23418 11.367 9.46975 10.7364 9.89221 10.2379C10.0478 10.0544 10.0256 9.77899 9.84274 9.62284C9.65984 9.4667 9.38544 9.48893 9.22986 9.67249ZM9.45281 13.4775C9.44667 13.4394 9.44033 13.4013 9.4338 13.3633C9.39303 13.1258 9.16814 12.9665 8.9315 13.0074C8.70389 13.0468 8.54832 13.2571 8.57307 13.4844C8.58465 13.5228 8.59676 13.5598 8.60942 13.5954C8.69018 13.8224 8.93897 13.9406 9.1651 13.8596C9.33334 13.7993 9.44164 13.6457 9.45281 13.4775ZM12.0183 10.0388C12.9595 10.0388 13.7639 10.7056 13.9497 11.6204C13.9541 11.6424 13.9569 11.6644 13.958 11.6863L13.9401 11.6062C13.8872 11.3712 13.6545 11.2236 13.4203 11.2767C13.2095 11.3245 13.0693 11.5185 13.082 11.7282C12.9543 11.2523 12.5211 10.9115 12.0183 10.9115C11.4099 10.9115 10.9168 11.4064 10.9168 12.017C10.9168 12.1374 10.933 12.3487 10.9815 12.5922C10.9863 12.6161 10.989 12.64 10.9898 12.6636L10.9798 12.6007C10.9415 12.3628 10.7184 12.201 10.4813 12.2394C10.2572 12.2757 10.1009 12.4779 10.1168 12.7009C10.0649 12.4202 10.0472 12.1784 10.0472 12.017C10.0472 10.9244 10.9297 10.0388 12.0183 10.0388ZM10.1168 12.7009C10.1178 12.7138 10.1192 12.7267 10.1213 12.7397C10.2421 13.4911 10.3033 14.2552 10.3033 15.0272C10.3033 17.1244 9.85177 19.1566 8.99171 21.0169C8.89064 21.2355 8.98529 21.495 9.20311 21.5964C9.42093 21.6978 9.67943 21.6028 9.7805 21.3842C10.6935 19.4094 11.1728 17.2519 11.1728 15.0272C11.1728 14.2301 11.1113 13.4406 10.9898 12.6636C10.9968 12.8732 10.852 13.0632 10.6404 13.1056C10.405 13.1529 10.1759 12.9996 10.1288 12.7633C10.1246 12.7423 10.1206 12.7215 10.1168 12.7009ZM13.082 11.7282C13.0834 11.7515 13.0867 11.775 13.0919 11.7985C13.3527 12.9572 13.4856 14.1486 13.4856 15.3576C13.4856 15.5986 13.6802 15.794 13.9204 15.794C14.1605 15.794 14.3551 15.5986 14.3551 15.3576C14.3551 14.1116 14.2212 12.8828 13.958 11.6863C13.9685 11.898 13.8237 12.0915 13.6104 12.1351C13.3751 12.1832 13.1455 12.0308 13.0976 11.7946C13.093 11.7722 13.0878 11.75 13.082 11.7282ZM20.768 16.7097C20.8054 16.3458 20.8241 15.9806 20.8241 15.6146C20.8241 15.4466 20.8201 15.2788 20.8123 15.1112C20.8009 14.8705 20.5973 14.6846 20.3575 14.6959C20.1176 14.7073 19.9323 14.9116 19.9437 15.1524C19.9509 15.3062 19.9545 15.4603 19.9545 15.6146C19.9545 15.9507 19.9373 16.286 19.903 16.6204C19.8784 16.8601 20.0521 17.0744 20.291 17.0991C20.5298 17.1238 20.7434 16.9495 20.768 16.7097ZM17.6106 15.3209C17.6106 17.1088 17.371 18.8653 16.9033 20.556C16.8391 20.7882 16.5994 20.9242 16.3681 20.8597C16.1367 20.7952 16.0012 20.5547 16.0654 20.3225C16.5122 18.7076 16.741 17.0297 16.741 15.3209C16.741 13.7729 16.5532 12.2501 16.1856 10.776C16.1272 10.5422 16.2688 10.3053 16.5017 10.2467C16.7347 10.1882 16.9708 10.3303 17.0291 10.5641C17.414 12.1073 17.6106 13.7013 17.6106 15.3209ZM14.2513 17.2474C14.0802 18.7957 13.6992 20.3001 13.1223 21.7276C13.0321 21.9509 12.7785 22.0585 12.556 21.9679C12.3335 21.8773 12.2263 21.6228 12.3165 21.3995C12.8636 20.046 13.2248 18.6196 13.3871 17.1512C13.4136 16.9117 13.6285 16.7391 13.8672 16.7656C14.1058 16.7922 14.2778 17.0079 14.2513 17.2474ZM11.6689 21.0943C11.5778 21.3341 11.4868 21.5656 11.4259 21.7181C11.3366 21.9417 11.0835 22.0504 10.8606 21.9607C10.6377 21.8711 10.5295 21.617 10.6188 21.3933C10.6781 21.245 10.7674 21.0176 10.8564 20.7833L10.8754 20.7332C10.9427 20.5552 10.9969 20.4066 11.0333 20.2987C11.1103 20.0704 11.3571 19.948 11.5845 20.0253C11.812 20.1026 11.9339 20.3503 11.8569 20.5786C11.8164 20.6985 11.7591 20.8558 11.6885 21.0427L11.6689 21.0943ZM12.3248 18.9146C12.6037 17.6848 12.7457 16.4202 12.7457 15.1373C12.7457 14.0666 12.6468 13.0083 12.4517 11.972C12.4072 11.7352 12.1798 11.5794 11.9438 11.6242C11.7079 11.6689 11.5527 11.8971 11.5973 12.1339C11.7823 13.1169 11.8761 14.121 11.8761 15.1373C11.8761 16.3549 11.7414 17.5546 11.477 18.721C11.4237 18.956 11.5703 19.1898 11.8044 19.2433C12.0386 19.2968 12.2716 19.1496 12.3248 18.9146ZM6.94573 20.0404C7.2263 19.4304 7.45292 18.7958 7.62244 18.143C7.683 17.9098 7.54373 17.6715 7.31136 17.6107C7.079 17.55 6.84154 17.6897 6.78098 17.9229C6.62448 18.5256 6.41526 19.1114 6.1562 19.6747C6.05557 19.8935 6.15074 20.1528 6.36876 20.2538C6.58678 20.3548 6.8451 20.2593 6.94573 20.0404Z" fill="#00090A"/>
</svg>
