<svg width="24" height="24" viewBox="0 0 24 24" fill="none" xmlns="http://www.w3.org/2000/svg">
<path d="M3.6979 13.3418C3.63041 13.0024 3.66511 12.6498 3.79751 12.3301C3.92994 12.0105 4.1544 11.7372 4.44204 11.5449C4.72973 11.3527 5.06869 11.2501 5.41469 11.25L8.25063 11.25L8.25063 6C8.25071 5.58586 8.58647 5.25 9.00063 5.25L15.0006 5.25C15.4146 5.25028 15.7506 5.58603 15.7506 6L15.7506 11.25L18.5866 11.25L18.7165 11.2549C19.0165 11.2773 19.3068 11.377 19.5582 11.5449C19.8457 11.7371 20.0704 12.0107 20.2028 12.3301C20.3351 12.6497 20.3699 13.0025 20.3024 13.3418C20.2433 13.6386 20.1084 13.9144 19.9118 14.1426L19.8239 14.2373L13.2379 20.8232C12.9099 21.1512 12.4645 21.3358 12.0006 21.3359C11.5367 21.3359 11.0915 21.1511 10.7633 20.8232L4.17739 14.2373L4.0895 14.1426C3.89279 13.9144 3.75703 13.6387 3.6979 13.3418ZM5.16958 13.0488C5.17441 13.073 5.1825 13.0967 5.19399 13.1182L5.23794 13.1768L11.8239 19.7627C11.8707 19.8093 11.9345 19.8359 12.0006 19.8359C12.0667 19.8358 12.1306 19.8094 12.1774 19.7627L18.7633 13.1768L18.8063 13.1182C18.8179 13.0965 18.8268 13.0731 18.8317 13.0488C18.8413 13.0005 18.8358 12.9498 18.817 12.9043C18.7982 12.8589 18.7661 12.8194 18.7252 12.792C18.7048 12.7784 18.6821 12.7678 18.6588 12.7607L18.5866 12.75L15.0006 12.75C14.5865 12.75 14.2508 12.4141 14.2506 12L14.2506 6.75L9.75063 6.75L9.75063 12C9.7505 12.4139 9.41453 12.7497 9.00063 12.75L5.41469 12.75L5.34243 12.7607C5.31907 12.7678 5.29656 12.7783 5.27602 12.792C5.23492 12.8195 5.20217 12.8586 5.18325 12.9043C5.16437 12.9499 5.15996 13.0004 5.16958 13.0488ZM8.24965 3C8.24965 2.58591 8.58561 2.2502 8.99965 2.25L14.9997 2.25C15.4139 2.25 15.7497 2.58579 15.7497 3C15.7497 3.41421 15.4139 3.75 14.9997 3.75L8.99965 3.75C8.58561 3.7498 8.24965 3.41409 8.24965 3Z" fill="#00090A"/>
</svg>
