<svg width="24" height="24" viewBox="0 0 24 24" fill="none" xmlns="http://www.w3.org/2000/svg">
<path d="M14 2.25C14.9665 2.25 15.75 3.0335 15.75 4V6.25H20C20.4142 6.25 20.75 6.58579 20.75 7C20.75 7.41421 20.4142 7.75 20 7.75H19.6895L18.75 19.0332C18.732 20.5365 17.5076 21.75 16 21.75H8C6.49246 21.75 5.268 20.5365 5.25 19.0332L4.31055 7.75H4C3.58579 7.75 3.25 7.41421 3.25 7C3.25 6.58579 3.58579 6.25 4 6.25H8.25V4C8.25 3.0335 9.0335 2.25 10 2.25H14ZM6.74707 18.9375C6.7488 18.9582 6.75 18.9792 6.75 19C6.75 19.6903 7.30966 20.25 8 20.25H16C16.6904 20.25 17.25 19.6904 17.25 19C17.25 18.9792 17.2512 18.9582 17.2529 18.9375L18.1855 7.75H5.81445L6.74707 18.9375ZM10 10.25C10.4142 10.25 10.75 10.5858 10.75 11V17C10.75 17.4142 10.4142 17.75 10 17.75C9.58579 17.75 9.25 17.4142 9.25 17V11C9.25 10.5858 9.58579 10.25 10 10.25ZM14 10.25C14.4142 10.25 14.75 10.5858 14.75 11V17C14.75 17.4142 14.4142 17.75 14 17.75C13.5858 17.75 13.25 17.4142 13.25 17V11C13.25 10.5858 13.5858 10.25 14 10.25ZM10 3.75C9.86193 3.75 9.75 3.86193 9.75 4V6.25H14.25V4C14.25 3.86193 14.1381 3.75 14 3.75H10Z" fill="#00090A"/>
</svg>
