<svg width="24" height="24" viewBox="0 0 24 24" fill="none" xmlns="http://www.w3.org/2000/svg">
<path fill-rule="evenodd" clip-rule="evenodd" d="M2.37604 6.58405C2.60581 6.23941 3.07146 6.14628 3.4161 6.37604L12.0001 12.0987L14.5841 10.376C14.9287 10.1463 15.3944 10.2394 15.6241 10.5841C15.8539 10.9287 15.7608 11.3944 15.4161 11.6241L12.4161 13.6241C12.1642 13.7921 11.836 13.7921 11.5841 13.6241L2.58405 7.62412C2.23941 7.39435 2.14628 6.9287 2.37604 6.58405Z" fill="#00090A"/>
<path d="M2.25 17V7C2.25 6.27065 2.53994 5.57139 3.05566 5.05566C3.57139 4.53994 4.27065 4.25 5 4.25H14C14.4142 4.25 14.75 4.58579 14.75 5C14.75 5.41421 14.4142 5.75 14 5.75H5C4.66848 5.75 4.35063 5.88179 4.11621 6.11621C3.88179 6.35063 3.75 6.66848 3.75 7V17L3.75586 17.124C3.78436 17.41 3.9112 17.6788 4.11621 17.8838C4.35063 18.1182 4.66848 18.25 5 18.25H19C19.3315 18.25 19.6494 18.1182 19.8838 17.8838C20.1182 17.6494 20.25 17.3315 20.25 17V12C20.25 11.5858 20.5858 11.25 21 11.25C21.4142 11.25 21.75 11.5858 21.75 12V17C21.75 17.7293 21.4601 18.4286 20.9443 18.9443C20.4286 19.4601 19.7293 19.75 19 19.75H5C4.27065 19.75 3.57139 19.4601 3.05566 18.9443C2.53994 18.4286 2.25 17.7293 2.25 17ZM22.2393 5.77734C22.1881 5.26236 21.96 4.77833 21.5908 4.40918C21.1689 3.98722 20.5967 3.75 20 3.75C19.4033 3.75 18.8311 3.98722 18.4092 4.40918C17.9872 4.83114 17.75 5.40326 17.75 6C17.75 6.59674 17.9872 7.16886 18.4092 7.59082C18.8311 8.01278 19.4033 8.25 20 8.25C20.5967 8.25 21.1689 8.01278 21.5908 7.59082C22.0128 7.16886 22.25 6.59674 22.25 6L22.2393 5.77734ZM23.7451 6.18555C23.6992 7.11255 23.3108 7.99197 22.6514 8.65137C21.9481 9.35463 20.9946 9.75 20 9.75C19.0054 9.75 18.0519 9.35463 17.3486 8.65137C16.6454 7.94811 16.25 6.99456 16.25 6C16.25 5.00544 16.6454 4.05189 17.3486 3.34863C18.0519 2.64537 19.0054 2.25 20 2.25C20.9946 2.25 21.9481 2.64537 22.6514 3.34863C23.3546 4.05189 23.75 5.00544 23.75 6L23.7451 6.18555Z" fill="#00090A"/>
</svg>
