<svg width="24" height="24" viewBox="0 0 24 24" fill="none" xmlns="http://www.w3.org/2000/svg">
<path d="M11 14.25C13.6234 14.25 15.75 16.3766 15.75 19V21C15.75 21.4142 15.4142 21.75 15 21.75C14.5858 21.75 14.25 21.4142 14.25 21V19C14.25 17.2051 12.7949 15.75 11 15.75H7C5.20507 15.75 3.75 17.2051 3.75 19V21C3.75 21.4142 3.41421 21.75 3 21.75C2.58579 21.75 2.25 21.4142 2.25 21V19C2.25 16.3766 4.37665 14.25 7 14.25H11ZM18.1123 14.4092L18.1875 14.4238L18.3809 14.4785C20.3646 15.0805 21.738 16.9075 21.75 18.9961V21C21.7497 21.414 21.4141 21.75 21 21.75C20.5859 21.75 20.2503 21.414 20.25 21V19.0049L20.2373 18.7305C20.1233 17.4632 19.2761 16.3764 18.0752 15.9561L17.8125 15.877L17.7393 15.8535C17.3829 15.7218 17.1767 15.3387 17.2734 14.9629C17.3705 14.5869 17.7365 14.3518 18.1123 14.4092ZM9 2.25C11.6234 2.25 13.75 4.37665 13.75 7C13.75 9.62335 11.6234 11.75 9 11.75C6.37665 11.75 4.25 9.62335 4.25 7C4.25 4.37665 6.37665 2.25 9 2.25ZM15.2734 2.94434C15.3761 2.54322 15.7844 2.30088 16.1855 2.40332C18.2873 2.94146 19.7578 4.83531 19.7578 7.00488C19.7578 9.17446 18.2873 11.0683 16.1855 11.6064C15.7844 11.7089 15.3761 11.4665 15.2734 11.0654C15.171 10.6643 15.4133 10.256 15.8145 10.1533C17.2523 9.78496 18.2578 8.48917 18.2578 7.00488C18.2578 5.52059 17.2523 4.2248 15.8145 3.85645C15.4133 3.75374 15.171 3.34546 15.2734 2.94434ZM9 3.75C7.20507 3.75 5.75 5.20507 5.75 7C5.75 8.79493 7.20507 10.25 9 10.25C10.7949 10.25 12.25 8.79493 12.25 7C12.25 5.20507 10.7949 3.75 9 3.75Z" fill="#00090A"/>
</svg>
