<svg width="24" height="24" viewBox="0 0 24 24" fill="none" xmlns="http://www.w3.org/2000/svg">
<path d="M17.5 2.25C18.2598 2.25 18.9676 2.5907 19.4746 3.16113C19.979 3.72867 20.25 4.48107 20.25 5.25V18.75C20.25 19.5189 19.979 20.2713 19.4746 20.8389C18.9676 21.4093 18.2598 21.75 17.5 21.75H7.5C6.74024 21.75 6.03244 21.4093 5.52539 20.8389C5.02098 20.2713 4.75 19.5189 4.75 18.75V16.75H3.5C3.08579 16.75 2.75 16.4142 2.75 16C2.75 15.5858 3.08579 15.25 3.5 15.25H4.75V12.75H3.5C3.08579 12.75 2.75 12.4142 2.75 12C2.75 11.5858 3.08579 11.25 3.5 11.25H4.75V8.75H3.5C3.08579 8.75 2.75 8.41421 2.75 8C2.75 7.58579 3.08579 7.25 3.5 7.25H4.75V5.25C4.75 4.48107 5.02098 3.72867 5.52539 3.16113C6.03244 2.5907 6.74024 2.25 7.5 2.25H17.5ZM7.5 3.75C7.19893 3.75 6.88957 3.88381 6.64648 4.15723C6.40083 4.43359 6.25 4.82552 6.25 5.25V7.25H6.5C6.91421 7.25 7.25 7.58579 7.25 8C7.25 8.41421 6.91421 8.75 6.5 8.75H6.25V11.25H6.5C6.91421 11.25 7.25 11.5858 7.25 12C7.25 12.4142 6.91421 12.75 6.5 12.75H6.25V15.25H6.5C6.91421 15.25 7.25 15.5858 7.25 16C7.25 16.4142 6.91421 16.75 6.5 16.75H6.25V18.75C6.25 19.1745 6.40083 19.5664 6.64648 19.8428C6.88957 20.1162 7.19893 20.25 7.5 20.25H17.5C17.8011 20.25 18.1104 20.1162 18.3535 19.8428C18.5992 19.5664 18.75 19.1745 18.75 18.75V5.25C18.75 4.82552 18.5992 4.43359 18.3535 4.15723C18.1104 3.88381 17.8011 3.75 17.5 3.75H7.5ZM16 15.25C16.4142 15.25 16.75 15.5858 16.75 16C16.75 16.4142 16.4142 16.75 16 16.75H10C9.58579 16.75 9.25 16.4142 9.25 16C9.25 15.5858 9.58579 15.25 10 15.25H16ZM13 8.25C14.5188 8.25 15.75 9.48122 15.75 11C15.75 12.5188 14.5188 13.75 13 13.75C11.4812 13.75 10.25 12.5188 10.25 11C10.25 9.48122 11.4812 8.25 13 8.25ZM13 9.75C12.3096 9.75 11.75 10.3096 11.75 11C11.75 11.6904 12.3096 12.25 13 12.25C13.6904 12.25 14.25 11.6904 14.25 11C14.25 10.3096 13.6904 9.75 13 9.75Z" fill="#00090A"/>
</svg>
