<svg width="24" height="24" viewBox="0 0 24 24" fill="none" xmlns="http://www.w3.org/2000/svg">
<path d="M15.2656 2.25C16.6341 2.25011 17.7938 3.25662 17.9873 4.61133L18.7227 9.75293L18.7334 9.86035C18.7446 9.91945 18.7482 9.97861 18.7451 10.0381L18.7481 10.1641C18.6561 13.3915 15.9464 15.4381 12.75 15.7158V20.25H16C16.4142 20.25 16.75 20.5858 16.75 21C16.75 21.4142 16.4142 21.75 16 21.75H8.00001C7.5858 21.75 7.25001 21.4142 7.25001 21C7.25001 20.5858 7.5858 20.25 8.00001 20.25H11.25V15.7158C8.05367 15.4381 5.3439 13.3915 5.25196 10.1641C5.25096 10.1287 5.25322 10.0939 5.25392 10.0596C5.24863 9.99268 5.25319 9.92598 5.26563 9.86035C5.26944 9.82358 5.2724 9.78762 5.27735 9.75293L6.0127 4.61133L6.05958 4.36133C6.35151 3.13451 7.45146 2.2501 8.73438 2.25H15.2656ZM9.00001 9.75C8.20943 9.75 7.43715 9.9704 6.76856 10.3828C6.98184 12.6338 9.09984 14.25 12 14.25C14.445 14.25 16.3335 13.1009 16.9941 11.3916C16.3597 11.6263 15.6851 11.75 15 11.75C13.7559 11.75 12.5451 11.3461 11.5498 10.5996C10.8142 10.048 9.91945 9.75 9.00001 9.75ZM8.73438 3.75C8.15119 3.7501 7.65115 4.15221 7.51856 4.70996L7.49708 4.82324L6.95313 8.62598C7.60267 8.37852 8.29614 8.25 9.00001 8.25C10.2441 8.25 11.4549 8.65391 12.4502 9.40039C13.1858 9.95198 14.0806 10.25 15 10.25C15.7751 10.25 16.531 10.0356 17.1904 9.63867L16.5029 4.82324C16.415 4.2075 15.8876 3.75011 15.2656 3.75H8.73438Z" fill="#00090A"/>
</svg>
