<svg width="24" height="24" viewBox="0 0 24 24" fill="none" xmlns="http://www.w3.org/2000/svg">
<path d="M11.9997 1.66998C12.9547 1.66998 13.8453 2.13705 14.3903 2.91704L14.4948 3.0772L22.609 16.6249C22.8555 17.0519 22.9894 17.5344 22.9986 18.0273C23.0078 18.5203 22.8922 19.0083 22.6617 19.4442L22.5699 19.6044C22.3453 19.971 22.0414 20.2841 21.6803 20.5204L21.5231 20.6161C21.1491 20.8283 20.7317 20.9561 20.3014 20.9882L20.107 20.996H3.88158L3.69799 20.9882C3.33095 20.9608 2.97241 20.8639 2.64135 20.703L2.47827 20.6171C2.10352 20.4047 1.78137 20.1123 1.53394 19.7616L1.43238 19.6083C1.20669 19.2412 1.06551 18.8291 1.01832 18.4023L1.00367 18.2187C0.983477 17.7885 1.05965 17.3601 1.22437 16.9638L1.29957 16.7958L1.39918 16.6113L9.50849 3.07329C9.73559 2.6988 10.0442 2.38085 10.4099 2.14263L10.571 2.04498C11.0072 1.7994 11.4991 1.67013 11.9997 1.66998ZM11.9997 3.07036C11.7397 3.0705 11.484 3.13711 11.2575 3.2647C11.0308 3.39238 10.8407 3.5764 10.7057 3.79887L2.61694 17.3017L2.55639 17.414L2.48315 17.5898C2.42109 17.7703 2.39307 17.9614 2.4021 18.1532C2.41413 18.4087 2.49083 18.657 2.62475 18.8749C2.75872 19.0928 2.94614 19.2732 3.16869 19.3993C3.39107 19.5253 3.64166 19.5926 3.8972 19.5956H20.0738L20.2076 19.5897C20.4596 19.5693 20.703 19.487 20.9147 19.3485C21.1287 19.2084 21.3038 19.0161 21.4234 18.7899C21.5432 18.5634 21.604 18.3098 21.5992 18.0536C21.5944 17.7975 21.5242 17.547 21.3961 17.3251V17.3241L13.3024 3.81059L13.2419 3.71879L13.1276 3.57426C12.8418 3.25523 12.4333 3.07036 11.9997 3.07036Z" fill="#00090A"/>
<path d="M12.01 15L11.883 15.007C11.64 15.0359 11.4159 15.153 11.2534 15.336C11.0909 15.519 11.0011 15.7552 11.0011 16C11.0011 16.2448 11.0909 16.481 11.2534 16.664C11.4159 16.847 11.64 16.9641 11.883 16.993L12 17L12.127 16.993C12.37 16.9641 12.5941 16.847 12.7566 16.664C12.9191 16.481 13.0089 16.2448 13.0089 16C13.0089 15.7552 12.9191 15.519 12.7566 15.336C12.5941 15.153 12.37 15.0359 12.127 15.007L12.01 15ZM12 8C11.7551 8.00003 11.5187 8.08996 11.3356 8.25272C11.1526 8.41547 11.0357 8.63975 11.007 8.883L11 9V13L11.007 13.117C11.0359 13.36 11.153 13.5841 11.336 13.7466C11.519 13.9091 11.7552 13.9989 12 13.9989C12.2448 13.9989 12.481 13.9091 12.664 13.7466C12.847 13.5841 12.9641 13.36 12.993 13.117L13 13V9L12.993 8.883C12.9643 8.63975 12.8474 8.41547 12.6644 8.25272C12.4813 8.08996 12.2449 8.00003 12 8Z" fill="#00090A"/>
</svg>
