<svg width="24" height="24" viewBox="0 0 24 24" fill="none" xmlns="http://www.w3.org/2000/svg">
<path d="M12 21H8.75C7.50736 21 6.5 19.9926 6.5 18.75V5.25C6.5 4.00736 7.50736 3 8.75 3H15.25C16.4926 3 17.5 4.00736 17.5 5.25V10.816" stroke="#00090A" stroke-width="1.5" stroke-linecap="round" stroke-linejoin="round"/>
<path d="M11 3.99988H13" stroke="#00090A" stroke-width="1.5" stroke-linecap="round" stroke-linejoin="round"/>
<path d="M19.5697 16.2382C19.6267 16.6484 20.0055 16.9348 20.4158 16.8778C20.8261 16.8208 21.1124 16.442 21.0554 16.0317L19.5697 16.2382ZM13.5655 15.0653C13.4063 15.4476 13.5871 15.8867 13.9695 16.046C14.3518 16.2053 14.7909 16.0245 14.9502 15.6421L13.5655 15.0653ZM14.8125 13.7915C14.8125 13.3773 14.4767 13.0415 14.0625 13.0415C13.6483 13.0415 13.3125 13.3773 13.3125 13.7915H14.8125ZM14.0625 15.354H13.3125C13.3125 15.7682 13.6483 16.104 14.0625 16.104V15.354ZM15.625 16.104C16.0392 16.104 16.375 15.7682 16.375 15.354C16.375 14.9398 16.0392 14.604 15.625 14.604V16.104ZM20.3126 16.1349L21.0554 16.0317C20.8125 14.2837 19.4298 12.9144 17.6795 12.6886L17.5835 13.4324L17.4875 14.1762C18.5671 14.3155 19.4199 15.16 19.5697 16.2382L20.3126 16.1349ZM17.5835 13.4324L17.6795 12.6886C15.9292 12.4627 14.2442 13.4362 13.5655 15.0653L14.2579 15.3537L14.9502 15.6421C15.3688 14.6373 16.408 14.037 17.4875 14.1762L17.5835 13.4324ZM14.0625 13.7915H13.3125V15.354H14.0625H14.8125V13.7915H14.0625ZM14.0625 15.354V16.104H15.625V15.354V14.604H14.0625V15.354Z" fill="#00090A"/>
<path d="M14.4929 17.6994C14.4358 17.2891 14.057 17.0027 13.6468 17.0598C13.2365 17.1168 12.9501 17.4956 13.0071 17.9058L14.4929 17.6994ZM20.497 18.8723C20.6563 18.4899 20.4755 18.0508 20.0931 17.8915C19.7107 17.7322 19.2717 17.9131 19.1124 18.2954L20.497 18.8723ZM19.2499 20.1461C19.2499 20.5603 19.5857 20.8961 19.9999 20.8961C20.4142 20.8961 20.7499 20.5603 20.7499 20.1461H19.2499ZM19.9999 18.5836H20.7499C20.7499 18.1694 20.4142 17.8336 19.9999 17.8336V18.5836ZM18.4374 17.8336C18.0232 17.8336 17.6874 18.1694 17.6874 18.5836C17.6874 18.9978 18.0232 19.3336 18.4374 19.3336V17.8336ZM13.75 17.8026L13.0071 17.9058C13.2501 19.6539 14.6327 21.0231 16.3831 21.249L16.479 20.5051L16.575 19.7613C15.4955 19.622 14.6427 18.7775 14.4929 17.6994L13.75 17.8026ZM16.479 20.5051L16.3831 21.249C18.1334 21.4748 19.8183 20.5014 20.497 18.8723L19.8047 18.5839L19.1124 18.2954C18.6938 19.3002 17.6545 19.9006 16.575 19.7613L16.479 20.5051ZM19.9999 20.1461H20.7499V18.5836H19.9999H19.2499V20.1461H19.9999ZM19.9999 18.5836V17.8336H18.4374V18.5836V19.3336H19.9999V18.5836Z" fill="#00090A"/>
</svg>
