<svg width="24" height="24" viewBox="0 0 24 24" fill="none" xmlns="http://www.w3.org/2000/svg">
<path d="M10.4697 5.46967C10.7626 5.17678 11.2374 5.17678 11.5303 5.46967C11.8232 5.76256 11.8232 6.23732 11.5303 6.53022L6.81055 11.2499H19C19.4142 11.2499 19.75 11.5857 19.75 11.9999C19.75 12.4142 19.4142 12.7499 19 12.7499H6.81055L11.5303 17.4697C11.8232 17.7626 11.8232 18.2373 11.5303 18.5302C11.2374 18.8231 10.7626 18.8231 10.4697 18.5302L4.46973 12.5302C4.421 12.4815 4.3831 12.4262 4.35059 12.3691C4.33512 12.3419 4.31868 12.3152 4.30664 12.2861C4.28604 12.2361 4.27106 12.1843 4.26172 12.1318C4.25413 12.089 4.25 12.0449 4.25 11.9999C4.25 11.9546 4.25402 11.9102 4.26172 11.8671C4.27082 11.8163 4.28505 11.7662 4.30469 11.7177L4.30859 11.708C4.32018 11.6806 4.33596 11.6554 4.35059 11.6298C4.3708 11.5944 4.39152 11.5587 4.41797 11.5263L4.46973 11.4697L10.4697 5.46967Z" fill="#00090A"/>
</svg>
