<svg width="24" height="24" viewBox="0 0 24 24" fill="none" xmlns="http://www.w3.org/2000/svg">
<path fill-rule="evenodd" clip-rule="evenodd" d="M7.97216 4.97182C9.16441 4.1752 10.5661 3.75 12 3.75C13.4339 3.75 14.8356 4.1752 16.0278 4.97182C17.2201 5.76844 18.1493 6.90072 18.6981 8.22546C19.2468 9.5502 19.3904 11.0079 19.1107 12.4143C18.831 13.8206 18.1406 15.1124 17.1267 16.1264L12.8839 20.3691C12.6496 20.6033 12.3318 20.7348 12.0005 20.7348C11.6692 20.7348 11.3515 20.6033 11.1171 20.3691L6.87335 16.1264C5.8595 15.1125 5.16899 13.8206 4.88928 12.4143C4.60957 11.0079 4.75317 9.5502 5.30191 8.22546C5.85066 6.90072 6.77991 5.76844 7.97216 4.97182ZM18.1873 17.187L13.9443 21.43C13.4287 21.9452 12.7294 22.2348 12.0005 22.2348C11.2716 22.2348 10.5726 21.9454 10.0569 21.4303L5.81274 17.1871C4.58907 15.9634 3.75568 14.4042 3.4181 12.7069C3.08052 11.0096 3.25382 9.25024 3.9161 7.65142C4.57838 6.05259 5.69989 4.68605 7.13881 3.72461C8.57773 2.76317 10.2694 2.25 12 2.25C13.7306 2.25 15.4223 2.76317 16.8612 3.72461C18.3001 4.68605 19.4216 6.05259 20.0839 7.65142C20.7462 9.25024 20.9195 11.0096 20.5819 12.7069C20.2443 14.4042 19.411 15.9633 18.1873 17.187ZM12 5.8916C12.4142 5.8916 12.75 6.22738 12.75 6.6416V7.45117H13.0398C13.0506 7.45117 13.0614 7.4514 13.0722 7.45187C14.0145 7.49256 14.8374 8.10213 15.151 8.99171C15.2886 9.38237 15.0836 9.81068 14.6929 9.94836C14.3023 10.0861 13.8739 9.88097 13.7363 9.49031C13.6278 9.18271 13.3457 8.97061 13.021 8.95117H12.0168L12 8.95136L11.9832 8.95117H10.9601C10.5129 8.95117 10.1504 9.31371 10.1504 9.76093C10.1504 10.2081 10.5129 10.5707 10.9601 10.5707H13.0398C14.3155 10.5707 15.3496 11.6048 15.3496 12.8804C15.3496 14.1561 14.3155 15.1902 13.0398 15.1902H12.75V16.0001C12.75 16.4143 12.4142 16.7501 12 16.7501C11.5858 16.7501 11.25 16.4143 11.25 16.0001V15.1902H10.9601C10.9494 15.1902 10.9386 15.19 10.9278 15.1895C9.98546 15.1488 9.16254 14.5392 8.84901 13.6497C8.71133 13.259 8.9164 12.8307 9.30707 12.693C9.69773 12.5553 10.126 12.7604 10.2637 13.1511C10.3721 13.4587 10.6543 13.6708 10.9789 13.6902H13.0398C13.487 13.6902 13.8496 13.3277 13.8496 12.8804C13.8496 12.4332 13.487 12.0707 13.0398 12.0707H10.9601C9.68451 12.0707 8.65039 11.0366 8.65039 9.76093C8.65039 8.48529 9.68451 7.45117 10.9601 7.45117H11.25V6.6416C11.25 6.22738 11.5858 5.8916 12 5.8916Z" fill="#00090A"/>
</svg>
