<svg width="24" height="24" viewBox="0 0 24 24" fill="none" xmlns="http://www.w3.org/2000/svg">
<path d="M11.9997 2.25C13.3542 2.25 14.48 3.22936 14.7077 4.51855C17.08 5.8071 18.6221 8.24728 18.7497 10.9648V13.9521C18.885 14.959 19.4843 15.8462 20.3698 16.3477C20.666 16.5155 20.812 16.8621 20.7253 17.1914C20.6384 17.5206 20.3402 17.75 19.9997 17.75H15.7497V18C15.7497 20.0711 14.0708 21.75 11.9997 21.75C9.92877 21.7498 8.24968 20.071 8.24968 18V17.75H3.99968C3.65936 17.7498 3.36194 17.5205 3.27507 17.1914C3.1883 16.8621 3.33422 16.5155 3.63054 16.3477C4.516 15.8462 5.11434 14.959 5.24968 13.9521V11C5.24968 10.9883 5.25011 10.9766 5.25066 10.9648C5.37821 8.24741 6.91956 5.80715 9.29168 4.51855C9.51929 3.22944 10.6453 2.2502 11.9997 2.25ZM9.74968 18C9.74968 19.2425 10.7572 20.2498 11.9997 20.25C13.2423 20.25 14.2497 19.2426 14.2497 18V17.75H9.74968V18ZM11.9997 3.75C11.3141 3.75022 10.757 4.3024 10.7497 4.98633C10.7522 5.1333 10.7113 5.27815 10.6335 5.40137C10.5771 5.49046 10.5013 5.56892 10.4089 5.62891C10.3764 5.65007 10.342 5.66857 10.3063 5.68457C8.23005 6.67274 6.86374 8.72202 6.74968 11.0186V14C6.74968 14.03 6.7484 14.06 6.7448 14.0898C6.64941 14.8779 6.35984 15.6178 5.9157 16.25H18.0846C17.6405 15.6178 17.3509 14.8779 17.2555 14.0898C17.2519 14.06 17.2497 14.03 17.2497 14V11.0186C17.1354 8.71677 15.7637 6.66329 13.6794 5.67773C13.4173 5.55372 13.2497 5.28994 13.2497 5C13.2497 4.30964 12.69 3.75 11.9997 3.75Z" fill="#00090A"/>
</svg>
