<svg width="24" height="24" viewBox="0 0 24 24" fill="none" xmlns="http://www.w3.org/2000/svg">
<path d="M13.0419 2.25293C13.082 2.25515 13.1209 2.26029 13.1591 2.26855C13.1824 2.27362 13.2045 2.28268 13.2274 2.29004C13.2522 2.29796 13.2771 2.30411 13.3007 2.31445C13.3379 2.33082 13.3741 2.35015 13.4091 2.37305C13.414 2.37627 13.4189 2.37948 13.4237 2.38281C13.4293 2.38663 13.4358 2.38957 13.4413 2.39355C13.4715 2.41552 13.4984 2.44046 13.5243 2.46582C13.5276 2.46905 13.5309 2.47229 13.5341 2.47559C13.5535 2.49528 13.569 2.51769 13.5858 2.53906C13.6013 2.55866 13.6173 2.57753 13.6308 2.59863C13.6426 2.61722 13.652 2.63683 13.662 2.65625C13.6745 2.68029 13.6873 2.70402 13.6972 2.72949C13.7064 2.75345 13.7129 2.77803 13.7196 2.80273C13.7257 2.82475 13.7332 2.84636 13.7372 2.86914C13.7389 2.87886 13.7398 2.88866 13.7411 2.89844C13.7456 2.93173 13.7499 2.96546 13.7499 3V9.25H18.9999C19.2818 9.25 19.5398 9.40811 19.6679 9.65918C19.7959 9.91056 19.7723 10.2133 19.6064 10.4414L11.6064 21.4414C11.4153 21.7039 11.0772 21.8131 10.7685 21.7129C10.4595 21.6124 10.2499 21.3249 10.2499 21V14.75H4.99991C4.71781 14.75 4.45995 14.5912 4.33194 14.3398C4.20407 14.0885 4.2276 13.7867 4.39346 13.5586L12.3935 2.55859C12.4153 2.52861 12.4396 2.50134 12.4648 2.47559C12.468 2.47229 12.4712 2.46905 12.4745 2.46582C12.4942 2.44644 12.5167 2.4309 12.538 2.41406C12.5576 2.39862 12.5765 2.38261 12.5976 2.36914C12.6161 2.35731 12.6358 2.34797 12.6552 2.33789C12.6792 2.32536 12.703 2.31265 12.7284 2.30273C12.7524 2.29344 12.777 2.28705 12.8017 2.28027C12.8237 2.27423 12.8453 2.26674 12.8681 2.2627C12.8778 2.26096 12.8876 2.26014 12.8974 2.25879C12.931 2.25418 12.965 2.25 12.9999 2.25C13.0045 2.25 13.009 2.2509 13.0136 2.25098C13.023 2.25114 13.0324 2.25241 13.0419 2.25293ZM6.47256 13.25H10.9999C11.4141 13.25 11.7499 13.5858 11.7499 14V18.6934L17.5273 10.75H12.9999C12.5857 10.75 12.2499 10.4142 12.2499 10V5.30566L6.47256 13.25Z" fill="#00090A"/>
</svg>
