<svg width="24" height="24" viewBox="0 0 24 24" fill="none" xmlns="http://www.w3.org/2000/svg">
<path d="M14.4998 11.0839C14.4998 11.314 14.3133 11.5005 14.0832 11.5005C13.853 11.5005 13.6665 11.314 13.6665 11.0839C13.6665 10.8538 13.853 10.6672 14.0832 10.6672C14.3133 10.6672 14.4998 10.8538 14.4998 11.0839Z" fill="#00090A"/>
<path fill-rule="evenodd" clip-rule="evenodd" d="M14.0832 11.4172C14.2673 11.4172 14.4165 11.268 14.4165 11.0839C14.4165 10.8998 14.2673 10.7505 14.0832 10.7505C13.8991 10.7505 13.7498 10.8998 13.7498 11.0839C13.7498 11.268 13.8991 11.4172 14.0832 11.4172ZM12.9165 11.0839C12.9165 10.4396 13.4388 9.91724 14.0832 9.91724C14.7275 9.91724 15.2498 10.4396 15.2498 11.0839C15.2498 11.7282 14.7275 12.2505 14.0832 12.2505C13.4388 12.2505 12.9165 11.7282 12.9165 11.0839Z" fill="#00090A"/>
<path d="M10.3333 6.91665C10.3333 7.14677 10.1468 7.33331 9.91665 7.33331C9.68654 7.33331 9.5 7.14677 9.5 6.91665C9.5 6.68654 9.68654 6.5 9.91665 6.5C10.1468 6.5 10.3333 6.68654 10.3333 6.91665Z" fill="#00090A"/>
<path fill-rule="evenodd" clip-rule="evenodd" d="M9.91665 7.25C10.1008 7.25 10.25 7.10076 10.25 6.91665C10.25 6.73255 10.1008 6.58331 9.91665 6.58331C9.73255 6.58331 9.58331 6.73255 9.58331 6.91665C9.58331 7.10076 9.73255 7.25 9.91665 7.25ZM8.75 6.91665C8.75 6.27233 9.27233 5.75 9.91665 5.75C10.561 5.75 11.0833 6.27233 11.0833 6.91665C11.0833 7.56098 10.561 8.08331 9.91665 8.08331C9.27233 8.08331 8.75 7.56098 8.75 6.91665Z" fill="#00090A"/>
<path fill-rule="evenodd" clip-rule="evenodd" d="M15.0302 5.96967C15.3231 6.26256 15.3231 6.73744 15.0302 7.03033L10.0303 12.0302C9.73744 12.3231 9.26256 12.3231 8.96967 12.0302C8.67678 11.7373 8.67678 11.2624 8.96967 10.9695L13.9695 5.96967C14.2624 5.67678 14.7373 5.67678 15.0302 5.96967Z" fill="#00090A"/>
<path d="M5.74997 9C5.74997 5.54822 8.54819 2.75 12 2.75C15.4518 2.75 18.25 5.54822 18.25 9C18.25 12.4518 15.4518 15.25 12 15.25C8.54819 15.25 5.74997 12.4518 5.74997 9ZM12 1.25C7.71977 1.25 4.24997 4.71979 4.24997 9C4.24997 10.2232 4.53334 11.3802 5.03801 12.4089C4.97654 12.457 4.92158 12.5155 4.87593 12.584L1.87621 17.0836C1.73333 17.2979 1.71043 17.5706 1.81555 17.8057C1.92066 18.0409 2.13909 18.2056 2.39407 18.2421L5.56189 18.6951L7.37624 21.4155C7.51888 21.6294 7.76112 21.7553 8.01811 21.7492C8.27511 21.743 8.51106 21.6057 8.64332 21.3852L11.4366 16.7298C11.6226 16.7432 11.8105 16.75 12 16.75C12.1893 16.75 12.3771 16.7432 12.563 16.7299L15.3568 21.3859C15.4891 21.6063 15.7251 21.7437 15.9821 21.7498C16.2391 21.7559 16.4814 21.6299 16.624 21.416L18.438 18.695L21.606 18.2424C21.8548 18.2069 22.0692 18.0492 22.1772 17.8223C22.2851 17.5954 22.2723 17.3296 22.1431 17.1141L19.1431 12.1141C19.1347 12.1001 19.1259 12.0865 19.1167 12.0732C19.5242 11.131 19.75 10.0919 19.75 9C19.75 4.71979 16.2802 1.25 12 1.25ZM18.264 13.5644L20.2757 16.9173L17.8939 17.2575C17.6827 17.2877 17.4943 17.4064 17.3759 17.584L16.0333 19.5979L14.1442 16.4496C15.8193 15.9683 17.2618 14.9373 18.264 13.5644ZM9.85549 16.4495L7.96671 19.5975L6.62383 17.584C6.50549 17.4065 6.31719 17.2879 6.10605 17.2577L3.78429 16.9256L5.88957 13.7677C6.88287 15.0389 8.26422 15.9922 9.85549 16.4495Z" fill="#00090A"/>
</svg>
