<svg width="24" height="24" viewBox="0 0 24 24" fill="none" xmlns="http://www.w3.org/2000/svg">
<path d="M14 2.25C15.5188 2.25 16.75 3.48122 16.75 5V6.25H19C20.5188 6.25 21.75 7.48122 21.75 9V18C21.75 19.5188 20.5188 20.75 19 20.75H5C3.48122 20.75 2.25 19.5188 2.25 18V9C2.25 7.48122 3.48122 6.25 5 6.25H7.25V5C7.25 3.48122 8.48122 2.25 10 2.25H14ZM20.25 14.1787C14.9879 16.4593 9.01202 16.4594 3.75 14.1787V18C3.75 18.6904 4.30964 19.25 5 19.25H19C19.6904 19.25 20.25 18.6904 20.25 18V14.1787ZM5 7.75C4.30964 7.75 3.75 8.30964 3.75 9V12.5293L3.85156 12.5791C9.04918 15.008 15.0632 14.9912 20.25 12.5303V9C20.25 8.30965 19.6904 7.75 19 7.75H5ZM12 11.25C12.4141 11.25 12.7499 11.5859 12.75 12V12.0098C12.75 12.424 12.4142 12.7598 12 12.7598C11.5858 12.7598 11.25 12.424 11.25 12.0098V12C11.2501 11.5859 11.5859 11.25 12 11.25ZM10 3.75C9.30964 3.75 8.75 4.30964 8.75 5V6.25H15.25V5C15.25 4.30964 14.6904 3.75 14 3.75H10Z" fill="#00090A"/>
</svg>
