<svg width="24" height="24" viewBox="0 0 24 24" fill="none" xmlns="http://www.w3.org/2000/svg">
<path fill-rule="evenodd" clip-rule="evenodd" d="M2.30127 5C2.30127 4.0335 3.08477 3.25 4.05127 3.25H7.55127H20.0513C21.0178 3.25 21.8013 4.0335 21.8013 5V19C21.8013 19.9665 21.0178 20.75 20.0513 20.75H4.05127C3.08477 20.75 2.30127 19.9665 2.30127 19V5ZM6.80127 4.75H4.05127C3.9132 4.75 3.80127 4.86193 3.80127 5V7.27661C3.86456 7.25926 3.9312 7.25 4 7.25H6.80127V4.75ZM8.30127 7.25V4.75H20.0513C20.1893 4.75 20.3013 4.86193 20.3013 5V7.31296C20.2091 7.27247 20.1072 7.25 20 7.25H8.30127ZM7.55127 8.75H4C3.9312 8.75 3.86456 8.74074 3.80127 8.72339V19C3.80127 19.1381 3.9132 19.25 4.05127 19.25H20.0513C20.1893 19.25 20.3013 19.1381 20.3013 19V8.68704C20.2091 8.72753 20.1072 8.75 20 8.75H7.55127Z" fill="#00090A"/>
</svg>
