<svg width="24" height="24" viewBox="0 0 24 24" fill="none" xmlns="http://www.w3.org/2000/svg">
<path d="M17 4.25C18.6857 4.25 20.1409 5.20794 21.1455 6.61426C22.1511 8.02213 22.75 9.92871 22.75 12V17C22.75 17.4142 22.4142 17.75 22 17.75H20.6436C20.3168 18.9039 19.2585 19.75 18 19.75C16.7415 19.75 15.6832 18.9039 15.3564 17.75H8.64355C8.31684 18.9039 7.2585 19.75 6 19.75C4.7415 19.75 3.68316 18.9039 3.35645 17.75H2C1.58579 17.75 1.25 17.4142 1.25 17V6C1.25 5.0335 2.0335 4.25 3 4.25H17ZM6 15.75C5.30964 15.75 4.75 16.3096 4.75 17C4.75 17.6904 5.30964 18.25 6 18.25C6.69036 18.25 7.25 17.6904 7.25 17C7.25 16.3096 6.69036 15.75 6 15.75ZM18 15.75C17.3096 15.75 16.75 16.3096 16.75 17C16.75 17.6904 17.3096 18.25 18 18.25C18.6904 18.25 19.25 17.6904 19.25 17C19.25 16.3096 18.6904 15.75 18 15.75ZM2.75 16.25H3.35645C3.68316 15.0961 4.7415 14.25 6 14.25C7.2585 14.25 8.31684 15.0961 8.64355 16.25H15.3564C15.6832 15.0961 16.7415 14.25 18 14.25C19.2585 14.25 20.3168 15.0961 20.6436 16.25H21.25V12.75H17.5C17.1906 12.75 16.9177 12.5611 16.8047 12.2822L16.7666 12.1572L16.4648 10.75H2.75V16.25ZM18.1064 11.25H21.2178C21.0951 9.76321 20.6149 8.45244 19.9248 7.48633C19.1198 6.35932 18.0756 5.75 17 5.75H16.9277L18.1064 11.25ZM3 5.75C2.86193 5.75 2.75 5.86193 2.75 6V9.25H6.25V5.75H3ZM12.75 9.25H16.1436L15.3936 5.75H12.75V9.25ZM7.75 9.25H11.25V5.75H7.75V9.25Z" fill="#00090A"/>
</svg>
