<svg width="24" height="24" viewBox="0 0 24 24" fill="none" xmlns="http://www.w3.org/2000/svg">
<path d="M17 2.25C18.4331 2.25 19.8451 2.58928 20.9219 3.23535C21.9908 3.8768 22.75 4.84685 22.75 6V18C22.75 19.1955 21.9459 20.1497 20.9209 20.7646C19.881 21.3885 18.4929 21.75 17 21.75C15.5071 21.75 14.119 21.3885 13.0791 20.7646C12.0541 20.1497 11.25 19.1955 11.25 18V6C11.25 4.84685 12.0092 3.8768 13.0781 3.23535C14.1549 2.58928 15.5669 2.25 17 2.25ZM21.25 16.5488C21.1433 16.6246 21.0337 16.697 20.9209 16.7646C19.881 17.3885 18.4929 17.75 17 17.75C15.5071 17.75 14.119 17.3885 13.0791 16.7646C12.9663 16.697 12.8567 16.6246 12.75 16.5488V18C12.75 18.4615 13.0659 19.0077 13.8506 19.4785C14.6204 19.9403 15.7322 20.25 17 20.25C18.2678 20.25 19.3796 19.9403 20.1494 19.4785C20.9341 19.0077 21.25 18.4615 21.25 18V16.5488ZM21.25 12.5488C21.1433 12.6246 21.0337 12.697 20.9209 12.7646C19.881 13.3885 18.4929 13.75 17 13.75C15.5071 13.75 14.119 13.3885 13.0791 12.7646C12.9663 12.697 12.8567 12.6246 12.75 12.5488V14C12.75 14.4615 13.0659 15.0077 13.8506 15.4785C14.6204 15.9403 15.7322 16.25 17 16.25C18.2678 16.25 19.3796 15.9403 20.1494 15.4785C20.9341 15.0077 21.25 14.4615 21.25 14V12.5488ZM21.25 8.54883C21.1442 8.62401 21.0351 8.69668 20.9219 8.76465C19.8451 9.41072 18.4331 9.75 17 9.75C15.5669 9.75 14.1549 9.41072 13.0781 8.76465C12.9649 8.69668 12.8558 8.62401 12.75 8.54883V10C12.75 10.4615 13.0659 11.0077 13.8506 11.4785C14.6204 11.9403 15.7322 12.25 17 12.25C18.2678 12.25 19.3796 11.9403 20.1494 11.4785C20.9341 11.0077 21.25 10.4615 21.25 10V8.54883ZM17 3.75C15.7811 3.75 14.6491 4.04245 13.8506 4.52148C13.0443 5.00526 12.75 5.56194 12.75 6L12.7646 6.16992C12.8321 6.57638 13.1454 7.0554 13.8506 7.47852C14.6491 7.95755 15.7811 8.25 17 8.25C18.2189 8.25 19.3509 7.95755 20.1494 7.47852C20.9557 6.99474 21.25 6.43806 21.25 6C21.25 5.56194 20.9557 5.00526 20.1494 4.52148C19.3509 4.04245 18.2189 3.75 17 3.75Z" fill="#00090A"/>
<path fill-rule="evenodd" clip-rule="evenodd" d="M6.1911 8.10097C7.14379 8.07966 8.12021 8.4471 8.68456 9.18111C8.93703 9.50948 8.8755 9.98035 8.54713 10.2328C8.21875 10.4853 7.74788 10.4238 7.49541 10.0954C7.28656 9.82376 6.81428 9.58571 6.21892 9.60074L6.19999 9.60097H4.1C3.66663 9.60097 3.30318 9.73362 3.06499 9.91221C2.82703 10.0906 2.75 10.2798 2.75 10.4255C2.75 10.5712 2.82703 10.7604 3.06499 10.9388C3.30318 11.1174 3.66663 11.2501 4.1 11.2501H6.19999C6.92642 11.2501 7.61297 11.4699 8.13483 11.8612C8.65691 12.2526 9.04999 12.8507 9.04999 13.5746C9.04999 14.2985 8.65691 14.8966 8.13483 15.2881C7.61297 15.6793 6.92642 15.8992 6.19999 15.8992H4.10891C3.15621 15.9205 2.17978 15.5531 1.61542 14.819C1.36295 14.4907 1.42448 14.0198 1.75286 13.7673C2.08123 13.5148 2.5521 13.5764 2.80457 13.9048C3.01342 14.1764 3.48571 14.4144 4.08107 14.3994L4.1 14.3992H6.19999C6.63335 14.3992 6.9968 14.2665 7.23499 14.0879C7.47296 13.9095 7.54999 13.7203 7.54999 13.5746C7.54999 13.4289 7.47296 13.2397 7.23499 13.0613C6.9968 12.8827 6.63335 12.7501 6.19999 12.7501H4.1C3.37356 12.7501 2.68702 12.5302 2.16516 12.139C1.64307 11.7475 1.25 11.1494 1.25 10.4255C1.25 9.70164 1.64307 9.10354 2.16516 8.71209C2.68702 8.3208 3.37356 8.10097 4.1 8.10097H6.1911Z" fill="#00090A"/>
<path fill-rule="evenodd" clip-rule="evenodd" d="M5.07495 6.75C5.48916 6.75 5.82495 7.08579 5.82495 7.5V8.84993C5.82495 9.26415 5.48916 9.59993 5.07495 9.59993C4.66074 9.59993 4.32495 9.26415 4.32495 8.84993V7.5C4.32495 7.08579 4.66074 6.75 5.07495 6.75Z" fill="#00090A"/>
<path fill-rule="evenodd" clip-rule="evenodd" d="M5.07495 14.3999C5.48916 14.3999 5.82495 14.7357 5.82495 15.1499V16.4998C5.82495 16.9141 5.48916 17.2498 5.07495 17.2498C4.66074 17.2498 4.32495 16.9141 4.32495 16.4998V15.1499C4.32495 14.7357 4.66074 14.3999 5.07495 14.3999Z" fill="#00090A"/>
</svg>
