<svg width="24" height="24" viewBox="0 0 24 24" fill="none" xmlns="http://www.w3.org/2000/svg">
<path fill-rule="evenodd" clip-rule="evenodd" d="M8.11328 2.01923C8.52749 2.01923 8.86328 2.35501 8.86328 2.76923V3.96259H15.1367V2.76923C15.1367 2.35501 15.4725 2.01923 15.8867 2.01923C16.3009 2.01923 16.6367 2.35501 16.6367 2.76923V3.96259H17.7449C19.8159 3.96259 21.4949 5.64152 21.4949 7.71259V9.57086V18.2308C21.4949 20.3019 19.816 21.9808 17.7449 21.9808H6.25501C4.18394 21.9808 2.505 20.3019 2.505 18.2308V9.57086V7.71258C2.505 5.64152 4.18394 3.96259 6.255 3.96259H7.36328V2.76923C7.36328 2.35501 7.69906 2.01923 8.11328 2.01923ZM15.1367 5.46259V6.65587C15.1367 7.07008 15.4725 7.40587 15.8867 7.40587C16.3009 7.40587 16.6367 7.07008 16.6367 6.65587V5.46259H17.7449C18.9875 5.46259 19.9949 6.46995 19.9949 7.71259V8.82086L4.005 8.82086V7.71258C4.005 6.46994 5.01236 5.46259 6.255 5.46259H7.36328V6.65587C7.36328 7.07008 7.69906 7.40587 8.11328 7.40587C8.52749 7.40587 8.86328 7.07008 8.86328 6.65587V5.46259H15.1367ZM19.9949 10.3209L4.005 10.3209V18.2308C4.005 19.4734 5.01237 20.4808 6.25501 20.4808H17.7449C18.9875 20.4808 19.9949 19.4734 19.9949 18.2308V10.3209ZM7.87179 14.0513C7.31951 14.0513 6.87179 14.499 6.87179 15.0513V16.1282C6.87179 16.6805 7.31951 17.1282 7.87179 17.1282H8.94872C9.501 17.1282 9.94872 16.6805 9.94872 16.1282V15.0513C9.94872 14.499 9.501 14.0513 8.94871 14.0513H7.87179Z" fill="#00090A"/>
</svg>
