<svg width="24" height="24" viewBox="0 0 24 24" fill="none" xmlns="http://www.w3.org/2000/svg">
<path fill-rule="evenodd" clip-rule="evenodd" d="M3.48016 7.5381C3.917 14.5185 9.48154 20.083 16.4619 20.5198C17.0481 20.5091 17.52 20.0306 17.52 19.4418V16.2931L14.0139 14.8906L12.9714 16.6282C12.7705 16.9629 12.3466 17.0877 11.9965 16.915C9.86341 15.863 8.137 14.1366 7.085 12.0035C6.91235 11.6534 7.03707 11.2295 7.37177 11.0286L9.10937 9.98608L7.70693 6.47998H4.55822C3.96945 6.47998 3.49089 6.95189 3.48016 7.5381ZM4.55822 4.97998C3.1343 4.97998 1.97998 6.1343 1.97998 7.55822C1.97998 7.5734 1.98044 7.58857 1.98136 7.60371C2.45279 15.3612 8.6388 21.5472 16.3963 22.0186C16.4114 22.0196 16.4266 22.02 16.4418 22.02C17.8657 22.02 19.02 20.8657 19.02 19.4418V15.7853C19.02 15.4786 18.8333 15.2028 18.5486 15.0889L13.978 13.2607C13.6362 13.124 13.2457 13.2555 13.0563 13.5712L12.0537 15.2423C10.6933 14.4411 9.55889 13.3067 8.75775 11.9463L10.4288 10.9437C10.7445 10.7543 10.876 10.3638 10.7393 10.022L8.91106 5.45144C8.79716 5.16669 8.52138 4.97998 8.2147 4.97998H4.55822Z" fill="#00090A"/>
<path fill-rule="evenodd" clip-rule="evenodd" d="M13.25 8C13.25 7.58579 13.5858 7.25 14 7.25C15.5188 7.25 16.75 8.48122 16.75 10C16.75 10.4142 16.4142 10.75 16 10.75C15.5858 10.75 15.25 10.4142 15.25 10C15.25 9.30964 14.6904 8.75 14 8.75C13.5858 8.75 13.25 8.41421 13.25 8Z" fill="#00090A"/>
<path fill-rule="evenodd" clip-rule="evenodd" d="M13.25 4C13.25 3.58579 13.5858 3.25 14 3.25C17.7279 3.25 20.75 6.27208 20.75 10C20.75 10.4142 20.4142 10.75 20 10.75C19.5858 10.75 19.25 10.4142 19.25 10C19.25 7.10051 16.8995 4.75 14 4.75C13.5858 4.75 13.25 4.41421 13.25 4Z" fill="#00090A"/>
</svg>
