<svg width="24" height="24" viewBox="0 0 24 24" fill="none" xmlns="http://www.w3.org/2000/svg">
<path fill-rule="evenodd" clip-rule="evenodd" d="M12 4.75C7.99594 4.75 4.75 7.99594 4.75 12V12.5499C5.12503 12.3581 5.54989 12.25 6 12.25C7.51878 12.25 8.75 13.4812 8.75 15V17C8.75 18.5188 7.51878 19.75 6 19.75C4.48122 19.75 3.25 18.5188 3.25 17V15V12C3.25 7.16751 7.16751 3.25 12 3.25C16.8325 3.25 20.75 7.16751 20.75 12V15V17C20.75 18.2945 19.8556 19.3801 18.651 19.6725C18.3701 20.6041 17.5268 21.3178 16.5781 21.7921C15.3677 22.3973 13.748 22.75 12 22.75C11.5858 22.75 11.25 22.4142 11.25 22C11.25 21.5858 11.5858 21.25 12 21.25C13.5657 21.25 14.946 20.9311 15.9072 20.4505C16.4819 20.1632 16.8382 19.8585 17.0381 19.5771C15.9937 19.1871 15.25 18.1804 15.25 17V15C15.25 13.4812 16.4812 12.25 18 12.25C18.4501 12.25 18.875 12.3581 19.25 12.5499V12C19.25 7.99594 16.0041 4.75 12 4.75ZM18 18.25C18.6904 18.25 19.25 17.6904 19.25 17V15C19.25 14.3096 18.6904 13.75 18 13.75C17.3096 13.75 16.75 14.3096 16.75 15V17C16.75 17.6904 17.3096 18.25 18 18.25ZM4.75 17V15C4.75 14.3096 5.30964 13.75 6 13.75C6.69036 13.75 7.25 14.3096 7.25 15V17C7.25 17.6904 6.69036 18.25 6 18.25C5.30964 18.25 4.75 17.6904 4.75 17Z" fill="#00090A"/>
</svg>
