<svg width="24" height="24" viewBox="0 0 24 24" fill="none" xmlns="http://www.w3.org/2000/svg">
<path d="M7.07715 5.25391C7.11482 5.25776 7.15071 5.26813 7.18652 5.27734C7.20964 5.28329 7.23236 5.2897 7.25488 5.29785C7.278 5.30624 7.30028 5.31564 7.32227 5.32617C7.34568 5.33735 7.36831 5.34959 7.39062 5.36328C7.40912 5.37465 7.42695 5.38653 7.44434 5.39941C7.47546 5.42247 7.50735 5.44529 7.53516 5.47363L7.58594 5.53125L11.3613 10.25H12C13.5188 10.25 14.75 11.4812 14.75 13V17C14.75 17.4142 14.4142 17.75 14 17.75H12.6436C12.3168 18.9039 11.2585 19.75 10 19.75C8.7415 19.75 7.68316 18.9039 7.35645 17.75H3C2.58579 17.75 2.25 17.4142 2.25 17C2.25002 16.5858 2.5858 16.25 3 16.25H7.35645C7.68316 15.0961 8.7415 14.25 10 14.25C11.2585 14.25 12.3168 15.0961 12.6436 16.25H13.25V13C13.25 12.3096 12.6904 11.75 12 11.75H3C2.58579 11.75 2.25 11.4142 2.25 11C2.25002 10.5858 2.5858 10.25 3 10.25H4.25V6.75H3C2.5858 6.75 2.25002 6.4142 2.25 6C2.25 5.58579 2.58579 5.25 3 5.25H7L7.07715 5.25391ZM10 15.75C9.30964 15.75 8.75 16.3096 8.75 17C8.75 17.6904 9.30964 18.25 10 18.25C10.6904 18.25 11.25 17.6904 11.25 17C11.25 16.3096 10.6904 15.75 10 15.75ZM16.9697 14.9697C17.2443 14.6951 17.6791 14.6777 17.9736 14.918L18.0303 14.9697L19.5303 16.4697L19.582 16.5264C19.8223 16.8209 19.8049 17.2557 19.5303 17.5303C19.2557 17.8049 18.8209 17.8223 18.5264 17.582L18.4697 17.5303L16.9697 16.0303L16.918 15.9736C16.6777 15.6791 16.6951 15.2443 16.9697 14.9697ZM21 11.25C21.4142 11.25 21.75 11.5858 21.75 12C21.75 12.4142 21.4142 12.75 21 12.75H19C18.5858 12.75 18.25 12.4142 18.25 12C18.25 11.5858 18.5858 11.25 19 11.25H21ZM5.75 10.25H9.43945L6.63867 6.75H5.75V10.25ZM18.4697 6.46973C18.7626 6.17683 19.2374 6.17683 19.5303 6.46973C19.8232 6.76262 19.8232 7.23738 19.5303 7.53027L18.0303 9.03027C17.7374 9.32317 17.2626 9.32317 16.9697 9.03027C16.6768 8.73738 16.6768 8.26262 16.9697 7.96973L18.4697 6.46973ZM14 5.25C14.4142 5.25 14.75 5.58579 14.75 6V8C14.75 8.41421 14.4142 8.75 14 8.75C13.5858 8.75 13.25 8.41421 13.25 8V6C13.25 5.58579 13.5858 5.25 14 5.25Z" fill="#00090A"/>
</svg>
