<svg width="24" height="24" viewBox="0 0 24 24" fill="none" xmlns="http://www.w3.org/2000/svg">
<path d="M13.5195 5.25C14.0511 5.25005 14.5537 5.49214 14.8857 5.90723L18.2852 10.1562L18.3252 10.1963C18.3689 10.2309 18.4236 10.25 18.4805 10.25H19C20.5188 10.25 21.75 11.4812 21.75 13V16C21.75 16.9665 20.9665 17.75 20 17.75H19.6436C19.3168 18.9039 18.2585 19.75 17 19.75C15.7415 19.75 14.6832 18.9039 14.3564 17.75H9.64355C9.31684 18.9039 8.2585 19.75 7 19.75C5.7415 19.75 4.68316 18.9039 4.35645 17.75H4C3.0335 17.75 2.25 16.9665 2.25 16V11.1924C2.25 11.1561 2.25361 11.1201 2.25586 11.084C2.25278 11.0564 2.25 11.0284 2.25 11C2.25001 10.8778 2.28217 10.764 2.33398 10.6621C2.34672 10.6221 2.35938 10.5821 2.375 10.543L4.05176 6.34961L4.10645 6.22852C4.39866 5.63316 5.00593 5.2501 5.67676 5.25H13.5195ZM7 15.75C6.30964 15.75 5.75 16.3096 5.75 17C5.75 17.6904 6.30964 18.25 7 18.25C7.69036 18.25 8.25 17.6904 8.25 17C8.25 16.3096 7.69036 15.75 7 15.75ZM17 15.75C16.3096 15.75 15.75 16.3096 15.75 17C15.75 17.6904 16.3096 18.25 17 18.25C17.6904 18.25 18.25 17.6904 18.25 17C18.25 16.3096 17.6904 15.75 17 15.75ZM18.0771 11.7461L18 11.75H3.75V16C3.75 16.1381 3.86193 16.25 4 16.25H4.35645C4.68316 15.0961 5.7415 14.25 7 14.25C8.2585 14.25 9.31684 15.0961 9.64355 16.25H14.3564C14.6832 15.0961 15.7415 14.25 17 14.25C18.2585 14.25 19.3168 15.0961 19.6436 16.25H20C20.1381 16.25 20.25 16.1381 20.25 16V13C20.25 12.3096 19.6904 11.75 19 11.75H18.4805C18.3817 11.75 18.2844 11.7389 18.1885 11.7227C18.1521 11.7321 18.1155 11.7422 18.0771 11.7461ZM5.67676 6.75C5.57467 6.75011 5.48326 6.81244 5.44531 6.90723L4.10742 10.25H11.25V6.75H5.67676ZM12.75 10.25H16.4404L13.7148 6.84375C13.6674 6.78449 13.5954 6.75005 13.5195 6.75H12.75V10.25Z" fill="#00090A"/>
</svg>
