<svg width="24" height="24" viewBox="0 0 24 24" fill="none" xmlns="http://www.w3.org/2000/svg">
<path d="M18 4.25C20.0711 4.25 21.75 5.92893 21.75 8V16C21.75 18.0711 20.0711 19.75 18 19.75H6C3.92893 19.75 2.25 18.0711 2.25 16V8C2.25 5.92893 3.92893 4.25 6 4.25H18ZM3.75 16C3.75 17.2426 4.75736 18.25 6 18.25H18C19.2426 18.25 20.25 17.2426 20.25 16V10.75H3.75V16ZM7.08691 14.2539C7.46494 14.2925 7.75977 14.6118 7.75977 15C7.75977 15.3882 7.46494 15.7075 7.08691 15.7461L7.00977 15.75H7C6.58579 15.75 6.25 15.4142 6.25 15C6.25 14.5858 6.58579 14.25 7 14.25H7.00977L7.08691 14.2539ZM13 14.25C13.4142 14.25 13.75 14.5858 13.75 15C13.75 15.4142 13.4142 15.75 13 15.75H11C10.5858 15.75 10.25 15.4142 10.25 15C10.25 14.5858 10.5858 14.25 11 14.25H13ZM6 5.75C4.75736 5.75 3.75 6.75736 3.75 8V9.25H20.25V8C20.25 6.75736 19.2426 5.75 18 5.75H6Z" fill="#00090A"/>
</svg>
