<svg width="24" height="24" viewBox="0 0 24 24" fill="none" xmlns="http://www.w3.org/2000/svg">
<path d="M18 3.75C20.0711 3.75 21.75 5.42893 21.75 7.5V16.5C21.75 18.5711 20.0711 20.25 18 20.25H6C3.92893 20.25 2.25 18.5711 2.25 16.5V7.5C2.25 5.42893 3.92893 3.75 6 3.75H18ZM6.5 14.75C6.08579 14.75 5.75 15.0858 5.75 15.5C5.75 15.9142 6.08579 16.25 6.5 16.25H17.5C17.9142 16.25 18.25 15.9142 18.25 15.5C18.25 15.0858 17.9142 14.75 17.5 14.75H6.5ZM7.5 7.25C6.5335 7.25 5.75 8.0335 5.75 9V10C5.75 10.9665 6.5335 11.75 7.5 11.75H8.5C9.4665 11.75 10.25 10.9665 10.25 10V9C10.25 8.0335 9.4665 7.25 8.5 7.25H7.5ZM8.5 8.75C8.63807 8.75 8.75 8.86193 8.75 9V10C8.75 10.1381 8.63807 10.25 8.5 10.25H7.5C7.36193 10.25 7.25 10.1381 7.25 10V9C7.25 8.86193 7.36193 8.75 7.5 8.75H8.5Z" fill="#00090A"/>
</svg>
