<svg width="24" height="24" viewBox="0 0 24 24" fill="none" xmlns="http://www.w3.org/2000/svg">
<path fill-rule="evenodd" clip-rule="evenodd" d="M0.75 6C0.75 4.48122 1.98122 3.25 3.5 3.25H17.5C19.0188 3.25 20.25 4.48122 20.25 6V7.25021C21.9433 7.27016 23.25 8.70709 23.25 10.4V17.6C23.25 19.3048 21.9249 20.75 20.2143 20.75L7.78571 20.75C6.12548 20.75 4.82843 19.3887 4.75343 17.75H3.5C1.98122 17.75 0.75 16.5188 0.75 15V6ZM20.25 15V8.75045C21.0494 8.77067 21.75 9.46769 21.75 10.4V17.6C21.75 18.5462 21.0284 19.25 20.2143 19.25L7.78571 19.25C7.01526 19.25 6.32763 18.6196 6.25612 17.75H17.5C19.0188 17.75 20.25 16.5188 20.25 15ZM3.5 4.75C2.80964 4.75 2.25 5.30964 2.25 6V15C2.25 15.6904 2.80964 16.25 3.5 16.25H17.5C18.1904 16.25 18.75 15.6904 18.75 15V6C18.75 5.30964 18.1904 4.75 17.5 4.75H3.5Z" fill="#00090A"/>
<path fill-rule="evenodd" clip-rule="evenodd" d="M11.25 7.34367C12.0212 7.32641 12.8117 7.62387 13.2685 8.21807C13.4729 8.4839 13.4231 8.86509 13.1573 9.06948C12.8915 9.27386 12.5103 9.22405 12.3059 8.95822C12.1368 8.73832 11.7545 8.54561 11.2725 8.55778L11.2572 8.55797H9.55717C9.20635 8.55797 8.91212 8.66535 8.7193 8.80993C8.52666 8.95437 8.4643 9.10751 8.4643 9.22547C8.4643 9.34343 8.52666 9.49658 8.7193 9.64102C8.91212 9.78559 9.20635 9.89298 9.55717 9.89298H11.2572C11.8453 9.89298 12.4011 10.0709 12.8235 10.3877C13.2462 10.7046 13.5644 11.1888 13.5644 11.7748C13.5644 12.3608 13.2462 12.845 12.8235 13.1619C12.4011 13.4786 11.8453 13.6566 11.2572 13.6566H9.56439C8.79314 13.6738 8.00269 13.3764 7.54582 12.7822C7.34144 12.5164 7.39125 12.1352 7.65708 11.9308C7.92291 11.7264 8.3041 11.7762 8.50848 12.042C8.67756 12.2619 9.05989 12.4546 9.54185 12.4425L9.55717 12.4423H11.2572C11.608 12.4423 11.9022 12.3349 12.0951 12.1903C12.2877 12.0459 12.3501 11.8927 12.3501 11.7748C12.3501 11.6568 12.2877 11.5037 12.0951 11.3592C11.9022 11.2147 11.608 11.1073 11.2572 11.1073H9.55717C8.9691 11.1073 8.41332 10.9293 7.99085 10.6126C7.56821 10.2957 7.25 9.81149 7.25 9.22547C7.25 8.63946 7.56821 8.15528 7.99085 7.83838C8.41332 7.52163 8.9691 7.34367 9.55717 7.34367H11.25Z" fill="#00090A"/>
<path fill-rule="evenodd" clip-rule="evenodd" d="M10.3464 6.25C10.6817 6.25 10.9536 6.52183 10.9536 6.85715V7.94997C10.9536 8.28529 10.6817 8.55713 10.3464 8.55713C10.0111 8.55713 9.73926 8.28529 9.73926 7.94997V6.85715C9.73926 6.52183 10.0111 6.25 10.3464 6.25Z" fill="#00090A"/>
<path fill-rule="evenodd" clip-rule="evenodd" d="M10.3464 12.4429C10.6817 12.4429 10.9536 12.7147 10.9536 13.05V14.1428C10.9536 14.4782 10.6817 14.75 10.3464 14.75C10.0111 14.75 9.73926 14.4782 9.73926 14.1428V13.05C9.73926 12.7147 10.0111 12.4429 10.3464 12.4429Z" fill="#00090A"/>
</svg>
