<svg width="24" height="24" viewBox="0 0 24 24" fill="none" xmlns="http://www.w3.org/2000/svg">
<path d="M2.46967 2.46904C2.74412 2.19459 3.179 2.17739 3.47358 2.41728L3.53022 2.46904L6.15717 5.09599C6.16197 5.10062 6.16712 5.10488 6.17182 5.10966C6.17519 5.1131 6.17829 5.11692 6.18159 5.1204L21.5302 20.469L21.582 20.5257C21.8223 20.8203 21.8048 21.255 21.5302 21.5296C21.2556 21.8042 20.8209 21.8216 20.5263 21.5813L20.4697 21.5296L18.3466 19.4065C15.9198 21.5184 12.588 22.309 9.44721 21.4759C6.06252 20.5778 3.41901 17.9333 2.52241 14.5481C1.69088 11.4083 2.48187 8.0784 4.59272 5.65263L2.46967 3.52958L2.41791 3.47294C2.17803 3.17837 2.19523 2.74349 2.46967 2.46904ZM5.65619 6.71611C3.92095 8.76157 3.27795 11.5414 3.9726 14.1643C4.73134 17.0285 6.96813 19.2658 9.83198 20.0257C12.4557 20.7216 15.2358 20.0779 17.2822 18.3421L5.65619 6.71611ZM7.61713 3.28837C11.3747 1.39524 15.9231 2.1259 18.8984 5.10087C21.8735 8.07601 22.6048 12.6245 20.7119 16.3821L20.6738 16.4495C20.4692 16.7696 20.0507 16.8898 19.704 16.7151C19.3345 16.5287 19.186 16.0771 19.372 15.7073L19.5156 15.4075C20.9332 12.2888 20.2765 8.60123 17.8378 6.1624C15.3203 3.64494 11.4715 3.02629 8.29194 4.62822L7.95502 3.95829L7.61713 3.28837ZM8.29194 4.62822C7.92219 4.81397 7.47135 4.66483 7.2851 4.29521C7.09897 3.92553 7.24772 3.4749 7.61713 3.28837L8.29194 4.62822Z" fill="#00090A"/>
</svg>
