<svg width="24" height="24" viewBox="0 0 24 24" fill="none" xmlns="http://www.w3.org/2000/svg">
<path d="M17.25 11C17.25 10.5858 17.5858 10.25 18 10.25H20.25V6.54102L15.6143 4.99512C15.1781 6.58291 13.7263 7.75 12 7.75C10.2736 7.75 8.82086 6.58303 8.38477 4.99512L3.75 6.54102V10.25H6C6.41421 10.25 6.75 10.5858 6.75 11V19C6.75 19.1381 6.86193 19.25 7 19.25H17C17.1381 19.25 17.25 19.1381 17.25 19V11ZM18.75 19C18.75 19.9665 17.9665 20.75 17 20.75H7C6.0335 20.75 5.25 19.9665 5.25 19V11.75H3C2.58579 11.75 2.25 11.4142 2.25 11V6L2.25977 5.88086C2.30353 5.60839 2.49476 5.3774 2.7627 5.28809L8.7627 3.28809L8.84961 3.26562C9.05361 3.22383 9.26736 3.26827 9.43848 3.3916C9.63405 3.53257 9.75 3.75892 9.75 4C9.75 5.24264 10.7574 6.25 12 6.25C13.2426 6.25 14.25 5.24264 14.25 4C14.25 3.9723 14.251 3.94489 14.2539 3.91797C14.2597 3.86618 14.2709 3.81412 14.2881 3.7627C14.2927 3.74873 14.2983 3.73518 14.3037 3.72168C14.3066 3.71448 14.3094 3.70728 14.3125 3.7002C14.3275 3.66561 14.3467 3.63374 14.3662 3.60254C14.3786 3.58286 14.3922 3.56429 14.4062 3.5459C14.4215 3.5259 14.437 3.50647 14.4541 3.48828C14.4704 3.47092 14.488 3.4552 14.5059 3.43945C14.5249 3.4227 14.5439 3.40629 14.5645 3.3916C14.5843 3.37736 14.6057 3.3658 14.627 3.35352C14.6457 3.3427 14.664 3.33143 14.6836 3.32227C14.7066 3.31148 14.7306 3.30335 14.7549 3.29492C14.7785 3.2867 14.8018 3.27831 14.8262 3.27246C14.8609 3.26419 14.8962 3.25715 14.9326 3.25391C14.9401 3.25323 14.9476 3.25338 14.9551 3.25293C14.97 3.25205 14.9849 3.25 15 3.25C15.0277 3.25 15.0551 3.25195 15.082 3.25488C15.109 3.25788 15.1361 3.26154 15.1631 3.26758L15.2373 3.28809L21.2373 5.28809L21.3467 5.33496C21.5916 5.46255 21.75 5.71737 21.75 6V11C21.75 11.4142 21.4142 11.75 21 11.75H18.75V19Z" fill="#00090A"/>
</svg>
