<svg width="24" height="24" viewBox="0 0 24 24" fill="none" xmlns="http://www.w3.org/2000/svg">
<path d="M17 9.25012C17.4142 9.25012 17.75 9.58591 17.75 10.0001V10.2599C19.0397 10.1744 20.3136 10.7599 21.0781 11.8615C22.0417 13.2501 21.9574 15.1117 20.8721 16.4074C19.9639 17.4915 18.5438 17.9519 17.2041 17.6613C16.1714 20.0658 13.7828 21.7501 11 21.7501H9C5.27208 21.7501 2.25 18.728 2.25 15.0001V10.0001C2.25 9.58591 2.58579 9.25012 3 9.25012H17ZM13.4912 13.7501C12.1911 13.7346 11.1227 14.0805 10.459 14.5939C9.4646 15.3629 8.04234 15.7669 6.5 15.7501C5.50855 15.7609 4.56721 15.5968 3.75684 15.2745C3.89957 18.0465 6.19255 20.2501 9 20.2501H11C13.8995 20.2501 16.25 17.8996 16.25 15.0001V14.3956C15.5841 13.9939 14.6332 13.7367 13.5088 13.7501H13.4912ZM19.8467 12.7169C19.3684 12.0276 18.5572 11.6742 17.75 11.7638V15.0001C17.75 15.4164 17.7098 15.8234 17.6377 16.2189C18.4065 16.3436 19.204 16.0636 19.7227 15.4445C20.3738 14.6672 20.4246 13.55 19.8467 12.7169ZM3.75 13.6036C4.41588 14.0055 5.36647 14.2636 6.49121 14.2501H6.50879C7.80872 14.2657 8.87731 13.9206 9.54102 13.4074C10.5354 12.6382 11.9576 12.2333 13.5 12.2501C14.4941 12.2393 15.4382 12.4037 16.25 12.7277V11.1505C16.2503 11.1401 16.2493 11.1296 16.25 11.1193V10.7501H3.75V13.6036ZM7.5625 2.39075C7.89896 2.14925 8.36781 2.22623 8.60938 2.56262C8.85089 2.8991 8.77394 3.36795 8.4375 3.6095C7.99578 3.92656 7.73861 4.44088 7.75 4.9845C7.75022 4.99491 7.75022 5.00534 7.75 5.01575C7.73861 5.55936 7.99578 6.07369 8.4375 6.39075C8.77399 6.63229 8.8509 7.10113 8.60938 7.43762C8.36783 7.77408 7.89899 7.85102 7.5625 7.6095C6.72354 7.00725 6.23352 6.03208 6.25 5.00012C6.23353 3.96817 6.72352 2.99298 7.5625 2.39075ZM11.5625 2.39075C11.899 2.14925 12.3678 2.22623 12.6094 2.56262C12.8509 2.8991 12.7739 3.36795 12.4375 3.6095C11.9958 3.92656 11.7386 4.44088 11.75 4.9845C11.7502 4.99491 11.7502 5.00534 11.75 5.01575C11.7386 5.55936 11.9958 6.07369 12.4375 6.39075C12.774 6.63229 12.8509 7.10113 12.6094 7.43762C12.3678 7.77408 11.899 7.85102 11.5625 7.6095C10.7235 7.00725 10.2335 6.03208 10.25 5.00012C10.2335 3.96817 10.7235 2.99298 11.5625 2.39075Z" fill="#00090A"/>
</svg>
