<svg width="24" height="24" viewBox="0 0 24 24" fill="none" xmlns="http://www.w3.org/2000/svg">
<path fill-rule="evenodd" clip-rule="evenodd" d="M1.5 12C1.5 6.20101 6.20101 1.5 12 1.5C17.799 1.5 22.5 6.20101 22.5 12C22.5 17.799 17.799 22.5 12 22.5C6.20101 22.5 1.5 17.799 1.5 12ZM13.3791 7.25108C14.4846 7.22389 15.584 7.69203 16.2019 8.56873C16.4406 8.9073 16.3595 9.37521 16.021 9.61383C15.6824 9.85246 15.2145 9.77143 14.9758 9.43286C14.6934 9.03215 14.1061 8.73161 13.4095 8.75079L13.3889 8.75108H10.9444C9.86067 8.75108 9.25 9.44434 9.25 10.0005C9.25 10.5567 9.86067 11.2499 10.9444 11.2499H13.3889C15.0052 11.2499 16.5833 12.347 16.5833 13.9994C16.5833 15.6517 15.0052 16.7488 13.3889 16.7488H12.9167V18C12.9167 18.4142 12.581 18.75 12.1667 18.75C11.7525 18.75 11.4167 18.4142 11.4167 18V16.7488H10.9542C9.84872 16.776 8.74928 16.3078 8.1314 15.4311C7.89278 15.0926 7.97381 14.6247 8.31238 14.386C8.65095 14.1474 9.11887 14.2284 9.35749 14.567C9.6399 14.9677 10.2273 15.2683 10.9238 15.2491L10.9444 15.2488H13.3889C14.4727 15.2488 15.0833 14.5555 15.0833 13.9994C15.0833 13.4432 14.4727 12.7499 13.3889 12.7499H10.9444C9.32816 12.7499 7.75 11.6529 7.75 10.0005C7.75 8.34816 9.32816 7.25108 10.9444 7.25108H11.4167V6C11.4167 5.58579 11.7525 5.25 12.1667 5.25C12.581 5.25 12.9167 5.58579 12.9167 6V7.25108H13.3791Z" fill="#00090A"/>
</svg>
