<svg width="24" height="24" viewBox="0 0 24 24" fill="none" xmlns="http://www.w3.org/2000/svg">
<path d="M15 10.25C16.7482 10.25 18.3678 10.6028 19.5781 11.208C20.7436 11.7908 21.75 12.7344 21.75 14V18C21.7499 19.265 20.7434 20.2092 19.5781 20.792C18.3678 21.3972 16.7481 21.75 15 21.75C13.2519 21.75 11.6322 21.3972 10.4219 20.792C9.25656 20.2092 8.25011 19.265 8.25 18V14C8.25 13.974 8.25036 13.9481 8.25293 13.9228C8.29278 12.696 9.28015 11.7789 10.4219 11.208C11.6322 10.6028 13.2518 10.25 15 10.25ZM20.25 16.3984C20.0366 16.5433 19.811 16.6756 19.5781 16.792C18.3678 17.3971 16.7481 17.75 15 17.75C13.2519 17.75 11.6322 17.3971 10.4219 16.792C10.189 16.6756 9.96338 16.5433 9.75 16.3984V18C9.75012 18.3908 10.0868 18.9471 11.0928 19.4502C12.0539 19.9308 13.4343 20.25 15 20.25C16.5657 20.25 17.9461 19.9308 18.9072 19.4502C19.9132 18.9471 20.2499 18.3908 20.25 18V16.3984ZM5.79199 2.68162C7.78393 2.10637 10.2161 2.10637 12.208 2.68162C13.2063 2.96993 14.0636 3.39337 14.6865 3.9326C15.3091 4.47169 15.75 5.17802 15.75 5.99998C15.7499 6.8219 15.3091 7.5283 14.6865 8.06736C14.0636 8.60656 13.2063 9.03005 12.208 9.31834C10.2161 9.89357 7.7839 9.89357 5.79199 9.31834C5.00903 9.09223 4.31444 8.78046 3.75 8.39744V11C3.75005 11.1884 3.81833 11.3631 4.04883 11.5762C4.23924 11.752 4.51653 11.9296 4.89453 12.1201L5.30664 12.3154L5.375 12.3506C5.70432 12.5403 5.84327 12.9523 5.68457 13.3066C5.52573 13.661 5.12553 13.8316 4.76465 13.7119L4.69336 13.6846L4.22852 13.4648C4.06247 13.3814 3.90346 13.291 3.75 13.1992V16C3.75005 16.1884 3.81833 16.3631 4.04883 16.5762C4.23924 16.752 4.51653 16.9296 4.89453 17.1201L5.30664 17.3154L5.375 17.3506C5.70432 17.5403 5.84327 17.9523 5.68457 18.3066C5.52573 18.661 5.12553 18.8316 4.76465 18.7119L4.69336 18.6846L4.22852 18.4648C3.77499 18.237 3.35956 17.982 3.03027 17.6777C2.5679 17.2504 2.25006 16.6994 2.25 16V5.99998C2.25 5.17802 2.69088 4.47169 3.31348 3.9326C3.93643 3.39337 4.79369 2.96993 5.79199 2.68162ZM15 11.75C13.4342 11.75 12.0539 12.0692 11.0928 12.5498C10.0869 13.0527 9.75 13.6086 9.75 14C9.75012 14.3914 10.087 14.9473 11.0928 15.4502C12.0539 15.9307 13.4342 16.25 15 16.25C16.5658 16.25 17.9461 15.9307 18.9072 15.4502C19.913 14.9473 20.2499 14.3914 20.25 14C20.25 13.6086 19.9131 13.0527 18.9072 12.5498C17.9461 12.0692 16.5658 11.75 15 11.75ZM11.792 4.12205C10.072 3.62533 7.92803 3.62533 6.20801 4.12205C5.35059 4.36968 4.70792 4.70978 4.29492 5.06736C3.8818 5.42516 3.75 5.75004 3.75 5.99998C3.75007 6.24991 3.88183 6.57487 4.29492 6.9326C4.70793 7.29016 5.35063 7.63031 6.20801 7.87791C7.92801 8.37461 10.072 8.37461 11.792 7.87791C12.6494 7.63031 13.2921 7.29016 13.7051 6.9326C14.1182 6.57487 14.2499 6.24991 14.25 5.99998C14.25 5.75004 14.1182 5.42516 13.7051 5.06736C13.2921 4.70978 12.6494 4.36968 11.792 4.12205Z" fill="#00090A"/>
</svg>
