<svg width="24" height="24" viewBox="0 0 24 24" fill="none" xmlns="http://www.w3.org/2000/svg">
<path d="M11.9999 2.25C12.1988 2.25 12.3896 2.32917 12.5302 2.46973L21.5302 11.4697L21.6035 11.5547C21.758 11.764 21.7949 12.0418 21.6933 12.2871C21.5772 12.5673 21.3033 12.75 21 12.75H19.7499V19C19.7499 20.5188 18.5187 21.75 16.9999 21.75H6.9999C5.48125 21.7498 4.24989 20.5187 4.24988 19V12.75H2.99988C2.69666 12.7499 2.42256 12.5673 2.30652 12.2871C2.19057 12.007 2.25528 11.6842 2.4696 11.4697L11.4696 2.46973L11.5839 2.37598C11.7061 2.2945 11.8509 2.25006 11.9999 2.25ZM4.81043 11.25H4.99989L5.07704 11.2539C5.11181 11.2574 5.1454 11.2653 5.1786 11.2734C5.20436 11.2797 5.22915 11.288 5.2538 11.2969C5.27498 11.3045 5.29604 11.3118 5.3163 11.3213C5.33861 11.3317 5.35969 11.344 5.38075 11.3564C5.40011 11.3679 5.4192 11.3795 5.43739 11.3926C5.45831 11.4077 5.47774 11.4243 5.49696 11.4414C5.51163 11.4545 5.52633 11.4673 5.53993 11.4814C5.55986 11.5022 5.57716 11.5249 5.59462 11.5479C5.60576 11.5625 5.61775 11.5764 5.62782 11.5918C5.63961 11.6099 5.64885 11.6293 5.65907 11.6484C5.67094 11.6706 5.68362 11.6924 5.69325 11.7158C5.70502 11.7445 5.71338 11.7744 5.72157 11.8047C5.72555 11.8194 5.73215 11.8335 5.73524 11.8486L5.7372 11.8584C5.7378 11.8615 5.73663 11.865 5.7372 11.8682C5.74481 11.911 5.74989 11.9549 5.74989 12V19C5.74989 19.6902 6.30968 20.2498 6.9999 20.25H16.9999C17.6903 20.25 18.2499 19.6904 18.2499 19V12C18.2499 11.5859 18.5859 11.2502 18.9999 11.25H19.1894L11.9999 4.06055L4.81043 11.25ZM14.0771 11.2539C14.455 11.2925 14.7499 11.6118 14.7499 12V16C14.7499 16.4142 14.4141 16.75 13.9999 16.75H9.99991C9.58584 16.7498 9.2499 16.4141 9.2499 16V12L9.25381 11.9229C9.29242 11.545 9.61188 11.2502 9.99991 11.25H13.9999L14.0771 11.2539ZM10.7499 15.25H13.2499V12.75H10.7499V15.25Z" fill="#00090A"/>
</svg>
