<svg width="24" height="24" viewBox="0 0 24 24" fill="none" xmlns="http://www.w3.org/2000/svg">
<path d="M2.46967 2.46973C2.76256 2.17683 3.23732 2.17683 3.53022 2.46973L21.5302 20.4697C21.8231 20.7626 21.8231 21.2374 21.5302 21.5303C21.2373 21.8232 20.7626 21.8232 20.4697 21.5303L18.6523 19.7129C18.5282 20.1744 18.2881 20.6005 17.9443 20.9443C17.4286 21.4601 16.7293 21.75 15.9999 21.75H7.99994C7.2706 21.75 6.57133 21.4601 6.05561 20.9443C5.53988 20.4286 5.24994 19.7293 5.24994 19V6.31055L2.46967 3.53027C2.17678 3.23738 2.17678 2.76262 2.46967 2.46973ZM6.74994 19C6.74994 19.3315 6.88173 19.6494 7.11615 19.8838C7.35057 20.1182 7.66842 20.25 7.99994 20.25H15.9999C16.3315 20.25 16.6493 20.1182 16.8837 19.8838C17.1182 19.6494 17.2499 19.3315 17.2499 19V18.3105L6.74994 7.81055V19ZM11.9999 16C12.5522 16 12.9999 16.4477 12.9999 17C12.9999 17.5523 12.5522 18 11.9999 18C11.4477 18 10.9999 17.5523 10.9999 17C10.9999 16.4477 11.4477 16 11.9999 16ZM15.9999 2.25C16.7293 2.25 17.4286 2.53994 17.9443 3.05566C18.46 3.57139 18.7499 4.27065 18.7499 5V14C18.7499 14.4142 18.4142 14.75 17.9999 14.75C17.5857 14.75 17.2499 14.4142 17.2499 14V5C17.2499 4.66848 17.1182 4.35063 16.8837 4.11621C16.6493 3.88179 16.3315 3.75 15.9999 3.75H13.704C13.7319 3.82848 13.7499 3.91196 13.7499 4C13.7499 4.41421 13.4142 4.75 12.9999 4.75H10.9999C10.5857 4.75 10.2499 4.41421 10.2499 4C10.2499 3.91196 10.268 3.82848 10.2958 3.75H7.99994C7.58573 3.75 7.24994 3.41421 7.24994 3C7.24994 2.58579 7.58573 2.25 7.99994 2.25H15.9999Z" fill="#00090A"/>
</svg>
