<svg width="24" height="24" viewBox="0 0 24 24" fill="none" xmlns="http://www.w3.org/2000/svg">
<path fill-rule="evenodd" clip-rule="evenodd" d="M5.75 4C5.75 3.0335 6.5335 2.25 7.5 2.25H16.5C17.4665 2.25 18.25 3.0335 18.25 4V20C18.25 20.9665 17.4665 21.75 16.5 21.75H7.5C6.5335 21.75 5.75 20.9665 5.75 20V4ZM7.5 3.75C7.36193 3.75 7.25 3.86193 7.25 4V20C7.25 20.1381 7.36193 20.25 7.5 20.25H16.5C16.6381 20.25 16.75 20.1381 16.75 20V4C16.75 3.86193 16.6381 3.75 16.5 3.75H7.5Z" fill="#00090A"/>
<path fill-rule="evenodd" clip-rule="evenodd" d="M10.25 4C10.25 3.58579 10.5858 3.25 11 3.25H13C13.4142 3.25 13.75 3.58579 13.75 4C13.75 4.41421 13.4142 4.75 13 4.75H11C10.5858 4.75 10.25 4.41421 10.25 4Z" fill="#00090A"/>
<path fill-rule="evenodd" clip-rule="evenodd" d="M12 16.745C12.4142 16.745 12.75 17.0808 12.75 17.495V17.505C12.75 17.9192 12.4142 18.255 12 18.255C11.5858 18.255 11.25 17.9192 11.25 17.505V17.495C11.25 17.0808 11.5858 16.745 12 16.745Z" fill="#00090A"/>
</svg>
