<svg width="24" height="24" viewBox="0 0 24 24" fill="none" xmlns="http://www.w3.org/2000/svg">
<path d="M12 14C13.933 14 15.5 15.567 15.5 17.5C15.5 19.433 13.933 21 12 21C10.067 21 8.5 19.433 8.5 17.5C8.5 15.567 10.067 14 12 14ZM12 15.5C10.8954 15.5 10 16.3954 10 17.5C10 18.6046 10.8954 19.5 12 19.5C13.1046 19.5 14 18.6046 14 17.5C14 16.3954 13.1046 15.5 12 15.5ZM12 3C13.933 3 15.5 4.567 15.5 6.5C15.5 8.433 13.933 10 12 10C10.067 10 8.5 8.433 8.5 6.5C8.5 4.567 10.067 3 12 3ZM12 4.5C10.8954 4.5 10 5.39543 10 6.5C10 7.60457 10.8954 8.5 12 8.5C13.1046 8.5 14 7.60457 14 6.5C14 5.39543 13.1046 4.5 12 4.5Z" fill="#00090A"/>
</svg>
