<svg width="24" height="24" viewBox="0 0 24 24" fill="none" xmlns="http://www.w3.org/2000/svg">
<path d="M7.25 21V10.6748C5.53834 10.3273 4.25 8.81419 4.25 6.99999V3.99999C4.25002 3.58579 4.5858 3.24999 5 3.24999C5.4142 3.24999 5.74998 3.58579 5.75 3.99999V6.99999C5.75 7.9792 6.37674 8.80894 7.25 9.11815V3.99999C7.25002 3.58579 7.5858 3.24999 8 3.24999C8.4142 3.24999 8.74998 3.58579 8.75 3.99999V9.11815C9.62326 8.80894 10.25 7.9792 10.25 6.99999V3.99999C10.25 3.58579 10.5858 3.24999 11 3.24999C11.4142 3.24999 11.75 3.58579 11.75 3.99999V6.99999C11.75 8.81419 10.4617 10.3273 8.75 10.6748V21C8.75 21.4142 8.41421 21.75 8 21.75C7.58579 21.75 7.25 21.4142 7.25 21ZM18.5684 2.38671C18.7788 2.23855 19.0536 2.20729 19.2949 2.31054C19.5708 2.42865 19.75 2.69986 19.75 2.99999V21C19.75 21.4142 19.4142 21.75 19 21.75H18C17.5858 21.75 17.25 21.4142 17.25 21V18C17.25 17.5858 17.5858 17.25 18 17.25C18.0879 17.25 18.1716 17.2671 18.25 17.2949V15.75H14C13.5877 15.75 13.2527 15.4172 13.25 15.0049C13.2384 13.1541 13.2815 11.1966 13.9736 9.10644C14.6694 7.00543 16.0011 4.824 18.4824 2.45702L18.5684 2.38671ZM18.25 4.85155C16.7341 6.5562 15.8821 8.11438 15.3975 9.57811C14.871 11.1679 14.7625 12.6866 14.75 14.25H18.25V4.85155Z" fill="#00090A"/>
</svg>
