<svg width="24" height="24" viewBox="0 0 24 24" fill="none" xmlns="http://www.w3.org/2000/svg">
<path d="M11.2174 21.2308V18.9231H9.91304C9.90183 18.9231 9.89062 18.9226 9.87942 18.9221C9.09922 18.889 8.34665 18.6277 7.71909 18.1709C7.09146 17.7139 6.6173 17.082 6.35768 16.358C6.21416 15.9574 6.42804 15.5186 6.8356 15.3774C7.21782 15.245 7.63474 15.4212 7.80367 15.774L7.83424 15.8472L7.89844 16.0074C8.06237 16.3744 8.32118 16.6941 8.65048 16.9339C9.02373 17.2057 9.47067 17.3625 9.93444 17.3846H14.087L14.3193 17.3736C14.8567 17.3211 15.3617 17.0872 15.7469 16.7085C16.1872 16.2758 16.4348 15.689 16.4348 15.0769C16.4348 14.4649 16.1872 13.8781 15.7469 13.4453C15.3066 13.0125 14.7096 12.7692 14.087 12.7692H9.91304C8.87524 12.7692 7.88024 12.3637 7.1464 11.6424C6.41256 10.9211 6 9.94314 6 8.92308C6 7.90301 6.41256 6.92502 7.1464 6.20373C7.88024 5.48243 8.87524 5.07692 9.91304 5.07692H11.2174V2.76923C11.2174 2.3444 11.5678 2 12 2C12.4322 2 12.7826 2.3444 12.7826 2.76923V5.07692H14.087L14.1206 5.07792C14.9008 5.11104 15.6534 5.37232 16.2809 5.82913C16.8301 6.22896 17.2621 6.76252 17.5353 7.3746L17.6423 7.64203L17.6647 7.71715C17.7582 8.09613 17.5466 8.49017 17.1644 8.6226C16.7568 8.76381 16.3094 8.55352 16.1658 8.15284C16.01 7.71866 15.7259 7.34019 15.3495 7.06611C14.9763 6.79434 14.5293 6.63748 14.0656 6.61539H9.91304C9.29036 6.61539 8.69336 6.85869 8.25306 7.29147C7.81275 7.72424 7.56522 8.31104 7.56522 8.92308C7.56522 9.53512 7.81275 10.1219 8.25306 10.5547C8.69336 10.9875 9.29036 11.2308 9.91304 11.2308H14.087C15.1248 11.2308 16.1198 11.6363 16.8536 12.3576C17.5874 13.0789 18 14.0569 18 15.0769C18 16.097 17.5874 17.075 16.8536 17.7963C16.1198 18.5176 15.1248 18.9231 14.087 18.9231H12.7826V21.2308C12.7826 21.6556 12.4322 22 12 22C11.5678 22 11.2174 21.6556 11.2174 21.2308Z" fill="#00090A"/>
</svg>
