<svg width="24" height="24" viewBox="0 0 24 24" fill="none" xmlns="http://www.w3.org/2000/svg">
<path fill-rule="evenodd" clip-rule="evenodd" d="M17.8333 6.03186C16.1586 3.98916 13.3805 3.21984 10.8936 4.1101C8.40664 5.00035 6.74791 7.35792 6.75 9.99939C6.75033 10.4136 6.41481 10.7497 6.0006 10.75C5.58638 10.7503 5.25033 10.4148 5.25 10.0006C5.24741 6.72516 7.30423 3.80177 10.388 2.69786C13.4718 1.59394 16.9166 2.54789 18.9933 5.08085C21.0699 7.6138 21.33 11.1788 19.6429 13.9863C19.6297 14.0082 19.6154 14.0295 19.6 14.05C18.9976 14.8532 18.2857 15.568 17.485 16.1736C16.696 16.9251 16.0864 17.8449 15.7017 18.8647C15.6906 18.8942 15.6776 18.9229 15.6629 18.9508C14.9299 20.336 13.6163 21.3214 12.0812 21.6374C10.5462 21.9534 8.9502 21.5671 7.72958 20.5841C7.40697 20.3243 7.35607 19.8522 7.61588 19.5296C7.87569 19.207 8.34783 19.156 8.67043 19.4159C9.5423 20.118 10.6823 20.3939 11.7788 20.1682C12.8608 19.9454 13.7888 19.2571 14.3162 18.2881C14.7872 17.061 15.5287 15.9555 16.4858 15.054C16.5062 15.0348 16.5276 15.0168 16.55 15C17.2409 14.4818 17.8557 13.8695 18.3767 13.1809C19.7157 10.9219 19.4999 8.06474 17.8333 6.03186Z" fill="#00090A"/>
<path fill-rule="evenodd" clip-rule="evenodd" d="M14.9844 8.90414C14.4958 7.98922 13.445 7.52689 12.4404 7.78476C11.4357 8.04262 10.7375 8.95387 10.7499 9.99102C10.7549 10.4052 10.4231 10.745 10.0089 10.7499C9.59476 10.7549 9.25498 10.4231 9.25003 10.009C9.22935 8.28037 10.393 6.76163 12.0675 6.33185C13.7419 5.90207 15.4932 6.67263 16.3076 8.1975C17.122 9.72236 16.7884 11.6064 15.5 12.759C15.1913 13.0351 14.7172 13.0088 14.441 12.7C14.1648 12.3913 14.1912 11.9172 14.4999 11.641C15.273 10.9495 15.4731 9.81906 14.9844 8.90414Z" fill="#00090A"/>
</svg>
