<svg width="24" height="24" viewBox="0 0 24 24" fill="none" xmlns="http://www.w3.org/2000/svg">
<path d="M19 3.25C20.5188 3.25 21.75 4.48122 21.75 6V18C21.75 19.5188 20.5188 20.75 19 20.75H15C13.4812 20.75 12.25 19.5188 12.25 18V6C12.25 4.48122 13.4812 3.25 15 3.25H19ZM10 4.25C10.4142 4.25 10.75 4.58579 10.75 5C10.75 5.41421 10.4142 5.75 10 5.75H4C3.86193 5.75 3.75 5.86193 3.75 6V14C3.75 14.1381 3.86193 14.25 4 14.25H10C10.4142 14.25 10.75 14.5858 10.75 15C10.75 15.4142 10.4142 15.75 10 15.75H9.75V18.25H10L10.0771 18.2539C10.4551 18.2925 10.75 18.6118 10.75 19C10.75 19.3882 10.4551 19.7075 10.0771 19.7461L10 19.75H7C6.58579 19.75 6.25 19.4142 6.25 19C6.25 18.5858 6.58579 18.25 7 18.25H8.25V15.75H4C3.0335 15.75 2.25 14.9665 2.25 14V6C2.25 5.0335 3.0335 4.25 4 4.25H10ZM15 4.75C14.3096 4.75 13.75 5.30964 13.75 6V18C13.75 18.6904 14.3096 19.25 15 19.25H19C19.6904 19.25 20.25 18.6904 20.25 18V6C20.25 5.30964 19.6904 4.75 19 4.75H15ZM17 14.25C17.9665 14.25 18.75 15.0335 18.75 16C18.75 16.9665 17.9665 17.75 17 17.75C16.0335 17.75 15.25 16.9665 15.25 16C15.25 15.0335 16.0335 14.25 17 14.25ZM17 15.75C16.8619 15.75 16.75 15.8619 16.75 16C16.75 16.1381 16.8619 16.25 17 16.25C17.1381 16.25 17.25 16.1381 17.25 16C17.25 15.8619 17.1381 15.75 17 15.75ZM17 7.25C17.4142 7.25 17.75 7.58579 17.75 8V8.00977C17.75 8.42398 17.4142 8.75977 17 8.75977C16.5858 8.75977 16.25 8.42398 16.25 8.00977V8C16.25 7.58579 16.5858 7.25 17 7.25Z" fill="#00090A"/>
</svg>
