<svg width="24" height="24" viewBox="0 0 24 24" fill="none" xmlns="http://www.w3.org/2000/svg">
<path d="M9.72412 4.03394C10.1383 4.03394 10.474 4.36983 10.4741 4.78394C10.4741 5.19815 10.1383 5.53394 9.72412 5.53394H6.12744C5.21193 5.53394 4.47914 6.26914 4.479 7.16382V17.8738C4.47927 18.7683 5.21202 19.5037 6.12744 19.5037H16.9185C17.8338 19.5036 18.5666 18.7683 18.5669 17.8738V14.3035C18.567 13.8894 18.9028 13.5535 19.3169 13.5535C19.7308 13.5537 20.0668 13.8895 20.0669 14.3035V17.8738C20.0666 19.6075 18.6515 21.0036 16.9185 21.0037H6.12744C4.39437 21.0037 2.97927 19.6075 2.979 17.8738V7.16382C2.97914 5.42997 4.39429 4.03394 6.12744 4.03394H9.72412ZM20.3042 3.02808C20.3482 3.0282 20.3912 3.03241 20.4331 3.03979C20.439 3.04082 20.4449 3.04156 20.4507 3.04272C20.4614 3.04488 20.4714 3.04988 20.4819 3.05249C20.5185 3.06145 20.5552 3.0702 20.5903 3.08472C20.614 3.09456 20.6354 3.10873 20.6577 3.12085C20.7203 3.15462 20.7807 3.19497 20.8335 3.2478C20.9498 3.36423 21.0177 3.50979 21.0415 3.66089C21.0464 3.69193 21.0493 3.72343 21.0503 3.75562C21.0506 3.76638 21.0524 3.77707 21.0522 3.78784V9.94604C21.0522 10.3602 20.7163 10.6959 20.3022 10.696C19.8881 10.6959 19.5522 10.3602 19.5522 9.94604V5.5896L13.4312 11.7107L13.3745 11.7615C13.08 12.0019 12.6453 11.9851 12.3706 11.7107C12.0777 11.4178 12.0777 10.9421 12.3706 10.6492L18.4917 4.52808H14.1343C13.7201 4.52808 13.3843 4.19229 13.3843 3.77808C13.3843 3.36386 13.7201 3.02808 14.1343 3.02808H20.3042Z" fill="#00090A"/>
</svg>
