<svg width="24" height="24" viewBox="0 0 24 24" fill="none" xmlns="http://www.w3.org/2000/svg">
<path d="M16 4.25C17.5188 4.25 18.75 5.48122 18.75 7V12C18.75 12.3817 18.4633 12.7024 18.084 12.7451C16.0731 12.9711 14.3709 14.3329 13.709 16.2451C13.6044 16.5472 13.3197 16.75 13 16.75H9.75V17C9.75 18.5188 8.51878 19.75 7 19.75C5.48122 19.75 4.25 18.5188 4.25 17V16.75H3C2.58579 16.75 2.25 16.4142 2.25 16V15C2.25 12.9289 3.92893 11.25 6 11.25H9C9.41421 11.25 9.75 11.5858 9.75 12V15.25H12.4893C13.3603 13.2638 15.1348 11.8179 17.25 11.3633V7C17.25 6.30964 16.6904 5.75 16 5.75H15C14.5858 5.75 14.25 5.41421 14.25 5C14.25 4.58579 14.5858 4.25 15 4.25H16ZM18 14.25C19.5188 14.25 20.75 15.4812 20.75 17C20.75 18.5188 19.5188 19.75 18 19.75C16.4812 19.75 15.25 18.5188 15.25 17C15.25 15.4812 16.4812 14.25 18 14.25ZM5.75 17C5.75 17.6904 6.30964 18.25 7 18.25C7.69036 18.25 8.25 17.6904 8.25 17V16.75H5.75V17ZM18 15.75C17.3096 15.75 16.75 16.3096 16.75 17C16.75 17.6904 17.3096 18.25 18 18.25C18.6904 18.25 19.25 17.6904 19.25 17C19.25 16.3096 18.6904 15.75 18 15.75ZM6 12.75C4.75736 12.75 3.75 13.7574 3.75 15V15.25H8.25V12.75H6ZM9 8.25C9.41421 8.25 9.75 8.58579 9.75 9C9.75 9.41421 9.41421 9.75 9 9.75H6C5.58579 9.75 5.25 9.41421 5.25 9C5.25 8.58579 5.58579 8.25 6 8.25H9Z" fill="#00090A"/>
</svg>
