<svg width="24" height="24" viewBox="0 0 24 24" fill="none" xmlns="http://www.w3.org/2000/svg">
<path d="M8 15.25C8.41421 15.25 8.75 15.5858 8.75 16V20C8.75 20.4142 8.41421 20.75 8 20.75C7.58579 20.75 7.25 20.4142 7.25 20V16C7.25 15.5858 7.58579 15.25 8 15.25ZM12 11.25C12.4142 11.25 12.75 11.5858 12.75 12V20C12.75 20.4142 12.4142 20.75 12 20.75C11.5858 20.75 11.25 20.4142 11.25 20V12C11.25 11.5858 11.5858 11.25 12 11.25ZM16 12.25C16.4142 12.25 16.75 12.5858 16.75 13V20C16.75 20.4142 16.4142 20.75 16 20.75C15.5858 20.75 15.25 20.4142 15.25 20V13C15.25 12.5858 15.5858 12.25 16 12.25ZM20 6.25C20.4142 6.25 20.75 6.58579 20.75 7V20C20.75 20.4142 20.4142 20.75 20 20.75C19.5858 20.75 19.25 20.4142 19.25 20V7C19.25 6.58579 19.5858 6.25 20 6.25Z" fill="#00090A"/>
<path fill-rule="evenodd" clip-rule="evenodd" d="M7.25 3.84367C8.02124 3.82641 8.81169 4.12387 9.26855 4.71807C9.47293 4.9839 9.42312 5.36509 9.15729 5.56948C8.89146 5.77386 8.51027 5.72405 8.30589 5.45822C8.13682 5.23832 7.75449 5.04561 7.27252 5.05778L7.2572 5.05797H5.55717C5.20635 5.05797 4.91212 5.16535 4.7193 5.30993C4.52666 5.45437 4.4643 5.60751 4.4643 5.72547C4.4643 5.84343 4.52666 5.99658 4.7193 6.14102C4.91212 6.28559 5.20635 6.39298 5.55717 6.39298H7.2572C7.84527 6.39298 8.40106 6.57094 8.82352 6.88769C9.24617 7.20459 9.56437 7.68877 9.56437 8.27478C9.56437 8.8608 9.24617 9.34498 8.82352 9.66187C8.40106 9.97863 7.84527 10.1566 7.2572 10.1566H5.56439C4.79314 10.1738 4.00269 9.87639 3.54582 9.28218C3.34144 9.01635 3.39125 8.63517 3.65708 8.43078C3.92291 8.22639 4.3041 8.2762 4.50848 8.54204C4.67756 8.76193 5.05989 8.95464 5.54185 8.94248L5.55717 8.94228H7.2572C7.60802 8.94228 7.90225 8.8349 8.09507 8.69033C8.28771 8.54589 8.35007 8.39274 8.35007 8.27478C8.35007 8.15682 8.28771 8.00368 8.09507 7.85924C7.90225 7.71466 7.60802 7.60728 7.2572 7.60728H5.55717C4.9691 7.60728 4.41332 7.42932 3.99085 7.11256C3.56821 6.79567 3.25 6.31149 3.25 5.72547C3.25 5.13946 3.56821 4.65528 3.99085 4.33838C4.41332 4.02163 4.9691 3.84367 5.55717 3.84367H7.25Z" fill="#00090A"/>
<path fill-rule="evenodd" clip-rule="evenodd" d="M6.34641 2.75C6.68173 2.75 6.95356 3.02183 6.95356 3.35715V4.44997C6.95356 4.78529 6.68173 5.05713 6.34641 5.05713C6.01109 5.05713 5.73926 4.78529 5.73926 4.44997V3.35715C5.73926 3.02183 6.01109 2.75 6.34641 2.75Z" fill="#00090A"/>
<path fill-rule="evenodd" clip-rule="evenodd" d="M6.34641 8.94287C6.68173 8.94287 6.95356 9.2147 6.95356 9.55002V10.6428C6.95356 10.9782 6.68173 11.25 6.34641 11.25C6.01109 11.25 5.73926 10.9782 5.73926 10.6428V9.55002C5.73926 9.2147 6.01109 8.94287 6.34641 8.94287Z" fill="#00090A"/>
</svg>
