<svg width="24" height="24" viewBox="0 0 24 24" fill="none" xmlns="http://www.w3.org/2000/svg">
<path d="M9.95898 13.1655C10.3732 13.1655 10.709 13.5013 10.709 13.9155V19.9155C10.709 20.3297 10.3732 20.6655 9.95898 20.6655H3.95898C3.54477 20.6655 3.20898 20.3297 3.20898 19.9155V13.9155C3.20898 13.5013 3.54477 13.1655 3.95898 13.1655H9.95898ZM19.959 13.1655C20.3732 13.1655 20.709 13.5013 20.709 13.9155V19.9155C20.709 20.3297 20.3732 20.6655 19.959 20.6655H13.959C13.5448 20.6655 13.209 20.3297 13.209 19.9155V13.9155C13.209 13.5013 13.5448 13.1655 13.959 13.1655H19.959ZM4.70898 19.1655H9.20898V14.6655H4.70898V19.1655ZM14.709 19.1655H19.209V14.6655H14.709V19.1655ZM9.95898 3.16553C10.3732 3.16553 10.709 3.50131 10.709 3.91553V9.91553C10.709 10.3297 10.3732 10.6655 9.95898 10.6655H3.95898C3.54477 10.6655 3.20898 10.3297 3.20898 9.91553V3.91553C3.20898 3.50131 3.54477 3.16553 3.95898 3.16553H9.95898ZM19.959 3.16553C20.3732 3.16553 20.709 3.50131 20.709 3.91553V9.91553C20.709 10.3297 20.3732 10.6655 19.959 10.6655H13.959C13.5448 10.6655 13.209 10.3297 13.209 9.91553V3.91553C13.209 3.50131 13.5448 3.16553 13.959 3.16553H19.959ZM4.70898 9.16553H9.20898V4.66553H4.70898V9.16553ZM14.709 9.16553H19.209V4.66553H14.709V9.16553Z" fill="#00090A"/>
</svg>
