<svg width="24" height="24" viewBox="0 0 24 24" fill="none" xmlns="http://www.w3.org/2000/svg">
<path d="M8 5.25C8.9665 5.25 9.75 6.0335 9.75 7V11.25H14.25V7C14.25 6.0335 15.0335 5.25 16 5.25H17C17.9665 5.25 18.75 6.0335 18.75 7V7.25H20C20.9665 7.25 21.75 8.0335 21.75 9V11.25H22L22.0771 11.2539C22.4551 11.2925 22.75 11.6118 22.75 12C22.75 12.3882 22.4551 12.7075 22.0771 12.7461L22 12.75H21.75V15C21.75 15.9665 20.9665 16.75 20 16.75H18.75V17C18.75 17.9665 17.9665 18.75 17 18.75H16C15.0335 18.75 14.25 17.9665 14.25 17V12.75H9.75V17C9.75 17.9665 8.9665 18.75 8 18.75H7C6.0335 18.75 5.25 17.9665 5.25 17V16.75H4C3.0335 16.75 2.25 15.9665 2.25 15V12.75H2C1.58579 12.75 1.25 12.4142 1.25 12C1.25 11.5858 1.58579 11.25 2 11.25H2.25V9C2.25 8.0335 3.0335 7.25 4 7.25H5.25V7C5.25 6.0335 6.0335 5.25 7 5.25H8ZM7 6.75C6.86193 6.75 6.75 6.86193 6.75 7V17C6.75 17.1381 6.86193 17.25 7 17.25H8C8.13807 17.25 8.25 17.1381 8.25 17V7C8.25 6.86193 8.13807 6.75 8 6.75H7ZM16 6.75C15.8619 6.75 15.75 6.86193 15.75 7V17C15.75 17.1381 15.8619 17.25 16 17.25H17C17.1381 17.25 17.25 17.1381 17.25 17V7C17.25 6.86193 17.1381 6.75 17 6.75H16ZM4 8.75C3.86193 8.75 3.75 8.86193 3.75 9V15C3.75 15.1381 3.86193 15.25 4 15.25H5.25V8.75H4ZM18.75 15.25H20C20.1381 15.25 20.25 15.1381 20.25 15V9C20.25 8.86193 20.1381 8.75 20 8.75H18.75V15.25Z" fill="#00090A"/>
</svg>
