<svg width="24" height="24" viewBox="0 0 24 24" fill="none" xmlns="http://www.w3.org/2000/svg">
<path d="M12.5271 2.41808C12.8216 2.17816 13.2555 2.19551 13.53 2.46984L16.53 5.46984L16.5817 5.52648C16.8221 5.82107 16.8046 6.25577 16.53 6.53039L14.0583 9.0011L20.9148 15.8888H20.9138C21.9592 16.9323 22.0245 18.5821 21.1081 19.7003L20.9118 19.9171C19.7962 21.0266 17.9932 21.0267 16.8776 19.9171V19.9161L10.2731 13.3322L9.4001 15.5187C9.15043 16.1426 8.60423 16.5992 7.94599 16.7345C7.32881 16.8613 6.69053 16.6898 6.22138 16.2765L6.12959 16.1906L2.80927 12.8702C2.33433 12.3948 2.1301 11.7121 2.26532 11.0538C2.40066 10.3957 2.85736 9.84939 3.48115 9.59973L6.57783 8.36047L12.4694 2.46984L12.5271 2.41808ZM11.0603 11.9982L17.9362 18.8536H17.9353C18.4656 19.3811 19.3227 19.3807 19.8532 18.8536L19.947 18.7511C20.38 18.2225 20.3491 17.4434 19.8532 16.9493L19.8513 16.9474L12.9978 10.0607L11.0603 11.9982ZM7.52998 9.53039C7.4583 9.60201 7.37306 9.65872 7.279 9.69641L4.03876 10.9923C3.88288 11.0547 3.76798 11.1912 3.73408 11.3556C3.70032 11.5201 3.75214 11.6909 3.87079 11.8097L7.19013 15.13L7.23701 15.171C7.35151 15.2598 7.50031 15.2953 7.64424 15.2658C7.80873 15.2319 7.9451 15.117 8.00752 14.9611L9.30342 11.7218L9.30732 11.7111C9.31079 11.7027 9.31526 11.6949 9.31904 11.6866L9.33564 11.6525C9.3452 11.6342 9.35689 11.6171 9.36787 11.5997C9.37371 11.5905 9.37819 11.5804 9.38447 11.5714C9.40961 11.5352 9.43809 11.5012 9.46943 11.4698L14.9392 6.00012L12.9997 4.06066L7.52998 9.53039Z" fill="#00090A"/>
</svg>
