<svg width="24" height="24" viewBox="0 0 24 24" fill="none" xmlns="http://www.w3.org/2000/svg">
<path d="M14.2501 15C14.2501 14.6685 14.1183 14.3506 13.8839 14.1162C13.6494 13.8818 13.3316 13.75 13.0001 13.75H11.0001C10.6686 13.75 10.3507 13.8818 10.1163 14.1162C9.88186 14.3506 9.75007 14.6685 9.75007 15V20.25H14.2501V15ZM19.7501 19C19.7501 19.7293 19.4601 20.4286 18.9444 20.9443C18.4287 21.4601 17.7294 21.75 17.0001 21.75H7.00007C6.27073 21.75 5.57146 21.4601 5.05574 20.9443C4.54001 20.4286 4.25007 19.7293 4.25007 19V12.75H3.00007C2.69673 12.75 2.4228 12.5674 2.30672 12.2871C2.19067 12.0069 2.25532 11.6842 2.4698 11.4697L11.4698 2.46972L11.5264 2.41796C11.821 2.17765 12.2557 2.19512 12.5303 2.46972L21.5303 11.4697C21.7448 11.6842 21.8095 12.0069 21.6934 12.2871C21.5773 12.5674 21.3034 12.75 21.0001 12.75H19.7501V19ZM15.7501 20.25H17.0001C17.3316 20.25 17.6494 20.1182 17.8839 19.8838C18.1183 19.6494 18.2501 19.3315 18.2501 19V12C18.2501 11.5858 18.5859 11.25 19.0001 11.25H19.1895L12.0001 4.06054L4.81062 11.25H5.00007L5.07722 11.2539C5.45519 11.2925 5.75007 11.6118 5.75007 12V19L5.75593 19.124C5.78443 19.41 5.91127 19.6788 6.11629 19.8838C6.35071 20.1182 6.66855 20.25 7.00007 20.25H8.25007V15C8.25007 14.2706 8.54001 13.5714 9.05574 13.0557C9.57146 12.5399 10.2707 12.25 11.0001 12.25H13.0001C13.7294 12.25 14.4287 12.5399 14.9444 13.0557C15.4601 13.5714 15.7501 14.2706 15.7501 15V20.25Z" fill="#00090A"/>
</svg>
