<svg width="24" height="24" viewBox="0 0 24 24" fill="none" xmlns="http://www.w3.org/2000/svg">
<path d="M11.5262 2.41786C11.8207 2.17762 12.2555 2.19523 12.5301 2.46962L21.5301 11.4696C21.7446 11.6841 21.8093 12.0068 21.6932 12.287C21.5771 12.5672 21.3032 12.7499 20.9999 12.7499H19.7499V18.9999C19.7499 19.7292 19.4599 20.4285 18.9442 20.9442C18.4285 21.4599 17.7292 21.7499 16.9999 21.7499H15.7499V14.9999C15.7498 13.4812 14.5186 12.2499 12.9999 12.2499H10.9999C9.48126 12.2501 8.24992 13.4813 8.24986 14.9999V21.7499H6.99986C6.27063 21.7498 5.57117 21.4599 5.05552 20.9442C4.53994 20.4285 4.24986 19.7291 4.24986 18.9999V12.7499H2.99986C2.69664 12.7498 2.42254 12.5672 2.3065 12.287C2.1906 12.0069 2.25525 11.684 2.46959 11.4696L11.4696 2.46962L11.5262 2.41786ZM12.9999 13.7499C13.6902 13.7499 14.2498 14.3096 14.2499 14.9999V21.7499H9.74986V14.9999C9.74992 14.3097 10.3097 13.7501 10.9999 13.7499H12.9999Z" fill="#00090A"/>
</svg>
