<svg width="24" height="24" viewBox="0 0 24 24" fill="none" xmlns="http://www.w3.org/2000/svg">
<path d="M10.8574 2.42072C11.5345 1.88984 12.5112 1.92728 13.1455 2.534L15.498 4.784C15.5138 4.23644 15.9398 3.69624 16.5869 3.69611H19.1719L19.2929 3.70295C19.8836 3.76658 20.2616 4.29202 20.2617 4.81525V9.34064L22.7002 11.6737L22.7529 11.7293C22.9995 12.0185 22.992 12.4536 22.7236 12.7342C22.4553 13.0146 22.0215 13.0409 21.7217 12.8074L21.6631 12.7576L20.2588 11.4139V19.1707C20.2586 20.6892 19.0273 21.9205 17.5088 21.9207H6.36229C4.8436 21.9207 3.61245 20.6894 3.61229 19.1707V11.4139L2.20799 12.7576C1.90872 13.0438 1.43376 13.0333 1.14744 12.7342C0.861189 12.4349 0.871738 11.96 1.17088 11.6737L10.7256 2.534L10.8574 2.42072ZM12.1084 3.61799C12.0239 3.53717 11.8969 3.52725 11.8017 3.58771L11.7627 3.61799L5.11131 9.97931C5.11134 9.98224 5.11229 9.98517 5.11229 9.9881V19.1707C5.11245 19.8609 5.67203 20.4207 6.36229 20.4207H17.5088C18.1988 20.4205 18.7586 19.8608 18.7588 19.1707V9.97931L15.75 7.10138C15.7324 7.08569 15.7152 7.06982 15.6992 7.05256L12.1084 3.61799ZM16.9971 6.2176L18.7617 7.90607V5.19611H16.9971V6.2176Z" fill="#00090A"/>
<path d="M15.0428 11.1147C15.3357 10.822 15.8105 10.8219 16.1033 11.1147C16.396 11.4076 16.396 11.8824 16.1033 12.1753L11.0857 17.1919C10.9451 17.3325 10.7544 17.4116 10.5555 17.4116C10.4063 17.4116 10.2618 17.3673 10.1395 17.2856L10.0252 17.1919L7.74493 14.9116L7.69317 14.855C7.45298 14.5604 7.47037 14.1256 7.74493 13.851C8.0195 13.5766 8.4543 13.5591 8.74883 13.7993L8.80547 13.851L10.5555 15.601L15.0428 11.1147Z" fill="#00090A"/>
</svg>
