<svg width="24" height="24" viewBox="0 0 24 24" fill="none" xmlns="http://www.w3.org/2000/svg">
<path d="M12.3008 2.27637C12.5898 2.305 12.8744 2.37635 13.1436 2.48828C13.5015 2.63725 13.827 2.85522 14.1006 3.12988L14.8008 3.83008H14.7998C15.0712 4.09929 15.439 4.24978 15.8213 4.25H16.8203L17.1123 4.26465C17.7873 4.33183 18.4224 4.63048 18.9062 5.11426C19.4593 5.6674 19.7704 6.41802 19.7705 7.2002V8.2002L19.7773 8.34277C19.8101 8.67237 19.9553 8.98244 20.1904 9.21973L20.8896 9.91895L21.085 10.1338C21.2697 10.3579 21.4213 10.6088 21.5332 10.8779C21.6824 11.2368 21.7588 11.6221 21.7588 12.0107C21.7588 12.3994 21.6824 12.7847 21.5332 13.1436C21.384 13.5023 21.1651 13.8285 20.8896 14.1025L20.8887 14.1016L20.1904 14.8008C19.9215 15.0721 19.7707 15.4392 19.7705 15.8213V16.8203C19.7705 17.6026 19.4593 18.353 18.9062 18.9062C18.3531 19.4594 17.6025 19.7704 16.8203 19.7705H15.8213L15.6777 19.7773C15.3475 19.8103 15.0362 19.9564 14.7988 20.1924L14.1016 20.8887L14.1025 20.8896C13.8286 21.1651 13.5023 21.3839 13.1436 21.5332C12.7848 21.6824 12.3993 21.7587 12.0107 21.7588C11.6222 21.7588 11.2367 21.6823 10.8779 21.5332C10.5196 21.3842 10.1937 21.1656 9.91992 20.8906L9.22168 20.1924L9.11523 20.0967C8.89476 19.917 8.62581 19.8056 8.34277 19.7773L8.2002 19.7705H7.2002C6.41802 19.7704 5.6674 19.4593 5.11426 18.9062C4.63037 18.4223 4.33175 17.7874 4.26465 17.1123L4.25 16.8203V15.8213L4.24316 15.6777C4.21027 15.348 4.06547 15.0371 3.83008 14.7998V14.8008L3.12988 14.1006V14.0996C2.85539 13.8261 2.63717 13.5013 2.48828 13.1436C2.3763 12.8743 2.30497 12.5899 2.27637 12.3008L2.26074 12.0107C2.26074 11.622 2.339 11.2369 2.48828 10.8779C2.6373 10.5197 2.85495 10.1937 3.12988 9.91992L3.83008 9.21973C4.06516 8.98244 4.21038 8.67235 4.24316 8.34277L4.25 8.2002V7.2002C4.25007 6.4179 4.56109 5.66743 5.11426 5.11426C5.6674 4.56124 6.41802 4.25007 7.2002 4.25H8.2002L8.34277 4.24316C8.67228 4.21027 8.98252 4.06519 9.21973 3.83008L9.91992 3.12988C10.1937 2.85502 10.5197 2.63725 10.8779 2.48828C11.2368 2.33911 11.6221 2.26172 12.0107 2.26172L12.3008 2.27637ZM12.0107 3.76172C11.8199 3.76172 11.6304 3.79986 11.4541 3.87305C11.3219 3.92802 11.198 4.00206 11.0879 4.09277L10.9824 4.18945L10.9805 4.19043L10.2812 4.89062L10.2793 4.89258C9.72716 5.44154 8.97976 5.74935 8.20117 5.75H7.2002C6.81584 5.75007 6.44665 5.90309 6.1748 6.1748C5.90294 6.44667 5.75007 6.81573 5.75 7.2002V8.20117C5.74948 8.97982 5.4415 9.72707 4.89258 10.2793L4.89062 10.2812L4.19043 10.9805L4.18945 10.9824C4.05399 11.1171 3.94642 11.2777 3.87305 11.4541C3.79975 11.6305 3.76172 11.8197 3.76172 12.0107L3.76855 12.1533C3.78262 12.2954 3.81802 12.4351 3.87305 12.5674C3.92801 12.6995 4.00212 12.8226 4.09277 12.9326L4.18945 13.0391L4.89062 13.7402L4.89258 13.7412L5.08691 13.958C5.51363 14.4816 5.74961 15.139 5.75 15.8203V16.8203L5.75781 16.9639C5.79079 17.2956 5.93703 17.6078 6.1748 17.8457C6.44665 18.1174 6.81584 18.2704 7.2002 18.2705H8.20117L8.49121 18.2852C9.06747 18.3426 9.61469 18.5685 10.0635 18.9346L10.2793 19.1289L10.2812 19.1299L10.9805 19.8301L10.9824 19.832L11.0879 19.9277C11.198 20.0185 11.3218 20.0934 11.4541 20.1484C11.6303 20.2216 11.82 20.2588 12.0107 20.2588C12.2016 20.2587 12.3912 20.2217 12.5674 20.1484C12.7437 20.0751 12.9044 19.9674 13.0391 19.832L13.04 19.8301L13.7412 19.1289L13.958 18.9346C14.4816 18.5077 15.1389 18.2709 15.8203 18.2705H16.8203C17.2047 18.2704 17.5739 18.1175 17.8457 17.8457C18.1175 17.5738 18.2705 17.2048 18.2705 16.8203V15.8203L18.2852 15.5293C18.3521 14.8571 18.6484 14.2244 19.1289 13.7412L19.8301 13.04L19.832 13.0391L19.9277 12.9326C20.0185 12.8225 20.0935 12.6996 20.1484 12.5674C20.2217 12.3911 20.2588 12.2017 20.2588 12.0107C20.2588 11.8199 20.2216 11.6304 20.1484 11.4541C20.0752 11.2779 19.9673 11.1171 19.832 10.9824L19.8301 10.9805L19.1299 10.2812L19.1289 10.2793C18.5797 9.72703 18.271 8.98 18.2705 8.20117V7.2002C18.2704 6.81584 18.1174 6.44665 17.8457 6.1748C17.6079 5.93713 17.2955 5.79088 16.9639 5.75781L16.8203 5.75H15.8203C15.0415 5.74955 14.2935 5.44166 13.7412 4.89258L13.7402 4.89062L13.0391 4.18945C12.9045 4.0541 12.7436 3.94642 12.5674 3.87305C12.4352 3.81808 12.2953 3.78265 12.1533 3.76855L12.0107 3.76172ZM14.4697 8.46973C14.7626 8.17683 15.2374 8.17683 15.5303 8.46973C15.8232 8.76262 15.8232 9.23738 15.5303 9.53027L9.53027 15.5303C9.23738 15.8232 8.76262 15.8232 8.46973 15.5303C8.17683 15.2374 8.17683 14.7626 8.46973 14.4697L14.4697 8.46973ZM14.5 13.25C15.1904 13.25 15.75 13.8096 15.75 14.5C15.75 15.1904 15.1904 15.75 14.5 15.75C13.8096 15.75 13.25 15.1904 13.25 14.5C13.25 13.8096 13.8096 13.25 14.5 13.25ZM9.5 8.25C10.1904 8.25 10.75 8.80964 10.75 9.5C10.75 10.1904 10.1904 10.75 9.5 10.75C8.80964 10.75 8.25 10.1904 8.25 9.5C8.25 8.80964 8.80964 8.25 9.5 8.25Z" fill="#00090A"/>
</svg>
