<svg width="24" height="24" viewBox="0 0 24 24" fill="none" xmlns="http://www.w3.org/2000/svg">
<path fill-rule="evenodd" clip-rule="evenodd" d="M12.25 8C12.25 6.20507 10.7949 4.75 9 4.75C7.20507 4.75 5.75 6.20507 5.75 8C5.75 9.79492 7.20507 11.25 9 11.25C10.7949 11.25 12.25 9.79493 12.25 8ZM9 3.25C11.6234 3.25 13.75 5.37665 13.75 8C13.75 10.6234 11.6234 12.75 9 12.75C6.37665 12.75 4.25 10.6234 4.25 8C4.25 5.37665 6.37665 3.25 9 3.25Z" fill="#00090A"/>
<path fill-rule="evenodd" clip-rule="evenodd" d="M20.5303 19.5303C20.2374 19.8232 19.7626 19.8232 19.4697 19.5303L11.3197 11.3803C11.0268 11.0874 11.0268 10.6125 11.3197 10.3196C11.6126 10.0268 12.0874 10.0268 12.3803 10.3196L20.5303 18.4696C20.8232 18.7625 20.8232 19.2374 20.5303 19.5303Z" fill="#00090A"/>
<path fill-rule="evenodd" clip-rule="evenodd" d="M19.5303 17.4697C19.8232 17.7626 19.8232 18.2374 19.5303 18.5303L17.5303 20.5303C17.2374 20.8232 16.7626 20.8232 16.4697 20.5303C16.1768 20.2374 16.1768 19.7626 16.4697 19.4697L18.4697 17.4697C18.7626 17.1768 19.2374 17.1768 19.5303 17.4697Z" fill="#00090A"/>
<path fill-rule="evenodd" clip-rule="evenodd" d="M16.5303 14.4697C16.8232 14.7626 16.8232 15.2374 16.5303 15.5303L14.5303 17.5303C14.2374 17.8232 13.7626 17.8232 13.4697 17.5303C13.1768 17.2374 13.1768 16.7626 13.4697 16.4697L15.4697 14.4697C15.7626 14.1768 16.2374 14.1768 16.5303 14.4697Z" fill="#00090A"/>
</svg>
