<svg width="24" height="24" viewBox="0 0 24 24" fill="none" xmlns="http://www.w3.org/2000/svg">
<path fill-rule="evenodd" clip-rule="evenodd" d="M12 3.75C10.2051 3.75 8.75 5.20507 8.75 7V9.25H15.25V7C15.25 5.20507 13.7949 3.75 12 3.75ZM7.25 7V9.25H7C5.48122 9.25 4.25 10.4812 4.25 12V18C4.25 19.5188 5.48122 20.75 7 20.75H17C18.5188 20.75 19.75 19.5188 19.75 18V12C19.75 10.4812 18.5188 9.25 17 9.25H16.75V7C16.75 4.37665 14.6234 2.25 12 2.25C9.37665 2.25 7.25 4.37665 7.25 7ZM7 10.75H8H16H17C17.6904 10.75 18.25 11.3096 18.25 12V18C18.25 18.6904 17.6904 19.25 17 19.25H7C6.30964 19.25 5.75 18.6904 5.75 18V12C5.75 11.3096 6.30964 10.75 7 10.75ZM12 17C13.1046 17 14 16.1046 14 15C14 13.8954 13.1046 13 12 13C10.8954 13 10 13.8954 10 15C10 16.1046 10.8954 17 12 17Z" fill="#00090A"/>
</svg>
