<svg width="24" height="24" viewBox="0 0 24 24" fill="none" xmlns="http://www.w3.org/2000/svg">
<path d="M17 2.25C18.5188 2.25 19.75 3.48122 19.75 5V19C19.75 20.5188 18.5188 21.75 17 21.75H7C5.48122 21.75 4.25 20.5188 4.25 19V5C4.25 3.48122 5.48122 2.25 7 2.25H17ZM7 3.75C6.30965 3.75 5.75 4.30964 5.75 5V19C5.75 19.6904 6.30965 20.25 7 20.25H17C17.6904 20.25 18.25 19.6904 18.25 19V5C18.25 4.30964 17.6904 3.75 17 3.75H7ZM16.0869 17.2539C16.4649 17.2925 16.7598 17.6118 16.7598 18C16.7598 18.3882 16.4649 18.7075 16.0869 18.7461L16.0098 18.75H16C15.5858 18.7499 15.25 18.4142 15.25 18C15.25 17.5858 15.5858 17.2501 16 17.25H16.0098L16.0869 17.2539ZM12 7.25C12.2359 7.25 12.458 7.36114 12.5996 7.5498L15.5996 11.5498L15.666 11.6543C15.7784 11.8706 15.7784 12.1294 15.666 12.3457L15.5996 12.4502L12.5996 16.4502C12.458 16.6389 12.2359 16.75 12 16.75C11.7641 16.75 11.542 16.6389 11.4004 16.4502L8.40039 12.4502C8.20039 12.1835 8.20039 11.8165 8.40039 11.5498L11.4004 7.5498L11.457 7.48242C11.5977 7.33486 11.7936 7.25 12 7.25ZM9.93652 12L12 14.75L14.0625 12L12 9.24902L9.93652 12ZM8.08691 5.25391C8.46494 5.29247 8.75977 5.61179 8.75977 6C8.75977 6.38821 8.46494 6.70753 8.08691 6.74609L8.00977 6.75H8C7.58584 6.74993 7.25 6.41417 7.25 6C7.25 5.58583 7.58584 5.25007 8 5.25H8.00977L8.08691 5.25391Z" fill="#00090A"/>
</svg>
