<svg width="24" height="24" viewBox="0 0 24 24" fill="none" xmlns="http://www.w3.org/2000/svg">
<path d="M3.25 20V4C3.25 3.58579 3.58579 3.25 4 3.25C4.41421 3.25 4.75 3.58579 4.75 4V20C4.75 20.4142 4.41421 20.75 4 20.75C3.58579 20.75 3.25 20.4142 3.25 20ZM13.4697 7.46973C13.7626 7.17683 14.2374 7.17683 14.5303 7.46973C14.8232 7.76262 14.8232 8.23738 14.5303 8.53027L11.8105 11.25H20C20.4142 11.25 20.75 11.5858 20.75 12C20.75 12.4142 20.4142 12.75 20 12.75H11.8105L14.5303 15.4697L14.582 15.5264C14.8223 15.8209 14.8049 16.2557 14.5303 16.5303C14.2557 16.8049 13.8209 16.8223 13.5264 16.582L13.4697 16.5303L9.46973 12.5303C9.17683 12.2374 9.17683 11.7626 9.46973 11.4697L13.4697 7.46973Z" fill="#00090A"/>
</svg>
