<svg width="24" height="24" viewBox="0 0 24 24" fill="none" xmlns="http://www.w3.org/2000/svg">
<path d="M15.3446 20.9808H2.11031C1.56098 17.2836 3.02879 13.9741 7.08492 13.1302C7.92258 12.9561 8.93279 12.9379 9.8043 12.9497C10.3383 12.9572 11.3256 13.0042 12.1338 13.1302C12.8044 13.2349 13.6365 13.5639 13.6365 13.5639C13.6365 13.5639 13.8353 14.0361 14.3814 14.6504C14.8979 15.2304 15.3523 15.5359 15.3523 15.5359C15.3272 16.9225 15.3435 19.0409 15.3435 20.4286C15.3435 20.6016 15.3435 20.7757 15.3435 20.9808H15.3446Z" fill="#00090A"/>
<path d="M9.72894 11.5011C7.16028 11.5075 5.11364 9.52379 5.11037 7.02301C5.106 4.53183 7.16137 2.50535 9.69836 2.50001C12.2539 2.49467 14.2984 4.49124 14.2995 6.9931C14.3006 9.527 12.3063 11.4958 9.72894 11.5011Z" fill="#00090A"/>
<path d="M19.2828 17.4791C19.9556 18.056 20.4732 18.4993 20.9778 18.9319C20.0539 19.8132 19.2129 20.6144 18.2857 21.4989C17.8958 21.0877 17.4382 20.6315 17.0199 20.1423C16.9096 20.013 16.8889 19.7823 16.8878 19.5974C16.878 18.1019 16.8758 16.6063 16.8878 15.1118C16.89 14.8149 16.8059 14.6397 16.5329 14.472C14.9984 13.5298 14.4349 11.7639 15.1218 10.1423C15.7629 8.6286 17.5081 7.73233 19.1376 8.08165C20.8795 8.45447 22.0819 9.93614 21.9956 11.6753C21.9345 12.9123 21.3251 13.8663 20.2461 14.5222C20.0954 14.614 19.9348 14.6909 19.6836 14.8255C20.1565 15.2091 20.5857 15.5573 21.0935 15.9697C20.447 16.5091 19.9217 16.946 19.2828 17.4791ZM18.3927 9.53554C17.8183 9.54409 17.4044 9.95323 17.4022 10.513C17.4 11.0856 17.8543 11.5193 18.4419 11.5065C18.9956 11.4947 19.4335 11.0589 19.4368 10.5173C19.4401 9.94682 18.9934 9.52593 18.3938 9.53554H18.3927Z" fill="#00090A"/>
</svg>
