<svg width="24" height="24" viewBox="0 0 24 24" fill="none" xmlns="http://www.w3.org/2000/svg">
<path d="M14.5332 7.07129C18.8625 7.07155 22.3721 10.5817 22.3721 14.9111C22.3718 19.2403 18.8624 22.7497 14.5332 22.75C10.2038 22.75 6.69362 19.2405 6.69336 14.9111C6.69336 10.5816 10.2036 7.07129 14.5332 7.07129ZM14.5332 8.57129C11.0321 8.57129 8.19336 11.41 8.19336 14.9111C8.19362 18.412 11.0322 21.25 14.5332 21.25C18.0339 21.2497 20.8718 18.4119 20.8721 14.9111C20.8721 11.4102 18.0341 8.57155 14.5332 8.57129ZM14.5332 10.0684C14.9474 10.0684 15.2832 10.4042 15.2832 10.8184V11.5303H15.4014C16.2263 11.5123 17.0826 11.8306 17.583 12.4814C17.8353 12.8098 17.7736 13.2798 17.4453 13.5322C17.1169 13.7847 16.646 13.7239 16.3936 13.3955C16.2485 13.2069 15.8962 13.0185 15.4287 13.0303H13.6562C13.3184 13.0303 13.0408 13.134 12.8652 13.2656C12.69 13.3971 12.6523 13.5216 12.6523 13.5957C12.6523 13.6698 12.69 13.7943 12.8652 13.9258C13.0408 14.0574 13.3184 14.1611 13.6562 14.1611H15.4102C16.041 14.1612 16.6414 14.352 17.1006 14.6963C17.5598 15.0407 17.9139 15.5737 17.9141 16.2256C17.9141 16.8777 17.5599 17.4113 17.1006 17.7559C16.6414 18.1002 16.041 18.291 15.4102 18.291H15.2832V19.0039C15.2831 19.418 14.9473 19.7538 14.5332 19.7539C14.119 19.7539 13.7833 19.4181 13.7832 19.0039V18.291H13.5098C12.734 18.2686 11.9516 17.951 11.4824 17.3408C11.23 17.0125 11.2918 16.5415 11.6201 16.2891C11.9485 16.0366 12.4194 16.0984 12.6719 16.4268C12.8169 16.6152 13.1694 16.8027 13.6367 16.791H15.4102C15.7479 16.791 16.0246 16.6873 16.2002 16.5557C16.3755 16.4242 16.4141 16.2997 16.4141 16.2256C16.4139 16.1515 16.3751 16.0277 16.2002 15.8965C16.0246 15.7649 15.7479 15.6612 15.4102 15.6611H13.6562C13.0254 15.6611 12.425 15.4702 11.9658 15.126C11.5063 14.7815 11.1523 14.248 11.1523 13.5957C11.1523 12.9434 11.5063 12.4099 11.9658 12.0654C12.425 11.7212 13.0254 11.5303 13.6562 11.5303H13.7832V10.8184C13.7832 10.4041 14.119 10.0684 14.5332 10.0684ZM3.62207 12.918C4.03628 12.918 4.37207 13.2538 4.37207 13.668V14.1621H4.86621C5.28042 14.1621 5.61621 14.4979 5.61621 14.9121C5.61621 15.3263 5.28042 15.6621 4.86621 15.6621H4.37207V16.1562C4.37207 16.5705 4.03628 16.9062 3.62207 16.9062C3.20786 16.9062 2.87207 16.5705 2.87207 16.1562V15.6621H2.37793C1.96372 15.6621 1.62793 15.3263 1.62793 14.9121C1.62793 14.4979 1.96372 14.1621 2.37793 14.1621H2.87207V13.668C2.87207 13.2538 3.20786 12.918 3.62207 12.918ZM2.54688 7.54492C2.83815 7.25043 3.31293 7.2478 3.60742 7.53906L5.80859 9.71582C6.10301 10.007 6.10551 10.4819 5.81445 10.7764C5.52317 11.0709 5.0484 11.0735 4.75391 10.7822L2.55273 8.60547C2.25825 8.31419 2.25561 7.83942 2.54688 7.54492ZM2.72266 3.42383C3.01393 3.12934 3.48871 3.12671 3.7832 3.41797L6.91602 6.5166C7.2105 6.80788 7.21314 7.28265 6.92188 7.57715C6.6306 7.87164 6.15583 7.87427 5.86133 7.58301L2.72852 4.48438C2.43403 4.1931 2.4314 3.71832 2.72266 3.42383ZM6.86035 2.89648C7.15163 2.602 7.6264 2.59936 7.9209 2.89062L10.1221 5.06738C10.4165 5.35859 10.419 5.83342 10.1279 6.12793C9.83665 6.42243 9.36188 6.42507 9.06738 6.13379L6.86621 3.95703C6.57172 3.66576 6.56909 3.19098 6.86035 2.89648ZM14.6221 1.91797C15.0363 1.91797 15.3721 2.25376 15.3721 2.66797V3.16211H15.8662C16.2804 3.16211 16.6162 3.4979 16.6162 3.91211C16.6162 4.32632 16.2804 4.66211 15.8662 4.66211H15.3721V5.15625C15.3721 5.57046 15.0363 5.90625 14.6221 5.90625C14.2079 5.90625 13.8721 5.57046 13.8721 5.15625V4.66211H13.3779C12.9637 4.66211 12.6279 4.32632 12.6279 3.91211C12.6279 3.4979 12.9637 3.16211 13.3779 3.16211H13.8721V2.66797C13.8721 2.25376 14.2079 1.91797 14.6221 1.91797Z" fill="#00090A"/>
</svg>
