<svg width="24" height="24" viewBox="0 0 24 24" fill="none" xmlns="http://www.w3.org/2000/svg">
<path d="M12 3.25C13.5188 3.25 14.75 4.48122 14.75 6V10.25H15C16.5188 10.25 17.75 11.4812 17.75 13V16C17.75 16.4142 18.0858 16.75 18.5 16.75C18.9142 16.75 19.25 16.4142 19.25 16V9.31055L18 8.06055L17.5303 8.53027C17.2374 8.82317 16.7626 8.82317 16.4697 8.53027C16.1768 8.23738 16.1768 7.76262 16.4697 7.46973L16.9395 7L16.4697 6.53027L16.418 6.47363C16.1777 6.17905 16.1951 5.74433 16.4697 5.46973C16.7443 5.19512 17.1791 5.17766 17.4736 5.41797L17.5303 5.46973L20.5303 8.46973L20.624 8.58398C20.7056 8.70628 20.75 8.85085 20.75 9V16C20.75 17.2426 19.7426 18.25 18.5 18.25C17.2574 18.25 16.25 17.2426 16.25 16V13C16.25 12.3096 15.6904 11.75 15 11.75H14.75V19.25H15L15.0771 19.2539C15.4551 19.2925 15.75 19.6118 15.75 20C15.75 20.3882 15.4551 20.7075 15.0771 20.7461L15 20.75H3C2.58579 20.75 2.25 20.4142 2.25 20C2.25 19.5858 2.58579 19.25 3 19.25H3.25V6C3.25 4.48122 4.48122 3.25 6 3.25H12ZM4.75 8.75V19.25H13.25V8.75H4.75ZM8.35645 11.1143C8.5695 10.7592 9.0306 10.6436 9.38574 10.8564C9.74083 11.0695 9.85643 11.5306 9.64355 11.8857L8.8252 13.25H10.5C10.7702 13.25 11.0192 13.3957 11.1523 13.6309C11.2853 13.8659 11.2824 14.1541 11.1436 14.3857L9.64355 16.8857C9.4305 17.2408 8.9694 17.3564 8.61426 17.1436C8.25917 16.9305 8.14357 16.4694 8.35645 16.1143L9.1748 14.75H7.5C7.2298 14.75 6.98079 14.6043 6.84766 14.3691C6.71467 14.1341 6.71763 13.8459 6.85645 13.6143L8.35645 11.1143ZM6 4.75C5.30964 4.75 4.75 5.30964 4.75 6V7.25H13.25V6C13.25 5.30964 12.6904 4.75 12 4.75H6Z" fill="#00090A"/>
</svg>
