<svg width="24" height="24" viewBox="0 0 24 24" fill="none" xmlns="http://www.w3.org/2000/svg">
<path d="M11.9999 10.25C12.3605 10.25 12.7098 10.2856 13.0439 10.4014C13.3882 10.5208 13.6772 10.7117 13.9364 10.9678C14.411 11.4366 14.8263 12.1749 15.3564 13.1367L15.5077 13.3809C15.8835 13.9251 16.4182 14.3103 17.038 14.7529C17.6812 15.2123 18.54 15.8056 18.8671 16.8047H18.8661C18.9978 17.1792 19.0497 17.6726 19.0497 18C19.0497 19.5281 17.9873 20.7498 16.4999 20.75C15.7253 20.7499 14.8422 20.4483 14.1103 20.2139C13.3087 19.9572 12.6106 19.7501 11.9999 19.75C11.3893 19.7501 10.6911 19.9572 9.88957 20.2139C9.15768 20.4483 8.27447 20.7499 7.49992 20.75C6.10521 20.7499 5.08486 19.6748 4.96281 18.2822L4.95011 18C4.94833 17.6629 5.00081 17.1568 5.13859 16.7803H5.13957C5.47682 15.7855 6.30705 15.263 6.91691 14.8623C7.50092 14.4786 7.99853 14.1458 8.36125 13.6211L8.50773 13.3838C9.04237 12.4156 9.48398 11.6331 9.97746 11.1113C10.2392 10.8347 10.5339 10.6094 10.8866 10.459C11.2385 10.3091 11.6088 10.25 11.9999 10.25ZM11.9999 11.75C11.7622 11.75 11.6003 11.7853 11.4745 11.8389C11.3496 11.8922 11.2194 11.9809 11.0673 12.1416C10.7328 12.4952 10.3862 13.0863 9.82121 14.1094L9.82023 14.1104C9.24781 15.145 8.37889 15.6956 7.74015 16.1152C7.135 16.5128 6.79135 16.7671 6.61906 17.1162L6.55558 17.2725L6.54777 17.2959C6.49231 17.4474 6.44848 17.7623 6.45012 17.9951V18L6.45597 18.1504C6.51431 18.8765 6.99549 19.2499 7.49992 19.25C7.9841 19.2499 8.60359 19.0516 9.43254 18.7861C10.1919 18.5429 11.1149 18.2501 11.9999 18.25C12.885 18.2501 13.8089 18.5429 14.5683 18.7861C15.3969 19.0515 16.0159 19.2499 16.4999 19.25C17.0383 19.2498 17.5497 18.8256 17.5497 18C17.5497 17.8236 17.5252 17.6018 17.4892 17.4375L17.4501 17.2959L17.4413 17.2715C17.2935 16.8198 16.8953 16.4946 16.1659 15.9736C15.5019 15.4993 14.61 14.8865 14.0439 13.8633L14.0429 13.8623C13.4735 12.8291 13.1681 12.3172 12.8827 12.0352C12.7622 11.916 12.6603 11.8557 12.5527 11.8184C12.4346 11.7775 12.2683 11.75 11.9999 11.75ZM4.21672 7.25C4.83377 7.25 5.4 7.55395 5.84172 7.95898C6.29166 8.37169 6.67019 8.93862 6.92472 9.59473L7.02824 9.88672C7.24645 10.5717 7.3053 11.2724 7.19719 11.8896C7.07641 12.5788 6.71479 13.2924 5.98722 13.6064L5.98234 13.6084C5.75782 13.7034 5.52091 13.75 5.28312 13.75C4.66609 13.7499 4.09981 13.4461 3.65812 13.041C3.20809 12.6283 2.82869 12.0615 2.57414 11.4053L2.57511 11.4043C2.27407 10.6291 2.17916 9.81548 2.30265 9.11035C2.42344 8.42118 2.78495 7.70758 3.51261 7.39355L3.5175 7.3916L3.6884 7.3291C3.86073 7.27608 4.0384 7.25002 4.21672 7.25ZM19.7821 7.25098C19.9964 7.25085 20.2078 7.29142 20.4081 7.36621C20.4347 7.37433 20.4616 7.38248 20.4872 7.39355L20.6191 7.45703C21.2564 7.79653 21.5818 8.46297 21.6962 9.1084C21.8212 9.8133 21.7289 10.6274 21.4286 11.4043V11.4053C21.174 12.0617 20.7942 12.6292 20.3437 13.042C19.9016 13.4469 19.3347 13.7499 18.7177 13.75C18.5408 13.75 18.3624 13.7242 18.1894 13.6709L18.0175 13.6084L18.0155 13.6064C17.2873 13.2929 16.9241 12.5807 16.8027 11.8906C16.6785 11.185 16.7734 10.3711 17.0751 9.59473L17.1757 9.35449C17.4229 8.8047 17.7585 8.32802 18.1484 7.96777C18.586 7.56351 19.1447 7.25998 19.7548 7.25H19.7821V7.25098ZM4.21672 8.75C4.17542 8.75002 4.13821 8.75702 4.10344 8.77148C4.01465 8.8116 3.85209 8.9591 3.78019 9.36914C3.71902 9.71844 3.74648 10.1729 3.89933 10.6543L3.97258 10.8623L4.04484 11.0332C4.219 11.4197 4.44361 11.7262 4.67179 11.9355C4.94095 12.1824 5.16218 12.2499 5.28312 12.25C5.32342 12.25 5.35944 12.2423 5.39347 12.2285C5.48173 12.1899 5.64713 12.0445 5.71965 11.6309C5.78084 11.2815 5.75245 10.8272 5.59953 10.3457L5.52629 10.1377C5.34496 9.67025 5.0888 9.30368 4.82804 9.06445C4.55881 8.81759 4.33761 8.75 4.21672 8.75ZM19.6689 8.76562C19.5415 8.798 19.3662 8.88527 19.1659 9.07031C18.9396 9.27958 18.7166 9.58407 18.5439 9.96777L18.4736 10.1377C18.2564 10.6962 18.2101 11.2323 18.2802 11.6309C18.3525 12.0416 18.5163 12.1887 18.6064 12.2285L18.6591 12.2441C18.6775 12.2478 18.6972 12.25 18.7177 12.25C18.8395 12.2499 19.0617 12.1822 19.331 11.9355C19.5919 11.6964 19.848 11.3302 20.0292 10.8633L20.1025 10.6553C20.2544 10.1736 20.2806 9.71939 20.2187 9.37012C20.1454 8.95705 19.9808 8.80959 19.8925 8.77051C19.858 8.75649 19.8204 8.74999 19.7831 8.75H19.7792L19.6689 8.76562ZM9.02433 3.25C9.74976 3.25 10.3737 3.6442 10.8153 4.15918C11.2063 4.61502 11.4963 5.20732 11.6435 5.86523L11.6972 6.15137L11.6982 6.15234L11.7343 6.45801C11.7946 7.16822 11.6799 7.85582 11.4052 8.42285C11.0922 9.06887 10.5288 9.62509 9.73722 9.73242H9.73332C9.65297 9.74283 9.56697 9.74888 9.47648 9.74902L9.47453 9.75H9.47355L9.47062 9.74902C8.74611 9.74756 8.12374 9.35343 7.68351 8.83984C7.23716 8.31887 6.9221 7.61907 6.8007 6.84961V6.84766C6.67428 6.03089 6.77875 5.22523 7.09269 4.57715C7.40569 3.93115 7.96918 3.37498 8.76066 3.26758H8.76554L8.89054 3.25488C8.9338 3.25188 8.97849 3.25001 9.02433 3.25ZM14.9736 3.25098C15.0611 3.25086 15.1485 3.2567 15.2353 3.26855L15.2362 3.26758C16.0281 3.37487 16.592 3.93079 16.9052 4.57715C17.2193 5.22546 17.3242 6.0317 17.1972 6.84863C17.0779 7.61868 16.7634 8.31775 16.3173 8.83887C15.8764 9.35384 15.2524 9.7498 14.5263 9.75C14.4354 9.75 14.3484 9.7429 14.2675 9.73242H14.2636C13.4717 9.62516 12.9078 9.06921 12.5946 8.42285C12.2805 7.77453 12.1756 6.96834 12.3027 6.15137L12.3564 5.86621C12.503 5.20807 12.7928 4.61527 13.1835 4.15918C13.6248 3.64414 14.2482 3.25009 14.9736 3.25V3.25098ZM14.9101 4.75488C14.7539 4.77642 14.5424 4.87781 14.3222 5.13477C14.0754 5.42289 13.8669 5.85743 13.7851 6.38281C13.6983 6.94146 13.7813 7.43199 13.9443 7.76855C14.1067 8.10377 14.3073 8.22266 14.4599 8.24512L14.5263 8.25C14.685 8.24979 14.9252 8.15809 15.1777 7.86328C15.425 7.57437 15.6339 7.14064 15.7148 6.61816L15.7392 6.41113C15.7792 5.93839 15.6982 5.52594 15.5556 5.23145C15.412 4.93512 15.2384 4.80759 15.0946 4.7666L15.0351 4.75391H15.0331L14.9755 4.75H14.9736L14.9101 4.75488ZM8.95793 4.75488L8.95695 4.75391C8.80516 4.77657 8.60462 4.89643 8.4423 5.23145C8.27925 5.5683 8.19663 6.05933 8.28312 6.61816H8.28215C8.36494 7.14072 8.57468 7.57437 8.82219 7.86328C9.07477 8.15807 9.31501 8.2486 9.47355 8.24902L9.53996 8.24512C9.69187 8.22286 9.89288 8.10433 10.0556 7.76855C10.2186 7.43191 10.302 6.94127 10.2157 6.38281L10.1786 6.19043C10.0801 5.75153 9.89296 5.38798 9.67668 5.13574C9.42438 4.84158 9.18385 4.75 9.02433 4.75C9.00605 4.75002 8.98449 4.75144 8.95793 4.75488Z" fill="#00090A"/>
</svg>
