<svg width="24" height="24" viewBox="0 0 24 24" fill="none" xmlns="http://www.w3.org/2000/svg">
<path d="M19.9579 6.94917C19.9579 6.94917 21.1018 5.60176 19.8196 4.31961C18.5375 3.03747 17.1901 4.18133 17.1901 4.18133L14.5487 6.56284C14.5487 6.56284 11.0952 6.31782 8.0729 5.99414C5.05064 5.67045 4.18682 7.41906 4.18682 7.41906L11.1319 10.3539L7.61844 14.0904C7.61844 14.0904 7.31041 14.2545 5.5039 13.9162C3.6974 13.5778 3.14069 15.925 3.14069 15.925L6.45933 17.5985L6.75091 17.8796L8.21427 20.9985C8.21427 20.9985 10.6962 21.134 10.3689 18.6651C10.0416 16.1961 10.2458 16.2828 10.2458 16.2828L13.7853 13.0073L16.7202 19.9524C16.7202 19.9524 18.5117 19.6756 18.1451 16.0663C17.7784 12.4571 17.6749 9.5266 17.6749 9.5266L19.9579 6.94917Z" stroke="#00090A" stroke-width="1.5" stroke-linejoin="round"/>
</svg>
