<svg width="24" height="24" viewBox="0 0 24 24" fill="none" xmlns="http://www.w3.org/2000/svg">
<path d="M6 2.25C9.07348 2.25 11.6645 4.30492 12.4805 7.11523C13.7023 5.38243 15.7186 4.25 18 4.25H21L21.0771 4.25391C21.4551 4.29253 21.75 4.61183 21.75 5V6C21.75 9.72792 18.7279 12.75 15 12.75H12.75V14.25H17L17.0771 14.2539C17.4551 14.2925 17.75 14.6118 17.75 15V19C17.75 20.5188 16.5188 21.75 15 21.75H9C7.48122 21.75 6.25 20.5188 6.25 19V15L6.25391 14.9229C6.29253 14.5449 6.61183 14.25 7 14.25H11.25V11.75H9C5.27208 11.75 2.25 8.72792 2.25 5V3L2.25391 2.92285C2.29253 2.54488 2.61183 2.25 3 2.25H6ZM7.75 19C7.75 19.6904 8.30964 20.25 9 20.25H15C15.6904 20.25 16.25 19.6904 16.25 19V15.75H7.75V19ZM18 5.75C15.1018 5.75 12.7521 8.09839 12.75 10.9961V11.25H15C17.8995 11.25 20.25 8.8995 20.25 6V5.75H18ZM3.75 5L3.75684 5.27051C3.89762 8.04429 6.19123 10.25 9 10.25H11.25V9C11.25 6.10051 8.8995 3.75 6 3.75H3.75V5Z" fill="#00090A"/>
</svg>
