<svg width="24" height="24" viewBox="0 0 24 24" fill="none" xmlns="http://www.w3.org/2000/svg">
<path d="M16.4385 11.3796C16.8525 11.3797 17.1883 11.7156 17.1885 12.1296V12.8806H17.6797C18.7185 12.8572 19.7754 13.2586 20.3828 14.0485C20.6352 14.3768 20.5742 14.8478 20.2461 15.1003C19.9178 15.3528 19.4468 15.2909 19.1943 14.9626C18.9424 14.6349 18.3886 14.3634 17.707 14.3806H15.3545C14.8571 14.3807 14.4356 14.5329 14.1553 14.7429C13.8751 14.953 13.7715 15.1865 13.7715 15.3806C13.7715 15.5746 13.8751 15.8073 14.1553 16.0173C14.4356 16.2274 14.857 16.3795 15.3545 16.3796H17.6885C18.4793 16.3796 19.224 16.6197 19.7881 17.0427C20.3524 17.4658 20.7715 18.1074 20.7715 18.8796C20.7715 19.6518 20.3524 20.2934 19.7881 20.7165C19.224 21.1395 18.4793 21.3796 17.6885 21.3796H17.1885V22.1306C17.1884 22.5446 16.8525 22.8804 16.4385 22.8806C16.0243 22.8806 15.6886 22.5447 15.6885 22.1306V21.3796H15.3643C14.3254 21.4031 13.2676 21.0017 12.6602 20.2116C12.4077 19.8833 12.4695 19.4123 12.7979 19.1599C13.1262 18.9075 13.5972 18.9692 13.8496 19.2976C14.1016 19.6251 14.6546 19.8968 15.3359 19.8796H17.6885C18.1863 19.8796 18.6083 19.7266 18.8887 19.5163C19.1686 19.3063 19.2715 19.0736 19.2715 18.8796C19.2715 18.6856 19.1686 18.4529 18.8887 18.2429C18.6083 18.0326 18.1863 17.8796 17.6885 17.8796H15.3545C14.5638 17.8795 13.8189 17.6404 13.2549 17.2175C12.6907 16.7944 12.2715 16.1527 12.2715 15.3806C12.2715 14.6085 12.6907 13.9668 13.2549 13.5437C13.8189 13.1208 14.5638 12.8807 15.3545 12.8806H15.6885V12.1296C15.6886 11.7155 16.0244 11.3796 16.4385 11.3796ZM16.5068 2.2507C18.2986 2.25439 19.75 3.70805 19.75 5.5007C19.75 6.14486 19.5616 6.74466 19.2383 7.24972H20C20.9664 7.24972 21.7498 8.03336 21.75 8.99972V11.8513C21.75 12.2655 21.4142 12.6013 21 12.6013C20.5858 12.6013 20.25 12.2655 20.25 11.8513V8.99972C20.2498 8.86179 20.138 8.74972 20 8.74972H16.5332C16.5221 8.74983 16.5111 8.7507 16.5 8.7507C16.4935 8.7507 16.487 8.74989 16.4805 8.74972H12.75V11.9597C12.7499 12.2249 12.6111 12.4563 12.4033 12.5896C12.2764 12.6881 12.1194 12.7497 11.9463 12.7497H5.75V18.9997C5.75 19.6901 6.30964 20.2497 7 20.2497H10.8809C11.2948 20.2499 11.6307 20.5857 11.6309 20.9997C11.6309 21.4138 11.2949 21.7496 10.8809 21.7497H7C5.48122 21.7497 4.25 20.5185 4.25 18.9997V12.7497H4C3.0335 12.7497 2.25 11.9662 2.25 10.9997V8.99972C2.25017 8.03336 3.0336 7.24972 4 7.24972H4.76172C4.43841 6.74466 4.25004 6.14486 4.25 5.5007C4.25 3.70805 5.70138 2.25439 7.49316 2.2507C8.75087 2.23099 9.88334 2.85581 10.7705 3.84152C11.2436 4.36713 11.6572 5.00543 12 5.73117C12.3428 5.00543 12.7564 4.36713 13.2295 3.84152C14.1167 2.85581 15.2491 2.23099 16.5068 2.2507ZM4 8.74972C3.86203 8.74972 3.75017 8.86179 3.75 8.99972V10.9997C3.75 11.1378 3.86193 11.2497 4 11.2497H11.25V8.74972H7.51953C7.51304 8.74989 7.50653 8.7507 7.5 8.7507C7.48892 8.7507 7.47785 8.74983 7.4668 8.74972H4ZM7.32129 3.75949C6.43874 3.849 5.75 4.59453 5.75 5.5007C5.75012 6.46057 6.52305 7.23925 7.48047 7.24972H10.9971C10.6507 6.24779 10.1844 5.43332 9.65527 4.84542C8.9726 4.0869 8.2266 3.73826 7.5127 3.7507H7.5L7.32129 3.75949ZM16.3525 3.75265C15.6799 3.78357 14.9847 4.13438 14.3447 4.84542C13.8156 5.43332 13.3493 6.24779 13.0029 7.24972H16.5195C17.477 7.23925 18.2499 6.46057 18.25 5.5007C18.25 4.5342 17.4665 3.7507 16.5 3.7507H16.4873L16.3525 3.75265Z" fill="#00090A"/>
</svg>
