<svg width="24" height="24" viewBox="0 0 24 24" fill="none" xmlns="http://www.w3.org/2000/svg">
<path d="M12 18.25C12.4141 18.25 12.7499 18.5859 12.75 19V19.0098C12.75 19.424 12.4142 19.7598 12 19.7598C11.5858 19.7598 11.25 19.424 11.25 19.0098V19C11.2501 18.5859 11.5859 18.25 12 18.25ZM12.5 4.25C14.7202 4.25 16.7233 5.8044 16.749 7.95801L16.7539 8.26855C16.7145 9.7917 15.751 11.1498 14.3066 11.6846C13.4649 12.0868 12.7743 13.238 12.7461 14.6758L12.749 14.9678V15.0449C12.7267 15.4243 12.42 15.7323 12.0322 15.749C11.6443 15.7655 11.3123 15.4846 11.2578 15.1084L11.251 15.0322L11.2461 14.6611C11.2815 12.8124 12.1658 11.0321 13.6816 10.3213L13.751 10.292C14.6372 9.98035 15.2302 9.15492 15.2539 8.22852L15.251 8.04199C15.2502 8.02801 15.25 8.014 15.25 8C15.25 6.86166 14.1314 5.75 12.5 5.75H11.5C9.86859 5.75 8.75 6.86166 8.75 8C8.75 8.41421 8.41421 8.75 8 8.75C7.58579 8.75 7.25 8.41421 7.25 8C7.25 5.82463 9.26542 4.25 11.5 4.25H12.5Z" fill="#00090A"/>
</svg>
