<svg width="24" height="24" viewBox="0 0 24 24" fill="none" xmlns="http://www.w3.org/2000/svg">
<path d="M12.416 15.624C12.1641 15.792 11.8359 15.792 11.584 15.624L9.09473 13.9648L3.78223 19.2773C3.83411 19.5051 3.94837 19.7159 4.11621 19.8838C4.35063 20.1182 4.66848 20.25 5 20.25H19C19.3315 20.25 19.6494 20.1182 19.8838 19.8838C20.0516 19.716 20.1649 19.505 20.2168 19.2773L14.9043 13.9648L12.416 15.624ZM3.75 17.1894L7.82227 13.1162L3.75 10.4013V17.1894ZM16.1768 13.1162L20.25 17.1894V10.4013L16.1768 13.1162ZM4.35156 8.99998L12 14.0986L19.6475 8.99998L12 3.90135L4.35156 8.99998ZM21.75 19C21.75 19.7293 21.4601 20.4286 20.9443 20.9443C20.4286 21.46 19.7293 21.75 19 21.75H5C4.27065 21.75 3.57139 21.46 3.05566 20.9443C2.53994 20.4286 2.25 19.7293 2.25 19V8.99998C2.25 8.74922 2.37534 8.51506 2.58398 8.37596L11.584 2.37596L11.6816 2.32127C11.9167 2.21093 12.1955 2.22895 12.416 2.37596L21.416 8.37596C21.6247 8.51506 21.75 8.74922 21.75 8.99998V19Z" fill="#00090A"/>
</svg>
