<svg width="24" height="24" viewBox="0 0 24 24" fill="none" xmlns="http://www.w3.org/2000/svg">
<path d="M12.5263 5.41791C12.8209 5.17769 13.2556 5.19512 13.5302 5.46967C13.8048 5.74424 13.8222 6.179 13.582 6.47358L13.5302 6.53022L10.8105 9.24996H15.9999L16.2353 9.25582C17.4093 9.31403 18.5232 9.80642 19.3583 10.6416C20.2491 11.5323 20.7499 12.7402 20.7499 14C20.7499 15.2597 20.2491 16.4676 19.3583 17.3584C18.4676 18.2492 17.2597 18.75 15.9999 18.75H14.9999C14.5857 18.75 14.2499 18.4142 14.2499 18C14.25 17.5858 14.5858 17.25 14.9999 17.25H15.9999C16.8619 17.25 17.6883 16.9073 18.2978 16.2978C18.9072 15.6883 19.2499 14.8619 19.2499 14C19.2499 13.1381 18.9073 12.3116 18.2978 11.7021C17.7264 11.1307 16.9643 10.7937 16.1611 10.7539L15.9999 10.75H10.8105L13.5302 13.4697L13.582 13.5263C13.8223 13.8209 13.8047 14.2556 13.5302 14.5303C13.2556 14.8049 12.8209 14.8223 12.5263 14.582L12.4697 14.5303L8.46966 10.5302C8.43816 10.4987 8.4104 10.4649 8.38567 10.4296C8.35441 10.385 8.32764 10.3371 8.30657 10.2861C8.28597 10.2361 8.27099 10.1844 8.26165 10.1318C8.25407 10.089 8.24993 10.0449 8.24993 9.99996C8.24994 9.95497 8.25405 9.91093 8.26165 9.86812C8.27075 9.81697 8.28485 9.76646 8.30462 9.71773L8.30853 9.70797C8.32903 9.6595 8.35493 9.61387 8.3847 9.57125C8.40959 9.53563 8.43786 9.50148 8.46966 9.46968L12.4697 5.46967L12.5263 5.41791ZM7.5263 5.41791C7.82087 5.17769 8.25563 5.19512 8.53021 5.46967C8.80478 5.74424 8.82219 6.179 8.58196 6.47358L8.53021 6.53022L5.06048 9.99996L8.53021 13.4697L8.58196 13.5263C8.82225 13.8209 8.80473 14.2556 8.53021 14.5303C8.2556 14.8049 7.82088 14.8223 7.5263 14.582L7.46966 14.5303L3.46965 10.5302C3.17679 10.2373 3.17677 9.76257 3.46965 9.46968L7.46966 5.46967L7.5263 5.41791Z" fill="#00090A"/>
</svg>
