<svg width="24" height="24" viewBox="0 0 24 24" fill="none" xmlns="http://www.w3.org/2000/svg">
<path d="M20 2.25C20.9665 2.25001 21.75 3.03351 21.75 4V21C21.75 21.4142 21.4142 21.75 21 21.75H3C2.58579 21.75 2.25001 21.4142 2.25 21V14C2.25 13.8011 2.32908 13.6104 2.46973 13.4697L7.46973 8.46973L7.52637 8.41797C7.66386 8.30582 7.83202 8.24999 8 8.25C8.08488 8.25 8.16906 8.26628 8.25 8.29492V4C8.25 3.0335 9.0335 2.25 10 2.25H20ZM3.75 14.3105V20.25H7.25V17C7.25 16.5858 7.58579 16.25 8 16.25C8.41419 16.25 8.75 16.5858 8.75 17V20.25H12.25V14.3105L8 10.0605L3.75 14.3105ZM10 3.75C9.86193 3.75 9.75 3.86193 9.75 4V9.68945L13.5303 13.4697C13.6709 13.6104 13.75 13.8011 13.75 14V20.25H20.25V4C20.25 3.86193 20.1381 3.75001 20 3.75H10ZM17 14.25C17.4141 14.25 17.7499 14.5859 17.75 15V15.0098C17.75 15.424 17.4142 15.7598 17 15.7598C16.5858 15.7598 16.25 15.424 16.25 15.0098V15C16.2501 14.5859 16.5859 14.25 17 14.25ZM17 10.25C17.4142 10.25 17.75 10.5858 17.75 11V11.0098C17.75 11.424 17.4142 11.7598 17 11.7598C16.5858 11.7598 16.25 11.424 16.25 11.0098V11C16.25 10.5858 16.5858 10.25 17 10.25ZM13 6.25C13.4141 6.25 13.7499 6.5859 13.75 7V7.00977C13.75 7.42398 13.4142 7.75977 13 7.75977C12.5858 7.75977 12.25 7.42398 12.25 7.00977V7C12.2501 6.5859 12.5859 6.25 13 6.25ZM17 6.25C17.4141 6.25 17.7499 6.5859 17.75 7V7.00977C17.75 7.42398 17.4142 7.75977 17 7.75977C16.5858 7.75977 16.25 7.42398 16.25 7.00977V7C16.2501 6.5859 16.5859 6.25 17 6.25Z" fill="#00090A"/>
</svg>
