<svg width="24" height="24" viewBox="0 0 24 24" fill="none" xmlns="http://www.w3.org/2000/svg">
<path d="M15.0591 6.18481C15.4733 6.18481 15.8091 6.5206 15.8091 6.93481C15.8091 7.34903 15.4733 7.68481 15.0591 7.68481H8.94092C8.5267 7.68481 8.19092 7.34903 8.19092 6.93481C8.19092 6.5206 8.5267 6.18481 8.94092 6.18481H15.0591Z" fill="#00090A"/>
<path d="M12.1814 1.26367C12.2983 1.28131 12.4119 1.31601 12.5184 1.36719L12.6717 1.45508L12.8103 1.56641C12.897 1.6466 12.9718 1.73874 13.031 1.84082L13.1082 2.00098L13.1141 2.01758L13.2693 2.43848L14.3621 1.9707C14.3675 1.96825 14.3733 1.96526 14.3787 1.96289V1.96387C14.5752 1.87746 14.7908 1.84584 15.0027 1.87305L15.0955 1.88867L15.1873 1.91211C15.3974 1.97435 15.5867 2.09407 15.7332 2.25879H15.7322C15.8531 2.39382 15.9411 2.55369 15.99 2.72656L16.0262 2.90527L16.035 3.08691C16.0295 3.26028 15.9841 3.43012 15.9051 3.58594L15.907 3.58691C15.4272 4.5614 15.0937 5.60116 14.9168 6.67285L14.9148 6.67188C14.8744 6.94514 14.742 7.19682 14.5359 7.38184C14.322 7.57396 14.0451 7.68187 13.7576 7.68555C13.3434 7.69083 13.0031 7.35851 12.9978 6.94434C12.994 6.62513 13.1907 6.35091 13.4705 6.23926C13.6307 5.35361 13.8847 4.48837 14.2293 3.6582L13.1346 4.12793C12.9456 4.2089 12.7316 4.20912 12.5428 4.12793C12.3539 4.04664 12.2067 3.89116 12.1355 3.69824L11.99 3.30371L11.8211 3.7207C11.7452 3.90753 11.5965 4.05629 11.41 4.13281C11.2235 4.20916 11.014 4.20762 10.8289 4.12793L9.74394 3.66016C10.0883 4.49008 10.3417 5.35489 10.5018 6.24023C10.782 6.35169 10.9793 6.62483 10.9754 6.94434C10.9704 7.33261 10.6714 7.64901 10.2928 7.68262L10.2156 7.68555L10.1092 7.67871C9.86071 7.65305 9.62553 7.54985 9.43827 7.38184C9.23219 7.19678 9.09786 6.94522 9.05741 6.67188V6.67285C8.88051 5.60125 8.54691 4.56133 8.06718 3.58691L8.06913 3.58594C7.96245 3.37576 7.91831 3.13957 7.94706 2.90527L7.9832 2.72656C8.03212 2.55373 8.12022 2.39381 8.24101 2.25879H8.24003C8.40748 2.07047 8.63115 1.94066 8.87773 1.88867L8.97148 1.87305C9.1889 1.84525 9.41066 1.87804 9.61113 1.96973L9.61015 1.9707L10.7185 2.44629L10.9012 2C10.9887 1.77898 11.1401 1.58877 11.3367 1.45508L11.491 1.36719C11.6506 1.29064 11.8262 1.25 12.0047 1.25L12.1814 1.26367Z" fill="#00090A"/>
<path d="M3.38354 15.9465C3.38354 14.7207 3.82632 13.5034 4.43237 12.4026C5.04177 11.2957 5.84511 10.2546 6.63159 9.36646C7.42009 8.47606 8.20666 7.72394 8.79468 7.19458C9.0892 6.92944 9.33499 6.71837 9.50854 6.57349C9.59527 6.5011 9.66403 6.44502 9.71167 6.4065C9.73547 6.38725 9.7544 6.37286 9.76733 6.36255C9.77379 6.35741 9.77838 6.35271 9.78198 6.34986C9.78379 6.34843 9.78579 6.34777 9.78687 6.34693L9.78882 6.34497C10.1145 6.08919 10.5857 6.14627 10.8416 6.47193C11.0973 6.79761 11.0412 7.26879 10.7156 7.52466C10.7152 7.52499 10.7138 7.52572 10.7126 7.52662C10.7104 7.52843 10.7068 7.53148 10.7019 7.5354C10.6917 7.54354 10.676 7.55655 10.655 7.57349C10.6131 7.60741 10.5499 7.65873 10.4695 7.72583C10.3085 7.86026 10.0764 8.05785 9.79761 8.30884C9.23849 8.81219 8.49566 9.52475 7.75464 10.3616C7.01163 11.2006 6.28461 12.1494 5.74683 13.1262C5.20566 14.1092 4.88354 15.0703 4.88354 15.9465C4.88356 17.8796 5.64165 19.0969 6.83569 19.8694C8.08128 20.6751 9.87906 21.0441 11.9998 21.0442C14.1226 21.0442 15.9207 20.6816 17.1658 19.8792C18.3578 19.1107 19.1169 17.8941 19.1169 15.9465C19.1169 15.0703 18.7948 14.1092 18.2537 13.1262C17.7159 12.1494 16.9889 11.2006 16.2458 10.3616C15.5049 9.52479 14.762 8.81218 14.2029 8.30884C13.9241 8.05788 13.692 7.86026 13.531 7.72583C13.4507 7.65876 13.3874 7.60741 13.3455 7.57349C13.3246 7.55659 13.3088 7.54354 13.2986 7.5354C13.2937 7.53152 13.2901 7.52843 13.2878 7.52662L13.2849 7.52466C13.2851 7.52457 13.293 7.51494 13.7488 6.93482C14.1953 6.36654 14.2109 6.34559 14.2117 6.34497L14.2136 6.34693C14.2147 6.34777 14.2167 6.34843 14.2185 6.34986C14.2221 6.35271 14.2267 6.35745 14.2332 6.36255C14.2461 6.37286 14.2651 6.38728 14.2888 6.4065C14.3365 6.44503 14.4052 6.50109 14.4919 6.57349C14.6655 6.71838 14.9113 6.92942 15.2058 7.19458C15.7938 7.72395 16.5804 8.47603 17.3689 9.36646C18.1554 10.2546 18.9587 11.2957 19.5681 12.4026C20.1742 13.5034 20.6169 14.7207 20.6169 15.9465C20.6169 18.3693 19.6269 20.0771 17.9783 21.1399C16.3826 22.1683 14.2469 22.5442 11.9998 22.5442C9.75052 22.5441 7.61522 22.161 6.02026 21.1292C4.3737 20.0639 3.38356 18.3574 3.38354 15.9465ZM13.1589 6.47193C13.4148 6.14625 13.886 6.08913 14.2117 6.34497L13.2849 7.52466C12.9593 7.26879 12.9031 6.79763 13.1589 6.47193Z" fill="#00090A"/>
<path d="M13.8496 16.2393C13.8496 15.7921 13.4872 15.4288 13.04 15.4287H10.96C9.6844 15.4286 8.65039 14.3947 8.65039 13.1191C8.65049 11.8436 9.68447 10.8097 10.96 10.8096H13.04L13.0723 10.8105C14.0146 10.8513 14.8379 11.461 15.1514 12.3506C15.2886 12.741 15.0836 13.1689 14.6934 13.3066C14.3027 13.4443 13.874 13.2393 13.7363 12.8486C13.6273 12.5394 13.3426 12.327 13.0156 12.3096H10.96C10.5129 12.3097 10.1505 12.6721 10.1504 13.1191C10.1504 13.5663 10.5128 13.9286 10.96 13.9287H13.04C14.3156 13.9288 15.3496 14.9637 15.3496 16.2393C15.3494 17.5146 14.3154 18.5487 13.04 18.5488H10.96C10.9492 18.5488 10.9384 18.5483 10.9277 18.5479C9.98543 18.5071 9.16215 17.8974 8.84863 17.0078L10.2637 16.5098C10.3736 16.8214 10.6621 17.0344 10.9922 17.0488H13.04C13.487 17.0487 13.8494 16.6862 13.8496 16.2393ZM9.30664 16.0518C9.6973 15.9141 10.126 16.1191 10.2637 16.5098L8.84863 17.0078C8.71125 16.6174 8.91641 16.1896 9.30664 16.0518Z" fill="#00090A"/>
<path d="M11.25 19.3584V17.7988C11.25 17.3847 11.5859 17.0489 12 17.0488C12.4142 17.0488 12.75 17.3846 12.75 17.7988V19.3584C12.75 19.7726 12.4142 20.1084 12 20.1084C11.5859 20.1083 11.25 19.7725 11.25 19.3584ZM11.25 11.5596V10C11.25 9.58586 11.5859 9.25012 12 9.25C12.4142 9.25 12.75 9.58579 12.75 10V11.5596C12.75 11.9738 12.4142 12.3096 12 12.3096C11.5859 12.3095 11.25 11.9737 11.25 11.5596Z" fill="#00090A"/>
</svg>
