<svg width="24" height="24" viewBox="0 0 24 24" fill="none" xmlns="http://www.w3.org/2000/svg">
<path fill-rule="evenodd" clip-rule="evenodd" d="M6.25 20C6.25 19.5858 6.58579 19.25 7 19.25H17C17.4142 19.25 17.75 19.5858 17.75 20C17.75 20.4142 17.4142 20.75 17 20.75H7C6.58579 20.75 6.25 20.4142 6.25 20Z" fill="#00090A"/>
<path fill-rule="evenodd" clip-rule="evenodd" d="M11.8768 4.2602C11.9585 4.2466 12.0418 4.2466 12.1234 4.2602L18.1234 5.2602C18.532 5.3283 18.808 5.71472 18.7399 6.1233C18.6718 6.53188 18.2854 6.80789 17.8768 6.7398L12.0001 5.76035L6.12342 6.7398C5.71484 6.80789 5.32842 6.53188 5.26032 6.1233C5.19223 5.71472 5.46824 5.3283 5.87682 5.2602L11.8768 4.2602Z" fill="#00090A"/>
<path fill-rule="evenodd" clip-rule="evenodd" d="M12 2.25C12.4142 2.25 12.75 2.58579 12.75 3V20C12.75 20.4142 12.4142 20.75 12 20.75C11.5858 20.75 11.25 20.4142 11.25 20V3C11.25 2.58579 11.5858 2.25 12 2.25Z" fill="#00090A"/>
<path fill-rule="evenodd" clip-rule="evenodd" d="M6 5.25C6.28408 5.25 6.54378 5.4105 6.67082 5.66459L9.66407 11.6511C9.69312 11.7063 9.71549 11.7655 9.73012 11.8277C9.74497 11.8904 9.75142 11.9539 9.74996 12.0167C9.74094 14.0801 8.06548 15.75 6 15.75C3.92893 15.75 2.25 14.0711 2.25 12C2.25 11.8836 2.27711 11.7687 2.32918 11.6646L5.32918 5.66459C5.45622 5.4105 5.71592 5.25 6 5.25ZM8.24403 12.1651L6 7.67705L3.75597 12.1651C3.84051 13.3307 4.81289 14.25 6 14.25C7.18711 14.25 8.15949 13.3307 8.24403 12.1651Z" fill="#00090A"/>
<path fill-rule="evenodd" clip-rule="evenodd" d="M18 5.25C18.2841 5.25 18.5438 5.4105 18.6708 5.66459L21.6641 11.6511C21.6931 11.7063 21.7155 11.7655 21.7301 11.8277C21.745 11.8904 21.7514 11.9539 21.75 12.0167C21.7409 14.0801 20.0655 15.75 18 15.75C15.9289 15.75 14.25 14.0711 14.25 12C14.25 11.8836 14.2771 11.7687 14.3292 11.6646L17.3292 5.66459C17.4562 5.4105 17.7159 5.25 18 5.25ZM20.244 12.1651L18 7.67705L15.756 12.1651C15.8405 13.3307 16.8129 14.25 18 14.25C19.1871 14.25 20.1595 13.3307 20.244 12.1651Z" fill="#00090A"/>
</svg>
