<svg width="24" height="24" viewBox="0 0 24 24" fill="none" xmlns="http://www.w3.org/2000/svg">
<path fill-rule="evenodd" clip-rule="evenodd" d="M12.3432 3.33325C12.3284 3.32564 12.3134 3.31853 12.2981 3.31193C12.2013 3.26991 12.1 3.24992 12 3.25C11.9 3.24992 11.7987 3.26991 11.7019 3.31194C11.6866 3.31854 11.6716 3.32564 11.6568 3.33325L3.66459 7.32934C3.4105 7.45639 3.25 7.71609 3.25 8.00016C3.25 8.28424 3.4105 8.54394 3.66459 8.67098L11.6646 12.671C11.8757 12.7766 12.1243 12.7766 12.3354 12.671L20.3354 8.67098C20.5895 8.54394 20.75 8.28424 20.75 8.00016C20.75 7.71609 20.5895 7.45639 20.3354 7.32934L12.3432 3.33325ZM12 4.83869L5.67705 8.00016L12 11.1616L18.3229 8.00016L12 4.83869Z" fill="#00090A"/>
<path d="M3.3291 11.6648C3.51434 11.2943 3.96485 11.1441 4.33533 11.3293L11.9999 15.1616L19.6645 11.3293C20.035 11.1441 20.4855 11.2943 20.6707 11.6648C20.856 12.0352 20.7058 12.4857 20.3353 12.671L12.3353 16.671C12.1242 16.7766 11.8757 16.7766 11.6645 16.671L3.66451 12.671C3.29403 12.4857 3.14386 12.0352 3.3291 11.6648Z" fill="#00090A"/>
<path d="M4.33533 15.3293C3.96485 15.1441 3.51434 15.2943 3.3291 15.6648C3.14386 16.0352 3.29403 16.4857 3.66451 16.671L11.6645 20.671C11.8757 20.7766 12.1242 20.7766 12.3353 20.671L20.3353 16.671C20.7058 16.4857 20.856 16.0352 20.6707 15.6648C20.4855 15.2943 20.035 15.1441 19.6645 15.3293L11.9999 19.1616L4.33533 15.3293Z" fill="#00090A"/>
</svg>
