<svg width="24" height="24" viewBox="0 0 24 24" fill="none" xmlns="http://www.w3.org/2000/svg">
<path d="M12.0771 2.25684C12.0952 2.2587 12.1129 2.26147 12.1308 2.26465C12.1592 2.26968 12.1871 2.27588 12.2148 2.28418C12.2354 2.29033 12.2553 2.2977 12.2754 2.30566C12.301 2.3158 12.326 2.32681 12.3506 2.33984C12.3827 2.35694 12.4143 2.37529 12.4443 2.39746C12.4549 2.4053 12.4653 2.41341 12.4756 2.42188L12.4971 2.43848L12.915 2.79102C15.0441 4.49765 17.7276 5.37628 20.4658 5.25098L20.5928 5.25586C20.8849 5.2922 21.1343 5.49811 21.2197 5.78809C22.1934 9.10031 21.782 12.6662 20.0801 15.6699C18.378 18.6736 15.5302 20.8587 12.1885 21.7256C12.065 21.7576 11.935 21.7576 11.8115 21.7256C8.46962 20.8587 5.62203 18.6737 3.91991 15.6699C2.2179 12.6662 1.80657 9.10036 2.78026 5.78809L2.82616 5.66992C2.95564 5.40534 3.23201 5.23715 3.53416 5.25098C6.45492 5.38462 9.31309 4.37584 11.5029 2.43848C11.5127 2.42985 11.5231 2.42209 11.5332 2.41406C11.5394 2.40913 11.5454 2.40413 11.5517 2.39941C11.5832 2.37592 11.6166 2.35676 11.6504 2.33887C11.6743 2.32624 11.6987 2.31555 11.7236 2.30566C11.7431 2.29792 11.7623 2.29022 11.7822 2.28418C11.8101 2.27572 11.8386 2.27077 11.8672 2.26563C11.8855 2.26234 11.9034 2.25875 11.9219 2.25684C11.9476 2.25414 11.9731 2.25297 11.999 2.25293C12.0252 2.25291 12.0511 2.25413 12.0771 2.25684ZM11.999 3.97754C9.74717 5.77431 6.95293 6.75665 4.07127 6.76172C3.40875 9.52518 3.81669 12.446 5.22459 14.9307C6.69427 17.5242 9.13303 19.4227 12 20.2197C14.8668 19.4226 17.3048 17.5241 18.7744 14.9307C20.1825 12.4458 20.5894 9.52538 19.9267 6.76172C17.0452 6.75627 14.2506 5.77448 11.999 3.97754Z" fill="#00090A"/>
</svg>
