<svg width="24" height="24" viewBox="0 0 24 24" fill="none" xmlns="http://www.w3.org/2000/svg">
<path fill-rule="evenodd" clip-rule="evenodd" d="M15.5303 9.46967C15.8232 9.76256 15.8232 10.2374 15.5303 10.5303L11.5303 14.5303C11.2374 14.8232 10.7626 14.8232 10.4697 14.5303L8.46967 12.5303C8.17678 12.2374 8.17678 11.7626 8.46967 11.4697C8.76256 11.1768 9.23744 11.1768 9.53033 11.4697L11 12.9393L14.4697 9.46967C14.7626 9.17678 15.2374 9.17678 15.5303 9.46967Z" fill="#00090A"/>
<path fill-rule="evenodd" clip-rule="evenodd" d="M12.5041 2.44459C12.4487 2.39417 12.3872 2.35343 12.3221 2.3225C12.2202 2.27395 12.1099 2.24996 12 2.25C11.89 2.24996 11.7798 2.27395 11.6778 2.32251C11.6127 2.35343 11.5513 2.39417 11.4959 2.44459C9.30698 4.37789 6.45191 5.3843 3.53427 5.25079C3.18914 5.235 2.87787 5.45702 2.78043 5.78848C1.80671 9.10086 2.21792 12.6665 3.92006 15.6703C5.6222 18.6741 8.46974 20.8592 11.8117 21.726C11.9352 21.758 12.0648 21.758 12.1883 21.726C15.5302 20.8592 18.3778 18.6741 20.0799 15.6703C21.782 12.6665 22.1933 9.10086 21.2195 5.78848C21.1221 5.45702 20.8108 5.235 20.4657 5.25079C17.5481 5.3843 14.693 4.37789 12.5041 2.44459ZM12 3.97936C9.74852 5.77569 6.95369 6.7572 4.07261 6.76254C3.41023 9.52595 3.81717 12.4462 5.2251 14.9308C6.69491 17.5246 9.13267 19.4265 12 20.2234C14.8673 19.4265 17.3051 17.5246 18.7749 14.9308C20.1828 12.4462 20.5897 9.52595 19.9274 6.76254C17.0463 6.7572 14.2515 5.77569 12 3.97936Z" fill="#00090A"/>
</svg>
