<svg width="24" height="24" viewBox="0 0 24 24" fill="none" xmlns="http://www.w3.org/2000/svg">
<path d="M12 3.24988C12.2225 3.24988 12.4336 3.34853 12.5761 3.51941L17.5761 9.51941L17.622 9.58093C17.8348 9.89601 17.7787 10.3274 17.4804 10.576C17.182 10.8248 16.7471 10.8023 16.4755 10.536L16.4238 10.4803L12 5.17175L7.57613 10.4803C7.31093 10.7984 6.83763 10.8412 6.51949 10.576C6.20146 10.3108 6.15867 9.83755 6.42379 9.51941L11.4238 3.51941L11.4804 3.45886C11.6193 3.32547 11.8053 3.24988 12 3.24988Z" fill="#00090A"/>
<path d="M21.0001 9.25012L21.086 9.255C21.2843 9.27785 21.4666 9.37916 21.5909 9.53821C21.7153 9.69754 21.7702 9.89969 21.7442 10.0978L21.7276 10.1818L19.7276 18.1818C19.4762 19.5737 18.4269 20.7744 17.0001 20.7491V20.7501H7.00009V20.7491C5.57332 20.7744 4.52401 19.5737 4.27255 18.1818L2.27255 10.1818C2.21663 9.95777 2.26719 9.72018 2.40927 9.53821C2.55141 9.3564 2.7693 9.25012 3.00009 9.25012H21.0001ZM5.72763 17.8185L5.74032 17.879L5.7745 18.0499C5.97019 18.8744 6.5374 19.2613 6.98153 19.2501H17.0186L17.1095 19.2472C17.5677 19.205 18.1159 18.7617 18.2599 17.879L18.2726 17.8185L20.0401 10.7501H3.96005L5.72763 17.8185Z" fill="#00090A"/>
<path d="M13.2501 14.9999C13.2501 14.3095 12.6905 13.7499 12.0001 13.7499C11.3098 13.7499 10.7501 14.3095 10.7501 14.9999C10.7501 15.6902 11.3098 16.2499 12.0001 16.2499C12.6905 16.2499 13.2501 15.6902 13.2501 14.9999ZM14.7501 14.9999C14.7501 16.5187 13.5189 17.7499 12.0001 17.7499C10.4813 17.7499 9.25012 16.5187 9.25012 14.9999C9.25012 13.4811 10.4813 12.2499 12.0001 12.2499C13.5189 12.2499 14.7501 13.4811 14.7501 14.9999Z" fill="#00090A"/>
</svg>
