<svg width="24" height="24" viewBox="0 0 24 24" fill="none" xmlns="http://www.w3.org/2000/svg">
<path fill-rule="evenodd" clip-rule="evenodd" d="M6.064 2.55358C6.20545 2.36262 6.42903 2.25 6.66667 2.25H17.3333C17.571 2.25 17.7946 2.36262 17.936 2.55358L20.6027 6.15358C20.6984 6.28275 20.75 6.43925 20.75 6.6V19.2C20.75 19.8733 20.4859 20.5209 20.0129 20.9998C19.5396 21.479 18.8957 21.75 18.2222 21.75H5.77778C5.10434 21.75 4.4604 21.479 3.98709 20.9998C3.51408 20.5209 3.25 19.8733 3.25 19.2V6.6C3.25 6.43925 3.30165 6.28275 3.39733 6.15358L6.064 2.55358ZM7.04446 3.75L4.75 6.84752V19.2C4.75 19.4815 4.86052 19.7495 5.05431 19.9458C5.2478 20.1417 5.50822 20.25 5.77778 20.25H18.2222C18.4918 20.25 18.7522 20.1417 18.9457 19.9458C19.1395 19.7495 19.25 19.4815 19.25 19.2V6.84752L16.9555 3.75H7.04446Z" fill="#00090A"/>
<path fill-rule="evenodd" clip-rule="evenodd" d="M3.25 7C3.25 6.58579 3.58579 6.25 4 6.25H20C20.4142 6.25 20.75 6.58579 20.75 7C20.75 7.41421 20.4142 7.75 20 7.75H4C3.58579 7.75 3.25 7.41421 3.25 7Z" fill="#00090A"/>
<path fill-rule="evenodd" clip-rule="evenodd" d="M8 10.25C8.41421 10.25 8.75 10.5858 8.75 11C8.75 11.862 9.09241 12.6886 9.7019 13.2981C10.3114 13.9076 11.138 14.25 12 14.25C12.862 14.25 13.6886 13.9076 14.2981 13.2981C14.9076 12.6886 15.25 11.862 15.25 11C15.25 10.5858 15.5858 10.25 16 10.25C16.4142 10.25 16.75 10.5858 16.75 11C16.75 12.2598 16.2496 13.468 15.3588 14.3588C14.468 15.2496 13.2598 15.75 12 15.75C10.7402 15.75 9.53204 15.2496 8.64124 14.3588C7.75044 13.468 7.25 12.2598 7.25 11C7.25 10.5858 7.58579 10.25 8 10.25Z" fill="#00090A"/>
</svg>
