<svg width="24" height="24" viewBox="0 0 24 24" fill="none" xmlns="http://www.w3.org/2000/svg">
<path d="M19.2719 6.05371C20.7905 6.05391 22.0219 7.28505 22.0219 8.80371V10.166C21.8461 10.0845 21.6556 10.0292 21.4545 10.0088L21.2719 10H18.0316L17.8304 10.0049C15.7639 10.1094 14.1205 11.8186 14.1205 13.9111L14.1254 14.1123C14.2269 16.112 15.8307 17.7153 17.8304 17.8164L18.0316 17.8213H21.2719L21.4545 17.8125C21.6555 17.7921 21.8461 17.7368 22.0219 17.6553V18.6416C22.0217 20.1602 20.7904 21.3914 19.2719 21.3916H4.50037C2.98164 21.3916 1.75047 20.1603 1.75037 18.6416V8.80371C1.75037 7.28493 2.98158 6.05371 4.50037 6.05371H19.2719Z" fill="#00090A"/>
<path d="M21.2715 11.5C21.4303 11.5002 21.5586 11.6293 21.5586 11.7881V16.0342C21.5583 16.1928 21.4301 16.3211 21.2715 16.3213H18.0312C16.7001 16.3211 15.6203 15.2422 15.6201 13.9111C15.6201 12.5798 16.7 11.5002 18.0312 11.5H21.2715ZM18.4727 13C17.9204 13 17.4727 13.4477 17.4727 14C17.4727 14.5523 17.9204 15 18.4727 15C19.0247 14.9997 19.4727 14.5521 19.4727 14C19.4727 13.4479 19.0247 13.0003 18.4727 13Z" fill="#00090A"/>
<path d="M14.2773 2.30335C14.7488 2.07386 15.292 2.03804 15.7891 2.20472C16.2863 2.37158 16.6989 2.72739 16.9365 3.19495L18.0967 5.05335H7.83691L14.2773 2.30335Z" fill="#00090A"/>
</svg>
