<svg width="24" height="24" viewBox="0 0 24 24" fill="none" xmlns="http://www.w3.org/2000/svg">
<path d="M19 13.25C19.4142 13.25 19.75 13.5858 19.75 14V14.25H21C21.4142 14.25 21.75 14.5858 21.75 15C21.75 15.4142 21.4142 15.75 21 15.75H18.5C18.3012 15.75 18.1107 15.8292 17.9688 15.9707C17.8293 16.1106 17.75 16.3009 17.75 16.5C17.75 16.6983 17.8289 16.8884 17.9697 17.0303L18.083 17.124C18.2052 17.2055 18.3503 17.25 18.5 17.25H19.5C20.0972 17.25 20.6688 17.4877 21.0908 17.9082H21.0918L21.2412 18.0742C21.5689 18.4746 21.75 18.9783 21.75 19.5C21.75 20.0972 21.5123 20.6688 21.0918 21.0908V21.0918C20.7292 21.4544 20.2547 21.6781 19.75 21.7344V22C19.75 22.4142 19.4142 22.75 19 22.75C18.5858 22.75 18.25 22.4142 18.25 22V21.75H17C16.5858 21.75 16.25 21.4142 16.25 21C16.25 20.5858 16.5858 20.25 17 20.25H19.5C19.6995 20.25 19.8902 20.1703 20.0303 20.0303C20.1712 19.8884 20.25 19.6983 20.25 19.5C20.25 19.3009 20.1707 19.1106 20.0312 18.9707L19.917 18.876C19.7941 18.7941 19.6492 18.75 19.5 18.75H18.5C17.9035 18.75 17.3302 18.5138 16.9082 18.0918V18.0908C16.4877 17.6688 16.25 17.0972 16.25 16.5C16.25 15.9035 16.4862 15.3302 16.9082 14.9082H16.9092L17.0742 14.7588C17.4101 14.4841 17.8185 14.3138 18.25 14.2656V14C18.25 13.5858 18.5858 13.25 19 13.25ZM14 1.25C14.7291 1.25 15.4288 1.54017 15.9443 2.05566C16.4598 2.57116 16.75 3.27086 16.75 4V6.25H18C18.7291 6.25 19.4288 6.54017 19.9443 7.05566C20.4598 7.57116 20.75 8.27086 20.75 9V10.1201C20.7499 10.5343 20.4142 10.8701 20 10.8701C19.5858 10.8701 19.2501 10.5343 19.25 10.1201V9C19.25 8.66914 19.1183 8.35072 18.8838 8.11621C18.6493 7.8817 18.3309 7.75 18 7.75H16.75V9.25H17C17.4142 9.25 17.75 9.58579 17.75 10C17.75 10.4142 17.4142 10.75 17 10.75H7C6.58579 10.75 6.25 10.4142 6.25 10C6.25 9.58579 6.58579 9.25 7 9.25H7.25V7.75H6C5.66914 7.75 5.35072 7.8817 5.11621 8.11621C4.8817 8.35072 4.75 8.66914 4.75 9V19C4.75 19.3309 4.8817 19.6493 5.11621 19.8838C5.35072 20.1183 5.66914 20.25 6 20.25H13C13.4142 20.25 13.75 20.5858 13.75 21C13.75 21.4142 13.4142 21.75 13 21.75H6C5.27086 21.75 4.57116 21.4598 4.05566 20.9443C3.54017 20.4288 3.25 19.7291 3.25 19V9C3.25 8.27086 3.54017 7.57116 4.05566 7.05566C4.57116 6.54017 5.27086 6.25 6 6.25H7.25V4C7.25 3.27086 7.54017 2.57116 8.05566 2.05566C8.57116 1.54017 9.27086 1.25 10 1.25H14ZM8 16.25C8.41421 16.25 8.75 16.5858 8.75 17V17.0098C8.75 17.424 8.41421 17.7598 8 17.7598C7.58579 17.7598 7.25 17.424 7.25 17.0098V17C7.25 16.5858 7.58579 16.25 8 16.25ZM12 16.25C12.4142 16.25 12.75 16.5858 12.75 17V17.0098C12.75 17.424 12.4142 17.7598 12 17.7598C11.5858 17.7598 11.25 17.424 11.25 17.0098V17C11.25 16.5858 11.5858 16.25 12 16.25ZM8 13.25C8.41421 13.25 8.75 13.5858 8.75 14V14.0098C8.75 14.424 8.41421 14.7598 8 14.7598C7.58579 14.7598 7.25 14.424 7.25 14.0098V14C7.25 13.5858 7.58579 13.25 8 13.25ZM12 13.2402C12.4142 13.2402 12.75 13.576 12.75 13.9902V14C12.7499 14.4141 12.4141 14.75 12 14.75C11.5859 14.75 11.2501 14.4141 11.25 14V13.9902C11.25 13.576 11.5858 13.2402 12 13.2402ZM10 2.75C9.66914 2.75 9.35072 2.8817 9.11621 3.11621C8.8817 3.35072 8.75 3.66914 8.75 4V9.25H15.25V4C15.25 3.66914 15.1183 3.35072 14.8838 3.11621C14.6493 2.8817 14.3309 2.75 14 2.75H10Z" fill="#00090A"/>
</svg>
