<svg width="24" height="24" viewBox="0 0 24 24" fill="none" xmlns="http://www.w3.org/2000/svg">
<path d="M3.6979 10.2441C3.63041 10.5835 3.66511 10.9362 3.79751 11.2559C3.92994 11.5755 4.1544 11.8488 4.44204 12.041C4.72973 12.2333 5.06869 12.3359 5.41469 12.3359L8.25063 12.3359L8.25063 17.5859C8.25071 18.0001 8.58647 18.3359 9.00063 18.3359L15.0006 18.3359C15.4146 18.3357 15.7506 17.9999 15.7506 17.5859L15.7506 12.3359L18.5866 12.3359L18.7165 12.3311C19.0165 12.3086 19.3068 12.2089 19.5582 12.041C19.8457 11.8488 20.0704 11.5752 20.2028 11.2559C20.3351 10.9362 20.3699 10.5834 20.3024 10.2441C20.2433 9.94733 20.1084 9.67151 19.9118 9.44336L19.8239 9.34863L13.2379 2.7627C12.9099 2.43474 12.4645 2.25014 12.0006 2.25C11.5367 2.25 11.0915 2.43481 10.7633 2.7627L4.17739 9.34863L4.0895 9.44336C3.89279 9.67154 3.75703 9.94725 3.6979 10.2441ZM5.16958 10.5371C5.17441 10.513 5.1825 10.4893 5.19399 10.4678L5.23794 10.4092L11.8239 3.82324C11.8707 3.7766 11.9345 3.75 12.0006 3.75C12.0667 3.75014 12.1306 3.7765 12.1774 3.82324L18.7633 10.4092L18.8063 10.4678C18.8179 10.4894 18.8268 10.5128 18.8317 10.5371C18.8413 10.5854 18.8358 10.6361 18.817 10.6816C18.7982 10.7271 18.7661 10.7665 18.7252 10.7939C18.7048 10.8076 18.6821 10.8181 18.6588 10.8252L18.5866 10.8359L15.0006 10.8359C14.5865 10.8359 14.2508 11.1718 14.2506 11.5859L14.2506 16.8359L9.75063 16.8359L9.75063 11.5859C9.7505 11.172 9.41453 10.8362 9.00063 10.8359L5.41469 10.8359L5.34243 10.8252C5.31907 10.8181 5.29656 10.8076 5.27602 10.7939C5.23492 10.7665 5.20217 10.7273 5.18325 10.6816C5.16437 10.636 5.15996 10.5855 5.16958 10.5371ZM8.24965 20.5859C8.24965 21 8.58561 21.3357 8.99965 21.3359L14.9997 21.3359C15.4139 21.3359 15.7497 21.0002 15.7497 20.5859C15.7497 20.1717 15.4139 19.8359 14.9997 19.8359L8.99965 19.8359C8.58561 19.8361 8.24965 20.1718 8.24965 20.5859Z" fill="#00090A"/>
</svg>
