<svg width="24" height="24" viewBox="0 0 24 24" fill="none" xmlns="http://www.w3.org/2000/svg">
<path d="M20.4697 6.46967C20.7626 6.17678 21.2373 6.17678 21.5302 6.46967C21.8231 6.76256 21.8231 7.23732 21.5302 7.53022L13.5302 15.5302C13.2373 15.8231 12.7626 15.8231 12.4697 15.5302L8.99994 12.0605L3.53022 17.5302C3.23732 17.8231 2.76256 17.8231 2.46967 17.5302C2.17678 17.2373 2.17678 16.7626 2.46967 16.4697L8.46967 10.4697L8.52631 10.4179C8.82089 10.1776 9.25561 10.1951 9.53022 10.4697L12.9999 13.9394L20.4697 6.46967Z" fill="#00090A"/>
<path d="M20.25 14V7.75H14C13.5858 7.75 13.25 7.41421 13.25 7C13.25 6.58579 13.5858 6.25 14 6.25H21C21.4142 6.25 21.75 6.58579 21.75 7V14C21.75 14.4142 21.4142 14.75 21 14.75C20.5858 14.75 20.25 14.4142 20.25 14Z" fill="#00090A"/>
</svg>
