<svg width="24" height="24" viewBox="0 0 24 24" fill="none" xmlns="http://www.w3.org/2000/svg">
<path fill-rule="evenodd" clip-rule="evenodd" d="M7.24805 7.00171C7.24805 4.37836 9.3747 2.25171 11.998 2.25171C14.6214 2.25171 16.748 4.37836 16.748 7.00171C16.748 9.62506 14.6214 11.7517 11.998 11.7517C9.3747 11.7517 7.24805 9.62506 7.24805 7.00171ZM11.8694 13.7517C11.9142 13.7518 11.9571 13.7518 11.998 13.7518C12.039 13.7518 12.0819 13.7518 12.1267 13.7517C13.1535 13.7507 15.1618 13.7486 16.9502 14.2493C17.8874 14.5117 18.83 14.9288 19.5469 15.6125C20.2862 16.3176 20.748 17.2726 20.748 18.5018C20.748 20.2968 19.293 21.7518 17.498 21.7518H6.49805C4.70312 21.7518 3.24805 20.2968 3.24805 18.5018C3.24805 17.2726 3.70995 16.3176 4.44917 15.6125C5.16609 14.9288 6.10872 14.5117 7.04586 14.2493C8.83429 13.7486 10.8426 13.7507 11.8694 13.7517Z" fill="#00090A"/>
</svg>
