<svg width="24" height="24" viewBox="0 0 24 24" fill="none" xmlns="http://www.w3.org/2000/svg">
<path fill-rule="evenodd" clip-rule="evenodd" d="M18.5303 2.46967C18.2374 2.17678 17.7626 2.17678 17.4697 2.46967L14.47 5.46937L2.46967 17.4697C2.17678 17.7626 2.17678 18.2374 2.46967 18.5303L5.46967 21.5303C5.76256 21.8232 6.23744 21.8232 6.53033 21.5303L21.5303 6.53033C21.8232 6.23744 21.8232 5.76256 21.5303 5.46967L18.5303 2.46967ZM18 7.93934L19.9393 6L18 4.06066L16.0607 6L18 7.93934ZM15 7.06066L16.9393 9L6 19.9393L4.06066 18L15 7.06066Z" fill="#00090A"/>
<path fill-rule="evenodd" clip-rule="evenodd" d="M9 2.25C9.41421 2.25 9.75 2.58579 9.75 3C9.75 3.69036 10.3096 4.25 11 4.25C11.4142 4.25 11.75 4.58579 11.75 5C11.75 5.41421 11.4142 5.75 11 5.75C10.3096 5.75 9.75 6.30964 9.75 7C9.75 7.41421 9.41421 7.75 9 7.75C8.58579 7.75 8.25 7.41421 8.25 7C8.25 6.30964 7.69036 5.75 7 5.75C6.58579 5.75 6.25 5.41421 6.25 5C6.25 4.58579 6.58579 4.25 7 4.25C7.69036 4.25 8.25 3.69036 8.25 3C8.25 2.58579 8.58579 2.25 9 2.25ZM9 4.88747C8.96358 4.92605 8.92605 4.96358 8.88747 5C8.92605 5.03642 8.96358 5.07395 9 5.11253C9.03642 5.07395 9.07395 5.03642 9.11253 5C9.07395 4.96358 9.03642 4.92605 9 4.88747Z" fill="#00090A"/>
<path fill-rule="evenodd" clip-rule="evenodd" d="M19 12.25C19.4142 12.25 19.75 12.5858 19.75 13C19.75 13.6904 20.3096 14.25 21 14.25C21.4142 14.25 21.75 14.5858 21.75 15C21.75 15.4142 21.4142 15.75 21 15.75C20.3096 15.75 19.75 16.3096 19.75 17C19.75 17.4142 19.4142 17.75 19 17.75C18.5858 17.75 18.25 17.4142 18.25 17C18.25 16.3096 17.6904 15.75 17 15.75C16.5858 15.75 16.25 15.4142 16.25 15C16.25 14.5858 16.5858 14.25 17 14.25C17.6904 14.25 18.25 13.6904 18.25 13C18.25 12.5858 18.5858 12.25 19 12.25ZM19 14.8875C18.9636 14.9261 18.926 14.9636 18.8875 15C18.926 15.0364 18.9636 15.0739 19 15.1125C19.0364 15.0739 19.074 15.0364 19.1125 15C19.074 14.9636 19.0364 14.9261 19 14.8875Z" fill="#00090A"/>
</svg>
